<?xml version="1.0" encoding="UTF-8"?>
<svg xmlns="http://www.w3.org/2000/svg" onmouseup="{ if(window.parent.document.onmouseup) window.parent.document.onmouseup(arguments[0]);}" xml:space="preserve" style="enable-background:new 0 0 140.1 140.1;" viewBox="0 0 140.1 140.1" y="0px" x="0px" id="Capa_1" version="1.1" xmlns:xlink="http://www.w3.org/1999/xlink">
<style type="text/css">
	.st0{stroke:#000000;stroke-miterlimit:10;}
</style>
<g>
	<path class="st0" d="M138.6,56.1c-0.3-0.2-0.8-0.5-1.6-1c-6.7-4.5-27-18.2-45.2-18.2c-1,0-2.1,0-3.1,0.1   c-8.3,0.9-12.5,2.9-18.6,6.1C64,40,59.8,37.9,51.4,37C32.6,35.3,10.2,50.3,3.1,55.1c-0.7,0.5-1.3,0.9-1.6,1.1   c-0.8,0.3-1.5,1.1-1.5,2c-0.2,2.9,20.7,41.9,47.9,44.7c9.9,1,14.8-0.6,22.2-3.9c6,2.6,10.3,4.2,16.9,4.2c1.6,0,3.3-0.1,5.3-0.3   c27.2-2.8,48-41.8,47.9-44.7C140,57.2,139.4,56.5,138.6,56.1z M72.3,84.9V73.7c4-0.1,8-0.2,12-0.6v10.4   C80.4,84.3,76.5,84.8,72.3,84.9z M127.1,60.2c-7.2,2.2-14.4,4.1-21.6,5.5v-6C114.2,59.8,121.6,60,127.1,60.2z M100.9,66.5   c-4,0.7-8,1.2-12,1.6v-8.8c4.2,0.1,8.2,0.1,12,0.2V66.5z M84.3,68.5c-4,0.3-8,0.5-12,0.6v-9.9c4.1,0,8.1,0,12,0.1V68.5z M67.7,69.1   c-4,0-8-0.2-12-0.5v-9.3c3.9,0,7.9-0.1,12-0.1V69.1z M51.2,68.2c-4-0.4-8-0.9-12-1.6v-7.1c3.8-0.1,7.8-0.1,12-0.2V68.2z M34.6,65.8   c-7.3-1.4-14.6-3.3-21.8-5.6c5.5-0.2,13-0.4,21.8-0.6V65.8z M34.6,70.5v6c-7.1-3.3-13.3-7-18.1-10.4C22.4,67.8,28.5,69.3,34.6,70.5   z M39.2,71.3c4,0.7,8,1.2,12,1.6v9.7c-4.2-1.1-8.2-2.5-12-4V71.3z M55.8,83.1v-9.9c4,0.3,8,0.5,12,0.5v11.2   c-4.1-0.1-8.2-0.6-12.1-1.4C55.7,83.4,55.8,83.3,55.8,83.1z M88.9,72.7c4-0.4,8-0.9,12-1.6v7.4c-3.8,1.5-7.8,2.9-12,4V72.7z    M105.5,70.3c6.2-1.2,12.3-2.7,18.4-4.4c-4.9,3.4-11.2,7.3-18.4,10.6V70.3z M48.3,41.5c0.9,0,1.8,0,2.6,0.1   c7.8,0.8,11.3,2.7,18,6.2c0.7,0.4,1.8,0.1,2.5-0.2c6.3-3.3,9.8-5.2,17.6-6c14.2-1.3,31.1,8.1,40.4,14.1c-11.3-0.4-33.8-1-59.5-1   c-25.6,0-48.1,0.6-59.5,1C19.3,50.1,34.7,41.5,48.3,41.5z M91.7,98.3c-9.2,1-13.5-0.7-20.8-4c-0.3-0.1-0.6-0.2-0.9-0.2   c-0.3,0-0.6,0.1-0.9,0.2c-7.3,3.2-11.6,4.9-20.8,4c-17-1.8-31.4-19.9-38.8-31.4C21.2,75.7,43.7,89.6,70,89.6   c5.7,0,11.2-0.7,16.5-1.8c0,0,0,0,0.1,0c0.4,0,0.7-0.1,1-0.2c18.6-4.2,33.9-13.9,42.8-20.7C123.1,78.4,108.7,96.6,91.7,98.3z"/>
</g>
<rect x="72.3" y="58" class="st0" width="13.2" height="13.2"/>
<rect x="38.6" y="69.9" class="st0" width="13.2" height="13.2"/>
</svg>