<?xml version="1.0" encoding="UTF-8"?>
<svg xmlns="http://www.w3.org/2000/svg" onmouseup="{ if(window.parent.document.onmouseup) window.parent.document.onmouseup(arguments[0]);}" width="512pt" viewBox="0 0 512.00113 512" height="512pt"><path d="m456.855469 344.855469c-9.589844 0-18.808594 2.429687-26.949219 7l-54.105469-54.105469c10.203125-19.3125 15.71875-41.007812 15.71875-63.265625 0-11.066406-1.34375-21.824219-3.855469-32.125l42.253907-42.257813c21.007812 11.742188 48.113281 8.695313 65.949219-9.140624 21.511718-21.507813 21.511718-56.507813 0-78.023438-10.421876-10.417969-24.273438-16.15625-39.011719-16.15625-.5625 0-1.125.007812-1.6875.023438.4375-14.675782-4.933594-29.496094-16.109375-40.671876-21.511719-21.511718-56.515625-21.507812-78.019532 0-10.421874 10.417969-16.160156 24.273438-16.160156 39.011719 0 9.589844 2.433594 18.808594 7.003906 26.949219l-32.59375 32.59375c-18.902343-10.019531-40.433593-15.710938-63.277343-15.710938-22.839844 0-44.375 5.691407-63.273438 15.714844l-32.609375-32.609375c11.738282-21.003906 8.691406-48.109375-9.140625-65.949219-21.511719-21.507812-56.511719-21.507812-78.023437 0-11.175782 11.175782-16.546875 26-16.105469 40.671876-.5625-.015626-1.125-.023438-1.691406-.023438-14.734375 0-28.589844 5.738281-39.011719 16.160156-21.507812 21.511719-21.507812 56.511719.003906 78.019532 10.417969 10.421874 24.273438 16.160156 39.011719 16.160156 9.589844 0 18.808594-2.433594 26.949219-7.003906l42.242187 42.246093c-2.515625 10.300781-3.855469 21.058594-3.855469 32.121094 0 22.261719 5.515626 43.957031 15.71875 63.269531l-54.105468 54.105469c-8.140625-4.574219-17.359375-7.003906-26.953125-7.003906-14.734375 0-28.589844 5.738281-39.007813 16.15625-10.421875 10.421875-16.160156 24.273437-16.160156 39.011719 0 14.738281 5.738281 28.589843 16.160156 39.011718 10.417969 10.421875 24.273438 16.160156 39.007813 16.160156.566406 0 1.128906-.007812 1.691406-.023437-.441406 14.675781 4.929687 29.496094 16.105469 40.671875 10.753906 10.753906 24.882812 16.128906 39.007812 16.128906 14.128906 0 28.257813-5.375 39.015625-16.128906 17.832031-17.835938 20.878907-44.945312 9.140625-65.949219l25.769532-25.769531c8.632812 5.601562 18.910156 8.871094 29.945312 8.871094h80.335938c11.035156 0 21.316406-3.269532 29.949218-8.871094l25.769532 25.769531c-11.742188 21.003907-8.695313 48.113281 9.140624 65.949219 10.753907 10.757812 24.878907 16.132812 39.007813 16.132812s28.261719-5.378906 39.015625-16.136718c11.175781-11.175782 16.546875-25.992188 16.105469-40.667969.5625.015625 1.125.023437 1.6875.023437 14.738281 0 28.59375-5.738281 39.015625-16.160156 21.507812-21.511718 21.507812-56.507812 0-78.019531-10.421875-10.421875-24.277344-16.160156-39.015625-16.160156zm-74.601563-250.703125c2.8125-2.8125 4.394532-6.628906 4.394532-10.605469 0-3.980469-1.582032-7.796875-4.394532-10.609375-4.753906-4.753906-7.371094-11.070312-7.371094-17.792969 0-6.722656 2.617188-13.042969 7.371094-17.792969 9.808594-9.8125 25.777344-9.816406 35.59375-.003906 9.808594 9.816406 9.808594 25.78125 0 35.59375-2.929687 2.929688-4.394531 6.769532-4.394531 10.609375 0 3.835938 1.464844 7.675781 4.394531 10.605469 5.855469 5.855469 15.351563 5.855469 21.214844 0 4.753906-4.753906 11.070312-7.371094 17.792969-7.371094 6.722656 0 13.042969 2.617188 17.796875 7.371094 9.8125 9.8125 9.8125 25.78125 0 35.589844-9.8125 9.8125-25.78125 9.8125-35.59375 0-5.855469-5.855469-15.355469-5.855469-21.210938.003906l-41.839844 41.835938c-7.960937-15.125-18.695312-28.574219-31.527343-39.660157zm-288.074218 35.59375c-2.816407-2.8125-6.628907-4.394532-10.609376-4.394532-3.976562 0-7.792968 1.582032-10.605468 4.394532-4.753906 4.753906-11.074219 7.371094-17.796875 7.371094-6.71875 0-13.039063-2.617188-17.792969-7.371094-4.753906-4.75-7.375-11.070313-7.375-17.792969 0-6.726563 2.617188-13.046875 7.371094-17.796875 4.753906-4.753906 11.074218-7.375 17.796875-7.375 6.722656 0 13.042969 2.621094 17.796875 7.371094 5.859375 5.859375 15.355468 5.859375 21.214844 0 2.929687-2.925782 4.394531-6.765625 4.394531-10.605469s-1.464844-7.679687-4.394531-10.605469c-9.8125-9.816406-9.8125-25.78125 0-35.59375s25.785156-9.8125 35.59375 0c9.8125 9.8125 9.8125 25.78125 0 35.59375-5.859376 5.859375-5.855469 15.355469 0 21.210938l37.773437 37.769531c-12.835937 11.085937-23.566406 24.539063-31.527344 39.664063zm35.59375 288.074218c-5.859376 5.859376-5.859376 15.355469 0 21.214844 9.8125 9.8125 9.8125 25.78125 0 35.59375-9.8125 9.808594-25.78125 9.808594-35.59375 0-9.8125-9.8125-9.8125-25.78125 0-35.59375 2.929687-2.929687 4.394531-6.769531 4.394531-10.605468 0-3.839844-1.464844-7.679688-4.394531-10.609376-5.859376-5.855468-15.355469-5.855468-21.214844 0-4.753906 4.753907-11.074219 7.371094-17.796875 7.371094-6.71875 0-13.039063-2.617187-17.792969-7.371094-4.753906-4.753906-7.375-11.074218-7.375-17.796874 0-6.722657 2.617188-13.042969 7.371094-17.796876 4.753906-4.753906 11.074218-7.371093 17.796875-7.371093 6.722656 0 13.042969 2.617187 17.796875 7.371093 2.8125 2.816407 6.628906 4.394532 10.605468 4.394532 3.980469 0 7.796876-1.578125 10.609376-4.394532l59.25-59.25c2.304687 2.675782 4.71875 5.273438 7.242187 7.773438v27.078125c0 8.488281 1.933594 16.53125 5.371094 23.722656zm165.339843-34.824218v-18.546875c0-8.28125-6.714843-15-15-15-8.285156 0-15 6.71875-15 15v18.546875h-18.199219v-18.546875c0-8.28125-6.71875-15-15.003906-15-8.28125 0-15 6.71875-15 15v18.546875h-1.066406c-7.46875 0-14.183594-3.273438-18.796875-8.460938-.261719-.335937-.539063-.664062-.832031-.984375-3.460938-4.3125-5.539063-9.777343-5.539063-15.722656v-33.546875c0-4.265625-1.816406-8.332031-4.996093-11.175781-22.351563-20.011719-35.171876-48.667969-35.171876-78.621094 0-58.175781 47.328126-105.503906 105.503907-105.503906s105.507812 47.328125 105.507812 105.503906c0 29.953125-12.820312 58.609375-35.175781 78.621094-3.175781 2.84375-4.992188 6.910156-4.992188 11.175781v33.546875c0 5.945313-2.078124 11.414063-5.542968 15.726563-.289063.320312-.566406.644531-.828125.980468-4.613281 5.183594-11.328125 8.460938-18.800781 8.460938zm179.539063 34.824218c-4.753906 4.753907-11.074219 7.375-17.796875 7.375-6.722657 0-13.039063-2.621093-17.792969-7.371093-5.859375-5.859375-15.359375-5.859375-21.214844 0-2.929687 2.925781-4.394531 6.765625-4.394531 10.605469 0 3.839843 1.464844 7.679687 4.394531 10.609374 9.808594 9.8125 9.8125 25.777344 0 35.589844s-25.78125 9.816406-35.59375.003906c-9.816406-9.816406-9.8125-25.78125 0-35.59375 5.855469-5.859374 5.855469-15.359374 0-21.214843l-36.273437-36.273438c3.4375-7.191406 5.371093-15.234375 5.371093-23.722656v-27.074219c2.523438-2.503906 4.9375-5.097656 7.246094-7.777344l59.246094 59.253907c2.816406 2.8125 6.628906 4.394531 10.609375 4.394531 3.976563 0 7.792969-1.582031 10.605469-4.394531 4.753906-4.753907 11.074218-7.371094 17.796875-7.371094 6.722656 0 13.042969 2.617187 17.796875 7.371094 9.8125 9.808593 9.8125 25.777343 0 35.589843zm0 0"/><path d="m215.839844 219.484375c-3.9375 0-7.808594 1.601563-10.601563 4.390625-2.789062 2.792969-4.398437 6.660156-4.398437 10.613281 0 3.949219 1.609375 7.808594 4.398437 10.609375 2.792969 2.789063 6.660157 4.390625 10.601563 4.390625 3.953125 0 7.820312-1.601562 10.609375-4.390625 2.792969-2.800781 4.390625-6.671875 4.390625-10.609375 0-3.953125-1.597656-7.820312-4.390625-10.613281-2.789063-2.789062-6.65625-4.390625-10.609375-4.390625zm0 0"/><path d="m296.183594 219.484375c-3.949219 0-7.820313 1.601563-10.609375 4.390625-2.789063 2.800781-4.398438 6.660156-4.398438 10.613281 0 3.9375 1.609375 7.808594 4.398438 10.597657 2.789062 2.800781 6.660156 4.402343 10.609375 4.402343 3.941406 0 7.8125-1.601562 10.601562-4.402343 2.789063-2.789063 4.390625-6.648438 4.390625-10.597657 0-3.953125-1.601562-7.820312-4.390625-10.613281-2.789062-2.789062-6.660156-4.390625-10.601562-4.390625zm0 0"/></svg>