<?xml version="1.0" encoding="UTF-8"?>
<svg xmlns="http://www.w3.org/2000/svg" onmouseup="{ if(window.parent.document.onmouseup) window.parent.document.onmouseup(arguments[0]);}" width="512pt" viewBox="0 0 512 512" height="512pt"><path d="m68.1875 422.175781c-39.03125 3.964844-68.1875 39.785157-68.1875 79.015625 0 5.847656 4.738281 10.585938 10.585938 10.585938h125.414062c8.285156 0 15-6.714844 15-15 0-43.929688-37.953125-79.160156-82.8125-74.601563zm0 0"/><path d="m256 421.777344c-41.367188 0-75 33.648437-75 75 0 8.285156 6.714844 15 15 15h120c8.285156 0 15-6.714844 15-15 0-41.351563-33.632812-75-75-75zm0 0"/><path d="m436 421.777344c-41.367188 0-75 33.648437-75 75 0 8.285156 6.714844 15 15 15h121c8.285156 0 15-6.714844 15-15 0-41.351563-34.632812-75-76-75zm0 0"/><path d="m76 421.777344c24.8125 0 45-20.183594 45-45 0-24.8125-20.1875-45-45-45s-45 20.1875-45 45c0 24.816406 20.1875 45 45 45zm0 0"/><path d="m301 376.777344c0-24.8125-20.1875-45-45-45s-45 20.1875-45 45c0 24.816406 20.1875 45 45 45s45-20.183594 45-45zm0 0"/><path d="m226 196.777344c0-24.8125-20.1875-45-45-45s-45 20.1875-45 45c0 24.816406 20.1875 45 45 45s45-20.183594 45-45zm0 0"/><path d="m376 196.777344c0-24.8125-20.1875-45-45-45s-45 20.1875-45 45c0 24.816406 20.1875 45 45 45s45-20.183594 45-45zm0 0"/><path d="m481 376.777344c0-24.8125-20.1875-45-45-45s-45 20.1875-45 45c0 24.816406 20.1875 45 45 45s45-20.183594 45-45zm0 0"/><path d="m236.605469 55.585938 4.394531-4.398438v53.789062c0 8.292969 6.710938 15 15 15s15-6.707031 15-15v-53.789062l4.394531 4.398438c5.859375 5.859374 15.351563 5.859374 21.210938 0 5.859375-5.859376 5.859375-15.355469 0-21.210938l-29.980469-29.984375c-5.851562-5.867187-15.421875-5.84375-21.25 0l-29.980469 29.984375c-5.859375 5.855469-5.859375 15.351562 0 21.210938 5.859375 5.855468 15.351563 5.855468 21.210938 0zm0 0"/><path d="m386.605469 55.585938 4.394531-4.398438v53.789062c0 8.292969 6.710938 15 15 15s15-6.707031 15-15v-53.789062l4.394531 4.398438c5.859375 5.859374 15.351563 5.859374 21.210938 0 5.859375-5.859376 5.859375-15.355469 0-21.210938l-29.980469-29.984375c-5.851562-5.867187-15.421875-5.84375-21.25 0l-29.980469 29.984375c-5.859375 5.855469-5.859375 15.351562 0 21.210938 5.859375 5.855468 15.351563 5.855468 21.210938 0zm0 0"/><path d="m86.605469 55.585938 4.394531-4.398438v53.789062c0 8.292969 6.710938 15 15 15s15-6.707031 15-15v-53.789062l4.394531 4.398438c5.859375 5.859374 15.351563 5.859374 21.210938 0 5.859375-5.859376 5.859375-15.355469 0-21.210938l-29.980469-29.984375c-5.910156-5.921875-15.488281-5.773437-21.25 0l-29.980469 29.984375c-5.859375 5.855469-5.859375 15.351562 0 21.210938 5.859375 5.855468 15.351563 5.855468 21.210938 0zm0 0"/><path d="m361 376.78125c0-30.34375 18.191406-56.398438 44.171875-68.195312-4.140625-37.464844-35.613281-66.808594-74.171875-66.808594-36.28125 0-66.59375 25.890625-73.5 60.15625 40.660156.820312 73.5 34.007812 73.5 74.847656 0 13.8125-4.015625 26.601562-10.554688 37.730469 10.234376 8.039062 18.878907 17.808593 25.554688 29.050781 6.675781-11.242188 15.320312-21.011719 25.554688-29.050781-6.539063-11.128907-10.554688-23.917969-10.554688-37.730469zm0 0"/><path d="m181 376.78125c0-40.839844 32.84375-74.027344 73.5-74.847656-6.910156-34.265625-37.21875-60.15625-73.5-60.15625-38.558594 0-70.03125 29.34375-74.171875 66.808594 25.980469 11.796874 44.171875 37.851562 44.171875 68.195312 0 13.8125-4.015625 26.597656-10.554688 37.726562 10.238282 8.039063 18.882813 17.8125 25.558594 29.050782 6.671875-11.238282 15.320313-21.007813 25.550782-29.046875-6.539063-11.128907-10.554688-23.917969-10.554688-37.730469zm0 0"/></svg>