<?xml version="1.0" encoding="UTF-8"?>
<svg xmlns="http://www.w3.org/2000/svg" onmouseup="{ if(window.parent.document.onmouseup) window.parent.document.onmouseup(arguments[0]);}" xml:space="preserve" style="enable-background:new 0 0 417.1 417.1;" viewBox="0 0 417.1 417.1" y="0px" x="0px" id="Capa_1" version="1.1" xmlns:xlink="http://www.w3.org/1999/xlink">
<style type="text/css">
	.st0{fill:none;}
</style>
<g>
	<g id="Guides_For_Artboard_20_">
	</g>
	<g id="Artwork_19_">
	</g>
	<g id="Layer_2_19_">
		<g>
			<path d="M165.4,139.4c0.9-2.4,3.3-3.9,5.9-3.6c2.6,0.3,4.5,2.4,4.7,5l8.7,102.2l16.4-59c0.7-2.4,2.9-4.1,5.4-4     c2.5,0.1,4.6,1.8,5.2,4.2l9.1,39.6l15.6-65.4c0.6-2.6,3-4.3,5.6-4.2c2.6,0.1,4.8,2.1,5.2,4.7l11.6,82.9l5.2-16.8     c0.7-2.3,2.8-3.9,5.2-3.9h123.3v-28.2c0-26-21.1-47.2-47.2-47.2h-74.9V70.7c0-26.1-21.1-47.2-47.2-47.2H196h-4.3     c-26,0-47.2,21.1-47.2,47.2v74.9H69.7c-26,0-47.2,21.1-47.2,47.2v28.8h113.4L165.4,139.4z"/>
			<path d="M262,268.3c-0.8,2.4-3.1,4-5.7,3.8c-2.6-0.2-4.6-2.2-5-4.7l-11-78.4L226.1,249c-0.6,2.5-2.8,4.2-5.3,4.2c0,0,0,0,0,0     c-2.5,0-4.7-1.8-5.3-4.2l-9.5-41.3l-18.7,67.6c-0.7,2.4-2.8,4-5.3,4c-0.2,0-0.3,0-0.5,0c-2.6-0.2-4.7-2.3-4.9-5l-9.2-107.5     l-22.3,62.2c-0.8,2.2-2.8,3.6-5.2,3.6H23.2c3.9,22.1,23.2,39,46.4,39h74.9v74.9c0,26.1,21.1,47.2,47.2,47.2h4.3h27.2     c26.1,0,47.2-21.1,47.2-47.2v-74.9h74.9c23.5,0,42.9-17.1,46.6-39.6H273.3L262,268.3z"/>
			<path class="st0" d="M411.6,221h-19.1H269.2c-2.4,0-4.5,1.6-5.2,3.9l-5.2,16.8l-11.6-82.9c-0.4-2.6-2.5-4.6-5.2-4.7     c-2.6-0.1-5,1.6-5.6,4.2l-15.6,65.4l-9.1-39.6c-0.6-2.4-2.7-4.2-5.2-4.2c-2.5-0.1-4.7,1.6-5.4,4l-16.4,59L176,140.8     c-0.2-2.6-2.2-4.6-4.7-5c-2.6-0.3-5,1.2-5.9,3.6l-29.5,82.2H22.5h-17c-3,0-5.5,2.5-5.5,5.5c0,3,2.5,5.5,5.5,5.5h17.8h116.5     c2.3,0,4.4-1.4,5.2-3.6l22.3-62.2l9.2,107.5c0.2,2.6,2.3,4.7,4.9,5c0.2,0,0.3,0,0.5,0c2.4,0,4.6-1.6,5.3-4l18.7-67.6l9.5,41.3     c0.6,2.5,2.8,4.2,5.3,4.2c0,0,0,0,0,0c2.5,0,4.7-1.7,5.3-4.2l14.3-59.9l11,78.4c0.4,2.5,2.4,4.5,5,4.7c2.5,0.2,4.9-1.4,5.7-3.8     l11.3-36.4h118.6h19.7c3,0,5.5-2.4,5.5-5.5C417.1,223.4,414.6,221,411.6,221z"/>
		</g>
	</g>
</g>
</svg>