<?xml version="1.0" encoding="UTF-8"?>
<svg xmlns="http://www.w3.org/2000/svg" onmouseup="{ if(window.parent.document.onmouseup) window.parent.document.onmouseup(arguments[0]);}" xml:space="preserve" style="enable-background:new 0 0 459.326 459.326;" viewBox="0 0 459.326 459.326" y="0px" x="0px" id="Layer_1" version="1.1" xmlns:xlink="http://www.w3.org/1999/xlink">
<g>
	<g>
		<g>
			<circle cx="78.275" cy="91.207" r="26.807"/>
			<path d="M410.724,346.052h-84.827v-10.835h-50.292c-4.656,0-9.244-1.144-13.353-3.243v14.077h-84.827     c-8.395,0-15.202,6.807-15.202,15.202c0,8.395,6.807,15.202,15.202,15.202h24.234c-0.374,1.283-0.584,2.635-0.584,4.039     c0,7.97,6.461,14.431,14.431,14.431c7.97,0,14.431-6.461,14.431-14.431c0-1.404-0.21-2.756-0.584-4.039h129.442     c-0.374,1.283-0.584,2.635-0.584,4.039c0,7.97,6.461,14.431,14.431,14.431c7.97,0,14.431-6.461,14.431-14.431     c0-1.404-0.21-2.756-0.584-4.039h24.234c8.395,0,15.202-6.807,15.202-15.202C425.926,352.859,419.119,346.052,410.724,346.052z"/>
			<path d="M440.956,263.385c0-7.948-6.444-14.392-14.392-14.392h-3.004v28.784h3.004     C434.512,277.777,440.956,271.333,440.956,263.385z"/>
			<path d="M195.188,229.805l51.54,34.041l0.345-32.58l-27.822-13.101l45.531,8.108c3.941,0.704,7.992-0.611,10.773-3.521     l33.106-34.64c4.577-4.789,4.404-12.38-0.384-16.956c-4.789-4.577-12.38-4.405-16.956,0.384l-28.663,29.992l-39.2-6.981     l30.625-2.691l-19.337-15.075c-7.789-6.072-19.025-4.68-25.097,3.108l-18.708,23.997     C184.536,212.105,186.486,224.058,195.188,229.805z"/>
			<circle cx="168.386" cy="167.962" r="26.471"/>
			<path d="M246.592,276.746L132.7,201.839c-5.739-3.771-13.496-2.157-17.259,3.564c-0.556,0.846-0.982,1.738-1.31,2.65     l-35.453-19.706L67.682,155.6l15.239,22.33l7.192,3.998l2.43-29.558c0.888-10.798-7.146-20.271-17.945-21.159l-34.868-2.866     c-10.798-0.888-20.272,7.147-21.159,17.945l-6.448,100.464c0.015,0.114,0.017,0.227,0.035,0.341l8.435,54.993L0.56,375.156     c-2.283,8.326,2.617,16.927,10.944,19.21c8.319,2.282,16.925-2.613,19.21-10.944l20.913-76.279     c0.58-2.117,0.708-4.333,0.376-6.503l-7.861-51.254l5.695,0.468l19.306,52.636l-15.578,73.561     c-1.789,8.446,3.608,16.744,12.055,18.532c8.427,1.789,16.741-3.593,18.532-12.055l16.51-77.96     c0.609-2.875,0.396-5.863-0.617-8.621l-15.871-43.27l0.124,0.01l1.465-17.817l-29.58-16.442     c-4.161-2.313-10.742-4.98-11.182-13.446l-2.017-41.088l12.603,37.534c1.034,3.08,3.181,5.662,6.02,7.241l50.641,28.148     c6.288,3.494,14.22,1.231,17.716-5.058c0.262-0.472,0.481-0.955,0.679-1.443c7.3,4.801,110.396,72.607,115.655,76.065     C246.281,305.336,246.251,308.989,246.592,276.746z"/>
			<path d="M446.866,300.489H423.56v5.41c0,7.487-2.825,14.325-7.46,19.512h30.765c6.882,0,12.461-5.579,12.461-12.461     C459.327,306.068,453.748,300.489,446.866,300.489z"/>
			<path d="M261.466,238.044l-0.716,67.697c-0.042,3.967,1.504,7.786,4.294,10.605c2.79,2.82,6.592,4.406,10.559,4.406H394.24     c8.204,0,14.854-6.651,14.854-14.855V245.54c0-13.726-9.036-25.815-22.201-29.7l-68.258-20.147     c-0.771,0.908,1.977-2.006-37.647,39.458C276.481,239.867,269.51,241.832,261.466,238.044z"/>
		</g>
	</g>
</g>
<g>
</g>
<g>
</g>
<g>
</g>
<g>
</g>
<g>
</g>
<g>
</g>
<g>
</g>
<g>
</g>
<g>
</g>
<g>
</g>
<g>
</g>
<g>
</g>
<g>
</g>
<g>
</g>
<g>
</g>
</svg>