<?xml version="1.0" encoding="UTF-8"?>
<svg xmlns="http://www.w3.org/2000/svg" onmouseup="{ if(window.parent.document.onmouseup) window.parent.document.onmouseup(arguments[0]);}" xml:space="preserve" style="enable-background:new 0 0 3000 2000;" viewBox="0 0 3000 2000" y="0px" x="0px" id="Layer_1" version="1.1" xmlns:xlink="http://www.w3.org/1999/xlink">
<style type="text/css">
	.st0{fill:#FFFFFF;}
</style>
<g transform="translate(0 947.64)">
	<g transform="matrix(6.6511 0 0 6.6511 -6353.9 -295.9)">
		<circle cx="1172.9" cy="56.7" r="109.8"/>
		<circle class="st0" cx="1172.9" cy="56.7" r="86.3"/>
		<circle cx="1172.9" cy="56.7" r="59.4"/>
		<circle class="st0" cx="1172.9" cy="56.7" r="31.1"/>
		<polygon class="st0" points="1265,-30.1 1270.3,-25.1 1181.6,58.1 1176.2,53.1   "/>
		<polygon class="st0" points="1261.7,-34.9 1267,-29.9 1178.2,53.3 1172.9,48.3   "/>
		<circle cx="1172.9" cy="56.7" r="11.3"/>
		<g transform="matrix(.71625 .6759 -.71625 .6759 -535.86 -1805.8)">
			<polygon points="2570.5,34.3 2583.5,22.3 2583.5,51.8 2570.5,63.8    "/>
			<polygon points="2571,34.3 2558,22.3 2558,51.8 2571,63.8    "/>
		</g>
		<polygon points="1277.5,-47.5 1284,-41.4 1176.7,60.1 1170.3,54   "/>
	</g>
</g>
</svg>