<?xml version="1.0" encoding="UTF-8"?>
<svg xmlns="http://www.w3.org/2000/svg" onmouseup="{ if(window.parent.document.onmouseup) window.parent.document.onmouseup(arguments[0]);}" xml:space="preserve" style="enable-background:new 0 0 450 400;" viewBox="0 0 450 400" y="0px" x="0px" id="Layer_1" version="1.1" xmlns:xlink="http://www.w3.org/1999/xlink">
<style type="text/css">
	.st0{fill:#D8B77D;}
	.st1{fill:#FFE2A9;}
</style>
<g transform="translate(-619.88 -174.37)">
	<path class="st0" d="M732,207.1c-6.4,0-13.8,0-22.3,0l-27.9,0.3c-33.1,0.4-35.7,0.1-37.7,8.1c-0.7,2.1-2.2,5-3.2,6.3   c-1.8,2.3-1.9,7.8-1.9,160.5c0,87,0.3,158.5,0.7,158.9s93,0.5,205.8,0.4l205.1-0.2l0.3-152.7c0.2-148.1,0.2-152.8-1.6-154.5   c-1-1-2.4-3.5-3.1-5.5s-2.4-4.7-3.9-5.8c-2.6-2.1-3.3-2.1-30-1.6c-75.3,0.5-148.7,1.1-228.4,0.7c-2.8-0.9-3.9-2.1-5.8-6.3   C774.3,207.8,776.8,207.1,732,207.1L732,207.1z"/>
	<path class="st1" d="M792.8,286.2c-17,0-23.4,4.9-30,16.5c-28.5,0.3-99,0.4-104.1,0.4s-18.4,7-18.4,15.6v223h409V301.8   c0-8.6-8.2-15.6-18.4-15.6L792.8,286.2z"/>
</g>
</svg>