<?xml version="1.0" encoding="UTF-8"?>
<svg xmlns="http://www.w3.org/2000/svg" onmouseup="{ if(window.parent.document.onmouseup) window.parent.document.onmouseup(arguments[0]);}" viewBox="0 0 1500 3500" data-name="Layer 1" id="Layer_1" xmlns:xlink="http://www.w3.org/1999/xlink"><defs><style>.cls-1,.cls-22,.cls-26,.cls-33,.cls-34{fill:#fff;}.cls-2{mask:url(#mask);filter:url(#luminosity-noclip-3);}.cls-3{fill:url(#radial-gradient);}.cls-4{mask:url(#mask-2);filter:url(#luminosity-noclip-4);}.cls-5{fill:url(#radial-gradient-2);}.cls-6{fill:#af8966;}.cls-25,.cls-7{fill:#231f20;}.cls-7{opacity:0.3;}.cls-8,.cls-9{fill:#010101;}.cls-20,.cls-22,.cls-25,.cls-31,.cls-8{opacity:0.2;}.cls-9{opacity:0.8;}.cls-10{fill:#fdfeff;}.cls-11{mask:url(#mask-3);}.cls-12{fill:url(#linear-gradient);}.cls-13{mask:url(#mask-4);}.cls-14{fill:#301d10;}.cls-15{fill:#3f2617;}.cls-16{mask:url(#mask-5);}.cls-17{fill:url(#linear-gradient-2);}.cls-18{mask:url(#mask-6);}.cls-19{mask:url(#mask-7);}.cls-21,.cls-28,.cls-35{fill:#221f1f;}.cls-23,.cls-31{fill:#0f0f0f;}.cls-23,.cls-35{opacity:0.1;}.cls-24{fill:#f1f6f7;}.cls-26,.cls-28{opacity:0.4;}.cls-27{fill:#161b23;}.cls-29{fill:#6b180f;}.cls-30{fill:url(#shad_coat);}.cls-32{fill:#0e0d0d;}.cls-33{opacity:0.45;}.cls-34{opacity:0.15;}.cls-36{filter:url(#luminosity-noclip-2);}.cls-37{filter:url(#luminosity-noclip);}</style><filter id="luminosity-noclip" x="768.23" y="-9942" width="9.38" height="32766" filterUnits="userSpaceOnUse" color-interpolation-filters="sRGB"><feFlood flood-color="#fff" result="bg"/><feBlend in="SourceGraphic" in2="bg"/></filter><mask id="mask" x="768.23" y="-9942" width="9.38" height="32766" maskUnits="userSpaceOnUse"><g class="cls-37"/></mask><radialGradient id="radial-gradient" cx="772.92" cy="2750.23" r="4.69" gradientUnits="userSpaceOnUse"><stop offset="0.82" stop-color="#231f20"/><stop offset="1" stop-color="#fff"/></radialGradient><filter id="luminosity-noclip-2" x="733.52" y="-9942" width="9.27" height="32766" filterUnits="userSpaceOnUse" color-interpolation-filters="sRGB"><feFlood flood-color="#fff" result="bg"/><feBlend in="SourceGraphic" in2="bg"/></filter><mask id="mask-2" x="733.52" y="-9942" width="9.27" height="32766" maskUnits="userSpaceOnUse"><g class="cls-36"/></mask><radialGradient xmlns:xlink="http://www.w3.org/1999/xlink" id="radial-gradient-2" cx="-5813.02" cy="2751.1" r="4.69" gradientTransform="matrix(-0.99, 0, 0, 1, -5005.69, 0)" xlink:href="#radial-gradient"/><mask id="mask-3" x="764.43" y="2745.53" width="16.51" height="11.34" maskUnits="userSpaceOnUse"><path class="cls-1" d="M777.74,2754.89l.66-.66a15.65,15.65,0,0,0,2.4-3.22,2.78,2.78,0,0,0-.23-2.25c-.5-.73-1.51-1.43-3.49-2.05a10.74,10.74,0,0,0-8.19.85,13.61,13.61,0,0,0-4.44,3.91,6.07,6.07,0,0,0,.1,1.78c.39,2,2,2.86,3.6,3.4s5.7,0,7.51-.56a6.28,6.28,0,0,0,2.09-1.19Z"/></mask><linearGradient id="linear-gradient" x1="771.82" y1="2745.65" x2="773.93" y2="2754.79" gradientUnits="userSpaceOnUse"><stop offset="0" stop-color="#603a17"/><stop offset="1" stop-color="#8a5e3c"/></linearGradient><filter id="luminosity-noclip-3" x="768.23" y="2745.53" width="9.38" height="9.38" filterUnits="userSpaceOnUse" color-interpolation-filters="sRGB"><feFlood flood-color="#fff" result="bg"/><feBlend in="SourceGraphic" in2="bg"/></filter><mask id="mask-4" x="768.23" y="2745.53" width="9.38" height="9.38" maskUnits="userSpaceOnUse"><g class="cls-2"><path class="cls-3" d="M777.61,2750.22a4.69,4.69,0,1,0-4.69,4.7A4.68,4.68,0,0,0,777.61,2750.22Z"/></g></mask><mask id="mask-5" x="730.24" y="2746.41" width="16.31" height="11.34" maskUnits="userSpaceOnUse"><path class="cls-1" d="M733.39,2755.77l-.65-.66a16,16,0,0,1-2.37-3.22,2.78,2.78,0,0,1,.23-2.25c.5-.74,1.49-1.43,3.45-2a10.43,10.43,0,0,1,8.08.85,13.44,13.44,0,0,1,4.39,3.9,6.12,6.12,0,0,1-.09,1.79c-.39,2-1.95,2.86-3.56,3.39s-5.63,0-7.42-.56a5.85,5.85,0,0,1-2.06-1.18Z"/></mask><linearGradient xmlns:xlink="http://www.w3.org/1999/xlink" id="linear-gradient-2" x1="-5814.12" y1="2746.53" x2="-5812.01" y2="2755.67" gradientTransform="matrix(-0.99, 0, 0, 1, -5005.69, 0)" xlink:href="#linear-gradient"/><filter id="luminosity-noclip-4" x="733.52" y="2746.41" width="9.27" height="9.38" filterUnits="userSpaceOnUse" color-interpolation-filters="sRGB"><feFlood flood-color="#fff" result="bg"/><feBlend in="SourceGraphic" in2="bg"/></filter><mask id="mask-6" x="733.52" y="2746.41" width="9.27" height="9.38" maskUnits="userSpaceOnUse"><g class="cls-4"><path class="cls-5" d="M733.52,2751.1a4.64,4.64,0,1,1,4.64,4.69A4.67,4.67,0,0,1,733.52,2751.1Z"/></g></mask><mask id="mask-7" x="710.28" y="2689.33" width="102.04" height="72.56" maskUnits="userSpaceOnUse"><path class="cls-1" d="M740.74,2716a62.65,62.65,0,0,0,20.53,12.63,162.17,162.17,0,0,0,25.27,7,81.48,81.48,0,0,0,5.78,6l1.64,1.3s-.53,8.43-.68,9.78a26.31,26.31,0,0,1-.77,3.52s4-3.07,5-4.72a1.49,1.49,0,0,1,.83-.74,1.56,1.56,0,0,1,1.16.56,76.46,76.46,0,0,0,2.06-7.39c.1-1.3.24-3.42.24-4.67v-1.45s2.8-.08,4.29-1.68c0,0-2.79-17.21-12.5-28.54s-26.62-14.12-35.89-14.27-15.74,1.33-17.8,2.35a17.74,17.74,0,0,0-4.41,4,7.68,7.68,0,0,1-1.36-3.27c0-1.34.18-3,1.08-3.76,0,0-3.27,2.64-2.37,5.37s1.74,2.63,1.74,2.63-4.06-.58-6.61.89-10.23,6.84-12.65,12.34a73.43,73.43,0,0,0-5.05,22.52c-.18,6.66,2.69,13,3.49,14,.37.45.69.31.69.31s2.65,0,3.23.46a38.43,38.43,0,0,1,2.79,3.46s-1.1-5-.65-8.15,0-4.08,0-4.08,3.22-4,3.57-5,7.2-5,8.32-6.48a24.46,24.46,0,0,0,4.6-12.51S740,2725,750,2727.48C750,2727.48,740.89,2720.67,740.74,2716Z"/></mask><linearGradient id="shad_coat" x1="761.54" y1="2880.63" x2="761.54" y2="2956.66" gradientUnits="userSpaceOnUse"><stop offset="0" stop-color="#010101" stop-opacity="0"/><stop offset="1" stop-color="#231f20" stop-opacity="0.5"/></linearGradient></defs><title>Mac-Illustrated-Work-Files-Illustrator-File-eps-14929</title><path class="cls-6" d="M721.32,2753.08s-2.66-2.9-4.35-2.86-4.34-.12-4.34,4,1.88,10.91,6.56,11.69,5.65-2.3,5.65-5.06S721.32,2753.08,721.32,2753.08Z"/><path class="cls-7" d="M720,2761.27a4.35,4.35,0,0,1-2.18-2.28c-.41-1.44.05-2.61,1.09-2.92a1.51,1.51,0,0,0-.57-1.4c-.72-.57-1.45-1.88-3.31-2.41s-1.58.62-1.62,1.36.2,5.5,2.47,7.65S719.72,2763.54,720,2761.27Z"/><path class="cls-6" d="M791.11,2753.08s2.87-2.9,4.7-2.86,4.69-.12,4.69,4-2,10.91-7.09,11.69-6.11-2.3-6.11-5.06S791.11,2753.08,791.11,2753.08Z"/><path class="cls-6" d="M772.32,2788.5s-1.57,6.55,0,10.68,13.95,16.09,14.52,16.66,0,4.27-5.55,8.4-11.25,8.4-23.92,7.69-21.08-5.41-25.77-11-4-6.54-3.28-7.26,7.55-1.71,10-9.25,3-18.09,3-18.09Z"/><path class="cls-8" d="M778.44,2807.21c-3-3.24-5.42-6.19-6.12-8-1.5-4-.07-10.47-.07-10.47l-30.92-2.1a94.25,94.25,0,0,1-1.86,13.62c2,3.12,7.44,9.9,16.54,11.37C765.71,2813.18,771.89,2811.09,778.44,2807.21Z"/><path class="cls-6" d="M794.54,2739.57c-.22-6.18-1.1-27.58-16.33-32.44a61.24,61.24,0,0,0-16.41-3.25c-3.45-.11-5,0-5,0s-1.16,0-3.77,0c-3.38,0-9.16.53-17.86,3.27-15.39,4.86-16.28,26.26-16.51,32.44s4,28.46,5.58,34.86,5.36,11.25,12.27,14.34,15.62,5.74,20.31,5.74,13.24-2.65,20.08-5.74,10.59-7.94,12.13-14.34S794.76,2745.74,794.54,2739.57Z"/><path class="cls-8" d="M752.09,2767s.21.76.28,1.17a2,2,0,0,0,1.12,1.2,4.67,4.67,0,0,0,2.81.72,6,6,0,0,0,3-.74c.31-.12,1.36-.53,1.29-1.32s-.13-1.47,0-1.59.68.31.86.9a3.84,3.84,0,0,1,0,2.66c-.45.86-1.12.66-1.9.84a3.62,3.62,0,0,0-1.6,1.26,1.36,1.36,0,0,1-1.07.41,1.66,1.66,0,0,1-1.23-.55,4.1,4.1,0,0,0-2.16-1.18c-.76,0-1.27.37-1.71-.57S751.27,2767.07,752.09,2767Z"/><path class="cls-9" d="M763.87,2752.38a13.75,13.75,0,0,1,5-4.74,10.79,10.79,0,0,1,8.19-.85c2,.62,3,1.32,3.49,2.06a2.82,2.82,0,0,1,.23,2.25,16,16,0,0,1-2.41,3.22l-.65.65s.46.35,2.32-1.16a10,10,0,0,0,2.68-3.41c.12-.19-.43-.47-.66-.43s.12-2.21-1.32-3.33a8.57,8.57,0,0,0-5.12-2.1c-2.44-.23-7.21,1.32-9,2.37s-2.32,1.82-2.4,2.13A6.09,6.09,0,0,0,763.87,2752.38Z"/><path class="cls-10" d="M777.74,2754.92l.66-.66a15.92,15.92,0,0,0,2.4-3.22,2.78,2.78,0,0,0-.23-2.25c-.5-.74-1.51-1.43-3.49-2.05a10.74,10.74,0,0,0-8.19.85,13.6,13.6,0,0,0-4.44,3.9,6.14,6.14,0,0,0,.1,1.79c.39,2,2,2.86,3.6,3.39s5.7,0,7.51-.55a6.28,6.28,0,0,0,2.09-1.19Z"/><g class="cls-11"><path class="cls-12" d="M777.56,2750.22a4.69,4.69,0,1,0-4.69,4.69A4.69,4.69,0,0,0,777.56,2750.22Z"/></g><path class="cls-8" d="M766.26,2746.43a20.85,20.85,0,0,1,4.66-2.64,9.16,9.16,0,0,1,5.67.2,10.68,10.68,0,0,1,3,1.54s.2-1.11-2.35-2.1S773.6,2742,771,2743,766.7,2745,766.26,2746.43Z"/><g class="cls-13"><path class="cls-14" d="M777.61,2750.22a4.69,4.69,0,1,0-4.69,4.69A4.69,4.69,0,0,0,777.61,2750.22Z"/></g><path class="cls-10" d="M770.45,2749.76a1.56,1.56,0,1,1-1.56-1.56A1.56,1.56,0,0,1,770.45,2749.76Z"/><path class="cls-14" d="M774.16,2750.35a1.24,1.24,0,1,1-1.24-1.24A1.24,1.24,0,0,1,774.16,2750.35Z"/><path class="cls-15" d="M763.36,2738.66a24.9,24.9,0,0,1,6.59-3,20.58,20.58,0,0,1,8.72-.26,18.29,18.29,0,0,1,5.12,2.09,6,6,0,0,0-2.86-2.2,22.77,22.77,0,0,0-10-1.25,17.3,17.3,0,0,0-8.57,3.66C761.53,2738.55,762.16,2739.6,763.36,2738.66Z"/><path class="cls-9" d="M747.1,2753.25a13.7,13.7,0,0,0-4.94-4.73,10.5,10.5,0,0,0-8.09-.85c-2,.62-3,1.32-3.45,2a2.82,2.82,0,0,0-.23,2.25,15.85,15.85,0,0,0,2.38,3.22l.65.66s-.46.35-2.3-1.16a10,10,0,0,1-2.65-3.41c-.11-.2.43-.47.65-.43s-.11-2.21,1.31-3.34a8.47,8.47,0,0,1,5.06-2.09c2.41-.23,7.13,1.32,8.93,2.37s2.3,1.82,2.37,2.13A6.06,6.06,0,0,1,747.1,2753.25Z"/><path class="cls-10" d="M733.39,2755.8l-.65-.66a16,16,0,0,1-2.37-3.22,2.78,2.78,0,0,1,.23-2.25c.5-.74,1.49-1.44,3.45-2.06a10.48,10.48,0,0,1,8.08.86,13.33,13.33,0,0,1,4.39,3.9,6.12,6.12,0,0,1-.09,1.79c-.39,2-1.95,2.86-3.56,3.39s-5.63,0-7.42-.56a5.86,5.86,0,0,1-2.06-1.19Z"/><g class="cls-16"><path class="cls-17" d="M733.57,2751.1a4.64,4.64,0,1,1,4.63,4.69A4.66,4.66,0,0,1,733.57,2751.1Z"/></g><path class="cls-8" d="M744.73,2747.31a20.38,20.38,0,0,0-4.6-2.65,9,9,0,0,0-5.6.2,10.71,10.71,0,0,0-2.94,1.55s-.2-1.11,2.31-2.1,3.58-1.39,6.2-.45S744.3,2745.87,744.73,2747.31Z"/><g class="cls-18"><path class="cls-14" d="M733.52,2751.1a4.64,4.64,0,1,1,4.64,4.69A4.67,4.67,0,0,1,733.52,2751.1Z"/></g><path class="cls-10" d="M732.84,2749.66a1.54,1.54,0,1,0,1.54-1.56A1.55,1.55,0,0,0,732.84,2749.66Z"/><path class="cls-14" d="M736.93,2751.23a1.23,1.23,0,1,0,1.23-1.24A1.24,1.24,0,0,0,736.93,2751.23Z"/><path class="cls-15" d="M747.6,2739.53a24.89,24.89,0,0,0-6.5-3,20.33,20.33,0,0,0-8.63-.26,18.63,18.63,0,0,0-5.06,2.09,6.16,6.16,0,0,1,2.83-2.19,22.26,22.26,0,0,1,9.93-1.26,17.15,17.15,0,0,1,8.46,3.66C749.41,2739.43,748.79,2740.48,747.6,2739.53Z"/><path class="cls-7" d="M792.58,2761.27s1.92-.83,2.36-2.28-.06-2.61-1.18-2.92a1.43,1.43,0,0,1,.61-1.4c.79-.57,1.57-1.88,3.58-2.41s1.71.62,1.75,1.36-.22,5.5-2.66,7.65S792.84,2763.54,792.58,2761.27Z"/><path class="cls-15" d="M740.75,2716a62.91,62.91,0,0,0,20.53,12.64,161.79,161.79,0,0,0,25.27,7s4.15,4.66,5.78,6l1.64,1.3s-.53,8.44-.67,9.78a28.11,28.11,0,0,1-.77,3.52s4-3.07,5-4.72a1.07,1.07,0,0,1,2-.18,75.21,75.21,0,0,0,2.07-7.39c.09-1.3.24-3.42.24-4.67v-1.44s2.79-.08,4.29-1.68c0,0-2.79-17.22-12.5-28.55s-26.63-14.12-35.9-14.27-15.73,1.33-17.79,2.36a17.9,17.9,0,0,0-4.42,4,7.71,7.71,0,0,1-1.35-3.27c0-1.34.18-3,1.07-3.75,0,0-3.26,2.63-2.37,5.36s1.75,2.64,1.75,2.64-4.07-.59-6.62.89-10.23,6.84-12.64,12.33a73.27,73.27,0,0,0-5.05,22.52c-.18,6.66,2.68,13,3.48,14,.38.45.7.31.7.31s2.65,0,3.23.46a38.33,38.33,0,0,1,2.79,3.47s-1.1-5-.65-8.16,0-4.08,0-4.08,3.21-4,3.57-5,7.19-5,8.31-6.48a24.55,24.55,0,0,0,4.6-12.51S740,2725,750,2727.5C750,2727.5,740.91,2720.68,740.75,2716Z"/><g class="cls-19"><g class="cls-20"><path class="cls-21" d="M740.53,2721.39c-4.36-4.79-6-11.7-6-11.7a17.05,17.05,0,0,0-.2,4.14,85.36,85.36,0,0,1-5.88,15.63,34.63,34.63,0,0,1-4.89,6.69c2.39-7.93,6-17,6-17l-3.4,5.41c-2.6,4.14-6.41,13.39-8.06,17.52a2.68,2.68,0,0,0-.35.66c-.13.42-.29.9-.46,1.41h0c-.64,1.85-1.45,4-1.45,4s-2.35-3.67-1.77-7.4a25.23,25.23,0,0,1,1.77-6.23s-2.8,1.85-2.8,8.24v6.39l2.64,7.58,10.15-4.11,7.06-16,3.07-16.11.37,1.18c1.52,4.8,11.24,5.24,11.24,5.24S744.89,2726.19,740.53,2721.39Z"/><path class="cls-21" d="M731.38,2706.88s-6.51,2.92-10.49,17C720.89,2723.9,726.41,2709.86,731.38,2706.88Z"/><path class="cls-21" d="M747.56,2708.65s3.23,3.42,6.43,6.74,17.76,11,17.76,11C765.91,2721.12,747.56,2708.65,747.56,2708.65Z"/><path class="cls-21" d="M799.37,2699.6c-11.91-10.88-69.42-5.47-53.81-5.35,3.48,0,6.49.14,9.12.31a50.08,50.08,0,0,0-10.67.86l-1.41.3-1.31.16c-1.9.37-3.88,2.32-4.81,2.63a1.17,1.17,0,0,1-1-1.08c-.13-1.29,1.11-4.32,1.11-4.32s-.72-4.66-1.92-3.64-4.4,7.27-4.4,7.27l.47,3.76-.93.42a4.44,4.44,0,0,1,2.21,1.59,41.17,41.17,0,0,0,2.25,3.51,11.1,11.1,0,0,0,1.17.86l-.38-1.4a6.66,6.66,0,0,1,1.23-4.72,14.89,14.89,0,0,1,2.85-2.44,111.93,111.93,0,0,1,13.72,0c15.38.66,25.15,4.56,33,14.12a100,100,0,0,1,12.5,20.3l.18.16c.67,3,1.14,5.46.36,3.29a39.6,39.6,0,0,0-5.35-9.19c1.11,2.07,1.83,8,2,9.33-.3-.83-2.84-7.53-10.27-17.71-7.94-10.89-33.39-16.33-33.39-16.33s15.89,5.44,22.51,11,12.35,16.33,12.35,16.33l.55.81c-.46,0-1,.09-1.52.13-5.42-6.83-15.25-13.66-20.56-17.08,1,.64,2.14,1.45,3.59,2.46,4.41,3.1,12,11.61,14.73,14.72a45.26,45.26,0,0,1-18.49-3.1c-11.84-5-22.72-11.33-26-16.33,0,0,3.68,14,24.13,21s22.94,3.32,22.94,3.32l2.49.39c1.36,2.92,5,6.73,5,6.73l-.64,3-3.09,16.21s7.43-4.43,8-4.76a40.85,40.85,0,0,0,3.56-4.7.73.73,0,0,1,0,.13l4-2.5,6.92-18.68S811.29,2710.49,799.37,2699.6Zm-19.26,1.28s2.25.1,7.17,4.23,7.41,11.1,7.41,11.1C791.78,2710.54,780.11,2700.88,780.11,2700.88Z"/></g></g><path class="cls-22" d="M746.62,2714.54s11.57,6.21,18,8.72c0,0-8.69-6.32-14.35-10.67s-7.58-6.16-7.58-6.16,6.32,7.63,8.34,9C751,2715.43,747.18,2714.52,746.62,2714.54Z"/><path class="cls-22" d="M753.9,2711.74s10.5,3.55,15.32,6.16,6.52,3.69,6.52,3.69-11.37-8.59-14.46-10.11-3.08-1.79-3.08-1.79,13.09,5.58,15.31,6.9a52,52,0,0,1,7.18,5l1.16,1.16a8.17,8.17,0,0,0,3.79-1.82c1.47-1.41,1.37-1.76,1.37-1.76s-5.06-5.72-8.14-7.74a47.87,47.87,0,0,1,10.77,6.93,3.34,3.34,0,0,0,1.36-1.72,6.11,6.11,0,0,0,.61-2.58s-2.78-3.69-5.11-5.1c0,0,4.52,3.08,5.56,3.94a20.15,20.15,0,0,0-2.88-4.5c-1.92-2.28-5.2-5.31-7.63-6.29,0,0,4.46,4.28,5.61,6.19a39,39,0,0,0-7.68-2.58s-1.62.46-3,.71c0,0,7,3.49,9,5.25,0,0-8-3.79-11.17-5a20.53,20.53,0,0,1-2.88.56,4.63,4.63,0,0,0-1.21.15l10.41,11.22a106,106,0,0,0-16.58-10.92c-9-4.66-12.59-5-12.59-5s6.56,1.81,15,8.24c0,0-9.5-3.29-15.32-5,0,0,5.86,4.45,7.53,5.56,0,0-11.22-4.24-13.34-5.15l-2.12-.91A42.71,42.71,0,0,0,753.9,2711.74Z"/><path class="cls-22" d="M759.17,2715.39s8.22,5,11.91,7.87,5.33,4.16,5.33,4.16-5.69-5.75-10-8.53A25.5,25.5,0,0,0,759.17,2715.39Z"/><path class="cls-22" d="M737.25,2716.62a43.47,43.47,0,0,0,5.94,7,18.1,18.1,0,0,0,4.7,3.25,44,44,0,0,1-8.56-8.37c-3.36-4.63-2.7-3.12-2.7-3.12Z"/><path class="cls-22" d="M741.73,2713.21s2.72,3.6,10.49,7.45,9,3.73,9,3.73-11.18-4.3-16.55-10.17-5.5-6.89-5.5-6.89A10.34,10.34,0,0,0,741.73,2713.21Z"/><path class="cls-22" d="M738.07,2702.11a2.73,2.73,0,0,1,1.77-2.36c1.76-.75,3.44-1.68,6-1.65,0,0-6,.06-6.67.22,0,0-1.12.7-1.29,1.32S737.11,2702,738.07,2702.11Z"/><path class="cls-22" d="M728.23,2729.91s3.37-6.36,4.47-10.68,1.61-6.27,1.61-6.27-2.63,5-3.41,6.1c0,0,1-6.75,1.86-7.83a6.72,6.72,0,0,1-1-.78s-3.24,4.33-4.58,6.49-3,5.19-3,5.19,3.46-8.17,4.8-10.25,1.43-2.19,1.43-2.19-.5-.58-.63-.76-5.47,5.11-9.92,17.27c0,0,4.6-8.23,5.88-9.35a62.46,62.46,0,0,0-5.23,13.06c-1.48,6.19-1.3,7.62-1.3,7.62s4.88-13.63,11-20c0,0-1.38,8.13-1.81,9.56l-1.43,4.74Z"/><path class="cls-22" d="M728.42,2708.65s-5.91,4.44-10,16.08c0,0-1,3.23-1.77,5.88,0,0,1.28-9.71,4.24-14.75a45.06,45.06,0,0,0-7.87,16.2s2.42-11.06,6.24-16.2A23.37,23.37,0,0,1,728.42,2708.65Z"/><path class="cls-6" d="M828.09,2885s-.71.69-3,7.1-24.11,32.78-30.51,35.41-9.05-11.3-9.05-11.3l12.06-39.94Z"/><path class="cls-6" d="M703,2897.12s-2.83,15.07-4,19.59a68.39,68.39,0,0,0-1.5,10.18s-.38,15.07-3.77,24.49-5.47,20-6.78,26.75a18.07,18.07,0,0,1,2,6.46c.3,3.42-1.28,8.59-2,10.55s-1.71,6.25-2,7.42-1.18,3-1.86,3h-.68a31.79,31.79,0,0,1,3.61,4.4,9.1,9.1,0,0,1,1.37,5.86c-.19.88-2.83-.49-3.71-.78a20.67,20.67,0,0,1,.49,5.28c-.2,2.34-1.76,2-1.76,2a61.61,61.61,0,0,0-5-4.3,81.39,81.39,0,0,1-9.67-9.87c-.68-1.17-2.15-4.59-1.66-6.54s1.36-15.93,2.34-20.13,2.94-9.38,3.23-10.75,1.27-27.45,1.36-33.32,3.42-14.46,3.91-16.41,1.28-13.48,1.47-18.66a68.21,68.21,0,0,1,1.66-11.24Z"/><path class="cls-23" d="M683.87,3021.61a2.85,2.85,0,0,0,.34-1.26,20.18,20.18,0,0,0-.49-5.28c.89.3,3.52,1.66,3.72.78a9.1,9.1,0,0,0-1.37-5.86,32.29,32.29,0,0,0-3.62-4.4,1.76,1.76,0,0,1-1.42-1.07c-.36-1-.12-4,0-6.15a22,22,0,0,0-.49-6.52,30.73,30.73,0,0,1-.85-4c-.12-.79-.61-2.19-.61-2.43a21.07,21.07,0,0,0-.73,2.92c-.18,1-.85.73-1.1.3a10.76,10.76,0,0,0-.79-1.09,24.23,24.23,0,0,0,.79,2.86c.25.43.74,1.65.49,2.13s-1.64.49-1.64.49,1.46.91,1.58,1.34-.79,2.68-.91,3.23-.06,3.77-.24,4.75a9.1,9.1,0,0,0-.43,2.56c.06,1,.61,2.8.61,3.65s4,4.33,5.74,7.49A12.32,12.32,0,0,1,683.87,3021.61Z"/><path class="cls-23" d="M683.72,3015c.89.3,3.52,1.67,3.72.79a9.13,9.13,0,0,0-1.37-5.87,32.5,32.5,0,0,0-3.54-4.32l-.29-.12a1.84,1.84,0,0,1-.6-.26c-.54-.28-.78-.64-.78-1.79h0c-.08-1.37.08-3.5.17-5.12,0,0-1.77,2.09-2,2.32a15,15,0,0,0-1.65,3.39c0,.47.8,3.63.8,3.82s3.25,3.34,4.1,4.9c.39.72.93,1.53,1.45,2.3Z"/><path class="cls-23" d="M680.48,2891.08a70,70,0,0,0-1.63,10.57h0s5.37,5.43,11.12,6.95,1.43,8.34,2.33,12.65,1.12,13.83.92,17.6-4,13.91-6.31,21.32-2,11.91-2,11.91l-.85,3.55s-.45.76.85,3.27a23.7,23.7,0,0,1,3,10.24c.1,4.12-2.16,7.59-1.48,9.18.32-1.2.66-2.39,1-3.18.73-2,2.3-7.13,2-10.55a18,18,0,0,0-2-6.46c1.32-6.78,3.39-17.33,6.78-26.75s3.77-24.49,3.77-24.49a69.09,69.09,0,0,1,1.51-10.18c1.13-4.52,4-19.59,4-19.59Z"/><path class="cls-24" d="M806.85,2894s11.63-1.8,16.55-5.41,10.15-13.1,10.64-15.07-7.37-18.83-11.63-26-10.32-19.49-11.14-21.13-3.6-3.44-4.42-4.42-6.55-2.62-6.55-2.62l-3.77,7.86Z"/><path class="cls-25" d="M797.87,2838.24l8.61,55.71s9.6-1.49,15-4.47c-3-9.57-7.88-25-9.22-31.05-2-9-14.43-24.63-14.43-24.63Z"/><path class="cls-26" d="M811.27,2826c-.81-1.63-3.6-3.44-4.42-4.42-.61-.73-4-1.83-5.61-2.34l-1.46,1.26,3.73,1.65s6,4.85,6.19,5.26.33,8.63.33,8.63l2.57-4.93s13.62,29.66,15,32.46c.75,1.56,3.16,7.54,5.16,12.53a17.2,17.2,0,0,0,1.31-2.93c.49-2-7.37-18.83-11.63-26S812.09,2827.66,811.27,2826Z"/><path class="cls-27" d="M718,2942.45s-.67,6.45-.67,7.79.34,9.79.34,9.79l-.34,1.21v7.51c0,.81-2.28,7.92-2.55,10.61s-.67,12.75,0,14.23-1.48,28.19-2,30.87-2.82,21.88-3.63,25.23-.94,14.77-.94,15.17-7.11,27.38-8.19,31.41-2,17.45-2.41,19.06-1.61,5-1.61,6.71,1.61,9.4,1.61,10.34-1.88,3.89-3.49,6-2.55,6.44-2.55,8.32.67,4.16.8,5.64.81,4.83,3.09,6.71,26.71,3.76,28.86,3.49,9,1,9.93,0,3.76-2.58,4.3-6.34.53-10.6,3.09-14.9,2.14-6.84,2.28-11.54,3.75-17.32,5.77-21.21,2.95-6.17,2.95-8.46.67-7.11,2.42-10.2,2.28-10.33,2.28-13.69.27-5.5,2.55-13-1.61,29.13-1.61,29.13-.81,10.6-.81,16.11.41,13,.54,15-3.49,10.74-4,12.75-1.34,7.52-.94,8.73,1.34,4.83,2,7.25,2.41,10.47,3.49,13,5.23,4.16,5.63,4.16,14.77-8.59,20.27-12.35,12.89-5,13.69-5.51a11.12,11.12,0,0,1,3.23-.8s.27-7,1.61-9.67.8-26.44.8-36.77.81-30.07,2.15-34.37,1.74-30.47,1.74-41.21.94-45.23,1.21-56.1-1.8-16.11-1.8-16.11l-1.19.27-.75-18.83Z"/><path class="cls-28" d="M766.61,2993s-8.19-6.75-13.31-8.14-15.64-1.4-15.64-1.4S752.28,2991.3,766.61,2993Z"/><path class="cls-28" d="M764.9,2971.44s10.58-.77,13.65,0,16.9-3,16.9-3A50.72,50.72,0,0,0,764.9,2971.44Z"/><path class="cls-28" d="M743.67,3129.68c.12-4,2.75-13.69,4.78-18.9l1.2-6s-4.55-8.87-4.32-11.94-2.5-7.5-2.5-7.5l-7.17,15.35-3.07-5.12-9.21,26.61s12.71-10.24,14-16c0,0-3.07,17.06-7,21.15s1.51,14.33,1.51,14.33-13.3-6.82-16-6.14-8.53,6.14-8.53,6.14,21.69,5.06,22.37,8.81c.54,3,.8,9.15.11,12.33a22.51,22.51,0,0,0,3,.07c.56-.26,1.17-.55,1.78-.87a9,9,0,0,0,3.7-5.81c.54-3.75.54-10.6,3.09-14.89S743.54,3134.38,743.67,3129.68Z"/><path class="cls-28" d="M797.71,3151.76a13.84,13.84,0,0,0-7.23-3.72c-6.48-.87-17.05,5-16.54,3.78s-.86-6.32,7-8.71,8.87-6.32,8.87-6.32-14-.5-15.86-2.21-1.88-3.75,0-9.55,0-48.78,0-48.78l12.79,36.84s3.07-22.17.68-34.79-5.12-49.46-5.8-53.9-2.73-31.39-2.73-31.39a6.7,6.7,0,0,1,5.12-1.7c3.07.35,9.89-3.07,9.89-3.07s-9.21-1.36-13-.4a83.69,83.69,0,0,0-9.55,3.47l-2,6.85s-4.43,30.68-5.46,40.23c-.93,8.72-3.28,19.4-3.37,24.06.68,2.59-2.23,29.94-2.23,29.94s-.8,10.6-.8,16.11.4,13,.54,15-3.5,10.74-4,12.75-1.34,7.52-.94,8.73,1.34,4.83,2,7.25,2.42,10.46,3.49,13,5.24,4.16,5.64,4.16,14.77-8.59,20.27-12.35C789.42,3153.69,795.91,3152.38,797.71,3151.76Z"/><path class="cls-24" d="M737.67,2828.06s6.94,23.37,12,27.58,24.63,2.11,26.53,0,6.11-14.15,6.11-14.15l2.52-14.7-9.68-2.1-6.53,1.26a9.71,9.71,0,0,1-7.37,4.05c-4.84.16-11.37-4.05-11.37-4.05l-12.21-2.25"/><path class="cls-28" d="M805.92,2956.85l-.16-4.72a16.52,16.52,0,0,1-2.75-1.4l-.09-.19c-.34-.91-.42-4.11-.6-4.07s-.45-1.25-.45-1.25l-1.35.46-2.3-4.68-72.82,4.22,3.72,7.24c-.1,0-.2.06-.29.07-1.32.08-9.82,1.73-9.82,1.73a26.35,26.35,0,0,0,5.2,2.06,21.07,21.07,0,0,1-3.39.66c-.55,0-1.85.16-3.17.29.06,1.54.11,2.72.11,2.72l-.34,1.21v.57H724c2.23,0,5.94-1.07,7.1-2.06a29.23,29.23,0,0,0,2.84-4.41c7.9.25,27.58.79,39.59.51a112.45,112.45,0,0,0,25.71-4,7.26,7.26,0,0,0,.51,1.4c.83,1.56,3.33,2.81,4.68,3.23.37.11.9.25,1.45.39Z"/><path class="cls-29" d="M710.56,2888.47s5.28,22.18,4.26,26.27-2.77,7.16-2.07,9.89,1,2.73,2.2,6.14-.55,6.82,0,9.55a18.84,18.84,0,0,0,2.63,5.74s7.13,5.52,19.41,5.52,46-1.37,55.94-3.07,14.67-2.45,14.67-2.45V2933.5a10.87,10.87,0,0,0,3.75-4.09c1-2.39,2.39-10.92,0-14.33s-3.09-13.41-3.07-17.4,1-18.42,1-27.63-1.36-31.72-3.06-41.61-3.4-9.19-4.23-11-9.79-5.17-11.64-6.09a14.79,14.79,0,0,0-5.91-1.11c-.83.09,1,28.26-14.78,39.35,0,0-.83.92-7.38-3.7s-24.94-20.5-30.39-36.94c0,0-1.2-1.57-7.57,2.31s-12.29,7.39-12.93,8.22a8,8,0,0,0-.85,3.07Z"/><path class="cls-30" d="M710.48,2875.55v12.92s5.28,22.18,4.26,26.27-2.77,7.16-2.07,9.89,1,2.73,2.2,6.14-.55,6.82,0,9.55a18.76,18.76,0,0,0,2.64,5.74s7.12,5.52,19.4,5.52,46.05-1.37,55.94-3.07,14.67-2.45,14.67-2.45V2933.5a10.87,10.87,0,0,0,3.75-4.09c1-2.39,2.39-10.92,0-14.33s-3.09-13.41-3.07-17.4c0-3.25.69-13.48.93-22.13Z"/><path class="cls-24" d="M713,2821.8s-10.29,3.35-12.18,4.19a42.46,42.46,0,0,0-8.18,6.3c-1,1.26-15.33,30.65-17.43,34.85s-6.08,11.12-6.08,11.12,8.18,12.18,12.17,16,16,8.4,21.62,9a33.76,33.76,0,0,0,9,0s4-12.8,5.25-14.69,3.15-2.94,3.78-4.2,5-17,4.19-22.88-2.93-24.35-4.61-29S714.29,2821.38,713,2821.8Z"/><path class="cls-31" d="M746.88,2918.23s13.3,2.87,20.81,4.46,25.92-3,27.29-2.23,8.87-2.33,8.87-2.33-19.25-2-22.59-2S746.88,2918.23,746.88,2918.23Z"/><path class="cls-31" d="M754.51,2839.64h0a115,115,0,0,1-11.7-11.93l-4.81,1.14v10.79S749.92,2839.53,754.51,2839.64Z"/><path class="cls-31" d="M793.23,2812.66c-1.28-.55-2.34-1-2.86-1.26a12.72,12.72,0,0,0-4-1v19.1l5.41,10.79s1.84-13.56,1.84-18.49C793.61,2819.6,793.43,2816,793.23,2812.66Z"/><path class="cls-31" d="M810,2916.1c-1.64-4.32-2.15-12.1-2.13-15.5,0-4,1-18.42,1-27.63,0-4.8-.37-13.23-1-21.6h0s.87,18.55-1.76,22.63a35.75,35.75,0,0,0-4.43,13c0,1.7,1.7,9.77,1.7,9.77s5.6,17.44,6.55,19.35Z"/><path class="cls-31" d="M807.6,2933.25a10.87,10.87,0,0,0,3.75-4.09,19.31,19.31,0,0,0,1-3.93c-2,.95-11.91,5.54-18,5.42-6.82-.13-30.06,6.4-30.06,6.4s14.21.06,20.6,0,8.44,0,8.44,0,1,6.95,1,8.75c0,.45,0,1.26,0,2.22,8.94-1.54,13.28-2.22,13.28-2.22Z"/><path class="cls-31" d="M725.26,2930.64c-4-2.12-10.24-6-12.69-7.52a5.4,5.4,0,0,0,.15,1.28c.7,2.73,1,2.73,2.19,6.14s-.55,6.82,0,9.55a18.76,18.76,0,0,0,2.64,5.74s.45.34,1.31.86a34,34,0,0,1-.46-10.15,37.48,37.48,0,0,1,4.11,1c3.09.82,14.75,0,14.75,0S730.29,2933.32,725.26,2930.64Z"/><path class="cls-32" d="M698.1,3146.19a13,13,0,0,1,6.14-2.05c3.07,0,17.4-.26,20.72,1s7.42,5.38,7.42,5.38-.77,17.9,1.54,23.79-1.54,16.88-1.79,17.91-5.89,5.88-10.49,6.65-17.4,1.28-22.52,0-10.49-2.3-11-4.35-2.81-16.12,0-18.93S698.1,3146.19,698.1,3146.19Z"/><path class="cls-32" d="M763.59,3163.58s0,18.8,2,20.66,9.21,2.88,14.58,2.37,17.91,1.28,23.29,2.3,23.53-2.3,24.81-3.58,3.33-14.84,3.33-16.63-4.61-5.37-11-6.39-16.89-5.82-19.45-7.9a12.78,12.78,0,0,1-3.58-4.64s-9,2.88-16.12,4.64S763.57,3161.29,763.59,3163.58Z"/><path class="cls-28" d="M704.3,3144.14a12.32,12.32,0,0,0-5.68,1.77,142.73,142.73,0,0,1,17.13.48,104.29,104.29,0,0,1,14.92,2.52,22,22,0,0,0-5.64-3.75C721.7,3143.88,707.37,3144.14,704.3,3144.14Z"/><path class="cls-28" d="M732.13,3192.19c.25-1,4.09-12,1.79-17.91s-1.54-23.79-1.54-23.79-.67-.68-1.69-1.56c-1.15,3.81-3.66,12.26-4.2,15.24-.7,3.89-1.41,10.07-5.47,12.72a14.45,14.45,0,0,1-8.66,2.12s3.35,8.66,3.53,11.49c.13,2.15-.34,6.72.27,8.89,2.23-.14,4.18-.33,5.48-.55C726.24,3198.07,731.87,3193.21,732.13,3192.19Z"/><path class="cls-28" d="M781.42,3154.41a57.75,57.75,0,0,0-15.27,6.42c7.49-.62,23.26-2,27.38-3,2.55-.59,6.38-1.38,9.73-2.06a16.14,16.14,0,0,1-2.14-1.38,12.78,12.78,0,0,1-3.58-4.64S788.58,3152.65,781.42,3154.41Z"/><path class="cls-28" d="M831.65,3168.74a1.71,1.71,0,0,0-.22-.76,10.88,10.88,0,0,1-6.33,3.95c-6,1.34-10.78,2-10.78,2a92.66,92.66,0,0,1-6.56,15.21c7.42-.32,19.53-2.7,20.56-3.73C829.6,3184.09,831.65,3170.53,831.65,3168.74Z"/><path class="cls-33" d="M712.36,3179s-12-.39-16.75-1.35-4.58-5-3.17-8.63,6.18-21.3,6.18-21.3-5.57,22-5.66,24.16,2.47,4.36,8.63,5,13.47-.08,17.07-1.76,6.43-9.41,7.84-15.4a27.36,27.36,0,0,1,3.69-9.12s-2.76,9.3-3.27,11.65-1.09,12.32-5.9,14.66S715.81,3179.16,712.36,3179Z"/><path class="cls-33" d="M784.71,3162.85s14.95,6.28,19.49,8,6.24,3.79,11.45,2.9a82.63,82.63,0,0,0,12-2.64,10.27,10.27,0,0,0,3.82-3.08l-1-1.27s-2.69,2.16-3.69,2.73-9.82,3.1-13.56,2.56S784.71,3162.85,784.71,3162.85Z"/><path class="cls-34" d="M739.8,3068.67s3.33-15.86,4.61-18.68,4.34-30.19,5.24-36.07c0,0-.9,24.3-2.17,32.23S739.8,3068.67,739.8,3068.67Z"/><path class="cls-22" d="M807.09,2956.58s-.71.17-1.16.22v.09c-.55-.14-1.08-.28-1.45-.4-1.36-.42-3.85-1.66-4.69-3.23a7.94,7.94,0,0,1-.5-1.39l-1,.27h0a7.39,7.39,0,0,0,2.41,3.4,8.08,8.08,0,0,0,4.56,1.87c1.79.13,2.09-.18,2.09-.18Z"/><path class="cls-22" d="M734,2955.3a29.23,29.23,0,0,1-2.84,4.41c-1.16,1-4.87,2.06-7.1,2.06h-6.34l-.28.66a39.25,39.25,0,0,0,6.58.64c2.58-.09,6.66-1.14,7.61-2s3.35-5.39,3.35-5.39l-.1-.35Z"/><path class="cls-34" d="M722.38,3082.51l-12.8,25.08,20-19.19-10,32.75,15.27-32V3099l3.84-10.37,3.33-6.14s2.55-5.63,0-8.18a16,16,0,0,0-5.87-3.58s-11.37,6-12.35,6.72-1.41,3.25-1.41,3.25Z"/><path class="cls-34" d="M806.14,3057c-.77.27-1.55,1.2-2.31,3l-6.26,15.09s2.82,41.19,2,44.52-4.09,11-4.09,11l-10.75,2.82s16.68,4.59,16.39,5.64a5.45,5.45,0,0,0,.76,2.2c0-.05.05-.12.08-.17,1.34-2.68.8-26.44.8-36.77s.8-30.07,2.15-34.37C805.49,3068.32,805.87,3063.22,806.14,3057Z"/><path class="cls-25" d="M716.83,2888.55c1.26-1.89,3.15-2.94,3.78-4.2s5-17,4.2-22.88-2.94-24.35-4.62-29a26.82,26.82,0,0,0-1.33-3c1.74,3.21.85,23.44-1.81,17.9s-4.85-6.39-4.85-6.39l-2.1,5.6s-5.21,13-8.8,20.17c-2.65,5.32-9.82,23-13.34,31.72,5,2.35,11,4.32,14.6,4.71a33.67,33.67,0,0,0,9,0S715.57,2890.44,716.83,2888.55Z"/><path class="cls-31" d="M754.51,2839.64s5.5-5.19,9.47-5.19,11.38,2.25,16.37,2.59,7.55-1.95,7.55-1.95-3.84-11.9-4.22-12.15-8.44-.64-8.44-.64-11.43,9-12.84,8.24-14.67-8.76-14.67-8.76-3.32.38-3.83,1.92,0,1,0,1S747.22,2837.66,754.51,2839.64Z"/><path class="cls-26" d="M709.35,2835.19a19.11,19.11,0,0,0-8.2-3.08,37,37,0,0,0-5,0s5.41-4.83,9.17-5.21,8.58-4.06,8.58-4.06l.38-.41c-.53-.47-1-.72-1.25-.63,0,0-10.28,3.35-12.17,4.2a42.2,42.2,0,0,0-8.19,6.29c-1,1.26-15.32,30.65-17.42,34.85s-6.09,11.13-6.09,11.13.79,1.17,2,2.9c2.33-4.53,6.33-12.19,9.91-18.52,5.46-9.65,12.9-28.52,16.17-29s11.54,1.27,13.26,4.32a36,36,0,0,0,4.7,6.13S711.66,2836.83,709.35,2835.19Z"/><path class="cls-24" d="M789.14,2814.78a44.79,44.79,0,0,0-2.78-7.11c-2.16-4.63-6.33-5.41-6.8-5.1s-2.16,4.79-4.79,8.5-5.17,11.64-6.49,14.52c-1.76,3.87-4.42,4.33-6.38,4-.43-.57-.88-1.15-1.34-1.74a54.12,54.12,0,0,0-4.64-5.37c-3.55-3.4-18.54-15.76-19-16.68a3,3,0,0,0-2.78-1.4c-1.24,0-6.65,4.64-8.65,7.58s12.2,29,12.2,29,9.58-11.28,14.37-11.43c4.17-.13,10.21,2.31,12.62,4.16l.82.78.93-.77s9.27-8.81,12.05-7.72,12.67,15.29,13.29,14.21S789.14,2814.78,789.14,2814.78Z"/><path class="cls-26" d="M752,2829.08c4.17-.14,10.21,2.3,12.63,4.16l.81.78.93-.77s9.27-8.81,12.05-7.73,12.13,14.52,13.22,14.27l-.74-2.32s-7.36-12.85-11.7-13.72-13.47,9.39-13.47,9.39-10.64-6.65-15.12-6-13,13.33-13,13.33S747.24,2829.23,752,2829.08Z"/><path class="cls-35" d="M759.21,2775.44l-2.21.84-2.37-.66a16.46,16.46,0,0,1-9.36.46c7.18,7.05,11.27,6.75,11.27,6.75,8.36-.58,13-7.43,13-7.43A27.88,27.88,0,0,1,759.21,2775.44Z"/><path class="cls-28" d="M766.21,2777.71l3.34-2.31c-10.18,5.51-24.28.68-24.28.68l4.51,2.41S756.61,2784,766.21,2777.71Z"/><path class="cls-1" d="M746.76,2776.5a18.53,18.53,0,0,0,10.06,2.83,20.22,20.22,0,0,0,10.86-3s-4.58,1.84-12.84,1.63C754.84,2777.92,748.66,2777.35,746.76,2776.5Z"/></svg>