<?xml version="1.0" encoding="UTF-8"?>
<svg xmlns="http://www.w3.org/2000/svg" onmouseup="{ if(window.parent.document.onmouseup) window.parent.document.onmouseup(arguments[0]);}" xml:space="preserve" style="enable-background:new 0 0 319.1 295;" viewBox="0 0 319.1 295" y="0px" x="0px" version="1.1" xmlns:xlink="http://www.w3.org/1999/xlink">
<style type="text/css">
	.st0{fill:#009245;}
</style>
<g id="Layer_2">
	<g>
		<g>
			<path class="st0" d="M186.5,57.8c1.9,0,1.9-3,0-3C184.6,54.8,184.6,57.8,186.5,57.8L186.5,57.8z"/>
		</g>
	</g>
	<g>
		<g>
			<path class="st0" d="M190.5,53.5c0-0.5,0-1,0-1.6c0-1.2-1.3-1.8-2.3-1.3c-3.6,1.9-6.1,4.8-8.8,7.7c-3.4,3.7-7.4,6.7-11.5,9.5     c-6.8,4.7-13.6,9.3-18,16.5c-1,1.6,1.6,3.2,2.6,1.5c4.7-7.6,12.3-12,19.3-17.1c2.9-2.1,5.7-4.2,8.2-6.7c3.1-3.1,5.6-6.7,9.7-8.8     c-0.8-0.4-1.5-0.9-2.3-1.3c0,0.5,0,1,0,1.6C187.5,55.4,190.5,55.4,190.5,53.5L190.5,53.5z"/>
		</g>
	</g>
	<g>
		<g>
			<path class="st0" d="M164.5,71.2c-7.4,5.3-12.9,12.7-18.6,19.7c-2.4,2.9-4.8,5.8-6.6,9.2c-2.3,4.2-3.8,8.6-7.6,11.8     c-1.5,1.2,0.6,3.3,2.1,2.1c2.8-2.3,4.5-5.2,6.1-8.4c2-4.1,4.1-7.6,7-11.2c5.8-7.3,11.5-15.2,19.1-20.6     C167.6,72.7,166.1,70.1,164.5,71.2L164.5,71.2z"/>
		</g>
	</g>
	<g>
		<g>
			<path class="st0" d="M132.3,110.2c-3.3-1-6.6-1.4-10-0.9c-4.9,0.7-7.9,3.2-13.1,0.7c-1.6-0.7-3-1.9-4.5-2.8     c-1.7-1.1-4.7-2.2-6-3.8c-3.5-3.9-2.5-10.4-2.6-15.3c-0.1-2-2.8-1.9-3,0c-0.3,3.1-0.1,5.8,0.8,8.8c0.6,1.8,3.5,1.1,2.9-0.8     c-0.8-2.7-1-5.2-0.7-8c-1,0-2,0-3,0c0.2,4.3-0.7,10.1,0.8,14.3c1.4,3.7,6.2,5.5,9.3,7.4c3.2,2,7.3,5.8,11.4,5.1     c2.3-0.4,4.3-1.8,6.5-2.4c3.5-0.9,7-0.5,10.4,0.5C133.3,113.6,134.1,110.7,132.3,110.2L132.3,110.2z"/>
		</g>
	</g>
	<g>
		<g>
			<path class="st0" d="M94.9,87.6c-0.5-2.1-0.6-3.7,1.2-5.2c1.2-1,2.5-1.8,3.6-2.9c1.3-1.4-0.8-3.5-2.1-2.1     c-1.5,1.6-3.6,2.5-4.9,4.3c-1.5,2-1.2,4.4-0.6,6.7C92.4,90.2,95.3,89.5,94.9,87.6L94.9,87.6z"/>
		</g>
	</g>
	<g>
		<g>
			<path class="st0" d="M89.2,92.9c3.7-2.4,4.4-4.8,5.8-8.8c1.1-3,3-5.2,5.4-7.2c1.5-1.3,2.8-2.4,3.7-4.3c0.9-1.7-1.7-3.2-2.6-1.5     c-1.7,3.4-5.6,5.1-7.6,8.3c-2.4,3.8-2.2,8.2-6.3,10.9C86.1,91.3,87.6,93.9,89.2,92.9L89.2,92.9z"/>
		</g>
	</g>
	<g>
		<g>
			<path class="st0" d="M112.1,58.9c-4,2.9-6.1,7.3-9.8,10.6c-1.4,1.3,0.7,3.4,2.1,2.1c3.4-3.1,5.4-7.4,9.2-10.1     C115.2,60.4,113.7,57.8,112.1,58.9L112.1,58.9z"/>
		</g>
	</g>
	<g>
		<g>
			<path class="st0" d="M105.8,66.2c-3.5,1.6-4.7,5.2-7,7.9c-1.3,1.5,0.9,3.6,2.1,2.1c2.1-2.5,3.3-6.1,6.4-7.5     C109,68,107.5,65.4,105.8,66.2L105.8,66.2z"/>
		</g>
	</g>
	<g>
		<g>
			<path class="st0" d="M103.6,67.4c-1.7,2.7-3.7,5-6.1,7.1c0.7,0.7,1.4,1.4,2.1,2.1c1-1.2,2-2.5,2.9-3.7c1.2-1.5-0.7-3.4-2.1-2.1     C92.8,77.6,86.6,86.7,80,94.5c-1.2,1.5,0.9,3.6,2.1,2.1c6.6-7.8,12.8-16.9,20.4-23.7c-0.7-0.7-1.4-1.4-2.1-2.1     c-1,1.2-2,2.5-2.9,3.7c-1.2,1.5,0.6,3.4,2.1,2.1c2.6-2.3,4.7-4.8,6.6-7.7C107.2,67.3,104.6,65.8,103.6,67.4L103.6,67.4z"/>
		</g>
	</g>
	<g>
		<g>
			<path class="st0" d="M92.1,102c-3.6-1.6-6.7-3.8-9.4-6.7c-1.3-1.4-3.4,0.7-2.1,2.1c2.8,3.1,6.2,5.5,10,7.2     C92.4,105.3,93.9,102.7,92.1,102L92.1,102z"/>
		</g>
	</g>
	<g>
		<g>
			<path class="st0" d="M133.2,112.9c-1.3,3.7-5.3,4.7-5.7,8.7c0.4-0.5,0.7-1,1.1-1.4c-2.7,0.6-6.8-2.4-9.2-3.6     c-2.6-1.3-5.2-2.6-7.8-4c-1.7-0.9-3.2,1.7-1.5,2.6c3.9,2,7.8,4,11.7,5.9c2.6,1.3,4.6,2.6,7.6,1.9c0.7-0.2,1-0.8,1.1-1.4     c0.1-1.3,2.7-3.1,3.6-4.2c0.9-1.1,1.4-2.3,1.9-3.7C136.7,111.8,133.8,111,133.2,112.9L133.2,112.9z"/>
		</g>
	</g>
	<g>
		<g>
			<path class="st0" d="M180.3,59.2c-6.4,3.9-11.7,9.1-17.2,14.1c-5.8,5.3-11.2,10.6-15.5,17.2c0.9,0.3,1.9,0.5,2.8,0.8     c0-3.4,6.9-7.7,9.1-9.7c-0.7-0.7-1.4-1.4-2.1-2.1c-2.6,3.1-4.9,6.8-8.6,8.5c-1.8,0.8-0.2,3.4,1.5,2.6c4.1-1.8,6.5-5.6,9.3-9     c1.2-1.5-0.7-3.4-2.1-2.1c-3.5,3-10,6.6-10,11.8c0,1.5,2,2,2.8,0.8c4.2-6.4,9.4-11.5,15.1-16.6c5.3-4.8,10.5-9.9,16.6-13.6     C183.4,60.8,181.9,58.2,180.3,59.2L180.3,59.2z"/>
		</g>
	</g>
	<g>
		<g>
			<path class="st0" d="M211.2,41.3c-10.5,5.2-20.8,10.4-30.5,17.2c-1.6,1.1-0.1,3.7,1.5,2.6c9.7-6.8,19.9-12,30.5-17.2     C214.4,43,212.9,40.4,211.2,41.3L211.2,41.3z"/>
		</g>
	</g>
	<g>
		<g>
			<path class="st0" d="M212.3,42.2c-3.2-7.3-9.9-11.6-16.2-16.1c-6.4-4.6-13.3-10.8-21.7-10.7c-7.4,0.1-15.4,5.6-21.5,9.3     c-8,4.8-15.1,10.6-22,16.8c-1.1,1,0.1,3,1.5,2.5c6.8-2.2,11.1-8.7,17.1-12.4c3.1-1.9,6.3-3.7,9.5-5.5c3.5-2,6.5-3.2,10.4-1.4     c1,0.5,2,1.1,3.1,1.4c3.1,0.9,6.2,0,9.4,0c4.8-0.1,8.3,2.4,12,5c2.6,1.7,4.6,2.2,4.9,5.4c0.2,2.2,0,2.4-0.4,4.4     c-0.4,2.2,0,4.6-1.7,6.6c-1.7,2-5.2,4.2-7.8,2.6c-1.7-1-3.2,1.6-1.5,2.6c3.3,2,6.3,0.8,9.3-1.3c3-2.2,3.8-4.1,4.5-7.7     c0.6-3.5,3.3-7.8,0.5-10.9c-1.6-1.8-4.2-3-6.2-4.3c-2.4-1.6-4.7-3.3-7.4-4.4c-5.3-2.1-10.8,0.7-15.9-1.4c-4-1.6-6.5-3.1-10.8-1.2     c-5.3,2.3-10.8,5.7-15.6,9c-4.8,3.3-8.4,8.8-14.1,10.6c0.5,0.8,1,1.7,1.5,2.5c5.8-5.1,11.7-10.1,18.2-14.4     c5.9-3.8,13.4-8.7,20.3-10.4c8.5-2.1,16,4.8,22.3,9.3c6.1,4.4,12.7,8.5,15.9,15.5C210.5,45.4,213.1,43.9,212.3,42.2L212.3,42.2z"/>
		</g>
	</g>
	<g>
		<g>
			<path class="st0" d="M193.1,50.2c-3.3-2.8-5.4-1.7-8.5,0.8c-3.9,3.3-6.6,5.8-12.1,5c-2.2-0.3-3.5-0.5-5.7,0     c-1.6,0.4-1.3,3,0.4,2.9c1.8-0.1,3.6-0.1,5.3-0.2c-0.1-1-0.3-2-0.4-2.9c-1.7,0.6-3.4,0.4-5-0.6c0.3-1.9-2.6-2.7-2.9-0.8     c-1,5.7,5,5.1,8.7,4.2c1.6-0.4,1.3-3-0.4-2.9c-1.8,0.1-3.6,0.1-5.3,0.2c0.1,1,0.3,2,0.4,2.9c2.1-0.5,3.9,0.5,5.8,0.5     c2,0,4.2-0.4,6.1-1.1c2.5-1,9.2-8,11.5-6C192.5,53.6,194.6,51.5,193.1,50.2L193.1,50.2z"/>
		</g>
	</g>
	<g>
		<g>
			<path class="st0" d="M167.1,56.9c1.9,0,1.9-3,0-3C165.2,53.9,165.2,56.9,167.1,56.9L167.1,56.9z"/>
		</g>
	</g>
	<g>
		<g>
			<path class="st0" d="M138.7,76.3c6.3,4.1,14.7,0.9,20.4-3.1c6.7-4.8,8.1-11.8,8.6-19.6c0.1-1.9-2.9-1.9-3,0     c-0.4,6.5-1.3,12.4-6.7,16.7c-4.6,3.7-12.3,7-17.7,3.5C138.6,72.6,137.1,75.2,138.7,76.3L138.7,76.3z"/>
		</g>
	</g>
	<g>
		<g>
			<path class="st0" d="M166,56.8c0.3-1.8,0.4-3.1-0.2-4.8c-0.5-1.5-3.1-1.3-2.9,0.4c0.6,6-0.7,12.4-5.1,16.8     c-4.7,4.7-11.4,4.1-17.5,4.4c-1.9,0.1-1.9,3.1,0,3c7-0.4,14.3,0.1,19.6-5.3c5-4.9,6.7-12.1,6-18.9c-1,0.1-2,0.3-2.9,0.4     c0.1,1.1,0.1,2.1,0.2,3.2C162.8,57.8,165.7,58.7,166,56.8L166,56.8z"/>
		</g>
	</g>
	<g>
		<g>
			<path class="st0" d="M176.8,58.4c-3.5,0.8-6.8,1.8-10.2,3c0.6,0.5,1.3,1,1.9,1.4c0-0.8,0-1.6,0-2.5c-0.6,0.5-1.3,1-1.9,1.4     c3.5,1.2,7.2,0.7,10.8,0.5c1.8-0.1,3.4,0,3.9-2c0.2-0.9-0.5-1.9-1.4-1.9c-3.8,0-7.7,0-11.5,0c-1.6,0-1.9,1.9-0.8,2.8     c1.8,1.4,3.6,2.4,5.8,3.2c-0.1-0.9-0.2-1.8-0.4-2.7c-3.3,1.9-6.5,3.9-9.6,6c0.6,0.8,1.2,1.6,1.8,2.4c1.4-1.5,2.2-3,2.8-4.9     c0.4-1.2-0.8-2.1-1.8-1.8c-2.9,0.6-4.3,5.1-5.5,7.5c-0.8,1.8,1.4,3,2.6,1.5c2.2-2.9,4.3-5.5,7.1-7.8c-0.7-0.7-1.4-1.4-2.1-2.1     c-5.4,4.3-10.4,9.1-15.3,13.9c-1.7,1.6-4.4,3.5-5.4,5.6c-1.4,2.8-0.1,5.4-2.9,7.8c-1.5,1.3,0.6,3.3,2.1,2.1     c6-4.8,7.8-13.9,14.6-17.8c-0.7-0.6-1.5-1.1-2.2-1.7c-0.6,3.3-10.5,5.4-12.5,5.3c-1.9,0-1.9,3,0,3c3.7,0.1,6.2-0.9,9.5-2.6     c2.1-1.1,5.4-2.3,5.9-4.9c0.2-1.3-1-2.4-2.2-1.7c-7.1,4.1-9.1,13.4-15.2,18.3c0.7,0.7,1.4,1.4,2.1,2.1c1.7-1.4,2.3-2.9,2.9-5     c0.5-1.7,0-2.4,1.1-4.3c0.8-1.2,2.7-2.6,3.7-3.6c5.2-5,10.4-10,16-14.5c1.5-1.2-0.6-3.3-2.1-2.1c-3,2.4-5.3,5.3-7.6,8.4     c0.9,0.5,1.7,1,2.6,1.5c0.6-1.2,2.2-5.8,3.7-6.1c-0.6-0.6-1.2-1.2-1.8-1.8c-0.3,1.4-1,2.6-2.1,3.6c-1.1,1.2,0.3,3.4,1.8,2.4     c3.1-2.1,6.4-4.1,9.6-6c1.2-0.7,0.8-2.3-0.4-2.7c-2-0.8-3.4-1.6-5-2.9c-0.3,0.9-0.5,1.9-0.8,2.8c3.8,0,7.7,0,11.5,0     c-0.5-0.6-1-1.3-1.4-1.9c-0.1,0.6-10.5-0.4-11-0.6c-0.9-0.3-1.9,0.5-1.9,1.4c0,0.8,0,1.6,0,2.5c0,0.9,1,1.8,1.9,1.4     c3.4-1.2,6.7-2.2,10.2-3C179.4,60.9,178.6,58,176.8,58.4L176.8,58.4z"/>
		</g>
	</g>
	<g>
		<g>
			<path class="st0" d="M148.2,80.1c-0.1,0.1-0.3,0.2-0.4,0.2c0.8,0.8,1.1,0.9,0.9,0.3c-0.1-0.4-0.4-0.8-0.8-1.1     c-0.8-0.6-1.8-0.7-2.7-0.1c0.8,0.4,1.5,0.9,2.3,1.3c0.1-0.9-0.1-1.8-0.6-2.7c-0.7-1.1-2.4-0.9-2.7,0.4c-0.8,2.6,0.5,4.9,2,7     c1.2,1.5,3.8,0,2.6-1.5c-1-1.3-2.3-2.9-1.7-4.7c-0.9,0.1-1.8,0.2-2.7,0.4c0.2,0.4,0.3,0.7,0.2,1.1c-0.1,1.1,1.4,1.9,2.3,1.3     c-0.7-0.5-1-0.5-0.9,0c0.1,0.2,0.2,0.4,0.2,0.5c0.2,0.4,0.6,0.6,1.1,0.8c0.8,0.2,1.8-0.1,2.5-0.5C151.3,81.6,149.8,79,148.2,80.1     L148.2,80.1z"/>
		</g>
	</g>
	<g>
		<g>
			<path class="st0" d="M143.3,91.9c-1.4,1.3-1.9,3.2-3.2,4.6c-1,1.1-2.3,3.1-0.1,3.9c1.7,0.6,3.6-1.1,4.7-2.2     c1.5-1.5,2.5-3.5,4.3-4.9c1.5-1.2,0-3.8-1.5-2.6c-1.3,1-2.2,2.1-3.2,3.3c-0.5,0.6-1,1.3-1.5,1.8c-0.2,0.3-1.8,1.5-1.7,1.6     c0.2,0.4,0.5,0.9,0.7,1.3c0,0.1,1.6-1.7,1.8-2c0.6-1,1-2,1.9-2.8C146.8,92.7,144.7,90.6,143.3,91.9L143.3,91.9z"/>
		</g>
	</g>
	<g>
		<g>
			<path class="st0" d="M133.4,112.5c1.9,0,1.9-3,0-3C131.4,109.5,131.4,112.5,133.4,112.5L133.4,112.5z"/>
		</g>
	</g>
	<g>
		<g>
			<path class="st0" d="M95.4,99.9c1.9,0,1.9-3,0-3C93.4,96.9,93.4,99.9,95.4,99.9L95.4,99.9z"/>
		</g>
	</g>
	<g>
		<g>
			<path class="st0" d="M95.2,84.2c1.9,0,1.9-3,0-3C93.3,81.2,93.3,84.2,95.2,84.2L95.2,84.2z"/>
		</g>
	</g>
	<g>
		<g>
			<path class="st0" d="M188.2,22.6c-6.4-4.2-13.1-6.1-20.7-4.6c-1.1,0.2-1.5,1.8-0.7,2.5c2.6,2.3,5.6,2.4,8.9,2.5     c0.8,0,2,0.3,2.7,0.1c2.5-0.6-1.5-0.4-1.9-0.4c-3.2,0-6.2-1.2-8.6-3.1c-1.5-1.2-3.6,0.9-2.1,2.1c2.6,2,5.4,3.4,8.7,3.9     c2,0.3,6.3,0.6,7.7-1.4c1-1.3,0.6-2.9-0.8-3.7c-3.7-2-8.8,1-12.4-2.1c-0.2,0.8-0.4,1.7-0.7,2.5c6.7-1.3,12.7,0.6,18.4,4.3     C188.3,26.3,189.8,23.7,188.2,22.6L188.2,22.6z"/>
		</g>
	</g>
	<g>
		<g>
			<path class="st0" d="M183.2,24.4c1.9,0,1.9-3,0-3C181.3,21.4,181.3,24.4,183.2,24.4L183.2,24.4z"/>
		</g>
	</g>
	<g>
		<g>
			<path class="st0" d="M197.6,31.3c1.8,4.2,4.6,7.6,8.1,10.5c0.4,0.3,1.4,1.6,1.7,1c-0.2,0.6-2.5,0.9-3,1.1     c-2.1,0.5-4.2,0.7-6.3,1.6c0.5,0.8,1,1.7,1.5,2.5c1.2-1.3,2.5-2.6,3.3-4.2c1-2.2,0.4-4.9,1.8-6.9c-0.9-0.1-1.8-0.2-2.7-0.4     c0.2,1,0.5,1.3,1.1,2.1c0.5,0.3,0.9,0.8,1.1,1.4c-0.5,0.5-1.1,1-1.6,1.5c-0.9,0.9-2.2,1.9-1.7,3.4c1.1,3.5,6.1-0.1,7.5-1.3     c0.9-0.7,0.4-2.3-0.7-2.5c-1-0.2-1.1,0-2.1-0.1c-0.2,0-2.4,0.5-1.9-0.3c1-1.7-1.6-3.2-2.6-1.5c-0.8,1.3-0.9,2.9,0.2,4.1     c1.6,1.9,3.5,0.3,5.6,0.7c-0.2-0.8-0.4-1.7-0.7-2.5c-0.4,0.4-2.5,1.2-2.7,1.6c0.1,0.4,0.2,0.9,0.3,1.3c0.3-0.3,0.5-0.5,0.8-0.8     c0.8-0.5,2.2-1.9,2.6-2.8c0.9-2.6-2-3.1-2.4-5.2c-0.3-1.4-2.1-1.3-2.7-0.4c-1,1.4-1.3,2.5-1.5,4.2c-0.3,2.8-1.2,4.3-3.1,6.3     c-1,1,0,3.1,1.5,2.5c2.5-1,12.1-1.3,11.8-5.5c-0.1-1.9-3.3-3.4-4.5-4.5c-2.6-2.4-4.7-5.2-6-8.5C199.4,28,196.8,29.6,197.6,31.3     L197.6,31.3z"/>
		</g>
	</g>
	<g>
		<g>
			<path class="st0" d="M126.3,117.2c0.5,0,1-0.1,1.4-0.2c0.9-0.2,0.8-0.3-0.2-0.4c0-1.4,0-2.8,0-4.2c-0.4,0.5-0.9,1.1-1.3,1.6     c-0.2,0.2-0.3,0.3-0.5,0.5c-0.6,0.6-0.6,0.7-0.2,0.3c0.8,0.1,1.5,0.2,2.3,0.3c-1.3-0.8-2.5-1.6-4-2.1c-1.5-0.5-3.2-0.6-4.7-1.1     c0.2,1.8,0.5,3.7,0.7,5.5c1-0.7,1.9-0.9,3.1-0.9c4,0.1,3.7-5.5,0-6c-0.2,0-0.3,0-0.5-0.1c-1.6-0.2-3,1.5-3,3c0,1.8,1.4,2.8,3,3     c0.2,0,0.3,0,0.5,0.1c0-2,0-4,0-6c-2.2-0.1-4.3,0.5-6.2,1.7c-2.3,1.5-1.7,4.6,0.7,5.5c1.4,0.5,2.9,0.5,4.4,1     c1.2,0.4,2,1.4,3.2,1.8c2.9,1.1,5-1.8,6.6-3.8c0.9-1.2,1.3-3.1,0-4.2c-0.8-0.7-1.5-1.2-2.6-1.4c-1.1-0.3-1.9,0.1-2.9,0.2     c-1.6,0.2-3,1.2-3,3C123.3,115.7,124.7,117.4,126.3,117.2L126.3,117.2z"/>
		</g>
	</g>
	<g>
		<g>
			<path class="st0" d="M111,110.6c-2.9-3.9-7.9-5.7-12-8c-3.4-1.8-6.4,3.3-3,5.2c1.9,1,3.8,2.1,5.7,3.1c1.4,0.7,3.2,1.4,4.2,2.7     c1,1.3,2.6,1.9,4.1,1.1C111.2,114,111.9,111.9,111,110.6L111,110.6z"/>
		</g>
	</g>
	<g>
		<g>
			<path class="st0" d="M92.4,105c3.9,0,3.9-6,0-6C88.5,99,88.5,105,92.4,105L92.4,105z"/>
		</g>
	</g>
	<g>
		<g>
			<path class="st0" d="M94,106.1c3.9,0,3.9-6,0-6C90.1,100.1,90.1,106.1,94,106.1L94,106.1z"/>
		</g>
	</g>
	<g>
		<g>
			<path class="st0" d="M93.4,95.9c0-1.9,0-3.7,0-5.6c0-1.5,0.5-2.7,0.6-4.2c0-3.2-3.9-3.8-5.6-1.5c-1.2,1.6-2,4.5-3.7,5.5     c-2,1.2-3.4,3-2.8,5.5c1.2,4.8,7.9,6,11.9,4.8c3.7-1.1,2.1-6.9-1.6-5.8c-1.6,0.5-2.5,0-3.9-0.3c-0.1-0.1-0.3-0.2-0.4-0.3     c-0.9,1.3-1,1.8-0.4,1.4c0.4,0,1.2-0.7,1.5-0.9c2.1-1.7,3-4.7,4.6-6.9c-1.9-0.5-3.7-1-5.6-1.5c0,0.5-0.3,1.1-0.4,1.6     c-0.2,0.9-0.1,1.8-0.1,2.7c0,1.9,0,3.7,0,5.6C87.4,99.7,93.4,99.7,93.4,95.9L93.4,95.9z"/>
		</g>
	</g>
	<g>
		<g>
			<path class="st0" d="M118.1,101.9c-3.3,2-9.2,4.3-6.6,9.1c1.4-1.4,2.7-2.7,4.1-4.1c-1.9-1.3-2.7-4-4-5.9     c-1.5-2.2-3.1-4.3-4.3-6.7c-1.1-2.4-2-5-2.7-7.5c-1.1-3.8,0.2-5.2,2.9-7.7c-1.4-1.4-2.8-2.8-4.2-4.2c-1.7,1.8-3.2,3.7-4.5,5.8     c-2.1,3.3,3.1,6.3,5.2,3c1.1-1.7,2.2-3.1,3.6-4.6c2.7-2.8-1.4-6.8-4.2-4.2c-2.4,2.2-4.8,3.8-5.3,7.3c-0.5,3.7,1.3,7.9,2.5,11.3     c1.6,4.3,4.1,7.6,6.5,11.5c1.8,2.8,2.7,5.4,5.6,7.3c2.6,1.7,5.5-1.6,4.1-4.1c1.1,2,3.3-0.2,4.4-0.9     C124.4,105,121.4,99.9,118.1,101.9L118.1,101.9z"/>
		</g>
	</g>
	<g>
		<g>
			<path class="st0" d="M100.8,79.7c-6.1,1.2-6.5,11.4-5.9,16.1c0.9,6.5,5,11.9,10.6,15.2c3.1,1.8,5.7-2.2,3.6-4.7     c-1.2-1.4-2.1-2.8-3.1-4.4c-2-3.3-7.2-0.3-5.2,3c1.2,2,2.6,3.8,4,5.6c1.2-1.6,2.4-3.1,3.6-4.7c-3.5-2-6.1-4.8-7.3-8.6     c-0.5-1.5-1.5-11.1,1.1-11.6C106.2,84.7,104.6,79,100.8,79.7L100.8,79.7z"/>
		</g>
	</g>
	<g>
		<g>
			<path class="st0" d="M97.5,95.5c0,3.1,0.9,6.1,2.6,8.6c0.9,1.3,2.6,1.9,4.1,1.1c1.3-0.8,2-2.8,1.1-4.1c-1.2-1.7-1.8-3.5-1.8-5.6     C103.5,91.6,97.5,91.6,97.5,95.5L97.5,95.5z"/>
		</g>
	</g>
	<g>
		<g>
			<path class="st0" d="M110.4,108.7c1.2,2.7,5,2.6,7.6,2.3c2.1-0.3,4-1.2,6.1-1.3c1.9-0.1,3.9,0.4,5.8-0.3c3.3-1.1,4.9-4.8,6.7-7.4     c3.2-4.5,6.4-9.1,9.6-13.5c2.3-3.1-2.9-6.1-5.2-3c-3.6,4.9-6.8,10.3-10.7,15c-1.1,1.3-2.3,2.9-4.1,3.3c-1.1,0.2-2.5-0.2-3.6-0.1     c-1.2,0.1-7.2,1.6-7.1,1.9C114,102.2,108.9,105.2,110.4,108.7L110.4,108.7z"/>
		</g>
	</g>
	<g>
		<g>
			<path class="st0" d="M133.8,98.9c-2.1,2.6-4.1,5.3-5.8,8.1c-2,3.3,3.2,6.3,5.2,3c1.4-2.4,3.1-4.7,4.9-6.9c1-1.2,1.2-3,0-4.2     C136.9,97.8,134.8,97.6,133.8,98.9L133.8,98.9z"/>
		</g>
	</g>
	<g>
		<g>
			<path class="st0" d="M144.7,85c-0.4-2.1-0.9-4.2-1.6-6.3c-1.7,1-3.3,1.9-5,2.9c0.6,0.8,1.2,1.6,1.9,2.4c2.3,2.9,6-0.8,4.7-3.6     c-1.8-4.2-7.8-6-8.6-10.4c-0.9-4.6-3.1-4.6-7.5-4.6c0.5,1.9,1,3.7,1.5,5.6c1-0.7,1.9-1.3,2.9-2c3.1-2.2,0.2-7.4-3-5.2     c-1,0.7-1.9,1.3-2.9,2c-2.4,1.6-1.6,5.6,1.5,5.6c1,0,2.3-0.1,3.3,0.1c-0.6-0.5-1.2-0.9-1.8-1.4c0.3,0.5,0.2,2.1,0.5,2.8     c0.5,1.4,1.3,2.5,2.3,3.6c2.2,2.4,5.3,3.8,6.7,6.9c1.6-1.2,3.1-2.4,4.7-3.6c-0.6-0.8-1.2-1.6-1.9-2.4c-1.9-2.4-5.9,0.2-5,2.9     c0.7,2.1,1.2,4.1,1.6,6.3C139.6,90.4,145.4,88.7,144.7,85L144.7,85z"/>
		</g>
	</g>
	<g>
		<g>
			<path class="st0" d="M127.4,66c0-0.9-0.4-1.8-0.4-2.6c0-0.9,0.4-1.7,0.2-2.7c-0.5-2.3-2.4-3.1-4.6-2.7c-1.8,0.4-3.8,1.2-5.2,2.4     c-1.3,1.1-2.1,3.6-3.8,3.9c1.1,1.5,2.3,2.9,3.4,4.4c0.5-1,1-2.2,1.7-3.1c0.2-0.3,0.6-0.6,0.9-0.9c0.1-0.1,1.4-2,0.5-0.9     c-0.7,0.3-1.4,0.6-2.1,0.9c1.3-0.1,2.5-0.1,3.7-0.5c1.2-0.3,2.4-0.9,3.7-1c3.8-0.2,3.9-6.2,0-6c-1.6,0.1-3,0.5-4.6,1     c-1.3,0.4-3.1,0.1-4.3,0.9c-0.6,0.3-1,0.9-1.4,1.4c-1,1.5,0.5-0.2-0.6,0.8c-1.2,1-1.9,3-2.6,4.3c-1.3,2.4,0.8,5,3.4,4.4     c2.1-0.5,3.5-1.8,4.8-3.4c1-1.3,2.2-2.9,4.1-2.9c-0.9-0.5-1.7-1-2.6-1.5c-0.1-1.1-0.2-1.2-0.4-0.2c-0.1,0.5-0.2,0.9-0.2,1.4     c0,0.9,0.4,1.7,0.5,2.5C121.4,69.9,127.4,69.9,127.4,66L127.4,66z"/>
		</g>
	</g>
	<g>
		<g>
			<path class="st0" d="M114.2,65.8c-2.4,1.1-4.8,1-6.9,2.7c-2,1.7-3,4.1-3.8,6.4c-0.9,2.5,2.3,4.7,4.4,3.4c0.7-0.4,1.4-1,2-1.6     c2.7-2.8-1.6-7-4.2-4.2c-0.2,0.3-0.5,0.5-0.8,0.6c1.5,1.1,2.9,2.3,4.4,3.4c0.5-1.3,1.1-3.1,2.4-3.8c0.7-0.3,1.6-0.4,2.4-0.6     c1.1-0.3,2.2-0.8,3.2-1.2c1.5-0.7,1.8-2.8,1.1-4.1C117.4,65.3,115.7,65.1,114.2,65.8L114.2,65.8z"/>
		</g>
	</g>
	<g>
		<g>
			<path class="st0" d="M112.6,69.8c3.9,0,3.9-6,0-6C108.8,63.8,108.8,69.8,112.6,69.8L112.6,69.8z"/>
		</g>
	</g>
	<g>
		<g>
			<path class="st0" d="M106.3,75.4c-5.8,8-8,33.2,7.6,31.3c2.3-0.3,3.6-2.3,2.6-4.5c-2.1-4.5-5.1-7.2-4.9-12.5     c0.1-3.9-0.7-11.6,1.8-14.8c2.5-3.2,13.1-0.5,10.7-8.2c-1.8,0.8-3.7,1.5-5.5,2.3c2.5,4,5.7,7.3,9.2,10.5c2.8,2.6,5.4,6.4,9.5,6.6     c2.5,0.1,3.5-2.6,2.6-4.5c-1.1-2.4-2.9-3.6-4.7-5.5c-1.9-2-2.8-4.7-4.7-6.8c-1.9-2.2-6.1,0.1-5,2.9c2.1,5.2,4.6,10.1,7.6,14.7     c0.6-1.5,1.2-2.9,1.8-4.4c-4.8,2-8.9,6.4-12.1,10.4c-3,3.8-5.1,7.8-3.7,12.7c1.1,3.7,6.9,2.1,5.8-1.6c-1.2-4.1,2.7-7.7,5.1-10.5     c1.1-1.3,2.3-2,3.7-3c0.9-0.6,1.8-1.9,2.7-2.3c1.7-0.7,3-2.6,1.8-4.4c-2.8-4.2-5.1-8.6-7-13.3c-1.7,1-3.3,1.9-5,2.9     c1.6,1.8,2.2,4.1,3.8,6c1.6,1.8,3.6,2.9,4.6,5.2c0.9-1.5,1.7-3,2.6-4.5c-1.7-0.1-5.6-5.2-6.9-6.4c-2.5-2.4-4.7-4.8-6.5-7.6     c-1.8-2.8-6.5-1.1-5.5,2.3c-0.8-2.6-7,0-8.3,1.3c-2.8,2.6-3.7,6.7-3.9,10.4c-0.3,4.3-1,9.5-0.4,13.7c0.7,4.4,3.8,7.6,5.7,11.5     c0.9-1.5,1.7-3,2.6-4.5c-9.9,1.2-5.5-18.1-2.4-22.3C113.7,75.3,108.5,72.3,106.3,75.4L106.3,75.4z"/>
		</g>
	</g>
	<g>
		<g>
			<path class="st0" d="M129.8,80.3c-0.5,1.4-1.3,2.5-2.5,3.3c1.4,1.4,2.8,2.8,4.2,4.2c4.4-4.8-0.5-11.9-4.9-15     c-6.2-4.3-13.3-2.5-17.5,3.5c-3.2,4.6-5.8,13.7-0.5,17.9c5.4,4.3,14.1,2.5,19.3-1.1c-1.2-1.6-2.4-3.1-3.6-4.7     c-4,3.9-8.7,7.6-10.8,12.9c1.9,0,3.9,0,5.8,0c-0.7-2.7-1.8-5.2-3.2-7.7c-1.9-3.4-7.1-0.3-5.2,3c1.1,2,1.9,4,2.6,6.2     c0.8,3.1,4.8,2.6,5.8,0c1.6-4,6.3-7.3,9.3-10.3c2.4-2.3-0.8-6.7-3.6-4.7c-2.4,1.7-5,2.8-8,2.8c-5.2-0.1-6.1-4.7-4-9     c1.6-3.3,3.9-5.9,7.9-4.9c0.6,0.2,8.1,5,6.5,6.8c-2.7,2.9,1.3,6.6,4.2,4.2c2.1-1.7,3.2-3.5,4.1-5.9     C136.9,78.2,131.1,76.7,129.8,80.3L129.8,80.3z"/>
		</g>
	</g>
	<g>
		<g>
			<path class="st0" d="M183.6,51.7c0-0.1-0.1-0.2-0.1-0.4c0,0.5,0,1.1,0,1.6c0.3-1.7,1.5-3.6,2.7-4.7c1.2-1.1,1.1-3.1,0-4.2     c-1.2-1.2-3-1.1-4.2,0c-1.2,1.1-2.1,2.5-2.9,3.9c-0.9,1.7-1.7,3.4-1.3,5.4c0.3,1.6,2.2,2.5,3.7,2.1C183.2,55,184,53.3,183.6,51.7     L183.6,51.7z"/>
		</g>
	</g>
	<g>
		<g>
			<path class="st0" d="M186,50.2c4-2.5,8.5-3.5,13.1-4.5c-0.8-1.8-1.5-3.7-2.3-5.5c-4,2.2-10.9,5.6-11.3,10.8     c-0.1,2.1,2.7,3.9,4.5,2.6c2.2-1.6,3.3-3.8,5.2-5.7c1.6-1.7,4.1-2,5.2-4.2c1.8-3.4-3.2-6.4-5.2-3c-0.7,1.2-1.3,2.4-1.8,3.7     c-0.3,0.8-0.5,2.8-0.9,3.2c0.9-0.5,1.7-1,2.6-1.5c-0.7,0.1-1.3,0-2-0.1c-3.8-0.3-3.8,5.7,0,6c1.9,0.2,3.8,0.2,4.8-1.7     c0.5-0.9,0.5-2,0.8-3c0.4-1.3,0.9-2.5,1.6-3.7c-1.7-1-3.5-2-5.2-3c-0.3,0.5-2,1-2.5,1.4c-0.7,0.5-1.3,1-1.8,1.6     c-1.4,1.5-2.3,3.6-4,4.8c1.5,0.9,3,1.7,4.5,2.6c-0.1,1.2,0.7-0.4,1.1-0.8c0.7-0.7,1.5-1.4,2.4-2c1.5-1.1,3.2-2,4.8-2.9     c3.1-1.7,0.9-6.2-2.3-5.5c-5.1,1.1-10.1,2.3-14.5,5.1C179.7,47.1,182.8,52.3,186,50.2L186,50.2z"/>
		</g>
	</g>
	<g>
		<g>
			<path class="st0" d="M189,41.8c2,0.8,3.9,1.1,6,1.4c-0.5-1.9-1-3.7-1.5-5.6c-3,2.1-7.1,1.8-10.3,3.5c1.4,1.4,2.7,2.7,4.1,4.1     c2-4.6,9.9-11,2-14.2c-6.4-2.6-14.3-3.3-19.4,2.4c-3.9,4.4-4.4,12,2.3,13.5c3.4,0.8,8,1,11.2-0.5c1-0.5,2.1-1.1,2.7-2.1     c0.1-0.1,1.6-3.3,0.3-2.5c3.3-2.1,0.3-7.2-3-5.2c-1.4,0.9-1.4,1.6-2.2,2.9c-0.8,1.2,0.2,1.1-1.6,1.6c-1,0.3-3.8,0.3-4.8,0     c-4.5-1.5,1.6-5.6,4.1-5.9c1.7-0.2,7.7,0.4,8.9,1.8c-0.3-1-0.5-1.9-0.8-2.9c-0.2,1-1.5,2-2.1,2.9c-1.2,1.6-2.1,3.3-2.9,5.1     c-1.2,2.7,1.3,5.6,4.1,4.1c3.4-1.7,7.2-1.3,10.3-3.5c2.6-1.8,1.4-5.2-1.5-5.6c-1.5-0.2-3-0.6-4.4-1.2     C186.9,34.6,185.4,40.4,189,41.8L189,41.8z"/>
		</g>
	</g>
	<g>
		<g>
			<path class="st0" d="M200.9,39.3c-2.9-8-8.4-13.3-17.3-13c-4.5,0.2-9.4,1-13.7-0.2c-4.4-1.2-7.8-1.4-12.4-0.5     c0.5,1.9,1.1,3.9,1.6,5.8c0.8-0.2,1.6-0.4,2.4-0.5c-1-1.7-1.9-3.3-2.9-5c-0.2,0.2-0.4,0.5-0.6,0.7c-1.3,1.7-0.8,5.5,2.1,5.1     c0.5-0.1,0.9-0.1,1.4-0.2c-0.3-2-0.5-3.9-0.8-5.9c-2.2,0.4-4.3,0.7-6.5,1.1c-3.3,0.6-2.6,6.1,0.8,5.9c5.4-0.4,10.8-1.2,16.1-2.5     c-1.1-1.5-2.3-2.9-3.4-4.4c-4.5,7.1-13.5,9.3-20.9,12.4c-3.4,1.5-2.1,7.1,1.6,5.8c3.3-1.1,7.7,1.9,10.4,3.5     c2.7,1.7,4.9,3.9,7.3,6c2.7,2.3,7.7,7,11.3,4.2c1.2-0.9,1.7-1.9,1.4-3.4c-1.4-7.5-10.8-9.3-13.5-15.7c0,1,0,2,0,3     c1-2,3.4-2.9,5-4.4c1.3-1.3,2.1-2.7,2.8-4.4c1.1-2.6-2.3-4.5-4.4-3.4c-3.7,2-6.6,5.4-10.5,7c-2.3,1-3.3,5.3,0,5.8     c3,0.4,5.9,0.8,8.9,1.2c3.8,0.5,5.4-5.3,1.6-5.8c-3-0.4-5.9-0.8-8.9-1.2c0,1.9,0,3.9,0,5.8c4.5-1.8,7.7-5.3,12-7.6     c-1.5-1.1-2.9-2.3-4.4-3.4c-1.8,4.3-10.3,5.6-6.5,11.6c2.9,4.7,11.1,7.3,12.2,13c0.5-1.1,0.9-2.3,1.4-3.4     c-0.2,0.1-11.5-9.6-13.2-10.6c-4.1-2.4-9.5-5.4-14.3-3.8c0.5,1.9,1.1,3.9,1.6,5.8c9.2-3.9,18.9-6.4,24.5-15.2     c1.5-2.3-0.9-5-3.4-4.4c-4.8,1.2-9.6,1.9-14.5,2.3c0.3,2,0.5,3.9,0.8,5.9c2.2-0.4,4.3-0.7,6.5-1.1c3.3-0.6,2.6-6.3-0.8-5.9     c-0.5,0.1-0.9,0.1-1.4,0.2c0.7,1.7,1.4,3.4,2.1,5.1c0.2-0.2,0.4-0.5,0.6-0.7c1.8-2.3,0.2-5.7-2.9-5c-0.8,0.2-1.6,0.4-2.4,0.5     c-3.8,0.9-2.2,6.5,1.6,5.8c6-1.2,11.7,1.2,17.9,1.2c3.4,0,7.4-1,10.7-0.1c3.9,1,6.1,4.8,7.4,8.3     C196.4,44.4,202.2,42.9,200.9,39.3L200.9,39.3z"/>
		</g>
	</g>
	<g>
		<g>
			<path class="st0" d="M173.1,50.6c3.9,0,3.9-6,0-6C169.3,44.6,169.3,50.6,173.1,50.6L173.1,50.6z"/>
		</g>
	</g>
	<g>
		<g>
			<path class="st0" d="M196.4,35.8c0-0.1,0-0.2,0-0.2c0-1.6-1.4-3.1-3-3c-1.6,0.1-3,1.3-3,3c0,0.1,0,0.2,0,0.2c0,1.6,1.4,3.1,3,3     C195,38.7,196.4,37.4,196.4,35.8L196.4,35.8z"/>
		</g>
	</g>
	<g>
		<g>
			<path class="st0" d="M163.1,26.6c3.9,0,3.9-6,0-6C159.3,20.6,159.3,26.6,163.1,26.6L163.1,26.6z"/>
		</g>
	</g>
</g>
<g id="Layer_1">
	<g transform="translate(-177.57 -430.51)">
		<path d="M433.8,721.9c-2.9-1.9-6.4-4-7.8-4.5c-2.9-1.1-3.2-3.4-1-8.7c0.8-2,1.5-4.5,1.5-5.5c0-2.1-4.7-6.7-6.9-6.8    c-3.7-0.1-39.3-8.6-37-8.8c1.4-0.2,10,1.3,19.1,3.2s17.3,3.6,18.4,3.6s3.1,1.2,4.6,2.7l2.8,2.7v-3.6c0-2,0.6-4.1,1.4-4.7    s1.7-2.4,2.1-3.8s1.5-3.8,2.5-5.2s2.3-4.4,2.9-6.6c0.7-2.8,2.9-5.8,7.1-10c3.3-3.3,6-6.3,6-6.7s-1.7-1.7-3.8-3s-7.2-5.5-11.4-9.3    c-14.2-13.1-23.6-19.5-28.6-19.5c-2.5,0-14.3-4-16.7-5.7c-2.6-1.8-2.3-1.7,7,1.1c4.4,1.4,8.8,2.5,9.8,2.5c2.9,0,13.8,5.9,19,10.4    c2.7,2.3,7.4,6.5,10.5,9.5c5.6,5.3,16.3,13.2,18,13.2c0.5,0,3.5,2,6.7,4.5c4.1,3.2,5.2,4.5,3.8,4.5c-1.1,0-3.4,1.5-5.1,3.2    c-3.2,3.3-11.7,19.4-12.9,24.5c-0.4,1.5-1.7,4.8-3,7.3c-1.6,3.2-2.6,7.2-3.1,13.8l-0.8,9.3L433.8,721.9L433.8,721.9z M438,717.2    c0.4-2.3,1.1-6.5,1.5-9.2s1.7-6.8,2.9-9s2.1-4.5,2.1-5.2c0-2.9,9.4-21.2,12.6-24.5l3.5-3.6l-3.5-2.7c-1.9-1.5-3.9-2.7-4.5-2.7    c-2.2,0-13.9,12.7-14.6,15.9c-0.4,1.8-2.5,6.6-4.6,10.8s-3.9,8.8-3.9,10.2s-1,6-2.2,10c-1.4,4.8-1.8,7.6-1.1,7.8    c0.6,0.2,3,1.7,5.5,3.2s4.7,2.9,5,3S437.6,719.5,438,717.2L438,717.2z M363.6,684.4c-6.9-1.6-13.9-2.9-15.5-2.9    c-6.4-0.1-9.4-3.7-23-27.5c-4.7-8.2-9.5-15.7-10.6-16.5c-2.5-2-3.3-7-2.1-14.3l0.9-5.8l-3.6-2.7c-2-1.5-7.1-5.9-11.3-9.9    c-6-5.6-8.9-7.6-12.9-8.8c-2.9-0.9-7.3-2.6-9.8-3.8c-3.8-1.9-6.8-2.3-17.3-2.7l-12.8-0.5l6.3-7.5c3.4-4.1,10.1-13,14.8-19.7    l8.5-12.2l7.5-0.3l7.5-0.3l-18.2-10.8l-18.2-10.8l8.1-9.7l8.1-9.7l-20.8-0.3c-19-0.2-21-0.4-23.3-2.2c-1.4-1.1-3.2-2-4.1-2    c-2.3-0.1-13-5.8-10.9-5.9c1.6,0,6.3,1.8,15.3,6.1c3.3,1.6,6.3,1.9,17.2,1.9c12.8,0,13.3-0.1,15.7-2.5c3.1-3.1,3.1-3.5,0.5-3.5    c-1.6,0-2-0.7-2-3c0-1.6,0.5-3,1-3s1-0.9,1-2s0.7-3.1,1.6-4.4l1.6-2.4l-5.3,1.9c-5.7,2.1-12.8,2.6-12.8,0.9c0-0.5,1.7-1,3.8-1    s6.1-0.9,9-2c6.4-2.4,14.2-2.6,18.5-0.3c3,1.5,5.9,2.3,16,4c4.1,0.7,5-0.6,1.5-2.1c-3-1.3-3.7-7.8-1.1-10.7    c1.6-1.8,2.6-1.9,8.3-1.4l6.5,0.6l-3.9-2.1c-4-2.1-9.9-3.5-20.1-4.5c-3.3-0.3-6.5-1.1-7.2-1.6s-2.9-1.5-5-2.2    c-5.7-1.9-12.3-5-12.3-5.8c0-1,4.4-1,5.4,0c0.4,0.4,3.5,1.3,6.8,2c5.9,1.2,6.2,1.2,9-1.2c1.6-1.4,3.3-2.5,3.9-2.5s0.9-0.7,0.9-1.5    c0-2,0.4-1.9,8.5,1.1c3.8,1.5,9.1,3.4,11.6,4.3c4.2,1.5,4.5,1.8,3.7,4.1c-0.5,1.3-0.8,3.2-0.6,4.1c0.2,1.3,2,0.4,8.5-4.3    c4.7-3.4,8.2-6.7,8.2-7.7c0-3.8-6-7.7-26.1-16.6c-5.7-2.5-11.1-5.2-12-6c-2.7-2.4-7-1.7-17.5,2.9c-5.5,2.4-12.9,5.4-16.5,6.7    s-7.7,3.1-9.2,4.2s-4.2,2.4-6,3s-6,2.7-9.3,4.7c-6.5,3.9-7.7,4-24.6,2.6l-8.6-0.7l-1.9,2.9c-1.1,1.6-3.6,7.1-5.8,12.3    c-3.5,8.6-3.8,10.1-3.5,17.3c0.2,5.8,0,7.8-0.9,7.8c-0.9,0-1.2-2.3-1.2-8c0-7.8,1.7-14.4,5.6-21.9c0.8-1.5,1.4-3.1,1.4-3.7    s1.2-2.7,2.6-4.9l2.6-3.8l8.6,0.6c4.7,0.3,10.7,0.9,13.3,1.2c4.2,0.5,5.4,0.2,11.5-3.4c3.8-2.2,8-4.3,9.3-4.7    c1.4-0.4,3.7-1.6,5.1-2.6s6.2-3.2,10.5-4.8c4.3-1.6,12.2-4.8,17.4-7c9.8-4.2,14.9-5.1,17.2-2.8c0.7,0.7,8.5,4.6,17.3,8.6    c15.4,7.1,21,10.6,22.4,14.4c0.6,1.6,1.2,1.4,5.6-1.6c2.7-1.8,8.3-4.6,12.3-6.1c6.7-2.5,7.7-2.7,11.5-1.6    c4.9,1.4,17.2,8.5,18.4,10.4c0.4,0.7,2.6,2.3,4.9,3.4s5.2,3.6,6.6,5.4s3.8,4.5,5.3,6s2.5,3.1,2.1,3.6s-3.6,2.1-7.3,3.6    c-8.3,3.3-23.7,13.4-32.4,21.2c-3.5,3.2-8.2,7.2-10.4,9l-4,3.2l5,0c2.8,0,7.2-0.7,10-1.6s10.2-2,16.5-2.4s13.5-1.5,15.9-2.4    s6.7-1.6,9.6-1.6c5.4,0,6.4-0.7,9.3-5.7c1.9-3.4,1.5-11.8-0.7-16.1c-1.1-2-3.4-5.3-5.2-7.2c-1.9-2-3.8-5.4-4.5-8    c-1.5-5.6-1.7-14.7-0.3-15.5c0.5-0.3,1-1.3,1-2.2c0-2.3,3-4.2,6.8-4.3c3.6,0,7.6,3.3,8.5,7.2c1.7,7.5,11.5,25.2,14.7,26.8    c0.8,0.4,3.1,1.4,5,2.3c9.3,4.3,17.1,9.6,22.3,15.3c6.1,6.8,10.7,14.8,10.7,18.8c0,1.5,0.7,2.8,1.8,3.2c1,0.4,3.6,1.9,6,3.5    s4.6,2.7,5,2.6c1.3-0.4,16.7,5.4,18.5,7c2.6,2.2,2.5,19.8-0.2,27.3c-3.5,9.9-7.7,17.3-10.9,19.2c-1.7,1-3.3,2.5-3.6,3.5    s-2.2,2.7-4.1,4l-3.5,2.2l-9.7-4.9c-8.1-4.1-9.2-4.9-6.7-5c2.2,0,4.1-1.2,6.8-3.9l3.8-3.9l-7.1-2.8c-5.4-2.1-7.1-3.2-7.1-4.7    c0-1.8-0.6-1.9-7.8-1.4c-10,0.6-25.1,2.3-32.8,3.6c-3.3,0.6-12.2,1.7-19.7,2.6c-13.3,1.5-14.1,1.5-24.9-0.5    c-13.5-2.6-17.9-4.7-17.9-8.7c0-3.3-1.4-4-12.9-7.3c-15.3-4.3-16-4.7-16-8.2c0-4.9-2.6-3.2-6.8,4.4l-4,7.2l3,1.4    c1.6,0.8,6.2,4.4,10.2,8.1s10.8,9.3,15.2,12.7l12.8,9.7c2.7,2,6,3.7,7.4,3.7s3.8,1.1,5.4,2.4c1.6,1.4,4.9,2.7,7.6,3.1    c5.1,0.8,8.3,2.8,8.3,5.3c0,0.8,1.8,3.2,4,5.2c4.6,4.2,5.1,7.2,1.9,10.7c-1.9,2-2,2.4-0.5,2.9c3.9,1.5,1.2,2.4-5.1,1.8    c-7.1-0.7-7.9-1.1-20.3-10.7c-3.4-2.7-7.7-5.1-9.4-5.3c-2.8-0.4-3.8,0.1-8.1,4.3c-3,3-5.7,4.7-6.8,4.5c-3.9-0.8-4.6,0.4-3,5    c1.8,5.3,3.2,6.4,16.2,13l10.3,5.2l4.6,9.6c2.5,5.3,5.5,10.6,6.6,11.8s1.6,2.6,1.2,3c-0.8,0.8-7-5.4-7.8-7.8c-0.4-1.1-1-1-2.9,0.7    c-2.8,2.5-12.9,7.7-13.6,7c-0.5-0.5,10.8-9.1,13.1-10c1.8-0.7-1.6-2.6-4.7-2.6c-1.5,0-3.6-0.5-4.6-1c-1.4-0.7-2.2-0.5-3.6,1    c-1,1.1-2.9,2-4.3,2c-2.4,0-2.4-0.1-0.8-1.8c2.6-2.9,2-5.2-3.2-12.5l-4.9-6.8l-1.8,3.1c-1,1.7-2.1,3.1-2.5,3.1s-2.7-2.6-5.2-5.8    s-5.6-6.8-6.9-8l-2.5-2.3l-0.6,3.8c-1.2,7-0.8,10.1,1.7,12.5c1.3,1.3,5.9,8.6,10.2,16.2c8.9,15.8,15.8,26,18.1,26.9    c0.9,0.3,2.8,0.6,4.2,0.7c4.9,0.1,27.5,5.6,27.9,6.8c0.2,0.6,0.2,1.1,0.1,1.1S370.5,686,363.6,684.4L363.6,684.4z M359.5,645.7    c0-0.4-0.9-1.8-1.9-3c-1.7-2-2.2-2.1-4-1c-2.7,1.7-2.6,2.2,0.7,3.5C357.7,646.5,359.6,646.7,359.5,645.7L359.5,645.7z     M349.6,640.6c0-1.9-9.1-11.1-11-11.1c-1,0,3.4,7.2,6.8,11.2C347.4,643,349.6,642.9,349.6,640.6L349.6,640.6z M353.6,638.5    c0-0.5-0.7-1.2-1.6-1.5c-1.4-0.5-1.4-0.4-0.4,0.9C353,639.6,353.6,639.8,353.6,638.5L353.6,638.5z M333.6,626.2    c0-0.4-0.4-0.8-1-0.8c-2,0-4-6-4-12c0-5.8,0.8-8.5,3.9-12.3c2.1-2.6,11-2.4,16.3,0.4l4.1,2.1l1.9-2.4c3.2-4,5.1-6.9,4.7-7.2    c-0.2-0.2-2.6-1.8-5.4-3.7c-8.6-5.8-25.5-19.1-33.3-26.1c-6.6-6-8.4-7-16.1-9.4c-9.4-2.9-22.1-4.3-22.1-2.5c0,0.6,1.4,1.1,3,1.1    c2.1,0,3,0.5,3,1.6c0,1.4-0.8,1.5-4.8,1c-3.3-0.4-4.3-0.3-3.3,0.3c0.8,0.5,1.1,1.3,0.7,1.7s0.7,1.5,2.5,2.5c2.9,1.5,3,1.8,1,1.8    c-1.2,0-2.2,0.5-2.2,1s-1.1,1-2.4,1s-2.7,0.4-3,0.9s0.5,0.7,1.7,0.4c2-0.4,1.9-0.1-1,2.6c-1.8,1.7-3.2,3.5-3.2,4    c0,1.5-6.1,10.2-7.6,10.8c-2.8,1.1-1.5,4.1,2.1,4.7c1.9,0.4,6.3,2,9.8,3.6s7.1,3,8.1,3c2.5,0,6.7,3,15.3,10.9    c3.9,3.6,9.7,8.8,12.9,11.5s7.6,7.4,9.8,10.4l4.1,5.4l2.3-2.9C332.5,628.2,333.6,626.6,333.6,626.2L333.6,626.2z M334.6,596.6    c-0.1-3.7,6.9-10.6,8.8-8.6c0.3,0.4,0,0.9-0.8,1.2c-1.7,0.6-4.1,3-6.3,6.3C335.4,596.8,334.7,597.3,334.6,596.6L334.6,596.6z     M284.6,590.7c0-3,20-30.2,22.2-30.2c1.5,0,0.7,1.2-6,9.3c-3.7,4.5-8.5,11.2-10.8,14.9C286.5,590.7,284.6,592.8,284.6,590.7    L284.6,590.7z M326.6,590.8c0-1.3,5-8.3,7.2-10.2c0.9-0.7,1.8-0.9,2.1-0.5s-1.7,3.3-4.4,6.3C328.8,589.5,326.6,591.4,326.6,590.8    L326.6,590.8z M278.6,588.9c0-1.9,22.7-32.3,24.2-32.4c1.7-0.1,0.3,2.2-7.5,12.1c-4.5,5.7-9.8,12.8-11.6,15.7    C280.8,588.7,278.6,590.8,278.6,588.9L278.6,588.9z M318.6,584.5c0-0.5,1.3-2,2.9-3.3s3.4-3.4,4-4.6s1.6-2.2,2.2-2.2    c1.5,0-0.8,3.9-4.4,7.8C320.2,585.4,318.6,586.2,318.6,584.5L318.6,584.5z M311.6,580.6c0-2.6,7.4-9.8,10.2-10.1    c1.6-0.1,0.7,1.8-1.1,2.4c-1,0.3-3.1,2.4-4.8,4.5C313.2,581.2,311.6,582.4,311.6,580.6L311.6,580.6z M303.6,576.6    c0-1.7,10.1-12.2,11.2-11.6c0.5,0.3-1.4,3.1-4.3,6.2C304.8,577.3,303.6,578.2,303.6,576.6L303.6,576.6z M383.3,615    c2-1.8,2.4-2.5,1.2-2.5c-0.9,0-2.4,0.9-3.4,2c-1.7,1.9-1.9,1.9-3.7,0.3c-1-0.9-1.8-2.3-1.8-3c0-2-2-1.6-4,0.9    c-1.7,2-1.7,2.3-0.2,3.5C374.3,618.3,380.2,617.7,383.3,615L383.3,615z M383.4,610.4c1.8,0,1.4-1.5-0.8-3.5    c-1.9-1.7-2-1.7-3.9,0.6c-1.4,1.8-1.7,2.8-0.9,4.2c0.9,1.7,1.1,1.7,2.7,0.3C381.4,611.1,382.8,610.4,383.4,610.4L383.4,610.4z     M341,607c4.4-4.2,4.6-4.5,2.7-5.5c-5.1-2.7-9-1-12.1,5.2c-1.2,2.4-1.2,2.9,0,3.7C334.3,612.2,336.3,611.4,341,607L341,607z     M371.4,608.9c1.7-0.9,3.7-2.6,4.3-3.8s1.6-2.5,2.2-2.8c0.7-0.4,0.6-1.2-0.3-2.3c-1.2-1.5-1.5-1.5-3.2,0.1c-1,0.9-1.9,2.3-1.9,3.1    c0,1.6-5.2,0.9-10.8-1.4c-2.6-1.1-3.7-1.1-4.8-0.2c-1.6,1.4-1.9,2.9-0.4,2.9c0.6,0,2.9,1.3,5.1,3    C366.5,610.9,367.2,611,371.4,608.9L371.4,608.9z M369.3,596.2c-4.1-0.6-5.4-0.4-7,0.9c-1.8,1.6-1.8,1.8-0.1,2.7    c1,0.5,3.1,1.3,4.8,1.6c2.4,0.5,3.4,0.1,5.2-1.9l2.2-2.5L369.3,596.2L369.3,596.2z M257.6,586l-5.5-1.2l2.8-1.3    c1.5-0.7,2.8-1.9,2.8-2.6s0.3-1.4,0.8-1.6c0.8-0.4,5.2-6.5,5.2-7.3c0-0.3,2.3-2.8,5-5.7s5.3-6.4,5.6-7.8s1.5-3.6,2.7-4.9    c1.6-1.7,1.7-2.2,0.6-2.2c-0.8,0-5.3,5.5-9.9,12.2s-10.6,14.8-13.3,18l-4.8,5.8l6.8-0.1l6.8-0.1L257.6,586L257.6,586z     M479.1,579.4c0.3-1.1,1.8-2.6,3.3-3.3c1.9-1,4-4.1,7.2-10.7c4.4-9.2,4.5-9.5,4.8-21l0.3-11.6l-5.3-2c-2.9-1.1-6-2.3-6.8-2.6    c-1.2-0.5-1.4,0.3-1.2,4.2c0.8,11.2-8,33.7-16.5,42.4l-4.6,4.7l5.8,2.9l5.8,2.9l3.3-1.9C477,582.2,478.8,580.4,479.1,579.4    L479.1,579.4z M472.3,559.7c4.4-9.5,7.2-19.6,7.2-25.9c0-3.8-0.4-4.3-6.5-8.7c-3.6-2.6-6.7-4.7-7-4.7s-0.5,1-0.6,2.2    c-0.1,2-0.2,1.9-1.5-0.8c-0.8-1.7-1.4-3.8-1.4-4.8c-0.1-3.9-5.7-13.4-11.5-19.6c-6-6.5-18.8-14.9-24.8-16.4    c-2.4-0.6-8.8-8.1-8.8-10.3c0-0.4-0.6-1.5-1.4-2.3s-2.9-5.2-4.7-9.6c-4.5-10.9-5.6-12.5-8.8-12.5c-5.6,0-6.6,1.9-6.5,12.4l0,9.6    l4.7,4.7c5.8,5.9,7.8,10.5,7.7,18c0,4.6-0.6,6.6-2.8,9.8c-2.7,3.9-3,4-9.7,4.6c-3.8,0.4-9.9,1.3-13.5,2.2s-9.4,1.6-13,1.6    s-9,0.7-12,1.5s-8.5,1.5-12.2,1.5l-6.7,0l-4.1,4.8l-4.1,4.8l18.2,0.3c21,0.3,23.6,0,27.6-3.3c1.6-1.4,3.7-2.5,4.6-2.5    c1.5,0,1.5,0.2-0.1,3c-1,1.6-2.5,3.3-3.3,3.7c-1.4,0.7-28.9,2.5-35.6,2.4c-1.6,0-5.5-0.3-8.5-0.6c-5.1-0.5-5.7-0.4-8.7,2.5    c-3.2,3.1-5,6.7-3.9,7.8c0.3,0.3,1.1,0.1,1.8-0.6c1.8-1.8,12.4-1.4,20.7,0.8c9.3,2.5,16,2.5,23.1-0.1c3-1.1,8.6-2.2,12.5-2.5    l7-0.5l-4,1.6c-2.2,0.9-4.9,2-6,2.5c-2.5,1.1-7.9,1.8-18,2.6c-6.3,0.5-9.7,0.1-16.2-1.5c-14-3.6-19.3-2.6-19.3,3.4    c0,1.9,0.2,3.5,0.5,3.5s6.4,1.8,13.6,4c12.8,3.9,13.2,3.9,17.6,2.4c3.4-1.2,5.2-1.3,7.5-0.5c1.7,0.6,6.8,1.1,11.4,1.1    c6.9,0,9.3-0.4,13.9-2.7c3.1-1.5,5.9-3.3,6.1-4c0.8-2,3.3-1.6,3.3,0.5c0,2.4-1.4,3.4-8,5.4c-9.9,3-22.6,3.9-30.4,2.3    c-2.7-0.6-3.7-0.5-3.2,0.3c0.4,0.6-0.3,1.4-1.4,1.7c-2.5,0.8-2.2,3.3,0.5,4.9c1.1,0.6,2.5,1.6,3.1,2.2s5.8,1.9,11.5,2.8    c10.1,1.7,10.7,1.7,28.4-0.3c9.9-1.2,19.8-2.6,22-3.1s6.3-1,9.1-1s6.4-0.4,8-1s6.6-1.1,11.1-1.3l8.2-0.3l-0.6,2.8    c-0.4,1.9-0.1,2.8,0.8,2.8c0.8,0,3.6,1.1,6.4,2.4s5.3,2.4,5.6,2.5S470.1,564.5,472.3,559.7L472.3,559.7z M415.6,534.4    c0-0.5,1.2-1,2.8-1s5.7-1.4,9.2-3.1c6.5-3.1,10.3-4.3,19.5-5.8c2.8-0.5,5.8-1.2,6.8-1.5c2.7-1.1,2.1,0.9-1,3.2    c-2.1,1.5-4.7,2.2-10.4,2.5c-5.4,0.3-8.2,0.9-9.5,2.1C429.2,534,415.6,536.9,415.6,534.4L415.6,534.4z M314.7,540.7    c4.3-8.1,8.6-14.4,12.5-18.6c3.3-3.5,7.7-8.3,9.9-10.8c10.5-11.7,33.1-28.5,46.2-34.5l7.4-3.4L386,468c-2.6-3-5.6-5.8-6.6-6.1    s-4-2.4-6.6-4.7c-6.6-5.7-17.8-11-22-10.4c-5.1,0.8-16.9,6.9-26.4,13.8c-12.3,8.9-16.4,12.4-15.6,13.3c0.4,0.4,3.1-1.2,6-3.6    c8.2-6.9,25.7-16.9,29.5-16.9c1.8,0,3.3,0.3,3.3,0.8c0,1.4,7.3,3.1,9.2,2.2c4.3-2.3,9.2-1,15.7,4.2c4.6,3.7,6,5.4,5.2,6.2    c-0.6,0.6-1.1,3.4-1.1,6.1c0,4.7-0.3,5.2-3.6,7.4c-3.4,2.2-3.6,2.2-4.9,0.5c-1.3-1.7-1.5-1.6-4.7,1.3c-4.7,4.5-9,6.4-11.2,5.2    c-1.2-0.7-2.8-0.6-4.9,0.1c-4,1.4-3.8,1.4-3.8-1.2c0-1.2-0.6-2.9-1.2-3.8c-1.4-1.8-8.4-6-9.9-6c-0.6,0-1.9-0.7-2.9-1.6    c-1.4-1.3-2.2-1.4-4.1-0.4c-3.4,1.7-10.9,9.1-11.9,11.7c-0.5,1.3-1.7,2.2-2.9,2.2c-2.1,0-5.3,3.8-4.4,5.2c0.3,0.5,1.3,0.2,2.3-0.7    c1.6-1.4,1.9-1.4,3.4,0.3c0.9,1,1.7,2.7,1.7,3.9c0,3.5,3.2,8.6,6.1,9.7c2.2,0.8,2.9,1.7,2.9,3.8c0,1.5,0.5,3,1,3.3    c1.9,1.1,1,4-3,10c-2.2,3.3-4,6.8-4,7.8c0,2.9-5.3,9.7-7,9c-4.5-1.8-9.3-1.6-13.9,0.6l-4.7,2.2l-6.8-4.6c-3.8-2.5-7.6-4.6-8.6-4.6    c-1.9,0-3.3-1.3-2.3-2.3c1.3-1.3,1-8.3-0.4-11.5c-2-4.3-1.6-5.1,9.6-19c5-6.2,9.1-11.5,9.1-11.8c0-2.7-17.2,14.9-27.4,28    c-3.6,4.6-6.6,8.7-6.6,9s6.6,4.5,14.8,9.2s16.5,9.8,18.6,11.2c4.4,2.8,13.4,6.3,15.6,6C307.4,553,311,547.4,314.7,540.7    L314.7,540.7z M294.8,539.4c3.5-2.1,12.2-2.8,13.3-1c0.3,0.5,0.9,1,1.3,1c1.2,0,5.2-6.5,5.2-8.4c0-1,1.9-4.5,4.1-7.8    c3.5-5.1,4-6.4,3-7.9c-0.6-1-1.1-2.7-1.1-3.9c0-1.2-1-2.5-2.6-3.2c-2.7-1.2-6.4-7.4-6.4-10.6c0-2.9-1.1-3.4-3.3-1.5    c-1.8,1.7-2,1.6-3.3-0.2c-1.7-2.3-1.8-4.2-0.4-5c1.9-1.2,1-2.2-1.8-2c-3.9,0.3-3.6,0.1-7.2,4.8l-3.3,4.2l4.6-4.4    c7.5-7.1,7.4-4.2-0.1,3.2c-5,5-7.5,6.7-9,6.5c-2-0.3-1.7-0.9,3-6.7c2.8-3.5,4.9-6.5,4.7-6.8c-0.5-0.5-18.9,22.1-20.7,25.5    c-0.9,1.7-0.8,2.9,0.5,5.6c0.9,1.9,1.4,4.5,1.1,5.7c-0.8,3.2,0.3,6.8,2.2,6.8c0.9,0,4.1,1.8,7.1,4s5.6,4,5.7,4    S293,540.5,294.8,539.4L294.8,539.4z M302.6,533.9c-1.6-2-1.1-3.1,5.5-11.9c5.3-7,5.8-7.4,8-6.4c1.3,0.6,2.4,1.5,2.4,1.9    c0,1.1-13.2,17.9-14.1,17.9C304.1,535.4,303.3,534.8,302.6,533.9L302.6,533.9z M310.4,525.4c3.4-4.4,5.6-8,4.9-8    c-1.3,0-10.1,11.1-11.3,14.4C302.8,534.9,304.2,533.5,310.4,525.4L310.4,525.4z M291.9,521.8c0.4-0.4-0.2-1.3-1.3-2.1    c-3.7-2.6-1.9-10.8,2.9-13.1c3.1-1.4,5.1-1.5,5.1-0.2c0,0.5,1.1,1,2.5,1c1.8,0,2.5,0.5,2.5,2c0,1.1,0.5,2,1,2c2,0,1,6.1-1.5,8.5    c-1.9,1.9-3.5,2.5-7.2,2.5C293.4,522.4,291.5,522.1,291.9,521.8L291.9,521.8z M301.4,517.9c2.3-2.6,2.9-5.5,1.2-5.5    c-0.5,0-1-0.6-1-1.2c0-1.6-5.4-4.2-5.8-2.8c-0.2,0.6-1.2,1-2.1,1c-1,0-2.1,1-2.4,2.2c-0.9,3.4-0.8,4.2,1.1,6.5    C294.7,521.2,298.7,521,301.4,517.9L301.4,517.9z M271.1,504.4c-0.3-0.5-2.8-1-5.5-1s-5.2,0.5-5.5,1c-0.4,0.6,1.7,1,5.5,1    S271.5,505.1,271.1,504.4z M277,499.8l1.9-2.6l-3.9,0.6c-6.9,1-10.4,1.9-11,2.8c-0.3,0.5,0.9,0.9,2.8,0.9s3.9,0.4,4.7,0.9    C273.3,503.5,274.7,502.9,277,499.8L277,499.8z M269.9,496.2c4.1-1.9,3.3-2.8-2.8-2.8c-3,0-5.5,0.2-5.5,0.4s-0.3,1.1-0.6,2    c-0.5,1.3,0.1,1.6,2.8,1.6C265.6,497.4,268.4,496.9,269.9,496.2L269.9,496.2z M283.9,492.9c3.2-2.8,2.8-4.5-1.2-4.5    c-1.5,0-4.5-0.9-6.7-2c-5.2-2.6-8.1-2.5-11,0.5c-3.7,3.7-3.1,4.5,3.5,4.5c5.3,0,6,0.2,6,2C274.6,496.4,280.3,496.1,283.9,492.9    L283.9,492.9z M312.3,484.1c1.6-3.5-2.2-7.6-7.1-7.6c-2,0-4.7-0.5-6.1-1.2c-2.2-1-2.9-0.9-5.1,1.2c-3,2.8-2.9,6,0.3,7.4    c1.2,0.5,2.2,1.3,2.2,1.8s3.3,0.8,7.3,0.8C310.6,486.4,311.3,486.2,312.3,484.1L312.3,484.1z M352.7,483.3c-2.3-1.8-2.3-2-0.7-4.4    c0.9-1.4,2.3-2.5,3.1-2.5s1.5-0.5,1.5-1c0-1.4-3.3-1.3-4.8,0.2c-1,1-1.8,0.6-3.9-1.5l-2.7-2.7l2.2-1.9c1.2-1,2.2-2.8,2.2-3.8    c0-2.6,5.2-4.9,7.9-3.4c1.3,0.7,2.2,0.7,2.6,0.1c1.1-1.8,4.4-1.1,5.6,1.2c1,1.9,0.9,2.4-1,3.6c-1.2,0.8-2.1,2-2.1,2.7    s-1,2-2.2,2.8s-1.7,1.6-1,1.6s2-0.8,3-1.9s2.5-2,3.5-2c2.1,0,2.2,0.7,0.5,2.4c-0.7,0.7-1.9,2.3-2.7,3.4s-2.2,2.1-3.1,2.1    c-2.2,0-5.2,3.5-4.8,5.5c0.3,1.3,1.5,0.7,6.1-3.1c5.3-4.4,5.9-4.6,7.1-3c1.1,1.5,1.6,1.6,3.4,0.5c1.7-1,2.2-2.5,2.4-7.2l0.3-5.9    l-5-4c-4.6-3.7-5.3-3.9-9.5-3.4c-7.8,1-15,0.3-15-1.5c0-1.7-4.2-0.9-8.6,1.7c-4.9,2.9-5.9,4-1.9,2.2c2.1-0.9,2.7-0.9,3.5,0.3    c0.5,0.8,0.9,1.7,0.9,2s-3.2,2.4-7.2,4.7s-8.1,4.9-9.2,5.8s-0.2,0.6,2-0.6s4.4-2.6,4.9-3.1c0.5-0.5,1.7-0.1,2.7,0.8    c1.7,1.5,1.7,1.7,0.1,3s-1.6,1.3,0,1.4c3.5,0.1,12.7,7.2,12.7,9.8c0,1,0.8,1.2,2.8,0.8c1.5-0.3,3.4-0.2,4.2,0.4    C355.1,487,355.2,485.4,352.7,483.3L352.7,483.3z M320,475.8c0.4-1.1-0.3-0.9-2.4,0.6c-1.6,1.2-3,2.6-3,3.1    C314.6,480.9,319.3,477.6,320,475.8L320,475.8z M327.8,467.7c4.3-2.5,7.6-4.8,7.3-5c-0.7-0.7-8.5,3.6-14.9,8.4    c-7.2,5.3-8.6,6.6-3.7,3.5C318.5,473.3,323.6,470.3,327.8,467.7L327.8,467.7z M357.9,471.4c1-1.1,1.5-2.4,1.2-2.9s0.6-1.1,2-1.5    s2.5-1.3,2.5-2.1c0-1.8-1.2-1.9-2.8-0.3c-1,1-1.6,1-3.2,0c-1.6-1-2.4-1-4,0c-1.1,0.7-2,1.7-2,2.2s-0.7,1.7-1.6,2.7    s-1.3,2.2-0.9,2.8C350.2,474.2,356,473.6,357.9,471.4L357.9,471.4z M305.5,464.8c0-1.4-4.1-3-9.3-3.7c-2.1-0.3-4.6-1.2-5.5-2    c-1.5-1.3-2.2-1.2-6.9,1.1c-5.1,2.5-6.7,4.3-3.8,4.3c0.8,0,2.1,0.3,3,0.6c1,0.4,1.6,0.1,1.6-1c0-2.3,0.9-2,3.2,0.9    c1.4,1.8,2.9,2.5,5.6,2.5c2,0,5,0.6,6.7,1.3c2.7,1.2,3.1,1.1,4.2-0.8C305,466.9,305.5,465.4,305.5,464.8L305.5,464.8z     M179.7,501.1c-1.8-1.9-2.2-3.5-2.2-8.6c0-3.9,0.4-6,1-5.6c0.6,0.3,1,2.3,1,4.4c0,3.7,2.4,10.1,3.9,10.1c0.4,0,1.7-0.9,2.9-2    c2.1-2,7.2-2.8,7.2-1.2c0,0.5-1.1,1.4-2.5,2.2s-2.5,1.7-2.5,2.2C188.6,504.5,181.9,503.4,179.7,501.1L179.7,501.1z"/>
	</g>
</g>
</svg>