<?xml version="1.0" encoding="UTF-8"?>
<svg xmlns="http://www.w3.org/2000/svg" onmouseup="{ if(window.parent.document.onmouseup) window.parent.document.onmouseup(arguments[0]);}" viewBox="0 0 960 960" data-name="Panel 1" id="Panel_1" xmlns:xlink="http://www.w3.org/1999/xlink"><defs><style>.cls-1{fill:#f5e0cd;}.cls-2{fill:#4a0f00;stroke:#4a0f00;}.cls-10,.cls-12,.cls-15,.cls-18,.cls-2,.cls-20,.cls-21,.cls-24,.cls-3,.cls-4,.cls-40,.cls-43,.cls-44,.cls-45,.cls-46,.cls-48,.cls-5,.cls-55,.cls-6,.cls-60,.cls-7,.cls-9{stroke-miterlimit:10;}.cls-2,.cls-5{stroke-width:0.57px;}.cls-10,.cls-18,.cls-3,.cls-41,.cls-5{fill:#cf9e76;}.cls-12,.cls-3{stroke:#926d5a;}.cls-3,.cls-4{stroke-width:0.12px;}.cls-4,.cls-45,.cls-46,.cls-53,.cls-56,.cls-60{stroke:#000;}.cls-10,.cls-15,.cls-18,.cls-5{stroke:#b08874;}.cls-6,.cls-7,.cls-8{fill:#bdccd4;}.cls-6,.cls-7,.cls-9{stroke:#698693;}.cls-6{stroke-width:0.46px;}.cls-18,.cls-7,.cls-9{stroke-width:0.58px;}.cls-12,.cls-15,.cls-36,.cls-38,.cls-40,.cls-43,.cls-44,.cls-46,.cls-48,.cls-51,.cls-52,.cls-9{fill:none;}.cls-10,.cls-15{stroke-width:0.35px;}.cls-11{fill:#b26e6b;}.cls-12{stroke-width:0.69px;}.cls-13{fill:#926d5a;}.cls-14{fill:#42210b;}.cls-16{fill:#ccc;}.cls-17{fill:gray;}.cls-19{fill:#d2e0b8;}.cls-20,.cls-21{fill:#29abe2;stroke:#29abe2;}.cls-20{stroke-width:0.71px;}.cls-21,.cls-24,.cls-38,.cls-40,.cls-43,.cls-44,.cls-45,.cls-46,.cls-48,.cls-55{stroke-width:0.7px;}.cls-22{fill:#754c24;}.cls-23,.cls-24,.cls-25{fill:#ecc19c;}.cls-24,.cls-25,.cls-38{stroke:#ecc19c;}.cls-25,.cls-36{stroke-miterlimit:1;}.cls-25{stroke-width:0.25px;}.cls-26{opacity:0.51;}.cls-27{fill:url(#linear-gradient);}.cls-28{fill:url(#linear-gradient-2);}.cls-29{fill:url(#linear-gradient-4);}.cls-30{opacity:0.7;}.cls-31{fill:url(#linear-gradient-5);}.cls-32{fill:url(#linear-gradient-6);}.cls-33{fill:url(#linear-gradient-8);}.cls-34{opacity:0.49;}.cls-35,.cls-58{fill:#fff;}.cls-36{stroke:#717171;stroke-width:0.41px;}.cls-37{opacity:0.58;}.cls-38,.cls-49,.cls-51,.cls-52,.cls-53,.cls-54,.cls-56,.cls-57,.cls-58{stroke-linecap:round;stroke-linejoin:round;}.cls-39{fill:#603813;}.cls-40{stroke:#603813;}.cls-42{fill:#db9c94;}.cls-43{stroke:#db9c94;}.cls-44{stroke:#cb8c84;}.cls-47{fill:#333;}.cls-48{stroke:#cf9e76;}.cls-49,.cls-50{fill:#e6e6e6;}.cls-49,.cls-54{stroke:#b3b3b3;}.cls-49,.cls-51,.cls-52,.cls-54,.cls-56,.cls-57,.cls-58{stroke-width:0.35px;}.cls-51{stroke:#e6e6e6;}.cls-52{stroke:#666;}.cls-53{stroke-width:0.41px;}.cls-54,.cls-55,.cls-59,.cls-60{fill:#f2f2f2;}.cls-55{stroke:#ccc;}.cls-57{fill:#b2b1b8;}.cls-57,.cls-58{stroke:#999;}.cls-60{stroke-width:0.5px;}.cls-61{font-size:31px;font-family:ComicSansMS, Comic Sans MS;}</style><linearGradient id="linear-gradient" x1="453.95" y1="1340.56" x2="453.95" y2="1537.72" gradientTransform="matrix(1, 0, 0, -1, 174, 2004)" gradientUnits="userSpaceOnUse"><stop offset="0" stop-color="#0e0e0e"/><stop offset="0.5"/><stop offset="0.52" stop-color="#010101"/><stop offset="0.73" stop-color="#0b0b0b"/><stop offset="1" stop-color="#0e0e0e"/></linearGradient><linearGradient xmlns:xlink="http://www.w3.org/1999/xlink" id="linear-gradient-2" x1="442.84" y1="1340.56" x2="442.84" y2="1537.73" xlink:href="#linear-gradient"/><linearGradient xmlns:xlink="http://www.w3.org/1999/xlink" id="linear-gradient-4" x1="449.34" y1="1340.56" x2="449.34" y2="1537.73" xlink:href="#linear-gradient"/><linearGradient id="linear-gradient-5" x1="453.95" y1="1537.72" x2="453.95" y2="1340.56" gradientTransform="matrix(1, 0, 0, -1, 174, 2004)" gradientUnits="userSpaceOnUse"><stop offset="0" stop-color="#fff" stop-opacity="0.77"/><stop offset="0.2" stop-color="#fff" stop-opacity="0.65"/><stop offset="0.34" stop-color="#fff" stop-opacity="0.65"/><stop offset="0.35" stop-color="#fff" stop-opacity="0.65"/><stop offset="0.51" stop-color="#fff" stop-opacity="0"/><stop offset="0.52" stop-color="#e1e1e1" stop-opacity="0"/><stop offset="0.55" stop-color="#b8b8b8" stop-opacity="0.01"/><stop offset="0.57" stop-color="#929292" stop-opacity="0.02"/><stop offset="0.6" stop-color="#727272" stop-opacity="0.03"/><stop offset="0.63" stop-color="#565656" stop-opacity="0.04"/><stop offset="0.66" stop-color="#404040" stop-opacity="0.05"/><stop offset="0.7" stop-color="#2f2f2f" stop-opacity="0.06"/><stop offset="0.75" stop-color="#242424" stop-opacity="0.08"/><stop offset="0.81" stop-color="#1d1d1d" stop-opacity="0.1"/><stop offset="1" stop-color="#1b1b1b" stop-opacity="0.16"/></linearGradient><linearGradient xmlns:xlink="http://www.w3.org/1999/xlink" id="linear-gradient-6" x1="442.84" y1="1537.73" x2="442.84" y2="1340.56" xlink:href="#linear-gradient-5"/><linearGradient xmlns:xlink="http://www.w3.org/1999/xlink" id="linear-gradient-8" x1="449.34" y1="1537.73" x2="449.34" y2="1340.56" xlink:href="#linear-gradient-5"/></defs><title>scenario 1</title><path class="cls-1" d="M879.28,114.2,85.9,113q-1,398.58-2,797.17Z"/><g id="Table"><path id="Table-2" data-name="Table" class="cls-2" d="M549.22,907H359.63l18.08-21.59q86.21-11.17,172.4-22.38Z"/></g><g id="Neck"><path class="cls-3" d="M184.41,516.38c-2.66,6.76,4.84,16.3,8.88,21.33,22.54,28,31.58,36.18,42,52.27,4.12,6.37,9.48,16.85,10.26,18.33,5,9.31,6.67,13.14,12.11,23.59,7,13.43,10.48,20.15,11.56,21.27C285.33,670,321,658,321.09,658.53c0,.32-14.52,2.05-14.53,1.89s36.66,4.1,45.36-12.6c7.35-14.12-6.36-41.26-7.56-56.9a110.69,110.69,0,0,0-1.63-12.27c-.33-1.74-.74-3.6-1.25-5.6-2.84-11.19-6.71-18.29-13.87-31.47,0,0-7.32-13.47-16.45-21.12a11.09,11.09,0,0,0-4.9-2.71c-2.15-.45-3.15.22-4.74-.44-.65-.27-2.27-1.13-3.71-4.72-3.11-7.77-1.06-17.53-.44-20.18,1-4.36,2.45-7.89.74-9.93a4,4,0,0,0-2.43-1.26c-41-7.07-54.36-3.16-54.36-3.16-19.28,5.62-25.88,15-37.92,16.46-1.64.21-5.9.57-8.91,3.87-2.32,2.53-1.94,4.64-4.59,9.77S185.42,513.83,184.41,516.38Z"/></g><g id="Hair"><path id="Hair-2" data-name="Hair" class="cls-4" d="M268.09,306.23c-46.41,39.81-47.22,38.35-50.83,45.67-5,10.25-12.09,30.73-19.43,32.5-4.25,1-6.79-.76-6.79-.76a8.33,8.33,0,0,1-2.85-4.25c-4.66-12.58-4.56-13.07-5.47-14.53-3.23-5.25-10.46-8.78-14.23-6.62-1.82,1-1.82,2.85-4.15,13.87-2.56,12.19-3.09,12.59-3,16.07.22,5.71.41,10.7,3.56,14.5,1.08,1.31,3,3.1,3.26,6a8.82,8.82,0,0,1-.73,3.8c-2.31,7.15,6.46,17.91,8.12,20,2.41,3.06,5.52,5.53,7.31,9a28.84,28.84,0,0,1,2.27,8.25q2.91,17.31,5.84,34.61c1,5.74,1.94,11.62,1,17.34-2.16,12.62-13.22,21.4-24.49,26-27.3,11.08-60.11,5.36-84.36,22.71-3.65,2.6-8.54,5.7-11.93,2.76a213.43,213.43,0,0,0,23.52-43c8.63-21.34,12-39.66,14.86-55.71,3.63-20.41,2.28-22.66,6.25-46.22.86-5.1,1.9-10.78,9.73-44.94,11.81-51.68,15-62.9,21.34-77.54,7.35-16.91,13.22-25.07,15.54-28.16,6.59-8.81,16.36-21.88,32.85-29.2,22.9-10.18,46-3.6,61.31.78,8.15,2.34,17.62,6.2,18.23,6.43,7.85,3.22,14.14,5.79,21.71,10.72a110.69,110.69,0,0,1,17.57,14.53c8.6,8.27,12.9,12.42,16.31,19.54.56,1.18,8.09,17.27,2.87,22.4-4.5,4.42-16.08-1.74-18.28-2.89-8.85-4.69-9.65-9.53-14.76-11.5C292.2,285.32,283.41,293.09,268.09,306.23Z"/><path class="cls-4" d="M327.15,474.27c2.24,1.8,1.24,4.26,2.53,12.8.66,4.29,2.87,18.94,11.26,30a42.67,42.67,0,0,0,15.23,12.43c-2.86-.78-5.58-2-8.43-2.89-4.77-1.47-9.77-1.83-14.63-2.86-8.63-1.81-8.05-3.31-15.95-5.09-10.79-2.42-13.52,0-16.83-2.58s-6.25-9.52-1.82-29.82c-.89.4-1.6.69-1.66.58C296.55,486.22,319.65,468.29,327.15,474.27Z"/></g><g id="Left_Hand" data-name="Left Hand"><path class="cls-5" d="M423.52,884.05C421.63,878,456,860.9,474.21,844.81a95.13,95.13,0,0,1,9.93-7.73,103.64,103.64,0,0,1,15.27-8.35c3.07-1.48,3.19-1.78,34.26-21.11,6.23-3.88,13-7.71,15.55-6,1.39,1,1.35,2.82,1.63,9.77.22,5.36,1.84,45.23-1.79,57.31-.36-1.27-2.15-.72-3.19,0-11.44,8.15-52.43,8.38-52.43,8.38C452.35,876.14,425.19,889.45,423.52,884.05Z"/></g><g id="Shirt"><path class="cls-6" d="M445.38,602.08c6.27,1.64,5.37,32.72,13.24,47.48a46.57,46.57,0,0,1,4.06,10,48.08,48.08,0,0,1,1.73,12.51c.4,13.95,3.15,14.31,3.71,28.37.61,14.91-2.31,18.93.89,29.94.49,1.71,1.42,4.09,3.26,8.83,4.8,12.35,6.6,14.5,8.9,21.43,3,9,.93,8.28,3.78,17.42,3.17,10.19,6,12.13,7.9,16.75a24.5,24.5,0,0,1,1.42,5.47c2.46,13.85,8.7,25,5.07,28.36-1.22,1.14-2.22.18-4.74,1.74a13.23,13.23,0,0,0-4.9,6.14C484.5,848,457.34,866.15,444.42,877l-.14.11a42.34,42.34,0,0,1-8.9,5.53c-5.06,2.35-8.07,3.73-10.41,2.42-5.56-3.1-4.33-11.66-5-18.29-.33-3-2-5.71-4.37-11.32-2.92-7-4.44-10.57-7-14.09a38.33,38.33,0,0,0-7.27-7.43c-10.75-8.91-18.25-44-11.47-85.83a216.8,216.8,0,0,1,6.76-28.62C408.9,677.55,435.05,599.37,445.38,602.08Z"/><path class="cls-7" d="M181.93,520.07c-3-.6-3.75,1.89-19.73,9.94-4,2-8.12,4-12.51,4a32.65,32.65,0,0,1-7.48-1.5c-11.12-2.94-29-1.08-41.2,3.09C90.75,539.08,81,542.45,76.35,552c-1.92,4-2.26,7.6-2.82,14.18-1,11.7.3,20,1,26.48,2.72,23.94-.14,40.67-.15,70.79v2.19c0,3,0,8.49,0,15.35,0,19.45.06,29.22.43,31.27,2.57,14.49,10.35,30.4,14.54,35.49a25.39,25.39,0,0,1,4.9,8.84,31.74,31.74,0,0,1,.87,3.89l2.31,12.91A128.43,128.43,0,0,1,99,786.48c1,15.29-2.73,16-1.27,28,.6,5,1.67,8.45,1.48,15.34a66.47,66.47,0,0,1-.85,8.71c-2.61,17.76-1.52,18.44-2.87,23.7-4.24,16.58-19,25.06-20.61,36.36-.19,1.31-.86,5.3,1.16,6.76a5.12,5.12,0,0,0,3.69.68c22.74-4,46.23,3.51,69.12.65,3.14-.4-1.08.18,80,.31,60.69.1,77.08-.22,95.61,0,8.15.1,16.34-.71,24.46,0,6.39.55,10.3,1.34,15.56-.31,6.32-2,10.66-6.25,13.79-9.93,12.24-14.39,14.23-29.61,25.79-57.84,4.4-10.76,4.55-9.6,11.56-26.32,8.17-19.48,12.26-29.22,13.34-35.46,1.64-9.34,5.65-32.38-5.78-48.85-4.74-6.84-11.74-12-10.67-19.38.45-3.14,2-3.94,4.83-10.11,2.58-5.5,3.31-9.88,5.25-15.88a80.76,80.76,0,0,0,3.87-24c-.59,0-.85-.49-1.44-.49,3-3.14,22.25-23.89,20.41-55.38-1.52-26-16.49-42.74-22.68-48.7-9.5-9.17-18.91-12.87-30.68-17.49-18.25-7.17-22.37-4.18-48.92-11.35-21.12-5.7-31.6-11.12-33.35-8s9.29,9.25,19.42,27.26c9.11,16.18,12.88,32.34,14.52,40,.69,3.21,1.4,8.08,2.82,17.81,3.38,23.21,5.06,34.89,3.71,38.29-6.73,17-36.57,24.63-57.81,16.08-9.27-3.74-9.21-7.58-45.36-53.43-16.67-21.13-25-31.71-29.95-37.19-14.21-15.78-18.38-17.9-23.86-28.68C188.53,528.31,187.18,521.11,181.93,520.07Z"/><path class="cls-8" d="M443.41,606.94c-.19,2-.34,3.28-.61,5s-.56,3.61-.92,5.39c-.69,3.63-1.57,7.21-2.59,10.75a111.33,111.33,0,0,1-7.92,19.94,114.82,114.82,0,0,1-6.09,10.48h4.09c-.15-.33-.28-.67-.43-1a2.3,2.3,0,0,0-3.24-.89,2.67,2.67,0,0,0-.85,3.45c.15.33.28.66.43,1a2.3,2.3,0,0,0,2.05,1.24,2.42,2.42,0,0,0,2-1.24,119,119,0,0,0,16.89-41.29A123.38,123.38,0,0,0,448.15,607a2.43,2.43,0,0,0-2.37-2.52,2.48,2.48,0,0,0-2.37,2.5Z"/><path class="cls-9" d="M196.66,620.73q6.59,10.35,13.15,20.72c7.26,11.44,14.54,22.93,23.21,33.19,3,3.62,6.29,7.07,9.65,10.37,3.05,3,6.49,6.4,6.42,10.79"/><path class="cls-9" d="M211.26,637.65a88.87,88.87,0,0,1,3-17"/><path class="cls-9" d="M266.67,859.51c-2.21-2.3-5.37-3.14-8.36-3.91-14.84-3.8-29.77-8.21-42.93-16.42-23.85-14.88-39.65-40.64-60.61-59.84-5.53-5.06-11.45-9.69-16.31-15.46-3.81-4.52-6.92-9.67-10.83-14.07-5.38-6-12.16-10.53-17.78-16.36-6.28-6.52-10.95-14.58-15.56-22.52a81.83,81.83,0,0,1-4.15-7.8,42.59,42.59,0,0,1-3.59-14.43"/></g><g id="Face"><path class="cls-10" d="M224.14,340.82c15.91-20.75,27.28-20.33,46.61-40.7a44.87,44.87,0,0,1,8.8-7.16,42.35,42.35,0,0,1,21.39-6.66c4-.11,15.3-.4,24.8,7.75A35.19,35.19,0,0,1,335.55,308c1.8,4.72,3.4,12.16,5.79,20.8a16.71,16.71,0,0,0,1.92,4.73c1.54,2.47,2.64,2.6,3.41,4.41.94,2.22.33,4.51-.37,7-1.08,3.83-2.28,4.37-3.93,8.15a25.25,25.25,0,0,0-2.37,9.77,30.5,30.5,0,0,0,2.08,10.87c.22.63.71,1.91,1.48,4.1.67,1.88,1.11,3.18,1.53,4.55a43.94,43.94,0,0,1,1.58,6.64c.25,1.92.22,3.61-.44,8.51-1.23,9.16-1.86,13.73-3.86,18.12-1,2.19-1.46,2.63-2.37,5-1.05,2.78-1.38,4.75-2.22,9.77-3.47,20.51-2,11.31-2.08,11.82-.65,4-.92,6.05-2.22,8.66-1,1.93-1.47,2.13-2.67,4.26a32.44,32.44,0,0,0-3.11,8.51c-1.91,8.05-.05,9.64-1.48,13-2.54,5.93-11,7.23-19,8.45a57.21,57.21,0,0,1-23.23-.65c-6.21-1.47-12.92-4.08-28.28-14.61-16.91-11.58-30.21-22.93-41.89-36-6.43-7.2-12.82-15.38-13.9-25.24a52.65,52.65,0,0,1,.57-12.34c.48-3.74,2-13.51,7.71-27.21A122.54,122.54,0,0,1,224.14,340.82Z"/><path class="cls-11" d="M333.91,434.2c.65-1.8-2.45-5.42-5.93-7.09-12.39-5.91-31.81,12-31,13.71.46.94,6.67-4,19.12-5.36C326.3,434.37,333.06,436.55,333.91,434.2Z"/><path class="cls-11" d="M333.26,438c1,2.08-1.52,6.1-4.24,8.35-10.54,8.68-32.47-2.2-32-5.48.09-.65,1-.62,17.79-2.68C328.2,436.5,332.25,435.92,333.26,438Z"/><path d="M333.46,435.3c-.63-2.46-14.17-.39-15.63-.16-8.6,1.36-18,4.15-17.87,5.2.15.87,6.48-1.51,17.87-.78,5.08.31,10.34,1.21,14.3-2.21C332.68,436.88,333.64,436,333.46,435.3Z"/><path class="cls-12" d="M323.61,357.66a12,12,0,0,0-1.84,9.25,29,29,0,0,0,3.54,8.93,101.41,101.41,0,0,0,9.06,13.63,35.4,35.4,0,0,1,4.58,6.65,10.17,10.17,0,0,1,.58,8,9.71,9.71,0,0,1-3.09,3.8c-4.56,3.53-10.52,4.06-16.15,4.46-2.82.2-5.65.41-8.47.59-1.54.11-3.18.19-4.49-.69s-1.85-3.12-.64-4.13"/><path class="cls-13" d="M327.25,407.23c.06.07-7.59,1.23-8.4,1.23C318.67,404.89,325.61,405.5,327.25,407.23Z"/><path d="M290,344.86c5.38-2.05,11.4-4.07,16.64-1.67a3.2,3.2,0,0,1,.94.6c1,1,.55,3-.57,3.87a7.19,7.19,0,0,1-4,1.19c-7,.63-14.07,1.56-21,2.79-3.39.59-6.79,1.26-10.15,2-2.39.52-7.21,2.71-9.44,1.78C271.1,351.05,280.9,348.29,290,344.86Z"/><path d="M341.69,339.94c-8.61-.58-10.35-1.64-13.1-.05-1.56.9-3.38,2.64-3.06,3.79.26.88,1.72,1.3,2.69,1.34s1.27-.29,2.95-.78c1-.28,1.78-.45,2.31-.55,2.09-.41,4.34-.79,6.74-1.07s4.95-.46,7.19-.53a1.33,1.33,0,0,1,0-.86c.12-.25.3-.3.31-.37C347.75,340.35,341.69,339.94,341.69,339.94Z"/><ellipse class="cls-14" cx="285.21" cy="367.62" rx="5.26" ry="5.59"/><ellipse class="cls-14" cx="334.13" cy="362.41" rx="5.26" ry="5.59"/><path class="cls-10" d="M168.41,358.16c-4.69,1.75-6.32,7.89-7.27,11.5-.49,1.88-1.24,5.46.15,17.18.42,3.44,2.52,20.39,6.82,21.75a3.88,3.88,0,0,0,2.37,0,4.87,4.87,0,0,0,2.34-2.74c1.89-4.4,8.66-6,12.62-11.07,3.69-4.74,3.6-10.84,3.57-13.6,0-1.27-.31-12-8.3-18.75C178.78,360.78,173.48,356.27,168.41,358.16Z"/><path class="cls-15" d="M170.58,399.83c-1.6.74-3.2-1.07-3.89-2.78-2.82-6.85-1.13-14.79,1.06-21.9a21.9,21.9,0,0,1,2.45-5.77,7.31,7.31,0,0,1,4.85-3.4,4.5,4.5,0,0,1,4.84,2.83,2.72,2.72,0,0,1,0,2.08"/><path class="cls-15" d="M173.67,373.4a.77.77,0,0,0,.38,1,2.28,2.28,0,0,0,1.16.11,7.38,7.38,0,0,1,7.16,6.28.65.65,0,0,1-.12.59c-.15.15-.46-.06-.36-.23"/><path class="cls-15" d="M178.54,379.18a7.88,7.88,0,0,0-5.38,3.34c-.46.67-.8,1.66-.26,2.26"/></g><g id="Right_Hand" data-name="Right Hand"><path class="cls-16" d="M275.68,470.51l-17.39,23.87c-3.82,5.25-10.67,6.15-15.32,2.13L172.1,435.35c-4.52-3.91-6.21-12.07-3.68-18.3l11.5-28.3c2.94-7.24,9.56-9.77,14.65-5.44l79.76,67.85C279.58,455.62,280.13,464.39,275.68,470.51Z"/><path id="Phone" class="cls-17" d="M269.31,472.16l-17.42,24c-3.87,5.33-10.7,6.37-15.27,2.45l-69.76-60.09c-4.46-3.85-5.9-11.93-3.12-18.1l12.49-27.72c3.16-7,9.84-9.44,14.78-5.23l77.19,65.72C273.27,457.49,273.71,466.1,269.31,472.16Z"/><path class="cls-10" d="M215.09,443.26V443"/><path class="cls-18" d="M212.82,441s.07-.1.06-.11-.52.25-.52.39c.17,9.38,6.79,17.3,8.39,26.52a248.39,248.39,0,0,1-9-28.41c-2.56-10.18-3.79-15.29-3.87-22-.08-6.85,1-8.93.82-19.36-.15-10-1.2-13.78-3.11-16.87a21,21,0,0,0-8.32-7,2.91,2.91,0,0,0-1.72-.3,3.78,3.78,0,0,0-2.3,1.88c-2.66,4.16-2.59,9.56-2.43,14.59q.31,9.78.64,19.56c.13,4,.73,8.71-.61,12.57-2.38-9.58-3.93-18.61-12.92-24.06-2.72-1.64-6.81-2.32-8.45.52-.89,1.53-.66,3.47-.39,5.23,2.42,16,1.31,15,3.77,22.62.66,2.06.46,1.16,3.23,9.06,3,8.41,3.13,9.26,3.26,10.08.65,4,.15,5.71,1.63,8.83.87,1.84,1.42,2,2.37,4.1a20.86,20.86,0,0,1,1.78,7.25c.3,3.13,1.66,8.52,6.51,18.43.25-.36.38-.67.31-.75-.25-.26-.74,0-.7.38.86-.24,0,.41.36-.48a46.56,46.56,0,0,0,9,29.46c2.21,2.94,4.77,5.61,6.57,8.84,1.38,2.47,2.27,5.23,3.56,7.77,2.46,4.8,6.28,8.62,9.85,12.54,9.4,10.32,11.25,12.48,13.2,16.56.66,1.41,1.27,3,3.06,6.69,2.17,4.5,2.76,5.35,3.27,7.25a19,19,0,0,1,0,8.82c-2.08,10.58,4.77,44,7,57,2.11,12.45,1.53,67,1.93,70.6a74.69,74.69,0,0,1,0,15.45c-1.42,18.54-4.09,29.94.3,37.82.44.79,2,3.45,4.15,7.56,0,0,2,3.88,3.55,7.25,3.68,8,2.72,21.65,3,41.92.1,8.67.38,14.2.89,19.86.78,8.74,1.17,13.13,2.07,15.44,7.3,18.82,61.73,21.55,74,1.58,3.22-5.25,2.57-10.18,1.78-23.17-2.59-43.15,2.05-33.91-.89-68.24A470,470,0,0,0,325.55,691c-12-45.32-16.72-65-18.38-73.44-.43-2.14-1.56-8.16-3.86-16.07-.89-3.06-1.18-3.77-4.74-14.5,0,0-1.62-4.89-5.34-17-.37-1.18-3.21-10.64-2.37-14.18a34.91,34.91,0,0,0,.89-5.52c0-.21,0-.35,0-.46a57.84,57.84,0,0,0-.33-11.2,84.24,84.24,0,0,0-2.66-12c-4.12-15.36-3.18-17.79-7.12-29.63-1.35-4.06-2.8-7.8-3.26-9-2.42-6.18-3.45-7.93-5.17-12-2.55-6.15-5.64-13.54-6.64-22.93-.46-4.29-.27-6.92-1.4-12.31-.83-4-1.32-4.37-2-8.4-.58-3.63-.41-4.7-1.48-6.15-1.22-1.64-2.36-1.51-4.7-4-1.53-1.64-1.29-2-2.14-2.49-2.43-1.48-6.61-.18-8.58,2.79a6.1,6.1,0,0,0-1.07,4.39c.36,1.55,1.43,1.88,2.14,3.83a8.87,8.87,0,0,1,.41,3.55c-.32,7.82,3.65,23.81-.37,25.84-2.23,1.14-6.28-2.44-8.28-5.37-2.17-3.17-1.31-4.6-3.22-10.53-2.44-7.53-4.52-7.29-6.06-14.05-.89-3.88-.43-4.43-1.65-8.06-1-2.94-2-4.66-2.16-7.78a19.57,19.57,0,0,1,.37-4.41c.15-1.06,1.2-9.6-2.55-16.65-.9-1.7-2.85-5.34-5.54-5.28-2.12.05-3.71,2.43-4.17,3.12-1.13,1.71-1.22,3.11-1.91,6.83s-.92,4.1-1.17,5.2c0,0-.18.83-.31,1.73a101.54,101.54,0,0,0-.89,19.23C210.55,433.22,212.56,441,212.82,441Z"/><path class="cls-10" d="M191,422.39a65.22,65.22,0,0,0,.65,9.68,73.66,73.66,0,0,0,4,15.29c1.93,5.45,4.6,13.28,8,24.11"/><path class="cls-15" d="M313.17,855.35c-1.07.19-1.6-1.29-1.75-2.43a14.22,14.22,0,0,1,.12-6.06,13.55,13.55,0,0,1,2.74-4.37c3.89-4.71,8.07-9.61,13.67-11.55"/></g><path class="cls-19" d="M895.69,99.08l-2.2,818.18-820.26,4.8Z"/><g id="Layer_2" data-name="Layer 2"><path class="cls-20" d="M742.93,661.55q-20.2,68.55-40.5,137c-5.29,5.67-66.13,70-81.73,59.45-11.06-7.53,2.87-51.46,30.65-106.82Z"/><path class="cls-21" d="M620.7,858q-13.94-96.56-27.87-193.19c5.2-8.55,9.85-12.54,13.93-12.08,8.46,1,14.59,20.81,18.58,59.44,4.27,5.11,10.4,12.73,17.65,22.3,5.48,7.33,9.66,13.19,10.21,13.93C666.39,767.53,632.21,835.8,620.7,858Z"/><g id="Head_and_Neck" data-name="Head and Neck"><g id="Pony_Tail" data-name="Pony Tail"><g id="_Group_" data-name="&lt;Group&gt;"><path class="cls-22" d="M761.38,522.7a23.66,23.66,0,0,0-2-1.86c-.09-.09-.28-.19-.37-.28L729.43,462.7,699.8,404.55c3.91-.65,7.81-1.3,11.71-1.76a62,62,0,0,1,11.79-.37,40.88,40.88,0,0,1,11.61,2.23A29.8,29.8,0,0,1,745,410.5a30.17,30.17,0,0,1,3.34,3.53c1,1.2,2,2.5,3.07,3.8,1.39,1.86,2.78,3.63,4.18,5.48s2.78,3.63,4.18,5.48c1.2,1.49,2.32,3.07,3.43,4.65a52.37,52.37,0,0,1,3.07,4.83,57.92,57.92,0,0,1,2.69,5.85c.84,1.95,1.58,4,2.42,6,3.25,7.8,7.52,15.32,11.42,22.85s7.34,15,9.2,23.22l.46-.1A33,33,0,0,1,795,506.44a33.69,33.69,0,0,1-.84,10.59c-.28,1.21-.65,2.42-1,3.62a26.42,26.42,0,0,0-.84,3.63,27.92,27.92,0,0,0,0,6.13c.19,2,.56,4.08.84,6.13a105.22,105.22,0,0,1,.09,29.07,99.74,99.74,0,0,1-8.08,27.86c-1.95,4.28-4.18,8.36-6.31,12.54a104.85,104.85,0,0,0-5.67,12.82,60.49,60.49,0,0,0-2.79,12.72,56.28,56.28,0,0,0,.1,13.1,24.93,24.93,0,0,0,1.2,5.85,16.78,16.78,0,0,0,2.6,5.3,18.5,18.5,0,0,0,6.79,5.48,40.71,40.71,0,0,0,8.54,2.88c2,.46,4,.83,6,1.11a32.09,32.09,0,0,0,6,.09,30.42,30.42,0,0,0,11.34-3.9,94.74,94.74,0,0,0,10.21-7c1.12-.84,2.23-1.77,3.25-2.7a8.1,8.1,0,0,0,2-3.06,14.52,14.52,0,0,1,.28,4,21.35,21.35,0,0,1-3.9,11.24,30.54,30.54,0,0,1-8.64,7.89,63.63,63.63,0,0,1-10.68,5.39,60.89,60.89,0,0,1-6.88,2.51,26.66,26.66,0,0,1-7.15,1.11,31.56,31.56,0,0,1-5.94-.55,47.62,47.62,0,0,1-5.86-1.58,70.71,70.71,0,0,1-18.57-8.64,35.34,35.34,0,0,1-12.91-15,36.76,36.76,0,0,1-2.6-10,98.08,98.08,0,0,1-.75-10.4c-.18-5.66-.18-11.33-.09-17s.28-11.33.74-17a48.66,48.66,0,0,0,.19-8.27,17.11,17.11,0,0,0-2.14-7.71,1.84,1.84,0,0,1-.74-.37c-.83-.74-.56-2.23-.46-2.88.74-4.64,13.93-21.27,13.93-21.27a60.41,60.41,0,0,0,6.5-9.29c2.14-3.9,4.64-8.63,4.64-13.93v-.93a6.54,6.54,0,0,1,.93,2.79c-.18,2.69-1.11,5.57-.93,5.57a9.79,9.79,0,0,0,.93-5.57C769.28,532,764.54,525.86,761.38,522.7Z"/><path class="cls-22" d="M760.39,522.7c3.16,3.16,7.89,9.29,7.52,16.25a10.64,10.64,0,0,0-.93-2.79h0a19.72,19.72,0,0,0-5-11.42A25.4,25.4,0,0,0,760.39,522.7Z"/></g></g><g id="Ear"><path class="cls-23" d="M718.45,522.51a65.31,65.31,0,0,1,6-14.08c.92-1.58,1.2-2.78,3-2.41s3.89,3,5.37,3.89c3.43,2,7.69,2.13,11.4,3.61A34,34,0,0,1,756,521.77v-4.83c-9.78-5-24.24-16.38-34.88-6.8-2.59,2.3-3.83,5.65-5.94,8.43a48.4,48.4,0,0,1-6.33,6.23,43.8,43.8,0,0,0-11,15.71c-.39,1,.67,4.12,0,4.79,6.22-5.94,10.44-13.41,15.42-20.31a101.1,101.1,0,0,1,7.86-9.1c2.49-2.69,2.3-7.76,6-8.82v-4.16l1.44,7v-4.64s-4.51,4-5.72,6.87c-.37.74.56,4.27,0,4.64,2-1.3,4.09-2.6,6-4,.75-.47-.65-4.27,0-4.65a49.75,49.75,0,0,0-13,11.52c-.74.93.74,3.72,0,4.65a51.94,51.94,0,0,1,12.68-11.52V507.9c-1.88,1.4-7.21,4.3-7.21,4.3v4.43a54.42,54.42,0,0,1,6.31-6.74c.28-.19.18-4.28,0-4.56-.45-.36-.54-1.45-.54-1.45v4.92l.27-.81c.18-.54-.27-4.41,0-4.5-3.52,1-3.16,5.31-5.32,7.84-2.62,3.06-5.41,5.68-7.84,9-4.69,6.49-8.56,13.52-14.51,19.11v5.11a43.86,43.86,0,0,1,10.65-15.19,47.69,47.69,0,0,0,6.12-6c2-2.69,3.24-5.84,5.74-8.16,10.29-9.26,24.37,1.76,33.73,6.58-.65-.28.55-4,0-4.63a32.68,32.68,0,0,0-11.12-8c-3.89-1.67-8.43-1.76-12.14-3.89-1.67-1-3.06-2.6-4.82-3.43s-1.94-.46-3,1.3a56.34,56.34,0,0,0-6.4,14.73c-.37,1.39.47,3.24,0,4.63Z"/></g><path id="back_of_neck" data-name="back of neck" class="cls-24" d="M743.3,646.23a150.17,150.17,0,0,1-10.22,25.08A160.12,160.12,0,0,1,721,690.81a95.7,95.7,0,0,1-1.86-21.36,99.24,99.24,0,0,1,9.29-39C733.36,635.73,738.38,640.93,743.3,646.23Z"/><path id="Neck_Front" data-name="Neck Front" class="cls-25" d="M674.1,734.93c-8.08.28-12.44,2.69-14.86,5.57-3.16,3.63-3.53,8.18-5.57,8.36-.93.1-2.51-.93-4.65-6.5a206.18,206.18,0,0,0-13.93-17.65c-5.85-6.59-10.21-10.68-10.21-16.72a37,37,0,0,0,0-6.5,32.15,32.15,0,0,0-2.79-9.28,118.35,118.35,0,0,0-9.29-16.72c20.43,10.49,30.65,9.28,36.22,5.57,3.81-2.51,7.62-7.62,10.22-6.5,2,.83,2,4.92,1.86,8.36C665.46,700.29,669.74,717.56,674.1,734.93Z"/><g id="FAce-2" data-name="FAce"><path class="cls-23" d="M623.67,640.66a6.26,6.26,0,0,1-.37,2c-1.4,4.27-8.27,9.1-11.34,16.16-1,2.32-1.39,4.36-2.78,4.64s-3-1.39-4-2.88c.1,0,.19.1.28.1.84-.28.1-6.6-2.6-11.15-2.32-3.9-4.73-4-8.91-8a56.84,56.84,0,0,1-8.36-11.14c-14.4-23-28-48.67-26.38-75.79.09-2.23.37-4.56-.47-6.69-1.39-3.53-5.29-5.39-7.33-8.64-3.53-5.67-.19-13,.18-19.69.19-4.27-.83-8.45-1.39-12.63-1-7.62-.47-15.7,2.69-22.76s8.73-13.19,16-15.88c6.22-2.32,13.09-2.14,19.69-1.77,15.7.84,31.86,2.23,45.7,9.57a111,111,0,0,1,15.14,10.22q17.42,13.36,34,27.58a30.5,30.5,0,0,1,5.29,5.3,15.53,15.53,0,0,1,1.4,2.13c5.11,8.64,7.61,13,7.43,15.7-.37,4.18-3.72,5.85-2.79,7.43,1.49,2.51,9.57-1.3,11.15.93,2.13,3.07-8.18,13.65-10.22,15.79-36.59,37.9-48,49.23-58.33,62.23-5.11,6.41-9.47,11.8-10.4,13A40,40,0,0,0,623.67,640.66Z"/><path class="cls-23" d="M623.67,640.66c-5.76,7.8-10.31,14.67-13.66,20"/><path class="cls-23" d="M623.67,640.66a6.26,6.26,0,0,1-.37,2c-1.4,4.27-8.27,9.1-11.34,16.16-1,2.32-1.39,4.36-2.78,4.64s-3-1.39-4-2.88c.1,0,.19.1.28.1.84-.28.1-6.6-2.6-11.15-2.32-3.9-4.73-4-8.91-8a56.84,56.84,0,0,1-8.36-11.14c-14.4-23-28-48.67-26.38-75.79.09-2.23.37-4.56-.47-6.69-1.39-3.53-5.29-5.39-7.33-8.64-3.53-5.67-.19-13,.18-19.69.19-4.27-.83-8.45-1.39-12.63-1-7.62-.47-15.7,2.69-22.76s8.73-13.19,16-15.88c6.22-2.32,13.09-2.14,19.69-1.77,15.7.84,31.86,2.23,45.7,9.57a111,111,0,0,1,15.14,10.22q17.42,13.36,34,27.58a30.5,30.5,0,0,1,5.29,5.3,15.53,15.53,0,0,1,1.4,2.13c5.11,8.64,7.61,13,7.43,15.7-.37,4.18-3.72,5.85-2.79,7.43,1.49,2.51,9.57-1.3,11.15.93,2.13,3.07-8.18,13.65-10.22,15.79-36.59,37.9-48,49.23-58.33,62.23-5.11,6.41-9.47,11.8-10.4,13A40,40,0,0,0,623.67,640.66Z"/><path class="cls-23" d="M623,640.28a.85.85,0,0,1,.46-.09c.09,0,.19.19.19.37"/><g class="cls-26"><path class="cls-27" d="M623.67,640.66a6.26,6.26,0,0,1-.37,2c-1.4,4.27-8.27,9.1-11.34,16.16-1,2.32-1.39,4.36-2.78,4.64s-3-1.39-4-2.88c.1,0,.19.1.28.1.84-.28.1-6.6-2.6-11.15-2.32-3.9-4.73-4-8.91-8a56.84,56.84,0,0,1-8.36-11.14c-14.4-23-28-48.67-26.38-75.79.09-2.23.37-4.56-.47-6.69-1.39-3.53-5.29-5.39-7.33-8.64-3.53-5.67-.19-13,.18-19.69.19-4.27-.83-8.45-1.39-12.63-1-7.62-.47-15.7,2.69-22.76s8.73-13.19,16-15.88c6.22-2.32,13.09-2.14,19.69-1.77,15.7.84,31.86,2.23,45.7,9.57a111,111,0,0,1,15.14,10.22q17.42,13.36,34,27.58a30.5,30.5,0,0,1,5.29,5.3,15.53,15.53,0,0,1,1.4,2.13c5.11,8.64,7.61,13,7.43,15.7-.37,4.18-3.72,5.85-2.79,7.43,1.49,2.51,9.57-1.3,11.15.93,2.13,3.07-8.18,13.65-10.22,15.79-36.59,37.9-48,49.23-58.33,62.23-5.11,6.41-9.47,11.8-10.4,13A40,40,0,0,0,623.67,640.66Z"/><path class="cls-28" d="M623.67,640.66c-5.76,7.8-10.31,14.67-13.66,20"/><path class="cls-27" d="M623.67,640.66a6.26,6.26,0,0,1-.37,2c-1.4,4.27-8.27,9.1-11.34,16.16-1,2.32-1.39,4.36-2.78,4.64s-3-1.39-4-2.88c.1,0,.19.1.28.1.84-.28.1-6.6-2.6-11.15-2.32-3.9-4.73-4-8.91-8a56.84,56.84,0,0,1-8.36-11.14c-14.4-23-28-48.67-26.38-75.79.09-2.23.37-4.56-.47-6.69-1.39-3.53-5.29-5.39-7.33-8.64-3.53-5.67-.19-13,.18-19.69.19-4.27-.83-8.45-1.39-12.63-1-7.62-.47-15.7,2.69-22.76s8.73-13.19,16-15.88c6.22-2.32,13.09-2.14,19.69-1.77,15.7.84,31.86,2.23,45.7,9.57a111,111,0,0,1,15.14,10.22q17.42,13.36,34,27.58a30.5,30.5,0,0,1,5.29,5.3,15.53,15.53,0,0,1,1.4,2.13c5.11,8.64,7.61,13,7.43,15.7-.37,4.18-3.72,5.85-2.79,7.43,1.49,2.51,9.57-1.3,11.15.93,2.13,3.07-8.18,13.65-10.22,15.79-36.59,37.9-48,49.23-58.33,62.23-5.11,6.41-9.47,11.8-10.4,13A40,40,0,0,0,623.67,640.66Z"/><path class="cls-29" d="M623,640.28a.85.85,0,0,1,.46-.09c.09,0,.19.19.19.37"/></g><g class="cls-30"><path class="cls-31" d="M623.67,640.66a6.26,6.26,0,0,1-.37,2c-1.4,4.27-8.27,9.1-11.34,16.16-1,2.32-1.39,4.36-2.78,4.64s-3-1.39-4-2.88c.1,0,.19.1.28.1.84-.28.1-6.6-2.6-11.15-2.32-3.9-4.73-4-8.91-8a56.84,56.84,0,0,1-8.36-11.14c-14.4-23-28-48.67-26.38-75.79.09-2.23.37-4.56-.47-6.69-1.39-3.53-5.29-5.39-7.33-8.64-3.53-5.67-.19-13,.18-19.69.19-4.27-.83-8.45-1.39-12.63-1-7.62-.47-15.7,2.69-22.76s8.73-13.19,16-15.88c6.22-2.32,13.09-2.14,19.69-1.77,15.7.84,31.86,2.23,45.7,9.57a111,111,0,0,1,15.14,10.22q17.42,13.36,34,27.58a30.5,30.5,0,0,1,5.29,5.3,15.53,15.53,0,0,1,1.4,2.13c5.11,8.64,7.61,13,7.43,15.7-.37,4.18-3.72,5.85-2.79,7.43,1.49,2.51,9.57-1.3,11.15.93,2.13,3.07-8.18,13.65-10.22,15.79-36.59,37.9-48,49.23-58.33,62.23-5.11,6.41-9.47,11.8-10.4,13A40,40,0,0,0,623.67,640.66Z"/><path class="cls-32" d="M623.67,640.66c-5.76,7.8-10.31,14.67-13.66,20"/><path class="cls-31" d="M623.67,640.66a6.26,6.26,0,0,1-.37,2c-1.4,4.27-8.27,9.1-11.34,16.16-1,2.32-1.39,4.36-2.78,4.64s-3-1.39-4-2.88c.1,0,.19.1.28.1.84-.28.1-6.6-2.6-11.15-2.32-3.9-4.73-4-8.91-8a56.84,56.84,0,0,1-8.36-11.14c-14.4-23-28-48.67-26.38-75.79.09-2.23.37-4.56-.47-6.69-1.39-3.53-5.29-5.39-7.33-8.64-3.53-5.67-.19-13,.18-19.69.19-4.27-.83-8.45-1.39-12.63-1-7.62-.47-15.7,2.69-22.76s8.73-13.19,16-15.88c6.22-2.32,13.09-2.14,19.69-1.77,15.7.84,31.86,2.23,45.7,9.57a111,111,0,0,1,15.14,10.22q17.42,13.36,34,27.58a30.5,30.5,0,0,1,5.29,5.3,15.53,15.53,0,0,1,1.4,2.13c5.11,8.64,7.61,13,7.43,15.7-.37,4.18-3.72,5.85-2.79,7.43,1.49,2.51,9.57-1.3,11.15.93,2.13,3.07-8.18,13.65-10.22,15.79-36.59,37.9-48,49.23-58.33,62.23-5.11,6.41-9.47,11.8-10.4,13A40,40,0,0,0,623.67,640.66Z"/><path class="cls-33" d="M623,640.28a.85.85,0,0,1,.46-.09c.09,0,.19.19.19.37"/></g><g class="cls-34"><path class="cls-35" d="M608.81,662.76c-2.33-.37-2.51-1.76-2.79-3.53a46.39,46.39,0,0,0-.74-4.92c-1.58-5.57-4.55-8-8.83-11.33-4.55-3.53-7.71-8.27-10.68-13.1-12.54-20-24.7-42-26.28-65.94-.37-5.11,1.58-13.94-1.86-18.67-1.58-2.14-4-3.63-5.57-5.85-2.23-3.07-2.23-6.32-1.68-10s1.49-7.33,1.49-11.14a32.75,32.75,0,0,0-.28-4.37c-1-8.45-2.41-16.81.09-25.07,2.79-9.57,9.85-17.93,19.7-20.53,10.4-2.79,22.75-.93,33.25.28,11.89,1.39,23.4,4.36,33.62,10.77,10.59,6.69,20.34,15.05,30.09,22.94,8.46,6.88,17.65,13.19,23.22,22.67,1.86,3.15,4.46,6.59,5.3,10.21.56,2.33-.28,3.9-1.3,6-.47.83-1.3,1.58-1.3,2.6-.19,5.94,10.21-.84,11.51,2.78.47,1.3-1.85,4.28-2.5,5.21a93,93,0,0,1-10.22,11.51l-24.43,25.27C657.76,599.7,646.8,610.84,637,623.1c-4.27,5.39-10.86,11.43-13.56,17.74a29.49,29.49,0,0,1-4.92,7.9,48.93,48.93,0,0,0-5.39,7c-1.11,1.49-4.29,7.06-4.29,7.06v.39c2-.18,2.69-4.44,3.43-5.82a35.13,35.13,0,0,1,4.25-6.2c2.87-3.52,5.37-6.11,6.75-10.36.1-.28.37-.93.1-.19.74-1.85,2.77-3.7,4-5.27,1.85-2.31,3.8-4.62,5.65-6.94,9.06-11.28,18.68-22,28.67-32.46,7.68-8,15.45-16,23.13-24,4.16-4.26,8.41-8.51,12.48-13,2.59-2.87,5.65-6,7.31-9.62.37-.74,1.2-2.68.65-3.61-1.94-3.14-9.62,2.5-11.19-1.2-.65-1.39,2.59-5.27,2.77-6.94v-.82c-.09-5.26-4.7-11.16-7.38-15.31-2.39-3.88-5.81-6.64-9.22-9.59-5.35-4.52-10.7-9-16.14-13.29-10-8-19.92-17.06-31.45-22.69-10.61-5.25-22.51-7.19-34.22-8.11-10.89-.93-23.89-2.86-33.58,3.41-8.94,5.72-13.37,15.86-14.11,26.19-.37,6.18,1,12.09,1.57,18.27.65,6.73-2.49,13.28-1.48,19.92.56,3.87,3,5.9,5.63,8.58,2.95,2.95,3.69,5.35,3.6,9.68,0,1.94-.19,3.88-.19,5.91.1,11.71,3,23.24,7.2,34.12,5,12.73,11.8,24.72,19.09,36.25,3.6,5.72,7.19,10.52,12.64,14.48a15.22,15.22,0,0,1,5.25,5.81c1,2.12,3.23,7.2,1.94,9.5v1.34s1.32,2,2.71,2.32C608.71,663.41,608.81,662.76,608.81,662.76Z"/><path class="cls-35" d="M610.9,660.66c-.57-.38,5-8.26,5.69-9.3,1.14-1.71,2.37-3.42,3.51-5.12.47-.76,3.41-5.7,4.08-5.7-.38,0-4.93,7.4-5.79,8.54-2.56,3.8-5,7.69-7.49,11.58-.1.19.09.57,0,.66,4.36-7,9-13.76,13.85-20.4v-.66c-1.14-.86-2.18,1.8-2.85,2.75-1.33,1.9-2.75,3.79-4,5.69-2.66,3.8-5.13,7.69-7.59,11.58v.66a2.1,2.1,0,0,1,.57.38C610.8,661.32,611,660.75,610.9,660.66Z"/><path class="cls-35" d="M608.81,662.76c-2.33-.37-2.51-1.76-2.79-3.53a46.39,46.39,0,0,0-.74-4.92c-1.58-5.57-4.55-8-8.83-11.33-4.55-3.53-7.71-8.27-10.68-13.1-12.54-20-24.7-42-26.28-65.94-.37-5.11,1.58-13.94-1.86-18.67-1.58-2.14-4-3.63-5.57-5.85-2.23-3.07-2.23-6.32-1.68-10s1.49-7.33,1.49-11.14a32.75,32.75,0,0,0-.28-4.37c-1-8.45-2.41-16.81.09-25.07,2.79-9.57,9.85-17.93,19.7-20.53,10.4-2.79,22.75-.93,33.25.28,11.89,1.39,23.4,4.36,33.62,10.77,10.59,6.69,20.34,15.05,30.09,22.94,8.46,6.88,17.65,13.19,23.22,22.67,1.86,3.15,4.46,6.59,5.3,10.21.56,2.33-.28,3.9-1.3,6-.47.83-1.3,1.58-1.3,2.6-.19,5.94,10.21-.84,11.51,2.78.47,1.3-1.85,4.28-2.5,5.21a93,93,0,0,1-10.22,11.51l-24.43,25.27C657.76,599.7,646.8,610.84,637,623.1c-4.27,5.39-10.86,11.43-13.56,17.74a29.49,29.49,0,0,1-4.92,7.9,48.93,48.93,0,0,0-5.39,7c-1.11,1.49-4.29,7.06-4.29,7.06v.39c2-.18,2.69-4.44,3.43-5.82a35.13,35.13,0,0,1,4.25-6.2c2.87-3.52,5.37-6.11,6.75-10.36.1-.28.37-.93.1-.19.74-1.85,2.77-3.7,4-5.27,1.85-2.31,3.8-4.62,5.65-6.94,9.06-11.28,18.68-22,28.67-32.46,7.68-8,15.45-16,23.13-24,4.16-4.26,8.41-8.51,12.48-13,2.59-2.87,5.65-6,7.31-9.62.37-.74,1.2-2.68.65-3.61-1.94-3.14-9.62,2.5-11.19-1.2-.65-1.39,2.59-5.27,2.77-6.94v-.82c-.09-5.26-4.7-11.16-7.38-15.31-2.39-3.88-5.81-6.64-9.22-9.59-5.35-4.52-10.7-9-16.14-13.29-10-8-19.92-17.06-31.45-22.69-10.61-5.25-22.51-7.19-34.22-8.11-10.89-.93-23.89-2.86-33.58,3.41-8.94,5.72-13.37,15.86-14.11,26.19-.37,6.18,1,12.09,1.57,18.27.65,6.73-2.49,13.28-1.48,19.92.56,3.87,3,5.9,5.63,8.58,2.95,2.95,3.69,5.35,3.6,9.68,0,1.94-.19,3.88-.19,5.91.1,11.71,3,23.24,7.2,34.12,5,12.73,11.8,24.72,19.09,36.25,3.6,5.72,7.19,10.52,12.64,14.48a15.22,15.22,0,0,1,5.25,5.81c1,2.12,3.23,7.2,1.94,9.5v1.34s1.32,2,2.71,2.32C608.71,663.41,608.81,662.76,608.81,662.76Z"/><path class="cls-35" d="M624.75,640.28c-1.45-.09-1.55,0-1.55,0l-.09-.18a.23.23,0,0,1,.2-.37v.66c.21-.25.64-.08,1.44.51v-1h-1.44v1.44h1.44v-1.25c-.89-.65-1.31-.84-1.44-.56v.89a.23.23,0,0,0-.2.37c0,.09.09.09.09.18s.1-.09,1.55,0Z"/></g><path class="cls-36" d="M623.67,640.66a6.26,6.26,0,0,1-.37,2c-1.4,4.27-8.27,9.1-11.34,16.16-1,2.32-1.39,4.36-2.78,4.64s-3-1.39-4-2.88c.1,0,.19.1.28.1.84-.28.1-6.6-2.6-11.15-2.32-3.9-4.73-4-8.91-8a56.84,56.84,0,0,1-8.36-11.14c-14.4-23-28-48.67-26.38-75.79.09-2.23.37-4.56-.47-6.69-1.39-3.53-5.29-5.39-7.33-8.64-3.53-5.67-.19-13,.18-19.69.19-4.27-.83-8.45-1.39-12.63-1-7.62-.47-15.7,2.69-22.76s8.73-13.19,16-15.88c6.22-2.32,13.09-2.14,19.69-1.77,15.7.84,31.86,2.23,45.7,9.57a111,111,0,0,1,15.14,10.22q17.42,13.36,34,27.58a30.5,30.5,0,0,1,5.29,5.3,15.53,15.53,0,0,1,1.4,2.13c5.11,8.64,7.61,13,7.43,15.7-.37,4.18-3.72,5.85-2.79,7.43,1.49,2.51,9.57-1.3,11.15.93,2.13,3.07-8.18,13.65-10.22,15.79-36.59,37.9-48,49.23-58.33,62.23-5.11,6.41-9.47,11.8-10.4,13A40,40,0,0,0,623.67,640.66Z"/><path class="cls-36" d="M623.67,640.66c-5.76,7.8-10.31,14.67-13.66,20"/><path class="cls-36" d="M623.67,640.66a6.26,6.26,0,0,1-.37,2c-1.4,4.27-8.27,9.1-11.34,16.16-1,2.32-1.39,4.36-2.78,4.64s-3-1.39-4-2.88c.1,0,.19.1.28.1.84-.28.1-6.6-2.6-11.15-2.32-3.9-4.73-4-8.91-8a56.84,56.84,0,0,1-8.36-11.14c-14.4-23-28-48.67-26.38-75.79.09-2.23.37-4.56-.47-6.69-1.39-3.53-5.29-5.39-7.33-8.64-3.53-5.67-.19-13,.18-19.69.19-4.27-.83-8.45-1.39-12.63-1-7.62-.47-15.7,2.69-22.76s8.73-13.19,16-15.88c6.22-2.32,13.09-2.14,19.69-1.77,15.7.84,31.86,2.23,45.7,9.57a111,111,0,0,1,15.14,10.22q17.42,13.36,34,27.58a30.5,30.5,0,0,1,5.29,5.3,15.53,15.53,0,0,1,1.4,2.13c5.11,8.64,7.61,13,7.43,15.7-.37,4.18-3.72,5.85-2.79,7.43,1.49,2.51,9.57-1.3,11.15.93,2.13,3.07-8.18,13.65-10.22,15.79-36.59,37.9-48,49.23-58.33,62.23-5.11,6.41-9.47,11.8-10.4,13A40,40,0,0,0,623.67,640.66Z"/><path class="cls-36" d="M623,640.28a.85.85,0,0,1,.46-.09c.09,0,.19.19.19.37"/><g class="cls-37"><path d="M623.31,641.26c-.57,4.21-3.75,7-6.38,10.12a36.6,36.6,0,0,0-4.5,6.28c-.84,1.59-1.68,6.28-3.75,6.65-3.93.75-3.28-4.49-3.75-6.84a17.75,17.75,0,0,0-6.46-11.25,45.72,45.72,0,0,1-11.16-11.34,233.7,233.7,0,0,1-18.65-33.09c-5-10.87-8.91-22.4-10.22-34.4-.56-5.53.09-11-.28-16.4a9.66,9.66,0,0,0-2.72-6.47c-5.25-5.91-7.78-7.59-6.47-16.5.47-3.47,1.41-6.93,1.41-10.5a28.68,28.68,0,0,0-.47-4.87c-1.22-9.28-2.34-18.65,1-27.65,3.84-10.22,12.37-17.62,23.25-19.22,6-.84,12.28-.28,18.37.1a169.5,169.5,0,0,1,19.59,2.25A78.24,78.24,0,0,1,645,482.56c10.31,7.69,20.34,15.84,30.28,24.09,4.31,3.56,9.28,7.12,12.84,11.44a71.31,71.31,0,0,1,7.78,13.12c1.78,3.56,2.15,6.37.09,9.94-.47.75-1.5,1.78-1.31,2.71.84,4.69,12.65-3.18,11.53,3.47-.47,3.1-3.75,6.38-5.72,8.63-2.53,2.9-5.25,5.71-7.87,8.43-24,24.84-48.65,49-69.27,76.87v-.68c16.5-22.17,35.52-41.92,54.72-61.77,6.77-7,13.81-13.82,20.31-21.14,2-2.32,7.79-7.7,7.14-11.32-.93-4.73-9.74,1.67-11.41-1.85-.74-1.67,2.78-5.66,2.78-7.79V536c-.37-3.25-2.6-6.51-4.18-9.29-2.51-4.37-4.93-8.37-8.64-11.81-9.48-8.55-19.71-16.54-29.75-24.44-9.66-7.53-19.24-15.06-31-18.87-11.34-3.72-23.42-4.65-35.32-5.2-11.52-.56-22.68.27-30.67,9.57-5.76,6.69-8.18,15.52-8.18,24.26a53.73,53.73,0,0,0,.47,6.69c.37,2.6.93,5.3,1.2,7.9.47,4.93-.46,8.74-1.2,13.38s-.75,9.11,2.69,13c1.67,1.85,4,3.34,5.21,5.57,1.85,3.35.93,7.34.93,11,0,2.23,0,4.37.18,6.6.84,12.45,4.65,24.44,9.67,35.78a213.37,213.37,0,0,0,20.07,35.6c3.35,4.74,7.72,7.44,11.81,11.25a15.18,15.18,0,0,1,3.81,6.32c.28.93,2.23,7.71.65,7.34v.9c2,2.53,4.12,4.22,5.81.75,1.41-2.81,2.44-5.53,4.31-8.06,3-4,7.88-7.59,8.53-12.84A.09.09,0,0,0,623.31,641.26Z"/><path d="M624,640.56c-4.74,6.5-9.29,13.19-13.65,20v.1c4.27-6.88,8.82-13.47,13.65-20.07,0,.1-.09,0,0,0Z"/><path d="M623.31,641.26c-.57,4.21-3.75,7-6.38,10.12a36.6,36.6,0,0,0-4.5,6.28c-.84,1.59-1.68,6.28-3.75,6.65-3.93.75-3.28-4.49-3.75-6.84a17.75,17.75,0,0,0-6.46-11.25,45.72,45.72,0,0,1-11.16-11.34,233.7,233.7,0,0,1-18.65-33.09c-5-10.87-8.91-22.4-10.22-34.4-.56-5.53.09-11-.28-16.4a9.66,9.66,0,0,0-2.72-6.47c-5.25-5.91-7.78-7.59-6.47-16.5.47-3.47,1.41-6.93,1.41-10.5a28.68,28.68,0,0,0-.47-4.87c-1.22-9.28-2.34-18.65,1-27.65,3.84-10.22,12.37-17.62,23.25-19.22,6-.84,12.28-.28,18.37.1a169.5,169.5,0,0,1,19.59,2.25A78.24,78.24,0,0,1,645,482.56c10.31,7.69,20.34,15.84,30.28,24.09,4.31,3.56,9.28,7.12,12.84,11.44a71.31,71.31,0,0,1,7.78,13.12c1.78,3.56,2.15,6.37.09,9.94-.47.75-1.5,1.78-1.31,2.71.84,4.69,12.65-3.18,11.53,3.47-.47,3.1-3.75,6.38-5.72,8.63-2.53,2.9-5.25,5.71-7.87,8.43-24,24.84-48.65,49-69.27,76.87v-.68c16.5-22.17,35.52-41.92,54.72-61.77,6.77-7,13.81-13.82,20.31-21.14,2-2.32,7.79-7.7,7.14-11.32-.93-4.73-9.74,1.67-11.41-1.85-.74-1.67,2.78-5.66,2.78-7.79V536c-.37-3.25-2.6-6.51-4.18-9.29-2.51-4.37-4.93-8.37-8.64-11.81-9.48-8.55-19.71-16.54-29.75-24.44-9.66-7.53-19.24-15.06-31-18.87-11.34-3.72-23.42-4.65-35.32-5.2-11.52-.56-22.68.27-30.67,9.57-5.76,6.69-8.18,15.52-8.18,24.26a53.73,53.73,0,0,0,.47,6.69c.37,2.6.93,5.3,1.2,7.9.47,4.93-.46,8.74-1.2,13.38s-.75,9.11,2.69,13c1.67,1.85,4,3.34,5.21,5.57,1.85,3.35.93,7.34.93,11,0,2.23,0,4.37.18,6.6.84,12.45,4.65,24.44,9.67,35.78a213.37,213.37,0,0,0,20.07,35.6c3.35,4.74,7.72,7.44,11.81,11.25a15.18,15.18,0,0,1,3.81,6.32c.28.93,2.23,7.71.65,7.34v.9c2,2.53,4.12,4.22,5.81.75,1.41-2.81,2.44-5.53,4.31-8.06,3-4,7.88-7.59,8.53-12.84A.09.09,0,0,0,623.31,641.26Z"/><path d="M624.75,640.38c-1.45-.1-1.18-.1-1.44.28v-.1c.26-.37,0-.37,1.44-.28v.1Z"/></g><path class="cls-23" d="M623.67,640.66a6.26,6.26,0,0,1-.37,2c-1.4,4.27-8.27,9.1-11.34,16.16-1,2.32-1.39,4.36-2.78,4.64s-3-1.39-4-2.88c.1,0,.19.1.28.1.84-.28.1-6.6-2.6-11.15-2.32-3.9-4.73-4-8.91-8a56.84,56.84,0,0,1-8.36-11.14c-14.4-23-28-48.67-26.38-75.79.09-2.23.37-4.56-.47-6.69-1.39-3.53-5.29-5.39-7.33-8.64-3.53-5.67-.19-13,.18-19.69.19-4.27-.83-8.45-1.39-12.63-1-7.62-.47-15.7,2.69-22.76s8.73-13.19,16-15.88c6.22-2.32,13.09-2.14,19.69-1.77,15.7.84,31.86,2.23,45.7,9.57a111,111,0,0,1,15.14,10.22q17.42,13.36,34,27.58a30.5,30.5,0,0,1,5.29,5.3,15.53,15.53,0,0,1,1.4,2.13c5.11,8.64,7.61,13,7.43,15.7-.37,4.18-3.72,5.85-2.79,7.43,1.49,2.51,9.57-1.3,11.15.93,2.13,3.07-8.18,13.65-10.22,15.79-36.59,37.9-48,49.23-58.33,62.23-5.11,6.41-9.47,11.8-10.4,13A40,40,0,0,0,623.67,640.66Z"/><path class="cls-38" d="M623.67,640.66c-5.76,7.8-10.31,14.67-13.66,20"/><path class="cls-38" d="M623.67,640.66a6.26,6.26,0,0,1-.37,2c-1.4,4.27-8.27,9.1-11.34,16.16-1,2.32-1.39,4.36-2.78,4.64s-3-1.39-4-2.88c.1,0,.19.1.28.1.84-.28.1-6.6-2.6-11.15-2.32-3.9-4.73-4-8.91-8a56.84,56.84,0,0,1-8.36-11.14c-14.4-23-28-48.67-26.38-75.79.09-2.23.37-4.56-.47-6.69-1.39-3.53-5.29-5.39-7.33-8.64-3.53-5.67-.19-13,.18-19.69.19-4.27-.83-8.45-1.39-12.63-1-7.62-.47-15.7,2.69-22.76s8.73-13.19,16-15.88c6.22-2.32,13.09-2.14,19.69-1.77,15.7.84,31.86,2.23,45.7,9.57a111,111,0,0,1,15.14,10.22q17.42,13.36,34,27.58a30.5,30.5,0,0,1,5.29,5.3,15.53,15.53,0,0,1,1.4,2.13c5.11,8.64,7.61,13,7.43,15.7-.37,4.18-3.72,5.85-2.79,7.43,1.49,2.51,9.57-1.3,11.15.93,2.13,3.07-8.18,13.65-10.22,15.79-36.59,37.9-48,49.23-58.33,62.23-5.11,6.41-9.47,11.8-10.4,13A40,40,0,0,0,623.67,640.66Z"/><path class="cls-38" d="M623,640.28a.85.85,0,0,1,.46-.09c.09,0,.19.19.19.37"/></g><g id="Hair-3" data-name="Hair"><path class="cls-39" d="M733.64,426.66a107.09,107.09,0,0,1,28.7,84.24c-.47,4.46-1.39,9.1-4.27,12.45.37-5.11-4.46-9.2-9.29-11.06s-10.13-2.69-14.21-5.94a59.82,59.82,0,0,0-4.65-4c-1.76-1-4.18-1.4-5.75,0-1.21,1-1.49,2.78-1.77,4.36a32,32,0,0,1-3.9,10c-3.44,5.67-8.64,10.13-12.73,15.42s-7,12.26-4.83,18.58c-1.85.74-4-.47-4.92-2.23a15.31,15.31,0,0,1-1.21-5.76c-2.22-21.18-19.13-37.71-36.59-49.78-24.89-17.19-55.17-29.82-84.89-24.34-8.64,1.58-17.74,5.39-21.46,13.28-2.51-9.19-.46-19.13,3.62-27.77s10.13-16.16,16.16-23.5c6.32-7.8,12.73-15.7,20.25-22.38a184,184,0,0,1,117.78,3.34A65.3,65.3,0,0,1,725,419.13,50.68,50.68,0,0,1,733.64,426.66Z"/><path class="cls-40" d="M591.81,408.08c-2.23.65-4.46,1.39-6.59,2.14"/><path class="cls-40" d="M591.81,408.08c-7.52,6.69-13.93,14.58-20.25,22.39-6,7.43-12.07,14.95-16.16,23.5s-6.13,18.57-3.62,27.77c3.62-8,12.82-11.71,21.45-13.29,29.73-5.38,60.1,7.16,84.9,24.34,17.46,12.07,34.46,28.7,36.59,49.78.19,1.95.28,4.09,1.21,5.76s3.16,3,4.92,2.23c-2.13-6.31.75-13.28,4.83-18.57s9.2-9.76,12.73-15.42a32.61,32.61,0,0,0,3.9-10c.28-1.58.55-3.35,1.76-4.37,1.49-1.39,4-1,5.76,0s3.07,2.69,4.65,4c4,3.26,9.38,4.09,14.21,5.95s9.56,5.94,9.28,11c3-3.34,3.81-8,4.28-12.44a107.25,107.25,0,0,0-28.7-84.25,63.81,63.81,0,0,0-8.73-7.71,65.37,65.37,0,0,0-15.33-7.52A184.94,184.94,0,0,0,591.81,408.08Z"/><path class="cls-40" d="M592.18,407.8c-.09.1-.28.19-.37.28"/></g><path class="cls-41" d="M578.43,550.56c-.27,7.25-1.67,13.1-6.13,18.76a75.38,75.38,0,0,0-5.94,9.29c-1.21,2.14-2,4.18-.56,6.41,5,8,16.35,1.3,21.46-2.88,1.39-1.11-.56-3.06-2-1.95a27.66,27.66,0,0,1-9.1,5.11c-2.05.65-4.65,1-6.41-.37-3.63-2.7,1-8.36,2.6-10.87,2-3.25,4.64-5.85,6.22-9.29,2-4.46,2.51-9.47,2.69-14.3,0-1.67-2.78-1.67-2.88.09Z"/><path class="cls-41" d="M589.86,575.45a6.76,6.76,0,0,1,6.5.47c1.49.93,2.88-1.49,1.39-2.42a9.45,9.45,0,0,0-9.28-.46c-1.68.74-.28,3.16,1.39,2.41Z"/><path class="cls-41" d="M591.9,582.61a1.4,1.4,0,0,0,0-2.79,1.4,1.4,0,0,0,0,2.79Z"/><g id="_Group_2" data-name="&lt;Group&gt;"><path class="cls-42" d="M585.12,604.43c3.44-.28,11-1.58,25.36-4.64-1.12,1.39-17.37,21.36-28.42,17.09-3.81-1.49-8.27-6.32-7.34-8.73.46-1.12,2.14-1.77,4.74-2.6A22,22,0,0,1,585.12,604.43Z"/><path class="cls-43" d="M574.72,608.15c.46-1.12,2.14-1.77,4.74-2.6a24.91,24.91,0,0,1,5.66-1.21c3.44-.28,11-1.58,25.36-4.64-1.12,1.39-17.37,21.36-28.42,17.09C578.25,615.39,573.79,610.56,574.72,608.15Z"/></g><path class="cls-44" d="M576.11,612.79a41,41,0,0,0,12.08-1.86,42.43,42.43,0,0,0,10.21-4.64"/><path class="cls-39" d="M595.62,511.74a76.44,76.44,0,0,1,31.76,2.5,1.4,1.4,0,0,0,.75-2.69,78.52,78.52,0,0,0-32.51-2.6c-1.77.19-1.86,3,0,2.79Z"/><path class="cls-39" d="M563.76,511.64c-5.57,1.21-8.92,6.13-13.1,9.48-1.39,1.11.56,3.06,2,2,3.81-3.07,6.88-7.71,11.89-8.73,1.67-.47.93-3.07-.74-2.7Z"/><circle class="cls-45" cx="607.69" cy="526.41" r="4.64"/><circle class="cls-45" cx="562.18" cy="535.7" r="4.64"/><line class="cls-46" x1="595.62" y1="518.98" x2="624.41" y2="520.84"/><line class="cls-46" x1="549.18" y1="531.99" x2="564.04" y2="526.41"/></g><g id="Phone-2" data-name="Phone"><g id="_Group_3" data-name="&lt;Group&gt;"><path d="M700.48,551.77l-.19-.09c1.31-1.49.93-4.46,1-6.78.09-4.65,3.25-8.55,6.31-12.08s6-7,8.92-10.49c4.83-5.58,10.4-11.71,17.83-12.08C740,510,745,513,749.71,515.92c7.15,4.46,14.95,9.84,16.62,18.11,1.49,7.8-3.06,15.42-7.52,22.1-5.57,8.36-11.15,16.72-16.63,25.08-5.2,7.8-10.4,15.7-16.34,22.94-4.09,4.93-8.46,9.66-12.91,14.31q-31.08,32.88-62.7,65.29c-3.71,3.81-7.52,7.71-12.17,10.31s-10.4,3.81-15.41,2c-7.43-2.69-11.15-11-13.1-18.57-1.21-4.65-2-9.48-.65-14a27.55,27.55,0,0,1,4.18-7.8C638.62,618.09,673.64,588.18,700.48,551.77Z"/></g><g id="_Group_4" data-name="&lt;Group&gt;"><path class="cls-47" d="M740.7,513.87c1.58,2.79-.37,6.13-2.32,8.64-18.67,24.52-38.64,48-58.7,71.52-12.82,15.14-25.73,30.19-38.55,45.33-8.55,10-17.56,20.43-29.82,25.17l-.46-.19c-.56-5.76,3.53-10.87,7.34-15.23q42.34-48.76,84.71-97.62a5.3,5.3,0,0,0,1.11-1.67,6.25,6.25,0,0,0-.28-3.44c-.83-4.46,1.39-8.91,4-12.72a64.38,64.38,0,0,1,22.38-20.07C733.45,511.64,738.65,510.53,740.7,513.87Z"/></g></g><g id="Hand"><g id="_Group_5" data-name="&lt;Group&gt;"><path class="cls-23" d="M651.35,656.63c-8.64-5.76-17.19-11.61-25.82-17.46a8.58,8.58,0,0,1-3.07-3c-1.21-2.79,1.3-6,4.27-6.69s6,.37,8.83,1.39c9.84,3.63,19.78,7.25,28.7,12.73,2.13,1.3,5.29,2.51,6.68.46-2-6.78-4.27-13.74-8.54-19.32s-11.52-9.56-18.48-8.26c-2.14.37-4.83,1.11-6.23-.56-1.11-1.39-.46-3.44.37-5,4.18-7,13.29-9.93,21.18-8.36s14.68,7.06,19.51,13.57,8,14.11,11,21.54q-.28-14.2-.56-28.42c-.09-3.43-.18-7-1.58-10.12a20,20,0,0,0-2.88-4.46,43.22,43.22,0,0,0-12.44-10.4,27.22,27.22,0,0,1-3.81-2.32c-2.32-2-3.53-5-4.55-7.9a3.93,3.93,0,0,1-.28-2.88c.56-1.3,2.41-1.58,3.81-1a31.89,31.89,0,0,1,3.71,2.32c3.35,1.86,7.43.93,11.24,1.58,4.65.74,7.71,3.07,12.73,7.43,7.89,6.87,15.32,23.78,17.27,46.26a146.53,146.53,0,0,0,6.5-39.94c.19-9.38-.65-21.92,7.43-28.8a16.43,16.43,0,0,1,4.65-2.78c.46,2.13,1,5.11,1.58,8.73a128.5,128.5,0,0,1,1.48,30.28,112.15,112.15,0,0,1-4.73,25.08l2.41.74c-2.13,7.52-5.48,19.87-8.17,33.62A124,124,0,0,0,720.82,677c-.09,2.42,0,4.83,0,6.5.09,5.86.37,10.5.93,18.58,1.49,20.25,2.23,30.37,2.6,31.39.37.84,1.95,3.91.56,5.86a5.24,5.24,0,0,1-1.95,1.48c-4.27,2.42-8.55,4.83-12.82,7.34-4.92,2.79-9.85,5.67-15.33,7.24a29.08,29.08,0,0,1-14.11,0,.69.69,0,0,1-.37-.09c-.56-1-1-1.95-1.58-3-4.37-8.27-8.64-16.53-11.34-25.45-5.29-17.55-3.8-36.6-8.73-54.24l-.46.46c-2.32-5.11-4.55-10.31-6.87-15.42.09-.09.27-.18.46-.37S651.63,656.82,651.35,656.63Z"/><path class="cls-48" d="M681.07,755.92a5.08,5.08,0,0,1-.37-.74c-.56-1-1-1.95-1.58-3-4.37-8.27-8.64-16.54-11.33-25.45-5.3-17.56-3.81-36.6-8.73-54.25l-.47.47c-2.32-5.11-4.55-10.31-6.87-15.42-.1-.28-.28-.65-.37-.93s-.1-.28-.19-.46"/><path class="cls-48" d="M681.07,755.92a.52.52,0,0,0,.28.47A2.31,2.31,0,0,0,681.07,755.92Z"/><path class="cls-48" d="M682.73,754.06a1.4,1.4,0,0,0-1,1.21v0"/><path class="cls-48" d="M650.05,659l1.67-1.39c.09-.09.28-.19.46-.37l-.83-.56c-8.64-5.76-17.19-11.61-25.82-17.46a8.58,8.58,0,0,1-3.07-3c-1.21-2.79,1.3-6,4.27-6.69s6,.37,8.83,1.39c9.84,3.63,19.78,7.25,28.7,12.73,2.13,1.3,5.29,2.51,6.68.46-2-6.78-4.27-13.74-8.54-19.32s-11.52-9.56-18.48-8.26c-2.14.37-4.83,1.11-6.23-.56-1.11-1.39-.46-3.44.37-5,4.18-7,13.29-9.93,21.18-8.36s14.68,7.06,19.51,13.57,8,14.11,11,21.54q-.28-14.2-.56-28.42c-.09-3.43-.18-7-1.58-10.12a20,20,0,0,0-2.88-4.46,43.22,43.22,0,0,0-12.44-10.4,27.22,27.22,0,0,1-3.81-2.32c-2.32-2-3.53-5-4.55-7.9a3.93,3.93,0,0,1-.28-2.88c.56-1.3,2.41-1.58,3.81-1a31.89,31.89,0,0,1,3.71,2.32c3.35,1.86,7.43.93,11.24,1.58,4.65.74,7.71,3.07,12.73,7.43,7.89,6.87,15.32,23.78,17.27,46.26a146.53,146.53,0,0,0,6.5-39.94c.19-9.38-.65-21.92,7.43-28.8a16.43,16.43,0,0,1,4.65-2.78c.46,2.13,1,5.11,1.58,8.73a128.5,128.5,0,0,1,1.48,30.28,112.15,112.15,0,0,1-4.73,25.08c-.47,1.39-.84,2.78-1.4,4.17"/><path class="cls-48" d="M732,621c-2.14,7.52-5.48,19.87-8.18,33.62A124,124,0,0,0,721,676.88c-.1,2.41,0,4.83,0,6.5.09,5.85.37,10.5.93,18.58,1.48,20.25,2.23,30.37,2.6,31.39.37.84,2,3.9.55,5.85a5.11,5.11,0,0,1-2,1.49c-4.27,2.41-8.54,4.83-12.81,7.34-4.93,2.78-9.85,5.66-15.33,7.24a29.25,29.25,0,0,1-14.12,0,.73.73,0,0,1-.37-.09,19.31,19.31,0,0,1-2.14-.56"/></g></g><g id="Lab_Coat" data-name="Lab Coat"><path class="cls-49" d="M880.76,907.22c-6.68-.46-17.46-.92-30.65-.92-26.38,0-34,2.23-41.79-2.79-4.65-3-13.47-11.24-13.94-37.15q-1-104.91-1.85-209.91l.92.92c6.6,2,55.45,17,78.95,36.23a54.39,54.39,0,0,1,13.94,15.79c6.4,11.24,7.15,22.29,7.43,27.86.46,9.1-.84,15-1.86,21.37-3,19-1.21,31-.93,44.58C891.35,819.45,889.68,849,880.76,907.22Z"/><g id="_Group_6" data-name="&lt;Group&gt;"><path class="cls-50" d="M802.12,755.83V908.15L621,905.37a196.32,196.32,0,0,0,.93-28.8c-.19-4.55-.93-16.71-.93-16.71s2.41-3.26,4.83-6.6,5-6.87,5.38-7.34c5.11-7,14.77-19.13,34.37-41.79,56-57.13,79.32-64.83,90.09-60.38,1.68.65,6.41,3.07,13.94,5.58A131.59,131.59,0,0,0,802.12,755.83Z"/><path class="cls-51" d="M802.12,908.15,621,905.37a196.32,196.32,0,0,0,.93-28.8c-.19-4.55-.93-16.71-.93-16.71s2.41-3.26,4.83-6.6,5-6.87,5.38-7.34c5.11-7,14.77-19.13,34.37-41.79,56-57.13,79.32-64.83,90.09-60.38,1.68.65,6.41,3.07,13.94,5.58a131.59,131.59,0,0,0,32.5,6.5Z"/></g><path id="right_arm_line" data-name="right arm line" class="cls-52" d="M792.53,876.57c3.62-16.53,6.87-34.45,9.28-53.87,1.77-14.3,3-28,3.72-40.86"/><path id="stethescope_left" data-name="stethescope left" class="cls-53" d="M750.73,793.91l-8.36-8.36c6-4.55,8.92-11.8,7.43-18.58a18.11,18.11,0,0,0-8.36-11.14c2.79-2.14,5.48-4.37,8.27-6.5a30.69,30.69,0,0,1,8.45,13C763.27,778.4,751.84,792.61,750.73,793.91Z"/><path class="cls-54" d="M797.17,764.19c-.09-.09-39.1-12.17-47.37-13-.46-.09-1.86-.18-1.86,0s3,1.12,5.58,1.86c-3-1.67-3.07-1.76-3.72-1.86-5.29-.46-7.8,8.46-12.07,8.36-3.26-.09-5.67-5.48-7.43-10.21a107.07,107.07,0,0,1-6.51-33.44l19.51-69.66c16.44,3.44,32.79,6.78,49.23,10.22C794.1,692.39,795.59,728.24,797.17,764.19Z"/><path id="Left_Side_of_Shirt" data-name="Left Side of Shirt" class="cls-49" d="M620.7,905.37c-39.76,1.39-81,2.13-123.54,1.85Q451.47,907,408,905.37l64.09-161.62c1.48-11.33,5.66-29.72,19.5-45.51,5.11-5.76,13.65-13.65,50.16-28.79a600.07,600.07,0,0,1,60.37-21.36,315.62,315.62,0,0,0-8.36,98.45c1.86,24.15,3.53,46.53,13.93,73.38,4.83,12.44,9.94,21.73,13,38.08A133,133,0,0,1,620.7,905.37Z"/><path id="Left_arm_line" data-name="Left arm line" class="cls-52" d="M513,899.79c3.53-16.62,6.78-34.64,9.29-53.87a680.59,680.59,0,0,0,5.57-72.44"/><path id="Left_collar" data-name="Left collar" class="cls-55" d="M566.82,733.54Q593.71,795.82,620.7,858c-1.77-21.64-4.28-44.31-7.53-67.71-1.67-11.8-3.53-23.22-5.48-34.46,0,0-7-34.37-6.5-59.45,0-.55.09-1.57.09-3a15.15,15.15,0,0,0-.09-2.6c-.09-3.34,1.49-12.44,1.86-14.86,1.3-8.08,1.86-15.79,1.86-15.79h0l-3.72-16.72C588.93,660.81,576.39,680.32,564,702c-11.15,19.41-20.62,38.08-28.8,55.73C545.74,749.61,556.33,741.62,566.82,733.54Z"/><path class="cls-55" d="M669.92,791.12c.65,6.23,1.21,12.36,1.86,18.58L620.7,858C637.14,835.71,653.48,813.42,669.92,791.12Z"/><path class="cls-49" d="M817.6,905.21H696.86q-19.23-73.85-38.45-147.59a99.83,99.83,0,0,0,40.31-4.74,102.35,102.35,0,0,0,30.09-16.07Q773.12,821,817.6,905.21Z"/></g><g id="Stethescope"><path id="stethescope_left-2" data-name="stethescope left" class="cls-56" d="M530.6,857.07c-2.14-.65-4.36-1.21-6.5-1.86,4.64-15.7,9.1-32.79,13-51.08,4.09-19.42,7.15-37.71,9.29-54.8l8.36-8.36c-2.51,18.67-5.85,38.54-10.22,59.44C540.35,820.57,535.62,839.51,530.6,857.07Z"/><path class="cls-57" d="M518.53,865.43c1.85,1.58,3.71,3.06,5.57,4.64,2.14-4.36,4.36-8.64,6.5-13-2.14-.65-4.36-1.21-6.5-1.86C522.24,858.65,520.38,862,518.53,865.43Z"/><path class="cls-57" d="M526.89,906.65H505.52c1.67-1.21,12.08-9,13-21.36.27-3.44.74-9.29-2.79-13.94-2.14-2.88-5.11-4.36-4.64-5.57s4.18-1.21,7.43-.93c2.78,1.58,5.57,3.07,8.36,4.65a12.39,12.39,0,0,1,4.64,5.57,19,19,0,0,1,.93,3.71c.56,2.88.93,5.2.93,5.58C533.76,887.79,531.72,896.34,526.89,906.65Z"/><path class="cls-58" d="M491.59,886.79c-.56,8.73,4.55,19.69,12.08,20.43s13.65-9.1,15.79-14.86c.74-2,3.25-9.1,0-16.71-.93-2.14-3.44-8.18-8.36-9.29C503.48,864.59,492.33,875.27,491.59,886.79Z"/></g></g><path class="cls-59" d="M886,111.78V913H84.78V111.78H886m23-23H61.78V936H909V88.78Z"/><g id="Speech"><path class="cls-60" d="M661.88,42.65,380.1,42.46s-55.84-4.94-92.3,37.14c-17.9,20.65-23,42.83-24.79,51.23-8.67,41.38,7.83,74.49,13.49,84.67,17.78,32,44.75,46.63,62,56a184.06,184.06,0,0,0,44,17h187a333.33,333.33,0,0,1-45.09,60.19c-65,68.82-141,89.22-139.91,91.81s73.5-15.41,152.87-68.29A550.29,550.29,0,0,0,636.5,287.5c53.58,3.88,104.09-22.29,129-67,21.92-39.34,27.28-98.91-9-140C721.76,41.09,669.85,42.33,661.88,42.65Z"/><text class="cls-61" transform="translate(308.61 108.12)">Sam has asthma and has been <tspan x="-14.08" y="37.2">coughing for the past few days. </tspan><tspan x="-14.3" y="74.4">The cough is not getting better </tspan><tspan x="2.11" y="111.6">with his pump. What do I do? </tspan></text></g></svg>