<?xml version="1.0" encoding="UTF-8"?>
<svg xmlns="http://www.w3.org/2000/svg" onmouseup="{ if(window.parent.document.onmouseup) window.parent.document.onmouseup(arguments[0]);}" viewBox="0 0 960 960" data-name="Panel 1" id="Panel_1"><defs><style>.cls-1{fill:#d2e0b8;}.cls-2{fill:#855914;}.cls-2,.cls-3,.cls-30,.cls-31{stroke:#999;}.cls-2,.cls-26,.cls-27,.cls-3,.cls-30,.cls-31{stroke-miterlimit:1;}.cls-2,.cls-3{stroke-width:1.11px;}.cls-3{fill:#603e11;}.cls-4{fill:#666;}.cls-5{fill:#4d4d4d;}.cls-6{fill:#333;}.cls-7{fill:#87827c;}.cls-8{fill:#afaca8;}.cls-20,.cls-9{fill:#f2f2f2;}.cls-10{fill:#c1272d;}.cls-11,.cls-18,.cls-27{fill:none;}.cls-12,.cls-20,.cls-21,.cls-22{isolation:isolate;}.cls-12{font-size:21.63px;fill:#fff;}.cls-12,.cls-22{font-family:MyriadPro-Regular, Myriad Pro;}.cls-13{letter-spacing:0.01em;}.cls-14{letter-spacing:0em;}.cls-15{letter-spacing:-0.04em;}.cls-16{letter-spacing:-0.07em;}.cls-17{letter-spacing:-0.01em;}.cls-18{stroke:#000;stroke-miterlimit:10;}.cls-19{fill:blue;}.cls-20{opacity:0.77;}.cls-22{font-size:28.55px;}.cls-23{letter-spacing:0em;}.cls-24{letter-spacing:-0.01em;}.cls-25{letter-spacing:0em;}.cls-26,.cls-28{fill:#ecc19c;}.cls-26,.cls-27{stroke:#cf9e76;}.cls-29{fill:#603813;}.cls-30,.cls-31{fill:#e6e6e6;}.cls-30{stroke-width:1.07px;}.cls-32{fill:#8c6239;}</style></defs><title>scenario 1</title><rect class="cls-1" x="111" y="82" width="823" height="823"/><g id="Nurse"><g id="Computer"><g id="Table"><path class="cls-2" d="M929.11,826.28q-190.65-19.54-381.32-39.07-101.23,18.62-202.54,37.32,149.58,25.22,299.07,50.59Q786.18,858.89,928,842.6A110.22,110.22,0,0,1,929.11,826.28Z"/><path class="cls-3" d="M928,842.64l-283.7,32.65c.25,7.5.6,14.92.86,22.41l288.39-31.34C929.66,858.83,928.18,850.85,928,842.64Z"/><path class="cls-3" d="M647.76,895.12q-138.71-23.28-277.52-46.54c-1.46-7.5-2.84-14.91-4.31-22.41l282.35,48.35C648.11,881.41,647.94,888.22,647.76,895.12Z"/></g><path id="stand" class="cls-4" d="M743.86,818.17c-118.85-7.41-143.15-10.6-143.07-12.06.09-2.24,54.47-10.69,71.54-11.21a23,23,0,0,0,12.06-3.44,22.11,22.11,0,0,0,7.76-9.48,29.09,29.09,0,0,0,2.59-10.35,35.8,35.8,0,0,0-3.88-18.53h97.39A90,90,0,0,1,791.87,768,83.25,83.25,0,0,1,793,780.25c-.09,6.9-.17,20.08-8.19,27.15-2.67,2.33-4.65,2.67-19.82,6C755.58,815.5,748.09,817.23,743.86,818.17Z"/><path id="keyboard_side" data-name="keyboard side" class="cls-5" d="M740.41,827.46c-19.21,3.19-38.52,6.29-57.74,9.48,17.93-8.36,35.85-16.8,53.78-25.16C737.74,817,739.12,822.2,740.41,827.46Z"/><path id="keyboard_top" data-name="keyboard top" class="cls-6" d="M682.41,837.37c-8.88-1.12-23.61-3.1-42-5.6-20.69-2.84-35.17-4.91-37.06-5.17-19.65-2.76-60.94-2.84-156.78,9.31-7.41-15.34-14.82-30.6-22.15-45.94q156.69,11.37,313.38,22.84c-4.22,2-8.53,4.05-12.93,6C710.51,825.48,696.37,831.6,682.41,837.37Z"/><path id="computer_side" data-name="computer side" class="cls-7" d="M871.59,772l-9.65.43c-5.26.26-9.4-3.19-9.14-7.67L871.25,417c.17-4.05,4.48-6.55,9.39-5.52l9.14,1.81c4.82.95,8.62,5,8.44,9.05l-16.89,341.3C881.07,768,876.76,771.78,871.59,772Z"/><path id="Front" class="cls-8" d="M858.32,771.89l-356-23a8.32,8.32,0,0,1-7.85-8.62l18.1-314.41a8.74,8.74,0,0,1,8.71-8l354.74-2.07c5.26,0,9.4,3.79,9.14,8.62L868.32,763.88C868.14,768.62,863.58,772.24,858.32,771.89Z"/><path d="M870.73,427.06,857.46,688,511.33,674.41l14.74-242.78,344.56-4.57m5.87-14.4h-.17l-355.52,4.66a9.54,9.54,0,0,0-6.12,2.5,8.37,8.37,0,0,0-2.84,5.69l-15.52,255a8.17,8.17,0,0,0,4.74,7.76,8.36,8.36,0,0,0,3.28.78l357.16,14h.43c5.17,0,9.57-3.71,9.82-8.45l14-273.56c.17-4.65-3.88-8.45-9.23-8.45Z"/><polygon class="cls-9" points="858.49 685.1 513.05 672.26 528.83 428.18 870.82 425.68 858.49 685.1"/><polygon class="cls-10" points="843.15 477.31 543.22 477.31 545.55 441.97 845.3 441.97 843.15 477.31"/><polygon class="cls-11" points="811.61 473 570.02 473 571.92 451.45 813.41 451.45 811.61 473"/><text class="cls-12" transform="matrix(1.01, 0, -0.09, 1, 613.45, 466.46)"><tspan class="cls-13">S</tspan><tspan class="cls-14" x="10.79" y="0">chedule -</tspan><tspan class="cls-15" x="94.6" y="0"> </tspan><tspan class="cls-16" x="98.3" y="0">T</tspan><tspan x="107.52" y="0">od</tspan><tspan class="cls-17" x="131.59" y="0">a</tspan><tspan x="141.84" y="0">y</tspan></text><polygon class="cls-18" points="831.51 669.93 532.01 660.71 543.48 490.66 839.88 494.89 831.51 669.93"/><g id="blue_squares" data-name="blue squares"><polygon class="cls-19" points="580.9 504.02 549.33 504.19 549.83 497.13 581.23 496.88 580.9 504.02"/><polygon class="cls-19" points="581.92 514.37 547.16 514.37 547.7 506.61 582.29 506.52 581.92 514.37"/><polygon class="cls-19" points="581.01 523.85 546.96 523.76 547.4 516.09 581.37 516.09 581.01 523.85"/><polygon class="cls-19" points="580.12 534.19 546.65 533.93 547.17 526.43 580.47 526.52 580.12 534.19"/><polygon class="cls-19" points="579.06 543.67 546.6 543.25 547.11 535.91 579.4 536.16 579.06 543.67"/><polygon class="cls-19" points="578.12 554.01 546.35 553.52 546.76 546.25 578.53 546.67 578.12 554.01"/><polygon class="cls-19" points="578.3 564.87 544.94 564.18 545.46 556.6 578.73 557.11 578.3 564.87"/><polygon class="cls-19" points="577.78 575.02 544.34 574.16 544.77 566.49 578.21 567.18 577.78 575.02"/><polygon class="cls-19" points="577.26 585.45 543.65 584.5 544.17 576.74 577.61 577.61 577.26 585.45"/><polygon class="cls-19" points="576.66 595.96 542.96 594.84 543.48 587.09 577.09 588.12 576.66 595.96"/><polygon class="cls-19" points="576.14 606.65 542.36 605.36 542.79 597.51 576.57 598.63 576.14 606.65"/><polygon class="cls-19" points="575.63 617.34 541.67 615.87 542.18 607.94 576.06 609.32 575.63 617.34"/><polygon class="cls-19" points="575.02 628.11 540.98 626.56 541.5 618.54 575.45 620.01 575.02 628.11"/><polygon class="cls-19" points="574.5 638.97 540.29 637.25 540.81 629.23 574.94 630.78 574.5 638.97"/><polygon class="cls-19" points="573.9 649.92 539.6 648.02 540.12 639.92 574.33 641.73 573.9 649.92"/></g><path class="cls-18" d="M587.26,500.23c2-.6,3.88-1.29,5.86-1.9-.43,1.64,1.55,3,3.28,2.68s2.84-1.81,3.79-3.11c2.07,2.16,5.43,2.24,8.45,2.24,3.36,0,10.17.87,10.17.87h9.91s14.65-.28,21.89,0h4.14s7.75-.09,11.72-.09c-.69,1.72,1.2,3.53,3.1,3.53s3.45-1.2,4.91-2.32c-.6,1.81.95,3.79,2.76,4.39a11.42,11.42,0,0,0,5.69,0l17.75-3.1c-.51,2.24,2.76,3.1,5,2.93,7.67-.6,15.34-1.55,23-2.41,3.28-.43,6.55-.78,9.91-1.21a12.23,12.23,0,0,1,4.31,0c1.38.35,2.68,1.21,4.06,1.64,3.79,1.12,7.67-1.29,11.63-.95,3.45.34,6.55,2.93,10,2.5,2.93-.35,5.43-2.76,8.36-2.41a21.36,21.36,0,0,1,3.36,1.12,17,17,0,0,0,5.86.43c6-.26,12.15-.61,18.19-.86,9.22-.44,18.44-.87,27.66-1.38"/><path class="cls-18" d="M585.36,510c2.5,1.12,5.26,1,8,.95,16.89-.69,33.79-1.3,50.68-2a14.51,14.51,0,0,1,5.43.44c1,.34,1.89.86,2.93,1.12a18.44,18.44,0,0,0,4.39.68c5.26.35,10.6.52,15.86.52,4.4,0,8.88,0,13.27-.08,2,0,3.88,0,5.87-.09,4.48-.09,9-.09,13.44-.26,8.79-.26,17.58-.77,26.37-1.64,1.9,1.12,4.31.52,6.47.18a29.18,29.18,0,0,1,14.65,1.37c1.38.52,2.76,1.13,4.22,1.56a42.94,42.94,0,0,0,5.78,1.2c7.15,1.12,14.3,2.24,21.46,1.55,4.22-.34,8.36-1.37,12.58-2.06a97.88,97.88,0,0,1,21.89-1.21,7.09,7.09,0,0,1,2.67.52c.78.34,1.38,1,2.07,1.38,1.55.86,3.45.43,5.17.08l11.81-2.58"/><path class="cls-18" d="M588.81,519.26c-.26.51-.52.94-.77,1.46.86-.17,1.81-.43,2.67-.6a1.41,1.41,0,0,1,1,0c.35.17.43.69.69,1.12.61,1.29,2.33,1.64,3.71,1.29s2.58-1.12,4-1.55a1.22,1.22,0,0,1,1.21.17,1.76,1.76,0,0,1,.34,1c.43,1.47,2.42,1.72,4,1.55a23.66,23.66,0,0,0,4.82-1.29,5.35,5.35,0,0,1,1.56-.43,7.58,7.58,0,0,1,1.89.43c3.28.86,6.64-.52,9.66-1.81"/><path class="cls-18" d="M637.42,522.45a2.78,2.78,0,0,1-4.14-1.56,2.75,2.75,0,0,1,3.11-3.1,2.69,2.69,0,0,1,1.55,4.05c1.21,1.47,3.45,1.21,5.26.95,4-.69,8.1-1.29,12.15-2,1.29,1.46,3.53,1.38,5.34.77s3.54-1.63,5.43-1.81a15.23,15.23,0,0,1,3.36.26,91.34,91.34,0,0,0,19.4.69,72.24,72.24,0,0,1,10.6-.43"/><path class="cls-18" d="M708.35,524c2.5-1.9,5.95.69,9.14.94,1.64.09,3.27-.43,4.83.09a26.37,26.37,0,0,1,2.58,1.38,9.56,9.56,0,0,0,4.14.69c8.44,0,16.55-2.76,24.91-3.71a111.75,111.75,0,0,1,13.1-.51c6,0,12.15,0,18.18-.09"/><path class="cls-18" d="M787.47,523.82c.95.78,2.5-.34,3.71.09a10.87,10.87,0,0,1,1.21.86c2,1.47,4.74.26,7.15.61.86.08,1.72.43,2.58.6a20.37,20.37,0,0,0,4.57.26c5.35-.09,10.78-.26,16.12-.35"/><path class="cls-18" d="M584.76,532a3.42,3.42,0,0,0,4,.78,6.15,6.15,0,0,1,1.64-.95,3.86,3.86,0,0,1,1.72.09,13.35,13.35,0,0,0,8.36-1,2,2,0,0,1,1.21-.34,4.33,4.33,0,0,1,1,.26c1.47.43,3-.26,4.49-.61a9.82,9.82,0,0,1,5,.09"/><path class="cls-18" d="M638.46,531.24l43,.26c4,0,8.19.08,12.24.43,3.19.34,6.38.86,9.48,0a10,10,0,0,1,2.24-.43,6.8,6.8,0,0,1,2.24.86,13.71,13.71,0,0,0,4.14.86c4.48.52,9.05,1,13.53.17,2-.34,4-.95,5.86-.43.95.26,1.81.86,2.76,1,3,.52,5.86-2.84,8.71-1.81.86.26,1.55,1,2.41,1.21,1.64.52,3.27-.69,5-1.12,2.24-.6,4.65.17,7,.52s5.08.08,6.38-1.81a7.47,7.47,0,0,0,9.82.17c1.21,2.24,4.31,2.41,6.81,2.33L793,533a11.25,11.25,0,0,0,11.12-1.46c.26,1.72,2.58,2.15,4.31,2.06,5.51-.08,11-.08,16.54-.17"/><path class="cls-18" d="M587.78,540.8c.34,1.38,2.41,1.47,3.7,1s2.85-1.38,4.14-.86c.78.34,1.29,1,2,1.38,2.16,1.29,4.83-.43,7.33-.52,2.07-.08,4.05,1.12,6.12,1.12s4.22-1.2,6.38-1.29c2-.09,4,.69,5.86.17,1.63-.43,2.84-1.81,4.48-2.33a9.93,9.93,0,0,1,3.19-.25l12.93.51"/><path class="cls-18" d="M658.62,542c2.68-2.07,6.21,1.12,9.48,1.81a12.79,12.79,0,0,0,5.43-.26c4.14-.77,8.36-1.55,12.5-2.24a11.55,11.55,0,0,1,4.57-.17c1.55.34,2.84,1.29,4.31,1.81,4.39,1.46,9.31-1.38,13.7.08,1,.35,2,1,3,1.21,4.48,1.38,9.22-2.41,13.87-1.64,1.38.26,2.68.87,4.06,1.21,3,.69,6.11-.09,9.05-1a7,7,0,0,1,3.53-.52,13.49,13.49,0,0,1,2.58,1.21c2.68,1.2,5.78.34,8.62-.52a8.25,8.25,0,0,1,3.8-.61c1.12.18,2.15.69,3.27.95a13.75,13.75,0,0,0,6-.17c4.82-.78,9.56-1.55,14.39-2.41a21.63,21.63,0,0,1,5.86-.43c1.21.08,2.33.43,3.53.43,2.42,0,4.92-1.3,7.24-.52,1,.34,1.73.95,2.59,1.21a9.78,9.78,0,0,0,3.88-.18c5.69-.51,12.06,3.8,16.81.52"/><path class="cls-18" d="M585.62,551.06a1.12,1.12,0,0,1,1.21-.86c-.17,1.89,2.24,3,4,2.67s3.36-1.64,5.09-2.41a1.83,1.83,0,0,1,1.2-.26c1,.17,1.21,1.38,1.73,2.15,1,1.55,3.36,1.64,5.08,1s3.36-1.81,5.17-2.24a2,2,0,0,1,1.73.08A5,5,0,0,1,612,552.7a3.15,3.15,0,0,0,3.36.6c1.12-.34,2.15-1,3.36-1.38,3.88-1.12,8.19,1.73,11.89.26,1.3-.52,2.5-1.64,3.88-1.55a5.83,5.83,0,0,1,2.33.77c3.45,1.38,7.32.18,10.86-1.12"/><path class="cls-18" d="M670.86,553.56c.52-.95,1.9-1,2.93-.6s1.9,1.12,2.93,1.46c2.33.69,4.66-.77,6.9-1.55a3.48,3.48,0,0,1,2.07-.26,8.13,8.13,0,0,1,1.72.86c3.1,1.55,6.72-.51,10.17-.34,1.47.08,2.93.6,4.48.77,3.45.43,6.9-.94,10.43-.77,3.1.08,6,1.38,9.14,1.64,4.74.43,9.39-1.56,14-1.3,2.94.18,5.69,1.12,8.62,1.38a28.83,28.83,0,0,0,10.86-1.55,15.64,15.64,0,0,1,5.17-1c2.16.17,4,1.29,6.21,1.81,4.57,1,9.31-1.21,14-.78,2.42.26,4.74,1.21,7.24,1.55,3.1.52,6.29.09,9.48,0,8.28-.34,16.55,1.29,24.91,1.38,1.47,0,3.28-.26,3.88-1.64"/><path class="cls-18" d="M582.26,561.06c2.67.6,5.26,1.29,7.93,1.89a15.79,15.79,0,0,0,5.34.69c2.76-.26,5.61-1.89,8.11-.77a29,29,0,0,1,2.75,1.81c4.31,2.24,9.31-3.19,14.05-1.9,1.12.35,2.16,1,3.28,1.47,4.82,2,10.08-1,15.25-1.21,4.23-.26,8.45,1.38,12.67,1.29,5-.17,10-2.67,14.91-1.46,2.16.51,4.14,1.72,6.29,2.41,4.14,1.21,8.54.17,12.59-1.21,2-.69,4.05-1.46,6-1a23.36,23.36,0,0,1,3.36,1.46c4.91,2.07,10.52-.6,15.86-.43a70.73,70.73,0,0,1,7.15,1.12,54.58,54.58,0,0,0,11.29.09c8.88-.6,17.67-1.12,26.55-1.72"/><path class="cls-18" d="M585.28,574.18a9.46,9.46,0,0,0,4.39-1.9,3.72,3.72,0,0,0,6-1c3,2.76,8-.26,12,.77a26.28,26.28,0,0,1,3.28,1.3,15.52,15.52,0,0,0,5.25.34c6.38-.43,12.76-.77,19.14-1.2,6.63-.44,13.27-.87,20-1.21,3.19-.17,6.47-.43,9.57.43,1.38.34,2.67,1,4,1.21a13.73,13.73,0,0,0,7.84-1.21,3,3,0,0,1,2.07-.34c1.21.34,1.47,2.06,2.16,3.1,1.29,1.89,4,1.81,6.12,1s4-2.15,6.29-2.24c3.53-.08,7,2.93,10.34,1.72,1.81-.6,3.36-2.41,5.26-1.89a9.91,9.91,0,0,1,2.24,1.38c2.76,1.72,6.29.26,9.22-1.12a8.8,8.8,0,0,0,10.77-.61,7.12,7.12,0,0,0,10-1.29c-1.21,2.24,2.5,4.14,4.83,3.28s4.48-2.93,7-2.59c0,2.24,3.45,2,5.69,1.64,6-1.12,13.36,2.41,17.66-1.9.26,2.33,3.19,3.36,5.61,3.1s4.82-.94,7,0c1.12.52,2,1.38,3,1.9a11.34,11.34,0,0,0,5.35.86c3.79,0,11.28.09,11.28.09"/><path class="cls-18" d="M583.81,582a7.06,7.06,0,0,1,6.55.17c1.64,1,3.28,2.76,5.17,2.33,1.56-.34,2.76-2.15,4.31-1.72a12.46,12.46,0,0,1,1.47.86c1.72,1,3.79-.17,5.6-.95.52-.17,1-.43,1.55-.17s.78.69,1.12,1c2.59,2.33,7.42-2.76,9.74-.26.52.52.69,1.21,1.21,1.73,1.46,1.55,3.88.34,5.86-.35a12.37,12.37,0,0,1,10.17.78"/><path class="cls-18" d="M647.68,584.24c.86-.43,1.81-.86,2.67-1.38a1.71,1.71,0,0,1,.69-.17c.52.09.69.78.86,1.21.6,1.29,2.41,1.55,3.71,1.12s2.58-1.3,4-1.55a2.5,2.5,0,0,1,1.38.08c.69.35,1,1.12,1.64,1.73a3.67,3.67,0,0,0,3.1.77,33,33,0,0,0,3.19-.86,1.51,1.51,0,0,1,.86-.09c.52.09.86.52,1.29.87a4.27,4.27,0,0,0,5.78-.18"/><path class="cls-18" d="M686.46,584.24l8.45-1.29a2.88,2.88,0,0,1,2.24.34,9.77,9.77,0,0,1,.69,1c1,1.21,2.84.69,4.22,0s3.1-1.46,4.31-.6a13.11,13.11,0,0,1,1.12,1c1.73,1.3,4.14.09,6.21-.17a1.92,1.92,0,0,1,1.38.17c.51.26.86.86,1.29,1.3s1.29.51,1.55,0"/><path class="cls-18" d="M727.66,585.36a11.4,11.4,0,0,1,9.05-.34,12.42,12.42,0,0,0,3.45,1.2c2,.26,3.87-.94,5.86-.94,2.76-.09,5.43,2,8.18,1.46,1.13-.17,2.16-.86,3.19-.6a8.62,8.62,0,0,1,2.33,1.29c1.9,1.12,4.22,1.12,6.46,1a84.49,84.49,0,0,1,10.43.35c3.45.26,6.81.78,10.26,1.21,6,.77,12,1.63,18,2.41"/><path class="cls-18" d="M582.18,593.29c.17,1.64,2.5,1.9,4,1.21s2.93-1.9,4.48-1.64a9.14,9.14,0,0,1,2.42,1.21c2.32,1.2,5.08.86,7.58.43,4.48-.69,9-1.47,13.44-2.16a12.34,12.34,0,0,1,4-.17c1.29.17,2.41.86,3.71,1,2.67.44,5.17-.94,7.49-2.24.61,2.16,3.37,2.93,5.52,2.59s4.4-1.38,6.64-1.12,4.39,1.72,6.46,2.76c4.14,1.89,8.88,1.89,13.45,1.89s9-.08,13.61-.17a19.33,19.33,0,0,1,5,.43c1.38.43,2.67,1.12,4.05,1.47,2.16.51,4.48,0,6.64-.35a63.76,63.76,0,0,1,15.68-.6,15.51,15.51,0,0,1,4,.69,19.81,19.81,0,0,0,3.19,1c2.84.52,5.51-1.12,7.93-2.67.43,2.16,3,3.28,5.17,3s4.05-1.55,6-2.67c.94-.61,2.06-1.21,3.1-.78.77.34,1.21,1.12,1.72,1.64,2,2.15,5.43,2,8.19,1.2s5.69-2,8.53-1.46c1.38.26,2.67.95,4.05,1.29a16.71,16.71,0,0,0,6.9,0c6-.69,12.06-1.46,18.1-2.15a11.15,11.15,0,0,1,5.08.17c1.21.34,2.24,1.12,3.36,1.46,2.24.61,4.57-.6,6.9-.94,6.64-1.12,14,3.88,19.65.51"/><path class="cls-18" d="M583.81,603.12c1.55.69,3.45-1.81,4.83-.87a3.48,3.48,0,0,1,1,1.64,4.67,4.67,0,0,0,4.13,2.5,12.27,12.27,0,0,0,4.92-1,6.08,6.08,0,0,1,3-.61,9,9,0,0,1,2.42,1.12c2.58,1.38,5.69,1.38,8.62,1s5.86-1.2,8.79-1.12"/><path class="cls-18" d="M638.71,599.67c.87-.52,1.9.17,2.5,1a7.18,7.18,0,0,0,1.64,2.41c.95.6,2.24.52,3,1.29.6.69.6,1.81,1.12,2.5a3,3,0,0,0,3.27.69c1.12-.34,2.16-1,3.28-1.29a1,1,0,0,1,.86.09c.26.17.26.6.35.86.34,1.29,2.06,1.63,3.27,1.2s2.24-1.29,3.45-1.72c3.19-1.21,6.72.86,10.08.34,1.81-.25,3.71-1.29,5.43-.68"/><path class="cls-18" d="M695.08,610.27a3.51,3.51,0,0,1,2.41-2c2.24-.43,4.49,1.46,6.64.69,1.55-.52,2.59-2.24,4.22-2.07.87.08,1.47.69,2.24,1,2.25.94,4.74-.43,7.16-.18,1.55.18,2.93,1,4.48,1.38,2.84.69,5.95-.34,8.79.09,2.07.34,3.88,1.38,6,1.72,4.22.69,8.79-1.72,12.49.35"/><path class="cls-18" d="M766.44,613.29c2-.43,4-.95,5.95-1.38a1.94,1.94,0,0,1,1.38.08c.34.26.43.87.6,1.3.61,1.63,2.76,2.07,4.48,1.81s3.37-1.12,5.09-1a25.27,25.27,0,0,1,4.31,1.12,24.68,24.68,0,0,0,6.2.52l20.09-.26"/><path class="cls-18" d="M581,614.92c6.46-.69,13,3.71,19.13,1.47,1.81-.69,3.71-2,5.6-1.38a11.78,11.78,0,0,1,2.42,1.47c3.27,1.81,7.07-.61,10.6-1.9a4,4,0,0,1,2.67-.17c.78.34,1.29,1.12,2,1.63,1.64,1.12,3.8.18,5.69-.34,3.79-1.12,7.84-.78,11.72-.43l3.19.26"/><path class="cls-18" d="M672.67,617.16c1-.68,2.07-1.37,3-2.06a3.31,3.31,0,0,0,3.53,4c1.73-.26,3.28-2,4.91-1.38.61.17,1,.69,1.56,1,3,1.64,6.55-2.59,9.82-1.55a24.62,24.62,0,0,1,2.59,1.55c3.79,1.9,8.62-2.07,12.41-.17,1,.51,1.81,1.38,2.84,1.81,2.93,1.2,6.21-1.3,9.4-1.12,1.81.08,3.36,1.12,5.08,1.72s3.79.69,5-.69"/><path class="cls-18" d="M753.69,618.46l4.39-1.3c.43-.08.87-.25,1.21-.08.78.34.69,1.55,1.12,2.33a2.74,2.74,0,0,0,3.1,1c1.12-.26,2.16-.86,3.28-1,3.53-.61,6.81,2.93,10.25,2.32,1.38-.26,2.76-1,4.06-.51.94.43,1.46,1.55,2.24,2.24,2.41,2.24,6.2.08,9.48-.09,3.62-.17,7.24,2.33,10.77,1.47"/><path class="cls-18" d="M579.25,626.24c.68-1.81,3.18-1.9,5-1.21s3.62,1.81,5.43,1.38c1.47-.35,2.68-1.64,4.14-1.38,1.21.17,1.9,1.29,3,1.9,3.88,2,8.19-4.49,12.15-2.76.95.43,1.72,1.29,2.67,1.81,2.59,1.2,5.43-1,8.1-2.16a20.74,20.74,0,0,1,7.93-1.2,176.82,176.82,0,0,1,17.93,1.12c3.27.34,6.55.6,9.82.94l13.88,1.3a3.18,3.18,0,0,1,2,.69c.61.6.61,1.46,1.12,2.15,1,1.55,3.36,1.12,5.17.61,6.3-1.73,13-1.73,19.57-1.73H731a37.85,37.85,0,0,1,8.88.69,25.22,25.22,0,0,0,4.39.86c1.55,0,3.11-.43,4.66-.43,4.82,0,10.25,4.14,13.87.95-.34,2.41,2.85,3.79,5.17,3.27s4.57-2,7-1.89a23.23,23.23,0,0,1,3.36.6,21,21,0,0,0,5.69-.34,91.43,91.43,0,0,1,37.75,2.24"/><path class="cls-18" d="M589.24,633.2c.61-.87,1.9-.78,2.93-.35a12.69,12.69,0,0,0,2.93,1.29c1.21.18,2.33-.43,3.54-.34s2.41,1,3.62,1.55c2.93,1.29,6.29.17,9.22-1.21a7.15,7.15,0,0,1,3.19-.86c1.72.17,3,1.81,4.65,2.33s3.28-.17,5-.52c6.29-1,13,3.54,19,1.12"/><path class="cls-18" d="M670.52,633.8c4-.78,7.93,2.15,11.89,1.38,2.67-.52,5.09-2.85,7.76-2.24,1,.26,1.81.77,2.84,1.12,3,1,6.12-.78,9.22-1.3,4.92-.86,9.83,1.47,14.74.87a14.53,14.53,0,0,1,4.31-.35c1.55.35,2.76,1.47,4.22,2.07,4.66,2,10.09-1.55,15.09-.52,1.89.43,3.53,1.47,5.43,1.81,2.93.61,5.94-.51,9-.51,4.22-.09,8.27,1.81,12.41,1.63,2.5-.17,5.26-.94,7.33.35,1.2.77,1.89,2.07,2.84,3.1,2,2.16,5.09,3,8.1,3.28s6,.08,8.88.6c4.74.86,9.74,3.45,14.05,1.29"/><path class="cls-18" d="M585,646.81c67.92,8.28,136.78.87,205.12,5.26,1.64.09,3.37.26,4.49,1.55"/><polygon class="cls-20" points="832.38 671.23 532.88 662 544.34 491.96 840.74 496.18 832.38 671.23"/><polygon class="cls-11" points="796.21 574.7 582.77 574.7 588.61 507.47 802.13 507.47 796.21 574.7"/><g class="cls-21"><text class="cls-22" transform="matrix(1, 0, -0.09, 1, 589.41, 527.52)">No appoi<tspan class="cls-23" x="109.12" y="0">n</tspan><tspan x="124.85" y="0">tme</tspan><tspan class="cls-23" x="172.41" y="0">n</tspan><tspan x="188.14" y="0">ts </tspan></text><text class="cls-22" transform="matrix(1, 0, -0.09, 1, 637.94, 561.7)"><tspan class="cls-24">a</tspan><tspan class="cls-25" x="13.53" y="0">v</tspan><tspan x="27.15" y="0">ailable</tspan></text></g></g><g id="Left_Hand" data-name="Left Hand"><path class="cls-26" d="M438.33,821c-.6,3-1.72,4-2.59,4.31-2.75,1-5.68-3.71-9.48-2.59-1.38.43-8.79,2.76-9.05,2.93-6.37,2.5-5.77,1.12-15.08,4-2.58.77-5.43,1.37-11.2,2.58a8.08,8.08,0,0,1-4.31,0c-1.55-.6-2.16-1.55-4.31-2.58a13.19,13.19,0,0,0-2.59-.87,35,35,0,0,1-2.58,2.59A51,51,0,0,1,353,843.41l7.76-23.27c5-5,8.53-9,11-11.81a21.16,21.16,0,0,1,3.62-3.71c2.67-2,5.52-2.76,11.21-4.31,1.38-.34,4,.78,6-.86,0,0,.6-.52,6.9-3.45h0c4.22-2.07,7.49.61,15.51.86,6.55.26,11.89.18,15.51,0C433.16,804.88,435.74,813,438.33,821Z"/></g><g id="Right_hand" data-name="Right hand"><path class="cls-26" d="M632.25,852c-4.4,2.85-7.93,3.45-10.34,3.45-4.57,0-6.47-2-10.34-.86-3.19.86-3.11,2.5-6.9,4.31-.95.43-3.79,1.72-10.34,1.72-6.29,0-9.57-1.12-13.79-1.72-10.34-1.55-11.38,2-24.13,1.72-8.11-.17-8.8-1.63-19-2.58a117.33,117.33,0,0,0-21.54,0c9.22-18.7,18.36-37.32,27.58-56a56.73,56.73,0,0,0,13.79,10.34c4.91,2.58,8.7,4.65,13.79,5.17,2.24.26,4,.86,6.12.6,1.38-.17,1.55-.43,6.81-2.32a61.52,61.52,0,0,1,7.75-2.59,19.44,19.44,0,0,0,3.45-.86c1-.43,1.12-.6,3.45-1.73a37.35,37.35,0,0,0,3.44-1.72c.95-.6,1.38-1,2.59-1.72,0,0,.78-.43,1.72-.86,3.71-1.64,7.42-3.71,11.21-2.59,1.55.43,3.79,1.64,6,1.72.86.09,3.28,0,3.45,0a2.63,2.63,0,0,0,.95-.08c.86-.18,1.29-.69,2.41-.78,2-.26,2.41,1,6,1.73,4.23.86,4.74-.69,8.62,0,4.14.68,3.28,2.41,7.76,3.44,2.58.61,9.31,1.55,10.34,2.59l.86.86.87.86a26.37,26.37,0,0,1,3.44,4.31c1.81,2.93.86,3.45,2.59,6,1.29,2,2,1.81,2.58,3.45.52,1.38.18,1.81.87,4.31.08.35.34,1.12.86,2.59.77,2.32.77,2.32.86,2.58.09.52.52,3.11-.86,4.31-.43.35-.78.43-.86.86-.09.61.6.87.86,1.73.34,1.29-1,2.76-1.73,3.45a3.29,3.29,0,0,1-1.72.86,3.75,3.75,0,0,1-2.59-.86c-1-.87-.68-1.47-1.72-2.59-.77-.78-.86-.43-2.58-1.72-1.3-.95-1.64-1.47-2.59-1.73a6.06,6.06,0,0,0-1.72,0,13.8,13.8,0,0,0-4.31,1.73c-2.33,1.2-2.76.6-6,1.72a23.31,23.31,0,0,0-5.17,2.59C642.68,849.18,638.71,850.9,632.25,852Z"/><path class="cls-27" d="M649.92,808.59a17.69,17.69,0,0,0-6,1.29,17.4,17.4,0,0,1-2,.69,20.6,20.6,0,0,1-2.32.34"/><path class="cls-27" d="M655.52,827.66a40.21,40.21,0,0,1,6.9-.87h1.46a2.68,2.68,0,0,0-.09,2.16,8.76,8.76,0,0,0,5.18,5.17c.08.09.6.09.86.43a1.12,1.12,0,0,1,.26.86"/><path class="cls-27" d="M674.05,842a18.94,18.94,0,0,0-5.77-7.5,20.56,20.56,0,0,1-3.71-2.93,24.81,24.81,0,0,1-1.55-2c-1.38-1.3-3.36-1.47-8.27-.87a68.86,68.86,0,0,0-9.49,1.73"/><path class="cls-27" d="M663.71,813.5a22.15,22.15,0,0,0-4.14-.26,12.5,12.5,0,0,0-3.1.26,17.53,17.53,0,0,0-1.81.77,38.24,38.24,0,0,1-6.29,2.16"/></g><g id="Face_Neck" data-name="Face/Neck"><path id="back_neck" data-name="back neck" class="cls-28" d="M337.92,481a111.33,111.33,0,0,0-91.36-42.23c-.6-7.16-1.12-14.4-1.72-21.55,25.86,1.12,51.71,2.33,77.57,3.45C327.58,440.74,332.75,460.91,337.92,481Z"/><path id="side_face" data-name="side face" class="cls-28" d="M391.36,397.39a65.46,65.46,0,0,1-.86,13.79,84.66,84.66,0,0,1-6,19.82,140.64,140.64,0,0,1-6,12.93c-3.79,7.32-5.69,11-6.9,12.07a9.32,9.32,0,0,0-3.44,5.17,8.26,8.26,0,0,0,0,2.58c0,.43.17,5.78-3.45,9.48a12.52,12.52,0,0,1-7.76,3.45c-2.76.26-4.05-.6-6-.86-6.38-.78-10.34,5.77-13.79,6.89-10.17,3.28-45-30.51-43.09-71.53,1.46-31.55,24.47-68,50-67.23,20.52.61,39,25.34,38.79,30.17a8.62,8.62,0,0,0,.86,4.31,9.21,9.21,0,0,0,3.45,3.44C390.67,384.55,391,390.41,391.36,397.39Z"/><g id="eyelash"><path class="cls-29" d="M383.77,378.17A9.71,9.71,0,0,0,394.89,380c1.38-.69,2.67-1.64,4.05-2.33a9.84,9.84,0,0,1-11.12-1.81c-.25-.34-3.7,2.59-4.05,2.33Z"/></g><path id="Forehead" class="cls-28" d="M392.22,348.26a12.78,12.78,0,0,0,0,4.31c.34,2.16.86,2.59.86,4.31,0,1.47-.34,2-.86,4.31-.6,2.67-.35,2.59-.86,5.17-.69,3.36-1.3,6.21-3.45,8.62l-1.72,1.72a22.14,22.14,0,0,1-3.88,3.45c-2.85.86-13.88-13.1-16.81-31.89-3.53-22.92,4.4-48.18,11.21-48.26C385.58,299.91,393,342.75,392.22,348.26Z"/><g id="eyebrow"><path class="cls-29" d="M392.12,356.28a6.68,6.68,0,0,0-4.14,3c-.08.09,0,.61,0,.61V363c0,.17.09.52,0,.6a7,7,0,0,1,4.14-3,17.24,17.24,0,0,0,0-2.16,17.08,17.08,0,0,1,0-2.15Z"/><path class="cls-29" d="M391.43,360.76a2.94,2.94,0,0,1,1.12-.43,17.23,17.23,0,0,0,0-2.16,19.21,19.21,0,0,1,0-2.15,2.48,2.48,0,0,0-1.12.43v4.31Z"/></g></g><g id="Lab_Coat" data-name="Lab Coat"><path id="Back" class="cls-30" d="M393.51,898.33H103.92c33.44-40.68,38.53-71.36,37.93-90.5,0-.77-.87-9.74-2.59-27.58-4.65-49-5.95-57.83-7.76-67.22-2.58-13.71-3.62-14.91-6-29.31A368.66,368.66,0,0,1,122,586.33c3.45-32.23,5.09-48.35,15.52-63.78,12.06-17.84,29.13-26.71,39.64-31a84,84,0,0,1,20.69-14.66,90.46,90.46,0,0,1,29.3-8.61c12.76-1.56,16.81.77,44.82,4.3,27.75,3.54,26.2,1.64,37.92,4.31,13.79,3.11,21.2,6.81,42.23,16.38,12.59,5.77,31.37,14.13,55.16,24.13,4.23,175.48.26,236.67-6.89,241.33a86,86,0,0,0-11.21,8.61,99.72,99.72,0,0,0-10.34,11.21C372.05,787.41,372.57,836,393.51,898.33Z"/><path id="Collar" class="cls-31" d="M340.94,488.32a208,208,0,0,0-26.72-8.62,226.67,226.67,0,0,0-28.44-5.17,277.2,277.2,0,0,0-40.51-1.73,361.59,361.59,0,0,0-44,3.45,92.28,92.28,0,0,0,23.27-36.2,153.62,153.62,0,0,1,42.23.86,152,152,0,0,1,37.92,11.21,47.41,47.41,0,0,0,9.48,15.51A68.46,68.46,0,0,0,328,478.83a73.85,73.85,0,0,1,7.76,5.18C338,485.73,339.82,487.28,340.94,488.32Z"/><path class="cls-30" d="M543.48,800.31a82.56,82.56,0,0,1-31.89,68.09c-2.41-1-51.8-21.72-75-49.13A163.64,163.64,0,0,1,422,798.59c-6.46-11.12-9.39-19.82-12.06-26.72-7.07-18.36-13.27-27.06-22.41-44-9.05-16.64-21.81-42.93-37.92-84.47-2.93-7.07-13.71-34.9-2.59-67.22,14-40.94,51.54-55.77,56.88-57.75a33.15,33.15,0,0,1,13.79,5.17c8.45,5.69,11.47,14.05,14.66,22.41C450.14,593,455.39,595.7,453,607.25a78.66,78.66,0,0,0-2.58,20.69,74.22,74.22,0,0,0,1.72,14.65c5.95,28.18,25.08,72.14,31.89,79.29.6.61,2.67,2.59,2.58,5.17,0,1.81-1,2.24-1.72,5.17a8.17,8.17,0,0,0,0,5.18c.69,1.72,2.16,2.58,3.45,3.44,3.36,2.33,2.15,2.85,9.82,11.12,2.68,2.85,3.11,3.19,4.83,5.26a59.56,59.56,0,0,1,4.31,6C509.43,766.79,518.83,776.78,543.48,800.31Z"/></g><g id="Hair"><path id="main_hair" data-name="main hair" class="cls-29" d="M222.43,342.23a61.64,61.64,0,0,1,1.72,10.34,55.6,55.6,0,0,1,0,11.21c-.51,5.6-1.37,5.6-1.72,9.48-.17,1.72-.17,4.05,3.45,17.23,2.76,10.09,3.62,11.72,4.31,12.93a31.64,31.64,0,0,0,8.62,9.48c4.31,3.36,24.65,17.33,45.68,9.48,15.94-5.94,23-20.94,29.3-34.47a63,63,0,0,0,4.31-12.07c1.29-5.86.34-6.38,1.72-11.2,2.42-8.36,6.9-12.41,8.62-13.79,1.9-1.55,3.28-2.59,5.17-2.59,1.47,0,2.33.69,8.62,5.17,3,2.16,3.88,2.85,5.17,2.59,1.64-.35,2.59-2,4.31-1.73a3.28,3.28,0,0,1,1.73.87c3.1,2.58,3.36,9.48,6.89,14.65,2.84,4.14,7.67,7.15,9.48,6,.26-.17.43-.43.86-1.72a29.23,29.23,0,0,0,1.73-8.62c.08-2.16,0-4.22,0-5.17-.09-2.59-.26-3.11,0-4.31a9.16,9.16,0,0,1,2.58-4.31c1.81-1.64,2.85-1.29,4.31-2.59s1.9-3,2.59-6c2.15-9.22,2.32-7.84,2.58-10.34.86-7.59-1.89-8.88-1.72-18.1.09-4.91,1.64-5.95.86-9.48-.52-2.33-1.55-4.05-5.17-8.62-4.14-5.26-6.21-7.93-8.62-10.34a89.09,89.09,0,0,0-28.44-19c-28.87-10.86-57.83,2.5-75,10.34a72.83,72.83,0,0,0-29.31,24.13C235.45,303.88,218.9,326.89,222.43,342.23Z"/><g id="Band"><path d="M262.68,295.86a18.9,18.9,0,0,1-4.22,16.38,4.56,4.56,0,0,1-1.55,1.29c-1.81,1-4.05.08-6-.78a1.59,1.59,0,0,1-.78-.51,1.14,1.14,0,0,1,.43-1.38,10.45,10.45,0,0,1,1.38-.69c1.55-.87,2.33-2.76,2.59-4.57a17.21,17.21,0,0,0-7.33-16.72c.43.26,5.69-2.76,7.24-2.5,2.42.43,5.52,3.45,6.73,5.43A22.51,22.51,0,0,1,262.68,295.86Z"/></g><path id="pony_tail" data-name="pony tail" class="cls-32" d="M249.58,289.14c-10.17-6.64-23-8.28-35.08-6.9-5.34.61-10.86,1.9-14.82,5.52-6.12,5.51-6.9,14.56-7.07,22.84a96.15,96.15,0,0,0,.6,16.46c1.3,8.27,4.66,16.12,6.81,24.22,3.88,14.56,3.79,29.9,3.71,45-.09,7.5-.17,15.17-3.45,21.89a25.58,25.58,0,0,1-23.44,14c-6.81-.26-14.05-4-15.86-10.69-1.72,9.39,2.76,19.22,10.08,25.43S188,456,197.52,456.6c3.45.17,7,.17,10.17-1.21,2.85-1.2,5.17-3.45,7.33-5.69,12.41-12.49,23.61-26.46,30.42-42.75s8.79-34.9,2.76-51.45c-1.9-5.34-4.65-10.34-6.55-15.68s-3.1-11.21-1.72-16.64,5.69-10.51,11.29-11.38c3-2.75,4.13-7.24,3.79-11.29S252.94,291.38,249.58,289.14Z"/></g></g><path class="cls-9" d="M924,93V897H120V93H924m22-22H98V919H946V71Z"/></svg>