<?xml version="1.0" encoding="UTF-8"?>
<svg xmlns="http://www.w3.org/2000/svg" onmouseup="{ if(window.parent.document.onmouseup) window.parent.document.onmouseup(arguments[0]);}" viewBox="0 0 960 960"><defs><style>.cls-1{fill:#d2e0b8;}.cls-2{fill:#855914;stroke:#999;stroke-miterlimit:1;stroke-width:1.11px;}.cls-3,.cls-4{fill:#f2f2f2;}.cls-4{stroke:#000;stroke-miterlimit:10;stroke-width:0.5px;}.cls-5{font-size:36px;font-family:ComicSansMS, Comic Sans MS;}.cls-6{fill:#e6e6e6;}.cls-7{fill:#999;}.cls-8{fill:#f0d0b4;}.cls-9{fill:#a67c52;}.cls-10{fill:#b3b3b3;}.cls-11{fill:#ecc19c;}.cls-12{fill:#cea28b;}.cls-13{fill:aqua;}.cls-14{fill:#0071bc;}.cls-15{fill:#603813;}.cls-16{fill:#8c6239;}.cls-17{fill:#db9c94;}.cls-18{fill:#1a1a1a;}.cls-19{fill:#dfb28b;}</style></defs><title>scenario 1</title><g id="Panel_2" data-name="Panel 2"><rect class="cls-1" x="78" y="86" width="809" height="809"/><rect id="Table" class="cls-2" x="77.5" y="842.59" width="810" height="51.91"/><path class="cls-3" d="M879.27,92.8V888H84.07V92.8h795.2m22-22H62.07V910h839.2V70.8Z"/><path class="cls-4" d="M836.88,10.65,555.1,10.46S499.26,5.52,462.8,47.6c-17.9,20.65-23,42.83-24.79,51.23-8.67,41.38,7.83,74.49,13.49,84.67,17.78,32,44.75,46.63,62,56a184.06,184.06,0,0,0,44,17h187a333.33,333.33,0,0,1-45.09,60.19c-65,68.82-141,89.22-139.91,91.81s73.5-15.41,152.87-68.29A550.29,550.29,0,0,0,811.5,255.5c53.58,3.88,104.09-22.29,129-67,21.92-39.34,27.28-98.91-9-140C896.76,9.09,844.85,10.33,836.88,10.65Z"/><g id="Speech"><text class="cls-5" transform="translate(512.85 66.01)">I am so sorry. I do not <tspan x="41.33" y="43.2">have any available </tspan><tspan x="-35.57" y="86.4">appointments today. Please </tspan><tspan x="-7.88" y="129.6">take Sam to the ED for </tspan><tspan x="101.93" y="172.8">evaluation.</tspan></text></g><path class="cls-6" d="M297.58,810.08c-5.33,5.52-9.65,6.78-12.7,6.82-2.53,0-4.68-.74-8.84,0-3.37.61-4.13,1.52-5.79,1.11-3.55-.88-3.75-6-6.06-8.71-5.71-6.82-29.25-5.51-39.75,9.54-6.77,9.71-6.8,23.27-.44,34.77-45.63,14.22-89.66,3.7-109.38-24.56C110.37,823,103.49,810.67,103,791a190.43,190.43,0,0,1-8.28-32c-2-11.81-6.2-43.68,5-87.19,10.25-40,18.69-32.17,32-75.06,12.51-40.28,7.73-55.75,23.18-102.65a390.83,390.83,0,0,1,16.56-41.95,223.38,223.38,0,0,1,106.8-38.78c-16.48,60.44-7.57,96.29,4.68,118.26,23.17,41.51,39.74,62.36,39.74,62.36,13.59,17.1,22.77,25.29,22.46,39.11-.32,13.63-9.53,18.23-19.22,41.37-4.65,11.12-6.45,19.74-9.86,36.52-7.1,34.91-9.67,69.55-10.56,95.4,0,.53-5.55,3-6.2,3-2.68-.36-2.83-2.47-4.56-4.31a59.37,59.37,0,0,0-13.6-10.59l-26-15.39c-3.11-1.84-9.67-4.13-11.81-7-2.61-3.49-1.42-8.59-2-12.65-1.26-8.4-9-12.92-11.93-20.36-3.27-8.21-6.68-16-11.58-23.45a104.24,104.24,0,0,0-38.44-34.9c-4.61-2.41-9.43-4.49-13.72-7.44,4.35-1.32,7.81.4,12,2A61.73,61.73,0,0,1,189.5,682c3.46,2.34,6.58,4.34,10.31,7.24a132,132,0,0,1,19.13,18.26"/><path class="cls-7" d="M184,860.49a110.43,110.43,0,0,1-24.53-2.69,85.37,85.37,0,0,1-26.15-10.52,65,65,0,0,1-19.16-17.92c-7.28-10.44-11.32-23.68-11.68-38.29a193.37,193.37,0,0,1-8.28-32c-4.52-26.89-2.8-57.12,5-87.43,5.27-20.56,10.14-28.64,15.3-37.2,5-8.38,10.25-17,16.72-37.89,5.82-18.75,7.85-31.89,10-45.8,2.42-15.63,4.92-31.79,13.18-56.86a394.77,394.77,0,0,1,16.58-42l.06-.14.13-.08a223.91,223.91,0,0,1,107.06-38.88l.79-.08-.21.77c-7.46,27.38-10.29,52.06-8.41,73.37,1.46,16.62,5.85,31.59,13.05,44.48,22.87,41,39.52,62.08,39.68,62.29,2.33,2.93,4.49,5.55,6.58,8.08,9.79,11.88,16.26,19.73,16,31.38-.18,7.87-3.31,12.85-7.64,19.75a138.38,138.38,0,0,0-11.62,21.82c-4.72,11.3-6.54,20.22-9.83,36.42-5.8,28.52-9.35,60.59-10.55,95.31a.87.87,0,0,1-.37.63c-.9.76-5.56,3-6.45,2.86-2.07-.27-2.83-1.47-3.63-2.75a10.61,10.61,0,0,0-1.26-1.72,59,59,0,0,0-13.48-10.5l-26-15.38c-.94-.56-2.23-1.17-3.59-1.82-3.2-1.52-6.82-3.24-8.38-5.32-1.88-2.51-1.9-5.72-1.92-8.82a29.29,29.29,0,0,0-.21-4.07c-.7-4.69-3.43-8.08-6.32-11.67a34.19,34.19,0,0,1-5.58-8.57c-3.56-9-6.89-16.35-11.53-23.36a103.53,103.53,0,0,0-38.23-34.71c-1.27-.67-2.59-1.32-3.86-1.95a78.6,78.6,0,0,1-9.92-5.53l-.95-.65,1.1-.33c4.1-1.24,7.37.07,11.17,1.58l1.23.49a62.14,62.14,0,0,1,11.91,6.8c.59.41,1.18.8,1.76,1.19,2.81,1.88,5.47,3.66,8.58,6.07a132.72,132.72,0,0,1,19.2,18.34l-.83.72a132.71,132.71,0,0,0-19.05-18.19c-3.07-2.38-5.72-4.15-8.52-6l-1.76-1.18a61.55,61.55,0,0,0-11.69-6.7l-1.24-.49c-3.21-1.28-6-2.4-9.24-1.83a88.17,88.17,0,0,0,8.74,4.75c1.28.64,2.6,1.29,3.88,2a104.65,104.65,0,0,1,38.64,35.08c4.69,7.09,8.05,14.55,11.63,23.56a33.39,33.39,0,0,0,5.42,8.29c2.85,3.55,5.8,7.21,6.55,12.19a31.11,31.11,0,0,1,.22,4.24c0,2.92,0,5.94,1.7,8.16,1.4,1.86,4.89,3.52,8,5,1.39.66,2.7,1.28,3.69,1.87l26,15.38a60.06,60.06,0,0,1,13.72,10.7,12.26,12.26,0,0,1,1.38,1.88c.75,1.18,1.28,2,2.82,2.24a24.71,24.71,0,0,0,5.6-2.59c1.21-34.72,4.76-66.79,10.57-95.33,3.31-16.27,5.13-25.23,9.9-36.62a138,138,0,0,1,11.69-22c4.4-7,7.3-11.62,7.47-19.18.26-11.24-5.76-18.55-15.74-30.66-2.09-2.53-4.26-5.16-6.59-8.1-.17-.21-16.86-21.35-39.79-62.44-7.27-13-11.7-28.14-13.18-44.91-1.88-21.24.9-45.79,8.24-73A222.89,222.89,0,0,0,171.9,452.47a392.13,392.13,0,0,0-16.47,41.75c-8.23,25-10.73,41.09-13.14,56.68-2.15,14-4.19,27.13-10,46-6.51,21-11.76,29.7-16.83,38.12s-9.94,16.52-15.17,36.91c-7.74,30.17-9.45,60.24-5,87a191.68,191.68,0,0,0,8.26,31.92l0,.08V791c.34,14.43,4.31,27.5,11.49,37.78a63.77,63.77,0,0,0,18.83,17.61,84.17,84.17,0,0,0,25.82,10.38c19.59,4.48,41.53,3.29,63.47-3.44-6.17-11.62-5.87-25.19.8-34.76s18.07-13.31,26.56-13.69c6.41-.28,11.67,1.26,14.06,4.11a14.75,14.75,0,0,1,2.09,3.9c.89,2.13,1.74,4.15,3.68,4.63a4,4,0,0,0,2.4-.3,22.37,22.37,0,0,1,3.17-.81,21.31,21.31,0,0,1,6.5-.15,19.87,19.87,0,0,0,2.42.14c4-.06,8.1-2.3,12.31-6.65l.8.76c-4.42,4.58-8.83,6.93-13.1,7a21.52,21.52,0,0,1-2.54-.16,20.31,20.31,0,0,0-6.2.15,22.74,22.74,0,0,0-3,.77,4.9,4.9,0,0,1-3,.32c-2.49-.61-3.48-3-4.44-5.28a14.25,14.25,0,0,0-1.92-3.61c-2.13-2.56-7.18-4-13.16-3.72-8.23.37-19.29,4-25.7,13.22-6.55,9.39-6.72,22.81-.42,34.19l.33.59-.65.2A135.18,135.18,0,0,1,184,860.49ZM305,806.1Z"/><path class="cls-7" d="M213.47,690.05l-1.1,0c.19-4.57-1.43-8.33-3.16-12.31a48.09,48.09,0,0,1-2.73-7.48c-1.55-6.37-1.95-13.36-2.34-20.11,0-.71-.07-1.4-.12-2.1-.2-3.42-.33-6.92-.45-10.31-.48-13.15-1-26.75-5.83-39.25-3.66-9.42-9.73-18-15.6-26.2-7.57-10.65-15.41-21.66-18-34.62l1.08-.22c2.57,12.73,10.33,23.65,17.84,34.2,5.91,8.31,12,16.89,15.73,26.44,4.92,12.67,5.42,26.37,5.9,39.61.13,3.38.26,6.88.46,10.29l.12,2.09c.38,6.71.77,13.65,2.3,19.92a46.31,46.31,0,0,0,2.68,7.3C211.92,681.17,213.68,685.22,213.47,690.05Z"/><path class="cls-6" d="M315.51,842.29l234,3.86q-2-126.1-4-252.21c-79.85-4-111.65,1.18-123.54,8.28-.84.5-7,4.27-15.76,9.08-14.46,8-24,12.17-30.05,15.2a176.93,176.93,0,0,0-39.18,27,246.75,246.75,0,0,0-21.52,188.75Z"/><path class="cls-7" d="M549.93,846.57,315.19,842.7l-.08-.29a246.86,246.86,0,0,1,3.83-149.36,249.82,249.82,0,0,1,17.73-39.71l0-.06.05,0A179.18,179.18,0,0,1,376,626.13c1.51-.75,3.21-1.57,5.18-2.51,5.9-2.83,14-6.7,24.85-12.68,5.28-2.91,10.46-5.9,15.41-8.88l.34-.2c6.76-4,19-6.85,36.46-8.36,21.13-1.83,50.5-1.82,87.32,0l.38,0v.38Zm-234.11-4.69,233.27,3.85-3.93-251.4c-66.82-3.33-108.18-.56-122.93,8.24l-.33.2c-5,3-10.15,6-15.44,8.89-10.89,6-19,9.87-24.89,12.7-2,.95-3.67,1.76-5.17,2.51a178,178,0,0,0-39,26.94,247.72,247.72,0,0,0-30.27,99.11A245.75,245.75,0,0,0,315.82,841.88Z"/><path class="cls-6" d="M259,528a83.22,83.22,0,0,0,15.62-15.13,88.27,88.27,0,0,0-26.66.54,227.08,227.08,0,0,1-1.05-26.59c.12-6.44.53-13,2.56-19.06,2.95-8.9,9.12-16.3,13.87-24.39,6.56-11.18,10.47-23.84,17.72-34.59,8-11.87,19.63-20.76,31-29.42.81,13.18-9.08,24.27-14.16,36.47-5.94,14.26-5.24,30.52-1.61,45.53s10,29.19,15.39,43.68c7.49,20.31,13,41.3,18.39,62.25l14.77,56.87c.79,3,2.24,10.69-2.81,11-3.76.23-6.72-7.86-8.3-10.39a291.93,291.93,0,0,0-17-24.06c-12.22-15.75-25.57-30.6-38.08-46.11C277.08,552.62,258.3,528.55,259,528Z"/><path class="cls-7" d="M341.9,635.75c-3.2,0-5.62-4.82-7.39-8.36-.47-.95-.88-1.76-1.22-2.3a289.6,289.6,0,0,0-16.94-24c-7-9.07-14.57-18-21.86-26.61-5.36-6.35-10.91-12.92-16.21-19.5-.81-1-5.82-7.41-10.53-13.6-9.44-12.41-9.37-13-9.32-13.37a.6.6,0,0,1,.24-.41l.33.44-.33-.44a82.82,82.82,0,0,0,14.9-14.26,87.68,87.68,0,0,0-25.52.65l-.59.1-.05-.59a228,228,0,0,1-1-26.65c.11-6.3.51-13,2.58-19.23s5.73-11.77,9.27-17.15c1.57-2.39,3.19-4.85,4.65-7.34a166.65,166.65,0,0,0,7.62-15.32c3-6.51,6-13.25,10.12-19.3,8.14-12.07,19.84-21,31.16-29.55l.82-.63.06,1c.57,9.21-4,17.51-8.5,25.53a110,110,0,0,0-5.7,11.19c-5.25,12.61-5.79,27.82-1.58,45.19,2.63,10.85,6.78,21.45,10.79,31.7,1.52,3.9,3.1,7.93,4.58,11.92,7.51,20.35,13,41.68,18.4,62.3l14.78,56.87c.69,2.68,1.58,7.55-.27,10.1a3.86,3.86,0,0,1-3,1.59Zm-82.27-107.5c1.48,2.92,17.32,23.33,19.51,26,5.3,6.57,10.84,13.13,16.2,19.48,7.29,8.63,14.83,17.56,21.88,26.65a291.22,291.22,0,0,1,17,24.09c.36.59.78,1.42,1.27,2.39,1.58,3.15,4,7.92,6.53,7.75a2.76,2.76,0,0,0,2.22-1.14c1.64-2.26.61-7.16.09-9.17l-14.77-56.87c-5.35-20.6-10.89-41.9-18.38-62.2-1.47-4-3.05-8-4.57-11.9-4-10.28-8.19-20.92-10.83-31.84-4.27-17.6-3.72-33,1.63-45.88a116.45,116.45,0,0,1,5.75-11.3c4.41-7.92,8.58-15.42,8.42-23.87-11,8.34-22.24,17-30.08,28.65-4,6-7.07,12.67-10,19.14a167.64,167.64,0,0,1-7.68,15.42c-1.47,2.51-3.1,5-4.68,7.39-3.5,5.31-7.12,10.81-9.14,16.89s-2.41,12.69-2.53,18.9a229.11,229.11,0,0,0,1,25.93,88.77,88.77,0,0,1,26.24-.43l1,.13-.61.76A83.6,83.6,0,0,1,259.63,528.25Z"/><g id="Neck"><path class="cls-8" d="M396.79,545.4l-39.32-2.9c-15-19.38-41-59-46.63-114.23a214.06,214.06,0,0,1,1.69-55.81l118.61,32.21Z"/><path class="cls-9" d="M396.9,545.54l-39.5-2.91,0,0C339,518.8,315.91,479.66,310.7,428.28a214.8,214.8,0,0,1,1.69-55.84l0-.15.14,0,118.75,32.24,0,.13Zm-39.36-3.17,39.14,2.88L431,404.77,312.64,372.64A214.77,214.77,0,0,0,311,428.25C316.18,479.54,339.16,518.61,357.54,542.37Z"/></g><path class="cls-6" d="M448.24,385.88c2.24,1.37,34.43,21.2,47.42,39.62a52.53,52.53,0,0,1,8.26,16.36c1.55,5.33,1.89,10.92,2.14,16.47,1.2,26.48-4.21,53.05-2.27,79.48.09,1.13.35,4.26-1.56,6.13-3,2.94-8.7.09-13.15-.22-12.51-.89-16.74,18.07-36.94,34.73C439.39,589,435.83,586,418.71,599.53c-7.16,5.66-13,12.75-19.68,19-22.34,21.13-52.8,32.77-73.11,55.86,10-19.71,20-39.44,31.43-58.37,29.1-48.27,48-69.61,52.09-74.64a43.54,43.54,0,0,0,9-17,56.58,56.58,0,0,0,1.38-9.38c1.36-12.17,5.13-20.73,6.35-24.28,2.84-8.31,5.9-30.76,6.9-92.72"/><path class="cls-7" d="M323.46,678.06l2-3.89c9.84-19.4,20-39.45,31.45-58.41,26.69-44.28,44.84-66,50.8-73.1l1.33-1.59.12-.15a43,43,0,0,0,8.77-16.66,41.92,41.92,0,0,0,1.15-7.19c.06-.67.13-1.37.21-2.11a90.11,90.11,0,0,1,5.65-22.39c.29-.79.54-1.47.73-2,3.74-10.95,6.05-42.08,6.87-92.55l1.1,0c-.82,50.58-3.15,81.83-6.93,92.88-.19.57-.45,1.25-.74,2a89.7,89.7,0,0,0-5.58,22.13c-.08.74-.15,1.43-.21,2.1a42.73,42.73,0,0,1-1.18,7.36,44,44,0,0,1-9,17.08l-.11.14c-.35.42-.79,1-1.34,1.61-5.95,7.11-24.06,28.75-50.71,73-10.7,17.76-20.31,36.5-29.58,54.75,10.78-11.27,24.12-19.92,37.06-28.31,11.47-7.44,23.33-15.14,33.35-24.61,2.41-2.29,4.77-4.72,7.05-7.08a130.83,130.83,0,0,1,12.67-12,91.63,91.63,0,0,1,19.09-12,62.73,62.73,0,0,0,14.32-9c8.69-7.17,14.48-14.85,19.13-21,6.27-8.34,10.8-14.36,18.2-13.83a30.35,30.35,0,0,1,4.37.76c3.33.75,6.48,1.46,8.36-.39,1.7-1.66,1.49-4.54,1.41-5.63v-.06c-1-14,0-28.17,1-41.92.9-12.33,1.83-25.07,1.26-37.58-.25-5.63-.61-11.13-2.12-16.34a51.63,51.63,0,0,0-8-16l-.14-.2c-13-18.49-45.87-38.63-47.26-39.47l.57-1c1.4.86,34.42,21.11,47.59,39.79l.14.2a52.75,52.75,0,0,1,8.2,16.31c1.55,5.33,1.91,10.9,2.17,16.6.56,12.57-.37,25.35-1.27,37.71-1,13.71-2,27.88-1,41.76v.06c.09,1.23.33,4.48-1.73,6.5-2.32,2.27-5.91,1.46-9.38.68a29.49,29.49,0,0,0-4.2-.74c-6.8-.49-11.18,5.34-17.25,13.39-4.68,6.23-10.51,14-19.3,21.22A64.22,64.22,0,0,1,438,588.05,90.9,90.9,0,0,0,419.06,600a129.83,129.83,0,0,0-12.57,11.89c-2.29,2.36-4.65,4.81-7.08,7.11-10.09,9.54-22,17.26-33.51,24.73-14,9.07-28.45,18.45-39.56,31.09Z"/><path class="cls-6" d="M610.77,802.55,508.42,797q-14.51-166.12-29-332.24l50.77-17.11c20.49,7.72,31.24,18.5,37,25.94,2.67,3.46,4.2,6.13,17.66,35.32,9.36,20.3,14,30.45,15.45,34.21,4,10.73,10.28,27.69,12.7,49.68.59,5.36.38,5.9.55,31.45.2,31.32.32,47.32,1.15,63.49.74,14.43,1.83,27.2,2.71,37.51,2.26,26.38,3.9,37,1.1,52.43A107.41,107.41,0,0,1,610.77,802.55Z"/><path class="cls-7" d="M611,803h-.28L508,797.43,479,464.51l51.22-17.26.14.05c15.94,6,28.44,14.78,37.16,26.07,2.67,3.47,4,5.79,17.7,35.4,9.36,20.28,14,30.46,15.47,34.25,3.83,10.21,10.24,27.29,12.72,49.77.43,4,.44,5.34.48,16,0,3.71,0,8.79.07,15.52.2,30.29.3,47,1.15,63.47.74,14.42,1.83,27.21,2.71,37.49.32,3.74.62,7.09.91,10.33,1.73,19.25,2.6,28.91.19,42.21a107.63,107.63,0,0,1-7.75,24.93ZM508.8,796.64l101.71,5.49a107.69,107.69,0,0,0,7.58-24.48c2.39-13.2,1.52-22.82-.2-42-.29-3.24-.59-6.59-.91-10.33-.88-10.28-2-23.08-2.72-37.52-.85-16.51-1-33.2-1.15-63.5,0-6.73-.06-11.82-.07-15.53,0-10.6,0-12-.48-15.89-2.46-22.38-8.85-39.4-12.67-49.57-1.41-3.76-6.1-13.93-15.44-34.19-13.61-29.53-15-31.83-17.61-35.24-8.6-11.14-20.93-19.8-36.66-25.75l-50.32,16.95Z"/><path class="cls-7" d="M597.47,767.24c-1.14-6.23-5.38-11.35-9.48-16.31l-1.46-1.77c-14.36-17.6-23.81-38.15-30.44-54.09a183.89,183.89,0,0,1-7.22-19.88c-2-6.89-3.31-14.06-4.61-21-1.53-8.24-3.12-16.75-5.78-24.82C533.55,614.47,525,601,516.71,588c-6.31-9.91-13.45-21.15-23.7-28.43l.48-.68c10.38,7.38,17.57,18.69,23.92,28.66,8.31,13.06,16.9,26.57,21.85,41.58,2.69,8.12,4.28,16.66,5.82,24.93,1.29,6.91,2.62,14.06,4.58,20.92a184.93,184.93,0,0,0,7.19,19.78c6.61,15.89,16,36.37,30.32,53.89.48.59,1,1.17,1.46,1.76,4.17,5,8.48,10.25,9.65,16.69Z"/><path class="cls-7" d="M507.31,850.61a63.75,63.75,0,0,1-8.94-.61,23.57,23.57,0,0,1-8.44-2.56c-4-2.32-6.6-6.26-9.12-10.44-18.11-30-32.89-65-45.21-107.12-11.25-38.42-19.34-78.74-26.48-114.32-.87-4.31-1.45-8.16.13-11.66,2.47-5.46,9.1-7.35,14.44-8.86A166.55,166.55,0,0,0,488,559.91l.55.62a167.22,167.22,0,0,1-64.6,35.3c-5.16,1.47-11.6,3.3-13.91,8.41-1.48,3.28-.91,7-.07,11.16,7.14,35.56,15.22,75.86,26.46,114.25,12.3,42,27.06,77,45.13,106.92,2.46,4.08,5,7.93,8.83,10.15a22.74,22.74,0,0,0,8.14,2.46c14.19,2,29-1.48,42-4.57,7.44-1.76,15.14-3.59,22.26-6.72,11.66-5.14,21.46-13.59,30.94-21.76,9.86-8.5,18.9-17.06,21.22-28.39l.81.17c-2.57,12.54-13.5,22-21.49,28.85-9.52,8.21-19.37,16.7-31.15,21.88-7.18,3.17-14.92,5-22.4,6.78C530.28,847.88,518.78,850.61,507.31,850.61Z"/><path class="cls-10" d="M227.48,852.78a162.36,162.36,0,0,1-18.61,4.66c-4.49.85-8.76,1.45-12.78,1.88,1.68-3.38,4.2-8.59,7.11-15.1,2.08-4.67,2.51-5.84,3.31-7.45,2.29-4.6,6.69-10.79,16-16.82Z"/><path class="cls-11" d="M295.91,811.94c9.52-1,10.65-5.09,16.08-4.06,4.19.79,5.3,3.55,11.52,9.13,6.37,5.72,8.89,6.13,15.45,10.93,7,5.14,13.19,12.75,25.53,28,9.44,11.64,12.05,15.91,10.9,20.59-.76,3.06-3.12,6.55-6.08,6.9-4.15.49-7.35-5.44-14.07-14.63,0,0-.71-1-15.18-18.49a123.54,123.54,0,0,0-28.69-25.11,150.46,150.46,0,0,1,28.69,25.11s5.59,6.34,14.89,26.1c.65,1.37,1.84,4.28.79,6.94s-4.33,4.09-7.28,4c-4.72-.17-8.91-3.21-12-6.81-3.74-4.42-3.29-5.87-8.16-11.58-2.08-2.45-2.89-2.95-6.49-6.5-5.93-5.84-9-9.65-11-11.86-4-4.27-10.83-9.69-23.45-14.07a75.59,75.59,0,0,1,19.59,16c2.78,3.27,4.1,5.51,8.56,10.21,4.21,4.44,6.09,5.66,8.26,9.33,1.75,3,4.68,8.08,2.64,11.72-1.66,3-5.68,3.9-9,3a18.25,18.25,0,0,1-8.54-5.35c-4-4.75-15.17-13.31-45.56-30,15.56,17.48,24.45,24.13,29.8,26.76,1.39.68,6.26,2.92,6.29,6,0,2.37-2.77,4.16-3.35,4.53-7.18,4.58-18.42-1.06-20.87-2.29a57.71,57.71,0,0,1-10.21-6.9c-3.88-3.1-3.55-3.46-5.3-4.65-8.32-5.65-16.25,2.17-23.95-2.8-3.18-2.05-5.07-5.46-8.56-11.77-2-3.59-1.82-4.15-3.2-6.71-6.06-11.26-15.55-12.25-15.48-17.87,0-1.23.48-1.88,7.68-9.3,7-7.2,10.52-10.82,11.82-11.78a42.75,42.75,0,0,1,17.67-7.95c3.37-.63,7.34-1.42,12.14-.29,7.86,1.84,8.27,6.38,15.18,8.55C279.33,817,284.9,813.11,295.91,811.94Z"/><path class="cls-12" d="M289.35,890.93c-4,0-8.87-1.38-14.32-4.12a59.92,59.92,0,0,1-10.28-6.94,36.55,36.55,0,0,1-3.63-3.23,9.48,9.48,0,0,0-1.64-1.4c-4.15-2.82-8.28-2.17-12.27-1.54s-7.81,1.24-11.68-1.26c-3.26-2.1-5.19-5.59-8.69-11.92a35,35,0,0,1-2-4.08,25.75,25.75,0,0,0-1.24-2.64c-3.11-5.78-7.09-8.78-10.3-11.2-2.94-2.21-5.26-4-5.22-6.86,0-1.4.45-2,7.79-9.58s10.57-10.87,11.88-11.83a43.17,43.17,0,0,1,17.83-8l.23,0c3.26-.61,7.31-1.37,12.09-.25a18.27,18.27,0,0,1,8.5,4.57,17.72,17.72,0,0,0,6.7,4c3.67,1.15,7.18.25,11.63-.88a72.91,72.91,0,0,1,11.11-2.17l0,.41,0-.41a26.11,26.11,0,0,0,9.38-2.74c2.21-1,3.95-1.86,6.82-1.32s4.44,2,7.08,4.75c1.19,1.21,2.66,2.71,4.63,4.48a55.36,55.36,0,0,0,9.06,6.68c1.77,1.09,3.78,2.33,6.37,4.23,7.06,5.17,13.25,12.81,25.6,28,9.44,11.65,12.19,16.06,11,21-.82,3.3-3.29,6.84-6.43,7.21-3.64.43-6.46-3.55-11.13-10.15-1-1.4-2.11-3-3.32-4.64,0,0-.73-1-9.4-11.48a204.22,204.22,0,0,1,9.81,18.67c1.33,2.81,1.6,5.26.8,7.27-1.21,3-4.83,4.34-7.68,4.24-4.23-.14-8.58-2.62-12.26-7a32.13,32.13,0,0,1-3.49-5,40.3,40.3,0,0,0-4.66-6.56,38.82,38.82,0,0,0-3.5-3.6c-.75-.71-1.69-1.6-3-2.86-4.33-4.27-7.1-7.42-9.12-9.72-.74-.84-1.37-1.56-1.93-2.16-4.64-5-11.14-9.19-19.38-12.5a74.06,74.06,0,0,1,16.14,13.88c1,1.16,1.77,2.17,2.6,3.24a83.45,83.45,0,0,0,5.94,7c1.24,1.31,2.27,2.33,3.18,3.23a27.36,27.36,0,0,1,5.13,6.17c1.7,2.87,4.85,8.21,2.65,12.13-1.39,2.48-5.07,4.38-9.42,3.22a18.6,18.6,0,0,1-8.76-5.48c-5.08-6-19.64-15.65-43.3-28.76,11.91,13.2,21.34,21.56,28,24.85l.18.09c1.73.84,6.3,3.07,6.34,6.31,0,1.68-1.24,3.42-3.55,4.89A12.73,12.73,0,0,1,289.35,890.93Zm-36.87-18.61a12.77,12.77,0,0,1,7.47,2.23,10.23,10.23,0,0,1,1.75,1.5,35.22,35.22,0,0,0,3.57,3.17,58.39,58.39,0,0,0,10.13,6.85c8.7,4.37,16,5.19,20.47,2.31,2.05-1.31,3.17-2.8,3.16-4.18,0-2.73-4.42-4.87-5.87-5.57l-.19-.09c-7.1-3.49-17.17-12.53-29.93-26.87l-1.6-1.8,2.11,1.16c25,13.77,40.37,23.9,45.67,30.13a18,18,0,0,0,8.34,5.22c2.91.78,6.88,0,8.49-2.82,2-3.51-1-8.58-2.64-11.31a27,27,0,0,0-5-6c-.91-.91-2-1.93-3.21-3.25a83.75,83.75,0,0,1-6-7c-.83-1.07-1.61-2.07-2.58-3.21a76.61,76.61,0,0,0-19.49-15.92l.34-.75c10.24,3.56,18.18,8.33,23.63,14.19.56.6,1.2,1.33,1.94,2.17,2,2.29,4.77,5.43,9.08,9.68,1.28,1.26,2.21,2.14,3,2.85a39.08,39.08,0,0,1,3.56,3.67,41.34,41.34,0,0,1,4.74,6.67,30.8,30.8,0,0,0,3.42,4.91c2,2.41,6.26,6.48,11.65,6.66,2.56.1,5.82-1,6.88-3.72.71-1.79.45-4-.77-6.61-8.09-17.18-13.41-24.25-14.58-25.71l-.25-.3a150.54,150.54,0,0,0-28.62-25l.46-.69A125.89,125.89,0,0,1,340.38,850l.39.48c13.94,16.88,14.78,18,14.81,18,1.21,1.66,2.34,3.25,3.33,4.65,4.49,6.35,7.2,10.18,10.36,9.81,2.73-.33,5-3.64,5.71-6.59,1.13-4.55-1.57-8.83-10.81-20.23-12.3-15.18-18.48-22.8-25.45-27.9-2.57-1.88-4.47-3.06-6.32-4.2a55.77,55.77,0,0,1-9.17-6.76c-2-1.79-3.48-3.31-4.67-4.52-2.53-2.58-3.92-4-6.65-4.52s-4.15.24-6.3,1.26a26.93,26.93,0,0,1-9.65,2.81,73.42,73.42,0,0,0-11,2.15c-4.57,1.17-8.18,2.09-12.07.87a18.61,18.61,0,0,1-7-4.15,17.34,17.34,0,0,0-8.16-4.4c-4.61-1.08-8.4-.37-11.75.25l-.23,0A42.2,42.2,0,0,0,228.27,815c-1.31,1-5,4.78-11.77,11.73-7,7.25-7.55,7.95-7.57,9,0,2.48,2,4,4.9,6.19,3.27,2.46,7.34,5.53,10.53,11.47a24.81,24.81,0,0,1,1.27,2.71,33.14,33.14,0,0,0,1.93,4c3.44,6.21,5.33,9.63,8.42,11.63,3.61,2.32,7.25,1.74,11.1,1.13A34.56,34.56,0,0,1,252.48,872.32Z"/><path class="cls-13" d="M352.48,636.71l-8.83-8.83q-15.58-64.15-31.18-128.31c1.08-1.16,11.17-11.55,23.73-9.11a21.49,21.49,0,0,1,8.28,3.59,102.69,102.69,0,0,1,16.83,41.52c1.73,10.79,1.2,19.17.55,27.19C360.5,579.84,357.88,604.81,352.48,636.71Z"/><path class="cls-14" d="M352.57,637l-9-9v0l-31.2-128.38.05-.06c1.12-1.19,11.33-11.58,23.86-9.15a21.66,21.66,0,0,1,8.33,3.61l0,0a102.2,102.2,0,0,1,16.86,41.58c1.69,10.5,1.25,18.54.55,27.22-1.87,23.37-5,48.25-9.38,74Zm-8.79-9.19,8.61,8.61c4.33-25.61,7.47-50.39,9.34-73.67.69-8.66,1.13-16.68-.55-27.16a102.23,102.23,0,0,0-16.8-41.45,21.58,21.58,0,0,0-8.2-3.55c-12.21-2.36-22.22,7.61-23.56,9Z"/><path class="cls-13" d="M347.51,637.54q7.41-7.11,15.46-14.35,6.69-6,13.24-11.59c14.48-14.61,35.73-40.82,43.88-78.37a147.1,147.1,0,0,0,3.1-22.9l-32-5.52a135.5,135.5,0,0,1-15.24,24.56c-6.91,8.85-10.48,11.16-14.11,17.65-6.71,12-5.48,23.74-5.21,32.85C357,593.41,355.63,612.75,347.51,637.54Z"/><path class="cls-14" d="M346.61,639l.51-1.57c6.57-20,9.62-39.4,9.09-57.53,0-.89-.06-1.8-.1-2.74-.33-8.64-.75-19.39,5.36-30.32a49.12,49.12,0,0,1,7.16-9.45c2-2.18,4.18-4.66,7-8.26a134.64,134.64,0,0,0,15.19-24.48l.14-.28L423.62,510l0,.37a147.19,147.19,0,0,1-3.11,23,150.8,150.8,0,0,1-19.62,47.92,175.82,175.82,0,0,1-24.36,30.65l0,0c-4.44,3.78-8.89,7.68-13.24,11.59-5.19,4.67-10.39,9.5-15.44,14.34Zm44.8-133.71a135.43,135.43,0,0,1-15.15,24.35c-2.82,3.62-5.05,6.11-7,8.31a48,48,0,0,0-7.05,9.29c-6,10.73-5.58,21.36-5.25,29.89,0,.94.07,1.85.09,2.74.53,17.76-2.37,36.68-8.62,56.26,4.68-4.47,9.48-8.91,14.28-13.23,4.35-3.91,8.8-7.8,13.24-11.58a175.31,175.31,0,0,0,24.24-30.5,150.19,150.19,0,0,0,19.51-47.66,145.45,145.45,0,0,0,3.07-22.47Z"/><path class="cls-13" d="M343.1,489.63c4.83,6.41,5.83,8,6.62,9.38,2.08,3.61,3.29,6.64,6.07,14.9,3.19,9.45,6.07,18,5.52,18.22-1.19.46-14.45-40.57-23.75-38.95a4.67,4.67,0,0,0-2.74,2c-8.78,11.07-18.11,28.71-21,34.22q-11.31-48.3-22.63-96.58l19.26-43.51c.07,5.54.37,23.63,1.71,39.92A51.86,51.86,0,0,0,315,443c1.52,4.27,2.81,6,6.63,12.69,7.95,14,6.46,13.85,11,20.42C335.32,480,335.39,479.4,343.1,489.63Z"/><path class="cls-14" d="M361.25,532.56c-.53,0-1.05-1.13-3.64-7.39-4.39-10.61-13.53-32.7-20-31.58a4.23,4.23,0,0,0-2.49,1.82c-8,10.1-16.56,25.73-20.93,34.15l-.52,1-22.91-97.8,0-.13,20-45.25,0,1.9c.11,8.52.48,25,1.71,39.9a51.42,51.42,0,0,0,2.73,13.69,44.89,44.89,0,0,0,4.28,8.62c.67,1.13,1.42,2.42,2.32,4,3.9,6.86,5.53,10.33,6.72,12.86a42.58,42.58,0,0,0,4.29,7.52c1.24,1.78,1.92,2.61,3.05,4,1.3,1.59,3.26,4,7.43,9.52h0c4.8,6.37,5.82,8,6.65,9.43,2.05,3.56,3.25,6.5,6.11,15,6,17.71,6,18.45,5.27,18.73A.54.54,0,0,1,361.25,532.56Zm-23.14-39.84c7,0,15.26,20,20.27,32.14.83,2,1.63,3.94,2.22,5.25-.87-3.21-3.14-10-5.2-16.06-2.83-8.42-4-11.33-6-14.83-.82-1.42-1.82-3-6.59-9.34-4.16-5.51-6.12-7.91-7.41-9.49-1.14-1.4-1.83-2.24-3.09-4a43.45,43.45,0,0,1-4.36-7.65c-1.18-2.52-2.81-6-6.69-12.81-.9-1.57-1.65-2.86-2.31-4a46.17,46.17,0,0,1-4.35-8.76,52.19,52.19,0,0,1-2.78-13.9c-1.14-13.86-1.54-29.13-1.69-38.06l-18.43,41.66L314,528.19c4.52-8.63,12.75-23.52,20.5-33.3a5.07,5.07,0,0,1,3-2.12A4.32,4.32,0,0,1,338.11,492.72Z"/><path class="cls-13" d="M395.53,495.15c-11.78,18.65-31.69,45.28-30.63,46.08.58.44,7.11-7,7.17-6.9a52.11,52.11,0,0,1-3.58,3.85c-.07-.06,3.1-3.51,7.45-8.81s8.94-10.07,13-15.46c1.71-2.28,2.86-3.83,4.8-4.16s3.12.92,8.17,5c7.33,5.92-5.3-4.66,6.62,5.25l9.93,8.27,30.63-87.2c2.32-4.42,4.19-10.12,2.76-16-1.05-4.33-3.35-6.53-8.83-13.8-2.5-3.32-6.1-8.27-10.21-14.62C424.54,441.8,409.15,473.57,395.53,495.15Z"/><path class="cls-14" d="M365,541.69a.51.51,0,0,1-.31-.13c-.74-.56.13-2.14,11.87-19,5.89-8.47,13.22-19,18.66-27.62h0c17.95-28.43,30.47-61.53,37.2-98.37l.18-1,.57.87c3.26,5,6.69,9.95,10.19,14.6,1.12,1.49,2.11,2.77,3,3.89,3.37,4.36,5.06,6.54,5.91,10.06,1.21,5,.27,10.43-2.78,16.27L418.63,529l-.46-.38-9.94-8.28-3.87-3.21c-.19,0-.43-.19-.82-.49s-1.05-.83-1.92-1.54l-1.3-1c-3.9-3.15-5.07-4.1-6.54-3.85-1.77.3-2.87,1.77-4.54,4-2.46,3.29-5.2,6.43-7.85,9.47-1.71,2-3.47,4-5.13,6-1.41,1.72-2.7,3.25-3.8,4.53.14.24-.07.48-.53,1-.28.33-.67.76-1.08,1.2s-1,1.09-1.38,1.47a3.22,3.22,0,0,1-.87.77C366.18,541.1,365.38,541.69,365,541.69Zm30.57-46.54.35.22C390.43,504,383.1,514.55,377.2,523c-5.34,7.68-10.42,15-11.65,17.39.7-.6,1.8-1.71,2.84-2.79l.15-.17,1.1-1.28c1.29-1.49,3.45-4,6-7.06,1.67-2.05,3.44-4.07,5.14-6,2.64-3,5.37-6.15,7.82-9.41,1.72-2.31,3-4,5.06-4.33,1.84-.31,3.08.69,7.2,4l1.3,1c.33.27.61.5.86.69.2,0,.4.12.6.29l.86.7c.82.67,2.16,1.79,4.3,3.57l9.48,7.89,30.44-86.66,0,0c3-5.67,3.88-10.95,2.72-15.71-.81-3.35-2.37-5.36-5.77-9.75-.87-1.13-1.86-2.41-3-3.9-3.31-4.4-6.56-9-9.66-13.78-6.79,36.54-19.28,69.38-37.12,97.64Z"/><g id="Hair"><path class="cls-15" d="M503.58,215.11a115.28,115.28,0,0,1,2.48,19c.53,13.23,1.07,26.72-4.55,32.28-9.18,9.07-32.81-4.86-71.81-21.52-66.09-28.24-97.57-30.7-98.72-47.19-.68-9.84,9.87-18.5,21.11-27.73A92.46,92.46,0,0,1,396,150.54C447.75,143,496.61,186.36,503.58,215.11Z"/><path class="cls-15" d="M308.22,238.28c-1.84,3.81-4.85,10.29-2.9,17,.76,2.6,1.45,2.43,3.31,7.45,2,5.38,1.95,7.6,4.14,12.42,1.8,4,2.7,6,3.93,6.21,5.07,1,13.06-17.76,16.76-26.49,4.09-9.61,2.85-8.78,6.21-16.14,7.7-16.85,13.69-20,11.81-25.9s-8.64-5.87-12.22-15.08c-1.6-4.11-.87-5.7-2.07-6.21C331.81,189.24,316.55,221,308.22,238.28Z"/><path class="cls-15" d="M500.68,275.54A88.77,88.77,0,0,1,497,286.3c-1.21,2.73-3.15,6.23-7,13.24-1.35,2.43-2.58,4.92-3.89,7.37-.12.23-.43.8-.78,1.59a26.47,26.47,0,0,0-1.16,3c-.17.57-.36,1.24-.7,2.87-.67,3.14-.57,3.45-.85,4.44a11.59,11.59,0,0,1-2.94,4.67c-4.43,5.17-4.35,10.9-5.49,10.87-1.91-.05-5.3-16.25-3.65-35.25,2.68-30.7,18-62.59,27.74-61.26,3.84.53,6.05,6.12,6.92,8.33C507.52,252.27,505.27,260.11,500.68,275.54Z"/></g><g id="Ear"><path class="cls-8" d="M316.08,283.81c2.55,16.95.66,39.22-6.68,41-3.48.84-8-3-9.88-6.62-2.47-4.81.37-8-.41-16.56-.62-6.85-2.56-6.2-3.72-13.66a45.35,45.35,0,0,1,2.06-21.52c2-6.15,3.66-11.34,6.3-11.52C308.5,254.59,314.09,270.61,316.08,283.81Z"/><path class="cls-12" d="M308.41,325c-3.29,0-7.23-3.35-9-6.81-1.41-2.74-1.11-5-.74-7.88a36.73,36.73,0,0,0,.31-8.73,18.4,18.4,0,0,0-1.71-6.71,24.51,24.51,0,0,1-2-6.94,45.52,45.52,0,0,1,2.07-21.58c2-6.13,3.68-11.43,6.42-11.61,2.23-.16,4.84,3.21,7.34,9.46a93.44,93.44,0,0,1,5.14,19.55c2.39,15.93,1,39.28-6.79,41.14A4.31,4.31,0,0,1,308.41,325Zm-4.52-70h-.13c-2.55.17-4.23,5.39-6.17,11.42a45.05,45.05,0,0,0-2.07,21.46,24,24,0,0,0,2,6.87,18.5,18.5,0,0,1,1.74,6.8,37.12,37.12,0,0,1-.31,8.78c-.39,2.94-.66,5.06.71,7.72,2.39,4.66,7,7.2,9.72,6.56,3.3-.79,5.77-6,6.94-14.68a97.86,97.86,0,0,0-.37-26.15C313.88,270.13,308.32,255.05,303.89,255.05Z"/></g><path class="cls-16" d="M512.39,365.27c1.6,8.91-4,17.29-7.28,25.75-3.12,8.12-4.05,17.44-.7,25.46,4,9.69,13.72,16,23.79,19,6.09,1.79,12.91,2.48,18.6-.36,6.55-3.26,10.13-10.36,13.05-17.07.84,7.13,1.62,14.64-1.15,21.27-3.8,9.1-13.88,14.53-23.74,14.82s-19.4-3.82-27.54-9.38-15.19-12.55-22.68-19a198.34,198.34,0,0,0-22.4-16.6c-7.51-4.78-16.32-10.65-16.42-19.55-.05-4,1.8-7.79,3.61-11.38,5.71-11.32,14.57-38.81,28.83-42C490.59,333.46,510.39,354.18,512.39,365.27Z"/><path class="cls-9" d="M534,454.29c-8.51,0-17.46-3.16-26.63-9.42a161.51,161.51,0,0,1-16.28-13.33c-2.09-1.86-4.25-3.79-6.41-5.64a198.14,198.14,0,0,0-22.39-16.59c-6.91-4.41-16.37-10.43-16.48-19.66,0-4.15,1.9-8,3.63-11.45,1.12-2.22,2.33-5,3.73-8.21,5.77-13.21,13.66-31.29,25.19-33.89,4-.9,9,.57,14.54,4.25,9.34,6.19,18.33,17.58,19.65,24.89,1.22,6.79-1.75,13.33-4.62,19.66-.92,2-1.87,4.11-2.66,6.17-3.49,9.09-3.74,18.09-.7,25.36,3.63,8.67,12.26,15.57,23.7,18.92,7.43,2.18,13.65,2.06,18.5-.35,6.57-3.27,10.15-10.49,13-17l.2-.46.06.5c.79,6.8,1.69,14.51-1.16,21.34C555.24,448,545.64,454,535,454.28ZM480.71,336.12a10.06,10.06,0,0,0-2.32.25c-11.4,2.57-19.26,20.58-25,33.73-1.41,3.22-2.62,6-3.74,8.22-1.71,3.4-3.65,7.24-3.6,11.32.1,9.08,9.49,15.07,16.35,19.43a198.73,198.73,0,0,1,22.42,16.62c2.16,1.85,4.32,3.78,6.41,5.65a161.08,161.08,0,0,0,16.26,13.31c9.47,6.46,18.71,9.61,27.46,9.35,10.57-.31,20.06-6.23,23.61-14.73,2.76-6.6,2-14.06,1.21-20.7C557,425,553.36,432,546.86,435.25c-4.91,2.44-11.2,2.57-18.7.37-11.51-3.38-20.22-10.34-23.87-19.08-3.07-7.34-2.82-16.41.7-25.57.79-2.06,1.74-4.16,2.66-6.19,2.86-6.29,5.81-12.79,4.6-19.49-1.31-7.24-10.25-18.56-19.53-24.71C489.48,338.44,485,336.12,480.71,336.12Z"/><g id="face"><path class="cls-8" d="M452.67,390.6c-7,6.56-26.79,24-51.33,31.87-6,1.92-15.33,4.8-27.73,4.14a69.86,69.86,0,0,1-17.8-3.31c-6.81-3.8-36.21-21.16-44.7-55.88a81.5,81.5,0,0,1-1.24-31.87c-.42-9.38-.78-18-1.24-28.56,0,0-.75-17.05,3.84-24,.17-.26,2.48-3.59,2.48-3.59h0c3.56-4.32,7-5.61,9.19-7.33,4.24-3.28,3.74-7.69,6.27-17.51A134.15,134.15,0,0,1,338.68,233,101.63,101.63,0,0,1,353,210.93c19.54-4.34,33.13-1.67,42.22,1.93,11.47,4.54,28,15.39,38.36,11.31a23,23,0,0,1,8.83-1.93,27.19,27.19,0,0,1,10.49,2.48c2.24,1,27.31,9.62,36.4,33.64a49.18,49.18,0,0,1,2.42,8.77c-.92,4.63-2.45,11.67-4.87,20.13-3.66,12.83-5.74,16.25-8.9,27.89-3.72,13.73-1.87,12.81-5.1,23.83-3.05,10.39-5.41,13.62-11.94,29.68C457.17,377.94,454.4,385.62,452.67,390.6Z"/><path class="cls-12" d="M377.22,426.84c-1.17,0-2.38,0-3.62-.09a70,70,0,0,1-17.83-3.32c-10.85-6-36.87-23.57-44.79-56a81,81,0,0,1-1.24-31.92c-.24-5.15-.45-10.1-.67-15.26-.18-4.21-.37-8.55-.58-13.27,0-.7-.69-17.19,3.86-24.13l2.48-3.58,0,0a26.1,26.1,0,0,1,7.05-5.91c.78-.49,1.52-1,2.15-1.43,3-2.33,3.58-5.17,4.63-10.34.41-2,.87-4.33,1.58-7.09a135.87,135.87,0,0,1,8.29-21.55,102.11,102.11,0,0,1,14.37-22.1l0,0h0c15.91-3.53,30.14-2.88,42.3,1.94,2.82,1.11,5.92,2.6,9.2,4.17,10,4.78,21.31,10.2,29.06,7.14l.28-.11a22.89,22.89,0,0,1,8.6-1.83A27.53,27.53,0,0,1,453,224.6l.82.34A75,75,0,0,1,470.31,234c9.13,6.68,15.57,14.86,19.15,24.31a50.43,50.43,0,0,1,2.43,8.79v.06c-1.33,6.7-3,13.48-4.87,20.14-1.79,6.25-3.19,10.23-4.54,14.09-1.41,4-2.75,7.83-4.37,13.79a94.82,94.82,0,0,0-2.75,13.05A62.42,62.42,0,0,1,473,339,112.8,112.8,0,0,1,466.93,355c-1.51,3.44-3.4,7.71-5.86,13.75-2.95,7.27-5.74,14.65-8.27,21.93v0l0,0c-9.38,8.79-28.54,24.62-51.37,31.9A75.54,75.54,0,0,1,377.22,426.84ZM315.06,279.45c-.21.31-2.32,3.33-2.47,3.57-4.51,6.87-3.83,23.8-3.82,24,.21,4.72.39,9.06.57,13.26.23,5.17.44,10.12.67,15.29a81,81,0,0,0,1.24,31.85c7.89,32.3,33.84,49.77,44.63,55.79a69.94,69.94,0,0,0,17.74,3.29c12.63.67,22.05-2.34,27.68-4.13,22.77-7.26,41.87-23,51.25-31.82,2.53-7.28,5.31-14.65,8.27-21.91,2.46-6.05,4.34-10.32,5.86-13.76a113.61,113.61,0,0,0,6.07-15.91,64.86,64.86,0,0,0,2.34-10.74,93.67,93.67,0,0,1,2.76-13.09c1.62-6,2.95-9.78,4.37-13.81,1.35-3.85,2.75-7.84,4.53-14.08,1.9-6.64,3.53-13.4,4.86-20.09a49.4,49.4,0,0,0-2.41-8.72c-3.56-9.41-10-17.54-19.05-24.19a75.16,75.16,0,0,0-16.45-9l-.83-.34a27.11,27.11,0,0,0-10.43-2.47,22.53,22.53,0,0,0-8.5,1.81l-.28.11a14.12,14.12,0,0,1-5.2.91c-7.24,0-16.09-4.24-24.08-8.06-3.28-1.57-6.37-3.05-9.18-4.16-12.1-4.79-26.26-5.44-42.09-1.94a102.22,102.22,0,0,0-14.3,22,133.8,133.8,0,0,0-8.27,21.5c-.71,2.75-1.17,5.05-1.58,7.07-1,5.06-1.64,8.12-4.74,10.5a24.54,24.54,0,0,1-2.16,1.45,25.93,25.93,0,0,0-7,5.87Z"/></g><g id="Eyebrows"><path class="cls-9" d="M392,289a22.07,22.07,0,0,0-3.09-4.74c-10.7-12.57-32.14-8.94-35.56-8.31,0-.74,0-1.48.05-2.22,17-5,31.94-2,36.83,6.58A15.11,15.11,0,0,1,392,289Z"/></g><g id="Eyebrows-2" data-name="Eyebrows"><path class="cls-9" d="M469.58,315.27a22.8,22.8,0,0,0-3.09-4.75c-10.7-12.56-32.14-8.93-35.57-8.3,0-.74,0-1.48.05-2.22,17-5,31.95-2,36.83,6.58A15,15,0,0,1,469.58,315.27Z"/></g><circle cx="376.76" cy="296.64" r="6.46"/><path class="cls-9" d="M376.76,303.25a6.61,6.61,0,1,1,6.6-6.61A6.62,6.62,0,0,1,376.76,303.25Zm0-12.93a6.33,6.33,0,1,0,6.33,6.32A6.33,6.33,0,0,0,376.76,290.32Z"/><circle cx="444.25" cy="318.06" r="6.52" transform="translate(59.13 705.62) rotate(-80.78)"/><path class="cls-9" d="M444.25,324.72a6.66,6.66,0,1,1,6.65-6.66A6.67,6.67,0,0,1,444.25,324.72Zm0-13a6.38,6.38,0,1,0,6.38,6.38A6.38,6.38,0,0,0,444.25,311.68Z"/><path class="cls-12" d="M402.24,361.09a10.64,10.64,0,0,1-2.3-.24c-3.83-.84-6.54-3.75-9.17-6.57a26.57,26.57,0,0,0-6.18-5.41l-1.08-.56a10.12,10.12,0,0,1-2.89-1.86,4.79,4.79,0,0,1-1.06-5.19,3.88,3.88,0,0,1,4.84-2l-.42,1a2.79,2.79,0,0,0-3.41,1.48,3.71,3.71,0,0,0,.84,4,9.16,9.16,0,0,0,2.59,1.64c.37.19.76.38,1.13.59a27.41,27.41,0,0,1,6.45,5.62c2.62,2.82,5.1,5.47,8.6,6.24s6.9-.58,9.57-1.83a8,8,0,0,0,3.47-2.56,7.77,7.77,0,0,0,.84-4.44,85.92,85.92,0,0,0-1.37-11.58c-.44-2.65-.9-5.39-1.16-8.11-.81-8.21.51-14.76,3.9-19.47l.9.65c-3.24,4.48-4.48,10.78-3.71,18.71.27,2.69.72,5.41,1.15,8a84.25,84.25,0,0,1,1.39,11.73,8.69,8.69,0,0,1-1,5.07,8.93,8.93,0,0,1-3.94,3A19.23,19.23,0,0,1,402.24,361.09Z"/><g id="Mouth"><path class="cls-17" d="M416.2,382c-.93,1.53-10.81-5.51-27.3-8.69-18.65-3.6-30.77.62-31-.65-.31-1.72,21.45-12.37,41.36-4.39C409.56,372.37,417.07,380.55,416.2,382Z"/><path class="cls-9" d="M415.69,382.33c-.85,0-2.49-.7-5.07-1.82a101,101,0,0,0-21.75-7.09,83,83,0,0,0-27.25-.67c-2.66.32-3.76.45-3.85-.09,0-.23.17-.54.65-.93,1.7-1.38,7.31-4.13,15.12-5.61,6.44-1.22,16.15-1.86,25.78,2,9.05,3.62,16.15,10.54,17,13.1a1,1,0,0,1,0,.83A.67.67,0,0,1,415.69,382.33Zm-42.25-10.67a81.72,81.72,0,0,1,15.48,1.49,101.38,101.38,0,0,1,21.81,7.11c2.92,1.26,5,2.17,5.35,1.65l.12.07-.12-.07a.76.76,0,0,0,0-.61c-.84-2.51-7.87-9.33-16.84-12.92-9.57-3.84-19.22-3.2-25.63-2-7.76,1.47-13.32,4.19-15,5.56-.57.46-.55.65-.55.67,0,.28,1.75.07,3.55-.15A94.25,94.25,0,0,1,373.44,371.66Z"/><path class="cls-17" d="M358.89,374c.72-1.64,11.2,3.35,29.46,6.29,18,2.9,28.68,1.42,28.83,3.05s-11.29,5.09-22.86,4.95A54.72,54.72,0,0,1,373.61,384C366.21,380.83,358.23,375.45,358.89,374Z"/><path class="cls-9" d="M395,388.4h-.72a55,55,0,0,1-20.75-4.3c-6.67-2.83-14-7.58-14.77-9.58a.73.73,0,0,1,0-.61h0c.39-.89,2.81-.2,7.63,1.16a185.63,185.63,0,0,0,22,5.05,172.35,172.35,0,0,0,22.18,2c4.59.18,6.69.26,6.77,1.13a.8.8,0,0,1-.26.6C415.38,385.71,405.27,388.4,395,388.4ZM359,374a.57.57,0,0,0,0,.4c.77,1.94,8,6.62,14.63,9.43a54.69,54.69,0,0,0,20.65,4.27A65.86,65.86,0,0,0,409,386.61c4-.88,7.09-2,7.91-2.91a.55.55,0,0,0,.18-.38c-.06-.63-2.62-.73-6.5-.88a173.13,173.13,0,0,1-22.22-2,185.67,185.67,0,0,1-22-5.07c-4.22-1.19-7-2-7.3-1.31Z"/><path d="M418.09,383.7c-.48,1.88-20.75-1.8-29.74-3.44-8.2-1.49-30.68-5.58-30.44-7.62.19-1.67,15.6-2.18,31,.65S418.5,382.09,418.09,383.7Z"/><path class="cls-9" d="M415.72,384.36c-3.91,0-12.57-1.27-27.4-4-21.3-3.88-30.73-6.27-30.55-7.78a.61.61,0,0,1,.27-.39c2-1.51,16.67-1.69,30.88.92s27.83,8,29.19,10.12a.58.58,0,0,1,.11.47h0C418.12,384.15,417.32,384.36,415.72,384.36Zm-48.27-12.95c-4.81,0-8.38.4-9.25,1a.36.36,0,0,0-.16.21c0,.35,1,1.45,11.95,3.86,6.62,1.47,14.27,2.86,18.38,3.6,4.42.81,11.81,2.15,18.06,3,9.79,1.4,11.42.92,11.53.51h0a.39.39,0,0,0-.08-.25c-.64-1-4.38-2.85-9.54-4.73a122.38,122.38,0,0,0-39.52-7.27Z"/></g><path class="cls-12" d="M298.71,284.62c-1.27-4.14.14-8.63,1.28-12.23a6.87,6.87,0,0,1,1.27-2.64,3.55,3.55,0,0,1,6.19,2.1l-.27,0a3.28,3.28,0,0,0-5.72-1.94,6.85,6.85,0,0,0-1.21,2.54c-1.12,3.57-2.52,8-1.27,12.07Z"/><path class="cls-12" d="M303.32,296.38a1,1,0,0,1-.42-.09,1.75,1.75,0,0,1-.76-1.14,12.78,12.78,0,0,1,2.12-11.39c.95-1.21,2.51-2.15,3.71-1.36l-.15.23c-1.05-.69-2.47.19-3.34,1.3a12.5,12.5,0,0,0-2.08,11.14,1.51,1.51,0,0,0,.62,1,.7.7,0,0,0,.67,0,1.51,1.51,0,0,0,.74-1,4.39,4.39,0,0,0,0-1.3c0-.31-.07-.63-.07-.95a3.5,3.5,0,0,1,1.41-2.71l.16.23a3.21,3.21,0,0,0-1.29,2.48,5.7,5.7,0,0,0,.07.92,4.89,4.89,0,0,1,0,1.38,1.78,1.78,0,0,1-.88,1.21A1.18,1.18,0,0,1,303.32,296.38Z"/><path class="cls-8" d="M490.64,583.82l-49.12,4c-3-12.34-3.77-20.58-3.86-25.94a62.64,62.64,0,0,0-2.21-16.56c-.74-2.65-1-2.91-1.56-5-1.64-6.15-.94-10.45-.28-18.22,1.36-16,.13-18.28,2.58-26.86a65.73,65.73,0,0,1,2.57-7.35l46.73-11.78c23.86-1.41,29.36,1.47,30.17,4.23,1.06,3.64-6.18,6.47-13.62,19.32-1.47,2.55-.24.8-7.72,17.29-2.09,4.6-4.6,10.05-7.4,17.61-2.29,6.14-2.83,8.45-3.09,10.91a36.07,36.07,0,0,0,1.29,13.24C486.56,564.78,488.38,572.79,490.64,583.82Z"/><g id="phone_main" data-name="phone main"><path class="cls-18" d="M455,499.52l-4.67-2c-14.24-6.79-17.9-13.25-18.42-18.09-.34-3.28,1-3.49,3.87-14.07,1.69-6.25,2.62-10.13,5.24-21,.79-3.27,1.89-7.89,5.8-11a14,14,0,0,1,5.51-2.76c2.42-.58,4-.22,7.18,0a65.34,65.34,0,0,0,8.83,0c1.28-4.69,7.85-29,9.21-42.08a11.91,11.91,0,0,0-.66-6.21c-2.86-6.85-11.24-5.55-14.62-10.49-3.52-5.13,3.19-9.93,10.57-32.82,0,0,2.76-8.55,12.52-27.79A8.88,8.88,0,0,1,488,308a10.59,10.59,0,0,1,7.06-1.86l17.18,2.34a19.4,19.4,0,0,1,1.39,2.62c2.08,4.78,1.41,8.78,1.11,14.91-.13,2.65-.23,6.5,0,11.26a459.41,459.41,0,0,1-6.05,46.68c-4.08,22.36-9.91,39.8-21.57,74.67-2.34,7-5.74,16.83-14.31,26.61A67.34,67.34,0,0,1,455,499.52Z"/></g><path d="M491,379l-9.95.24A129.15,129.15,0,0,0,491,362.7a104.94,104.94,0,0,0,4.46-9.92,92.52,92.52,0,0,0,5.47-22.09h0a83.06,83.06,0,0,1-2.21,29A82.14,82.14,0,0,1,491,379Z"/><g id="Hand"><path class="cls-6" d="M612.42,792.62A111.48,111.48,0,0,1,594.79,814c-30.28,28.53-67.92,31.43-78.95,32.12a135.16,135.16,0,0,1-27.59-1.1,612.08,612.08,0,0,1-78.92-242.83,192.21,192.21,0,0,0,83.33-48,289.61,289.61,0,0,1,28.15,41.95c19.63,35.65,25.24,63.89,31.46,85C560.58,709.36,576.92,748.31,612.42,792.62Z"/><path class="cls-19" d="M448.72,512.27l-.74-.36a41.5,41.5,0,0,1,3.91-6.45c.84-1.15,1.13-1.85,1-2.43s-.65-1.08-1.64-1.65l.41-.72c1.22.7,1.87,1.4,2,2.2.22,1-.43,2.1-1.16,3.09A41.07,41.07,0,0,0,448.72,512.27Z"/><path class="cls-8" d="M512.87,384.72c.92-1.35,2.1-2.78,3.72-2.94a1,1,0,0,1,.72.15,1.21,1.21,0,0,1,.3.89l.78,18.94c.15,3.67.3,7.41-.73,10.93a12.08,12.08,0,0,1-5.42,7.32c-4.05,2.22-6.18-1.1-7.46-4.67-.88-2.48-.44-4.73-.09-7.26a63.56,63.56,0,0,1,2.38-11.49A48.4,48.4,0,0,1,512.87,384.72Z"/><path class="cls-19" d="M509.78,421.14a3.72,3.72,0,0,1-1.36-.25c-1.63-.62-2.95-2.39-4-5.41-.84-2.36-.53-4.53-.2-6.81l.09-.65a64.45,64.45,0,0,1,2.39-11.56,48.74,48.74,0,0,1,5.86-12c.92-1.36,2.2-2.94,4-3.12a1.36,1.36,0,0,1,1,.24,1.56,1.56,0,0,1,.45,1.19l.79,18.95c.15,3.65.3,7.43-.75,11.05a12.46,12.46,0,0,1-5.62,7.57A5.6,5.6,0,0,1,509.78,421.14Zm7-38.95h-.14c-1.46.14-2.55,1.47-3.41,2.76h0a47.76,47.76,0,0,0-5.76,11.76,63.92,63.92,0,0,0-2.36,11.42l-.09.64c-.33,2.28-.61,4.25.16,6.42,1,2.78,2.15,4.39,3.55,4.92a3.88,3.88,0,0,0,3.32-.48,11.6,11.6,0,0,0,5.22-7.07c1-3.49.87-7.2.72-10.79l-.79-18.94c0-.17,0-.49-.14-.59A.47.47,0,0,0,516.77,382.19Z"/><path class="cls-8" d="M514,420.17c-.27-2-1.65-4-4.39-8l-5.78-8.36c-4.32-1.24-8.71-2.52-12.45-5s-6.77-6.46-7-10.95a2.38,2.38,0,0,1,2.38-2.84c2.87-.53,5.81.07,8.65.71,11.9,2.67,11.83,2.16,16,5.16,2.63,1.87,4.19,3.81,7,7.32a84.12,84.12,0,0,1,6.07,9c6.93,10.83,8.56,10,9.75,13.79.89,2.88.14,3.89-5.91,21.18-5.66,16.18-8.33,24.28-8.45,25.62-.17,1.82-.28,3.83-1.53,5.16a4.88,4.88,0,0,1-5.79.59,9.48,9.48,0,0,1-3.85-4.79,18.57,18.57,0,0,1-1.41-5.91c-.28-4.08.78-8.12,1.07-12.19.26-3.58-.09-7.19.23-10.77a29.28,29.28,0,0,1,3.5-11.35C515,423.22,514.21,421.76,514,420.17Z"/><path class="cls-19" d="M515.17,474.65a5.8,5.8,0,0,1-2.81-.73,9.75,9.75,0,0,1-4-5,18.85,18.85,0,0,1-1.44-6,37.64,37.64,0,0,1,.55-7.81c.2-1.46.41-3,.52-4.44.12-1.67.1-3.39.09-5.05,0-1.87,0-3.81.14-5.72a29.58,29.58,0,0,1,3.55-11.52c2.49-4.56,2.2-6.14,1.94-7.53,0-.2-.08-.4-.11-.6-.25-1.84-1.51-3.72-4.32-7.8l-5.69-8.24c-4.26-1.23-8.65-2.51-12.43-5-4.28-2.86-7-7.08-7.2-11.27a3.39,3.39,0,0,1,.35-1.93,3.29,3.29,0,0,1,2.37-1.33c2.86-.54,5.68,0,8.81.7,2.28.52,4.14.92,5.64,1.24,6.41,1.37,7.08,1.52,10.55,4,2.68,1.91,4.25,3.86,7.09,7.4a58.85,58.85,0,0,1,4.53,6.56c.48.77,1,1.57,1.57,2.49a70,70,0,0,0,7.18,9.7,10,10,0,0,1,2.61,4.2c.79,2.51.41,3.58-3.23,13.83-.75,2.11-1.63,4.61-2.68,7.6-5.55,15.9-8.31,24.25-8.43,25.53l0,.29c-.16,1.76-.34,3.75-1.62,5.12A4.73,4.73,0,0,1,515.17,474.65Zm-.78-54.54c0,.19.07.37.1.56.27,1.45.61,3.26-2,8.08A28.69,28.69,0,0,0,509,439.94a56,56,0,0,0-.13,5.64c0,1.68,0,3.41-.09,5.12-.11,1.51-.33,3-.53,4.49a36.26,36.26,0,0,0-.54,7.64,18,18,0,0,0,1.37,5.78,9,9,0,0,0,3.67,4.59c1.54.85,3.92,1,5.29-.51,1.08-1.16,1.24-2.92,1.39-4.62l0-.3c.12-1.38,2.74-9.32,8.47-25.72,1-3,1.93-5.5,2.68-7.61,3.55-10,3.92-11.06,3.22-13.3a9.24,9.24,0,0,0-2.44-3.91,70.16,70.16,0,0,1-7.26-9.79c-.59-.93-1.09-1.73-1.57-2.51a57.88,57.88,0,0,0-4.48-6.47c-2.79-3.48-4.33-5.4-6.92-7.24-3.33-2.38-3.86-2.49-10.25-3.86l-5.64-1.24c-3-.68-5.77-1.21-8.48-.7a2.55,2.55,0,0,0-1.81.95,2.59,2.59,0,0,0-.23,1.46c.21,3.93,2.77,7.9,6.83,10.62,3.72,2.49,8.1,3.75,12.34,5l.14,0,.12.18,5.74,8.31C512.62,415.85,514.1,418,514.39,420.11Z"/><path class="cls-8" d="M480.13,420.3A28.81,28.81,0,0,1,468,427c-2.78.76-5.83,1.07-8.49-.06a4.33,4.33,0,0,1-2.7-2.76,4.14,4.14,0,0,1,1.61-3.86,25.85,25.85,0,0,1,3.75-2.28c4.93-2.95,8.13-8.61,13.6-10.39,3-1,6.3-.62,9.44-.12a125.55,125.55,0,0,1,12.3,2.59,16.71,16.71,0,0,1,5.28,2.09c1.34.91,2.41,2.17,3.75,3.08,2.09,1.43,4.86,2.05,6.3,4.13a8.58,8.58,0,0,1,1.21,3.31c2,10.11-.13,20.58.47,30.87a51,51,0,0,1,.23,7.2,4.36,4.36,0,0,1-1.56,3.44,4.22,4.22,0,0,1-2,.54,7.26,7.26,0,0,1-4.41-.84c-1.78-1.13-2.59-3.32-2.85-5.41s-.12-4.22-.54-6.28c-.89-4.38-4.33-8.44-3.33-12.81a9.61,9.61,0,0,0,.53-2.63c-.12-2-2.05-3-3.25-4.36-1.45-1.61-1.49-2.83-3.52-3.83A74.47,74.47,0,0,1,480.13,420.3Z"/><path class="cls-19" d="M510.32,465.27a6.78,6.78,0,0,1-3.75-.95c-2.07-1.32-2.79-3.82-3-5.69-.12-.9-.16-1.82-.19-2.7a23.58,23.58,0,0,0-.34-3.56,24.53,24.53,0,0,0-1.66-4.69c-1.15-2.66-2.33-5.41-1.67-8.29.06-.27.13-.53.21-.79a5.11,5.11,0,0,0,.3-1.72c-.07-1.29-1-2.15-2-3.06-.37-.34-.76-.69-1.1-1.06a13,13,0,0,1-1.2-1.61,4.89,4.89,0,0,0-2.19-2.12,75.32,75.32,0,0,1-13.51-8.19,29.24,29.24,0,0,1-12,6.6c-3.52,1-6.39.93-8.76-.08a4.69,4.69,0,0,1-2.95-3.05,4.55,4.55,0,0,1,1.75-4.26,14.18,14.18,0,0,1,2.61-1.66c.4-.22.81-.44,1.19-.67a31.29,31.29,0,0,0,5.52-4.6c2.41-2.34,4.91-4.76,8.17-5.83s6.63-.61,9.64-.13c4.13.66,8.29,1.53,12.34,2.6a17,17,0,0,1,5.4,2.15,16.58,16.58,0,0,1,1.93,1.58,18.58,18.58,0,0,0,1.82,1.5,19.3,19.3,0,0,0,2.32,1.28,10,10,0,0,1,4.09,3,8.83,8.83,0,0,1,1.27,3.46c1.23,6.14.92,12.49.63,18.63a117.25,117.25,0,0,0-.15,12.3l.12,1.66a35.89,35.89,0,0,1,.11,5.59c-.16,1.87-.73,3.1-1.74,3.76a4.65,4.65,0,0,1-2.21.6C510.92,465.26,510.62,465.27,510.32,465.27Zm-30.21-45.52.28.22A73.6,73.6,0,0,0,494,428.29a5.72,5.72,0,0,1,2.52,2.41,11.42,11.42,0,0,0,1.12,1.51,14,14,0,0,0,1,1c1.05.94,2.23,2,2.32,3.63a5.84,5.84,0,0,1-.34,2c-.07.26-.14.5-.2.75-.6,2.61.48,5.12,1.63,7.78a25.41,25.41,0,0,1,1.71,4.85,23,23,0,0,1,.35,3.68c0,.87.08,1.77.19,2.63.18,1.39.76,3.9,2.66,5.11a6.71,6.71,0,0,0,4.16.78,4,4,0,0,0,1.82-.48c.78-.51,1.23-1.53,1.37-3.13a35.41,35.41,0,0,0-.12-5.45c0-.56-.08-1.12-.11-1.68a113.64,113.64,0,0,1,.15-12.39c.29-6.09.58-12.39-.62-18.43a8,8,0,0,0-1.14-3.15,9.17,9.17,0,0,0-3.77-2.69,20.31,20.31,0,0,1-2.42-1.33,19.71,19.71,0,0,1-1.91-1.57,17.67,17.67,0,0,0-1.84-1.52,16.17,16.17,0,0,0-5.15-2c-4-1.06-8.15-1.93-12.26-2.58-2.91-.46-6.27-.87-9.25.1s-5.4,3.25-7.85,5.64a32,32,0,0,1-5.67,4.71c-.4.24-.82.47-1.23.69a13.36,13.36,0,0,0-2.46,1.56,3.72,3.72,0,0,0-1.48,3.45,4.06,4.06,0,0,0,2.46,2.47c2.2.93,4.89.95,8.23,0A28.28,28.28,0,0,0,479.85,420Z"/><path class="cls-8" d="M489.87,445.93a14.88,14.88,0,0,1-9.69-3.43,12.17,12.17,0,0,0-2.81-2.11c-1.59-.69-3.4-.39-5.13-.39-3.27,0-6.42-1.19-9.43-2.45-3.46-1.45-7.25-3.46-8.19-7.09-.29-1.12-.11-2.57.95-3a3,3,0,0,1,1.22-.17l16.76,0a69.33,69.33,0,0,1,11.07.59A68.53,68.53,0,0,1,498,432a17.38,17.38,0,0,1,5.54,2.95,12.26,12.26,0,0,1,3.56,7.75,58.89,58.89,0,0,1,0,8.71c-.08,3.38.1,6.8-.57,10.11-.3,1.52-.88,3.13-2.22,3.9a6.08,6.08,0,0,1-3.49.48c-4.56-.31-10.12-1.58-11.93-6.38a21,21,0,0,1-1.22-6.21C487.66,452.25,488.27,446,489.87,445.93Z"/><path class="cls-19" d="M501.94,466.34c-.37,0-.75,0-1.12,0-6.66-.45-10.8-2.68-12.29-6.64a21.44,21.44,0,0,1-1.24-6.35c0-.7.3-5.18,1.43-7a15.31,15.31,0,0,1-8.81-3.5l-.61-.53a6.16,6.16,0,0,0-5.8-1.9c-.41,0-.85,0-1.27,0-3.39,0-6.6-1.23-9.58-2.48-3.62-1.51-7.45-3.57-8.43-7.37-.34-1.3-.11-2.95,1.19-3.51a3.38,3.38,0,0,1,1.38-.2l16.76,0a51.39,51.39,0,0,1,24.64,4.76,17.85,17.85,0,0,1,5.67,3,12.69,12.69,0,0,1,3.69,8,41.08,41.08,0,0,1,.08,6.65c0,.7-.06,1.41-.08,2.12s0,1.65,0,2.46a40.94,40.94,0,0,1-.55,7.72c-.42,2.12-1.22,3.48-2.42,4.18A5.13,5.13,0,0,1,501.94,466.34Zm-12.08-20.83,0,.83a.44.44,0,0,0-.27.16c-1,1.08-1.53,5.77-1.5,6.77a20.72,20.72,0,0,0,1.2,6.09c1.36,3.63,5.26,5.68,11.57,6.11a5.86,5.86,0,0,0,3.25-.43c1-.57,1.65-1.75,2-3.62a40.74,40.74,0,0,0,.53-7.56c0-.82,0-1.66,0-2.48s0-1.43.08-2.14a40.45,40.45,0,0,0-.07-6.51,11.92,11.92,0,0,0-3.43-7.49,17.07,17.07,0,0,0-5.41-2.88,68.26,68.26,0,0,0-13.34-4.12,67.56,67.56,0,0,0-11-.58l-16.76,0a2.73,2.73,0,0,0-1.05.13c-.8.35-1,1.57-.72,2.54.89,3.46,4.52,5.38,8,6.82,2.91,1.21,6,2.4,9.27,2.41.4,0,.82,0,1.23,0a9.24,9.24,0,0,1,4.07.46,9.08,9.08,0,0,1,2.31,1.65c.2.17.39.35.6.52a14.41,14.41,0,0,0,9.41,3.33Z"/></g><path class="cls-8" d="M517.05,466.16c1.07,6.06,1.64,9.13,1.29,10.55-2,8.16-12.53,14.62-22.55,14.58-9.49,0-19.33-5.89-19.3-10.71,0-2.52,2.73-6.31,5.69-10.45a16.94,16.94,0,0,0,1.49-2.3c1.52-2.91.92-4.18,2.48-6.42a6.1,6.1,0,0,1,2.65-2.32,5.72,5.72,0,0,1,2.15-.38c2.2-.08,3.5.93,6.89.22,8.69-1.81,11.05-10.06,14.51-9C513.11,450.12,514.36,450.92,517.05,466.16Z"/></g></svg>