<?xml version="1.0" encoding="UTF-8"?>
<svg xmlns="http://www.w3.org/2000/svg" onmouseup="{ if(window.parent.document.onmouseup) window.parent.document.onmouseup(arguments[0]);}" viewBox="0 0 960 960" data-name="Layer 1" id="Layer_1"><defs><style>.cls-1{fill:#f5e0cd;}.cls-2{fill:#4a0f00;stroke:#4a0f00;}.cls-10,.cls-12,.cls-15,.cls-18,.cls-2,.cls-22,.cls-25,.cls-26,.cls-27,.cls-3,.cls-30,.cls-4,.cls-5,.cls-6,.cls-7,.cls-9{stroke-miterlimit:10;}.cls-2,.cls-5{stroke-width:0.57px;}.cls-10,.cls-18,.cls-3,.cls-5{fill:#cf9e76;}.cls-12,.cls-3{stroke:#926d5a;}.cls-3,.cls-4{stroke-width:0.12px;}.cls-26,.cls-30,.cls-4{stroke:#000;}.cls-10,.cls-15,.cls-18,.cls-5{stroke:#b08874;}.cls-6,.cls-7,.cls-8{fill:#bdccd4;}.cls-6,.cls-7,.cls-9{stroke:#698693;}.cls-6{stroke-width:0.46px;}.cls-18,.cls-7,.cls-9{stroke-width:0.58px;}.cls-12,.cls-15,.cls-9{fill:none;}.cls-10,.cls-15{stroke-width:0.35px;}.cls-11{fill:#b26e6b;}.cls-12{stroke-width:0.69px;}.cls-13,.cls-25{fill:#926d5a;}.cls-14{fill:#42210b;}.cls-16{fill:#ccc;}.cls-17{fill:gray;}.cls-19{fill:#ffe3fd;}.cls-20{fill:#b5917c;}.cls-21{fill:#ff7bac;}.cls-22,.cls-24{fill:#fff;}.cls-22{stroke:#999;}.cls-23{fill:#999;}.cls-25{stroke:#b5917c;}.cls-27{fill:#cb8c84;stroke:#cb8c84;}.cls-28{fill:#4d4d4d;}.cls-29,.cls-30{fill:#f2f2f2;}.cls-30{stroke-width:0.5px;}.cls-31{font-size:31px;font-family:ComicSansMS, Comic Sans MS;}</style></defs><title>Scenario 2</title><path class="cls-1" d="M925.62,62l-881-1.35q-1.12,440.4-2.24,880.81Z"/><g id="Table"><path id="Table-2" data-name="Table" class="cls-2" d="M552,924.33H347L366.58,901,553,876.8Z"/></g><g id="Neck"><path class="cls-3" d="M157.59,502c-2.89,7.31,5.22,17.62,9.6,23.06,24.36,30.29,34.14,39.12,45.39,56.52,4.45,6.88,10.24,18.21,11.09,19.81,5.38,10.07,7.21,14.21,13.09,25.51,7.55,14.52,11.33,21.79,12.5,23,17.44,18.16,56,5.25,56.1,5.79,0,.34-15.69,2.22-15.71,2s39.64,4.43,49-13.63c7.95-15.27-6.87-44.61-8.17-61.51a119.7,119.7,0,0,0-1.76-13.28c-.36-1.87-.8-3.88-1.35-6-3.08-12.1-7.26-19.79-15-34,0,0-7.92-14.57-17.79-22.83a11.75,11.75,0,0,0-5.29-2.93c-2.32-.5-3.41.24-5.13-.48-.7-.29-2.45-1.23-4-5.11-3.37-8.4-1.16-18.95-.49-21.81,1.11-4.72,2.65-8.54.81-10.74a4.29,4.29,0,0,0-2.63-1.36c-44.3-7.65-58.77-3.42-58.77-3.42-20.85,6.08-28,16.2-41,17.8-1.78.22-6.38.62-9.63,4.18-2.52,2.74-2.1,5-5,10.56S158.68,499.26,157.59,502Z"/></g><g id="Hair"><path id="Hair-2" data-name="Hair" class="cls-4" d="M248.06,274.81c-50.18,43-51.06,41.46-54.95,49.38-5.45,11.08-13.08,33.23-21,35.14-4.6,1.1-7.34-.82-7.34-.82a9,9,0,0,1-3.07-4.6c-5.05-13.6-4.94-14.13-5.92-15.71-3.49-5.68-11.31-9.49-15.38-7.16-2,1.13-2,3.09-4.49,15-2.77,13.18-3.35,13.61-3.21,17.37.24,6.17.45,11.57,3.85,15.68,1.17,1.41,3.29,3.36,3.53,6.47a9.37,9.37,0,0,1-.79,4.11c-2.5,7.74,7,19.37,8.78,21.64,2.6,3.31,6,6,7.91,9.78a31.35,31.35,0,0,1,2.45,8.93q3.15,18.71,6.31,37.42c1,6.2,2.1,12.55,1,18.74-2.34,13.65-14.3,23.14-26.48,28.08-29.52,12-65,5.79-91.21,24.55-3.94,2.81-9.23,6.17-12.9,3A231.34,231.34,0,0,0,60.6,495.28c9.32-23.07,13-42.89,16.05-60.23,3.93-22.07,2.47-24.51,6.77-50,.93-5.52,2-11.65,10.51-48.59,12.77-55.87,16.19-68,23.08-83.83,7.95-18.29,14.3-27.11,16.8-30.45,7.13-9.53,17.69-23.65,35.51-31.58,24.76-11,49.7-3.88,66.29.86,8.81,2.52,19,6.69,19.71,7,8.5,3.47,15.29,6.25,23.48,11.59s13.62,10.52,19,15.7c9.3,8.95,13.95,13.43,17.63,21.13.61,1.28,8.75,18.68,3.11,24.21-4.87,4.79-17.39-1.87-19.76-3.11-9.57-5.08-10.43-10.31-16-12.44C274.12,252.2,264.62,260.6,248.06,274.81Z"/><path class="cls-4" d="M311.91,456.5c2.42,1.94,1.35,4.6,2.74,13.83.71,4.64,3.1,20.48,12.17,32.43a46.19,46.19,0,0,0,16.47,13.44c-3.09-.85-6-2.2-9.12-3.13-5.16-1.59-10.56-2-15.81-3.09-9.33-2-8.71-3.58-17.25-5.5-11.67-2.63-14.62,0-18.19-2.8s-6.76-10.29-2-32.23c-1,.42-1.73.75-1.8.63C278.83,469.41,303.8,450,311.91,456.5Z"/></g><g id="Left_Hand" data-name="Left Hand"><path class="cls-5" d="M416.1,899.54c-2-6.58,35.1-25,54.82-42.43a100,100,0,0,1,10.73-8.35,112.85,112.85,0,0,1,16.51-9c3.32-1.6,3.45-1.92,37-22.83,6.73-4.19,14.07-8.33,16.81-6.47,1.51,1,1.46,3.05,1.76,10.56.24,5.79,2,48.9-1.94,62-.38-1.38-2.32-.78-3.44,0C536,891.79,491.7,892,491.7,892,447.28,891,417.91,905.38,416.1,899.54Z"/></g><g id="Shirt"><path class="cls-6" d="M439.74,594.68c6.78,1.77,5.8,35.37,14.31,51.34a49.83,49.83,0,0,1,4.4,10.82,52.81,52.81,0,0,1,1.87,13.53c.43,15.08,3.4,15.47,4,30.67.66,16.12-2.5,20.46,1,32.37.53,1.84,1.54,4.41,3.53,9.54,5.19,13.36,7.13,15.68,9.61,23.17,3.21,9.7,1,9,4.09,18.83,3.43,11,6.54,13.12,8.54,18.11A26.24,26.24,0,0,1,492.6,809c2.66,15,9.41,27,5.48,30.67-1.31,1.22-2.4.18-5.13,1.87a14.42,14.42,0,0,0-5.29,6.65c-5.62,12.35-35,32-49,43.7l-.14.12a45.66,45.66,0,0,1-9.64,6c-5.46,2.54-8.71,4-11.25,2.62-6-3.35-4.68-12.6-5.45-19.78-.35-3.27-2.19-6.17-4.72-12.23-3.16-7.58-4.8-11.43-7.58-15.23a41.58,41.58,0,0,0-7.86-8.05c-11.62-9.62-19.73-47.59-12.4-92.79A233,233,0,0,1,387,721.57C400.3,676.28,428.57,591.75,439.74,594.68Z"/><path class="cls-7" d="M154.91,506c-3.23-.65-4.06,2.05-21.34,10.75-4.29,2.17-8.78,4.38-13.52,4.28a35.8,35.8,0,0,1-8.1-1.62c-12-3.19-31.34-1.17-44.53,3.34-11.1,3.8-21.69,7.45-26.67,17.77-2.07,4.3-2.44,8.21-3,15.34-1.07,12.64.32,21.62,1.12,28.62,3,25.88-.14,44-.16,76.54v2.37c0,3.24,0,9.18,0,16.59,0,21,.06,31.59.46,33.81,2.78,15.67,11.19,32.87,15.73,38.37a27.71,27.71,0,0,1,5.29,9.56,34.69,34.69,0,0,1,.94,4.21q1.24,7,2.5,13.95a137.88,137.88,0,0,1,1.62,14.16c1.06,16.53-2.95,17.28-1.38,30.33.66,5.38,1.81,9.13,1.6,16.58a71.86,71.86,0,0,1-.91,9.42c-2.82,19.2-1.65,19.94-3.11,25.63-4.58,17.92-20.51,27.09-22.28,39.31-.2,1.41-.93,5.72,1.25,7.31a5.57,5.57,0,0,0,4,.73c24.59-4.28,50,3.8,74.74.7,3.4-.43-1.17.2,86.54.34,65.62.1,83.34-.24,103.38,0,8.81.1,17.66-.77,26.44,0,6.91.59,11.14,1.45,16.83-.34,6.83-2.15,11.52-6.75,14.9-10.74,13.24-15.55,15.39-32,27.89-62.53,4.76-11.64,4.92-10.38,12.5-28.45,8.83-21.06,13.26-31.59,14.43-38.34,1.76-10.11,6.1-35-6.25-52.82-5.13-7.4-12.7-12.93-11.54-21,.48-3.39,2.11-4.26,5.22-10.92,2.79-5.95,3.58-10.68,5.67-17.18a87.18,87.18,0,0,0,4.19-26c-.64,0-.92-.53-1.56-.53,3.26-3.39,24.06-25.83,22.07-59.87-1.65-28.15-17.84-46.21-24.52-52.65-10.27-9.92-20.45-13.92-33.17-18.92-19.73-7.75-24.19-4.51-52.89-12.26-22.84-6.17-34.17-12-36.06-8.69s10,10,21,29.47c9.86,17.5,13.93,35,15.71,43.28.73,3.48,1.5,8.74,3,19.26,3.66,25.09,5.47,37.72,4,41.4C329.66,655,297.4,663.26,274.43,654c-10-4-9.95-8.2-49-57.76-18-22.85-27-34.28-32.37-40.21-15.37-17.06-19.88-19.36-25.81-31C162,514.92,160.58,507.14,154.91,506Z"/><path class="cls-8" d="M437.61,599.93c-.21,2.12-.37,3.55-.66,5.46s-.6,3.9-1,5.82c-.75,3.92-1.7,7.79-2.8,11.62a121.19,121.19,0,0,1-8.56,21.56A126.17,126.17,0,0,1,418,655.72h4.42c-.16-.36-.3-.72-.46-1.07a2.49,2.49,0,0,0-3.51-1,2.9,2.9,0,0,0-.91,3.74c.16.35.3.71.46,1.07a2.5,2.5,0,0,0,2.21,1.35,2.62,2.62,0,0,0,2.21-1.35,128.51,128.51,0,0,0,18.26-44.64A135.15,135.15,0,0,0,442.74,600a2.64,2.64,0,0,0-2.56-2.72,2.7,2.7,0,0,0-2.57,2.7Z"/><path class="cls-9" d="M170.83,614.84Q177.94,626,185,637.24c7.86,12.37,15.73,24.8,25.1,35.89,3.3,3.92,6.8,7.65,10.44,11.21,3.3,3.2,7,6.92,6.94,11.67"/><path class="cls-9" d="M186.61,633.14a97,97,0,0,1,3.19-18.42"/><path class="cls-9" d="M246.52,873c-2.39-2.49-5.8-3.39-9-4.23-16-4.1-32.18-8.87-46.41-17.75-25.79-16.09-42.87-43.94-65.53-64.7-6-5.47-12.38-10.48-17.63-16.71-4.12-4.89-7.49-10.46-11.72-15.22C90.37,747.86,83.05,743,77,736.72c-6.79-7.06-11.84-15.76-16.82-24.35a89.52,89.52,0,0,1-4.49-8.44,46.18,46.18,0,0,1-3.88-15.6"/></g><g id="Face"><path class="cls-10" d="M200.54,312.21c17.2-22.44,29.49-22,50.39-44a48.56,48.56,0,0,1,9.52-7.73,45.71,45.71,0,0,1,23.13-7.21c4.34-.12,16.54-.43,26.81,8.38A38.2,38.2,0,0,1,321,276.69c1.94,5.11,3.67,13.15,6.25,22.49a18.18,18.18,0,0,0,2.08,5.11c1.67,2.68,2.86,2.81,3.69,4.77,1,2.4.35,4.87-.4,7.55-1.17,4.14-2.47,4.72-4.25,8.81A27.25,27.25,0,0,0,325.81,336a33,33,0,0,0,2.24,11.76c.24.68.77,2.06,1.6,4.43.73,2,1.21,3.44,1.66,4.92a48.14,48.14,0,0,1,1.71,7.18c.27,2.08.24,3.9-.48,9.2-1.33,9.9-2,14.84-4.17,19.59-1.07,2.37-1.58,2.85-2.56,5.45-1.14,3-1.49,5.15-2.41,10.57-3.75,22.18-2.14,12.23-2.24,12.78-.71,4.36-1,6.54-2.4,9.37-1.05,2.08-1.59,2.3-2.89,4.6a34.94,34.94,0,0,0-3.36,9.2c-2.07,8.71-.05,10.43-1.61,14.06-2.74,6.4-11.92,7.82-20.58,9.13a61.85,61.85,0,0,1-25.11-.7c-6.71-1.58-14-4.41-30.58-15.79-18.29-12.53-32.66-24.8-45.29-38.94-7-7.78-13.86-16.63-15-27.29a57.42,57.42,0,0,1,.62-13.34c.51-4,2.13-14.61,8.33-29.41A132.53,132.53,0,0,1,200.54,312.21Z"/><path class="cls-11" d="M319.22,413.17c.71-1.94-2.64-5.86-6.41-7.67-13.4-6.39-34.39,13-33.5,14.82.5,1,7.22-4.36,20.68-5.79C311,413.36,318.31,415.71,319.22,413.17Z"/><path class="cls-11" d="M318.52,417.22c1.1,2.25-1.64,6.6-4.59,9-11.39,9.39-35.1-2.38-34.6-5.93.1-.69,1.07-.66,19.23-2.89C313.05,415.66,317.43,415,318.52,417.22Z"/><path d="M318.74,414.36c-.69-2.66-15.32-.43-16.91-.17-9.29,1.47-19.5,4.48-19.31,5.62.16.94,7-1.63,19.31-.85,5.5.34,11.19,1.31,15.47-2.38C317.89,416.06,318.93,415.14,318.74,414.36Z"/><path class="cls-12" d="M308.08,330.41c-2.08,2.73-2.58,6.54-2,10a31.45,31.45,0,0,0,3.84,9.66,109.58,109.58,0,0,0,9.79,14.74,38.27,38.27,0,0,1,4.95,7.19,11,11,0,0,1,.63,8.62,10.4,10.4,0,0,1-3.34,4.11c-4.93,3.82-11.38,4.4-17.47,4.82-3,.22-6.1.45-9.15.65-1.67.12-3.44.2-4.86-.75s-2-3.37-.68-4.46"/><path class="cls-13" d="M312,384c.07.07-8.2,1.33-9.08,1.33C302.75,381.48,310.25,382.14,312,384Z"/><path d="M271.73,316.58c5.82-2.22,12.33-4.4,18-1.81a3.36,3.36,0,0,1,1,.65c1.11,1.1.59,3.22-.61,4.19a7.79,7.79,0,0,1-4.31,1.28c-7.61.68-15.21,1.68-22.74,3-3.67.65-7.34,1.36-11,2.15-2.58.56-7.79,2.93-10.21,1.92C251.31,323.27,261.91,320.29,271.73,316.58Z"/><path d="M327.63,311.26c-9.31-.63-11.18-1.77-14.16-.05-1.69,1-3.66,2.84-3.3,4.09.27.95,1.85,1.41,2.9,1.45s1.37-.31,3.19-.84a24.78,24.78,0,0,1,2.5-.6c2.26-.44,4.69-.85,7.29-1.15s5.35-.5,7.77-.58a1.38,1.38,0,0,1,0-.92c.13-.28.32-.33.34-.41C334.19,311.7,327.63,311.26,327.63,311.26Z"/><ellipse class="cls-14" cx="266.57" cy="341.18" rx="5.69" ry="6.05"/><ellipse class="cls-14" cx="319.46" cy="335.56" rx="5.69" ry="6.05"/><path class="cls-10" d="M140.28,331c-5.06,1.89-6.83,8.53-7.85,12.43-.53,2-1.35,5.9.16,18.58.45,3.71,2.72,22,7.37,23.51a4.21,4.21,0,0,0,2.56,0,5.3,5.3,0,0,0,2.54-3c2-4.76,9.36-6.45,13.64-12,4-5.12,3.89-11.72,3.86-14.7,0-1.38-.34-13-9-20.28C151.5,333.78,145.76,328.91,140.28,331Z"/><path class="cls-15" d="M142.64,376c-1.73.8-3.47-1.16-4.22-3-3-7.41-1.22-16,1.16-23.69a23.42,23.42,0,0,1,2.64-6.23,7.92,7.92,0,0,1,5.24-3.68,4.89,4.89,0,0,1,5.24,3.06,3,3,0,0,1,0,2.25"/><path class="cls-15" d="M146,347.43a.84.84,0,0,0,.42,1.11,2.51,2.51,0,0,0,1.25.12,8,8,0,0,1,7.74,6.78.71.71,0,0,1-.13.65c-.16.15-.5-.07-.38-.26"/><path class="cls-15" d="M151.24,353.69a8.46,8.46,0,0,0-5.81,3.61c-.5.71-.87,1.79-.29,2.43"/></g><g id="Right_Hand" data-name="Right Hand"><path class="cls-16" d="M256.27,452.42l-18.8,25.82c-4.14,5.67-11.54,6.64-16.57,2.3l-76.63-66.13c-4.89-4.22-6.71-13.05-4-19.78L152.73,364c3.18-7.82,10.34-10.57,15.84-5.88l86.24,73.35C260.48,436.32,261.08,445.81,256.27,452.42Z"/><path id="Phone" class="cls-17" d="M249.38,454.21l-18.84,26c-4.18,5.76-11.57,6.89-16.5,2.64l-75.43-65c-4.82-4.16-6.37-12.9-3.38-19.56l13.51-30c3.42-7.56,10.64-10.2,16-5.65l83.45,71.05C253.65,438.35,254.14,447.65,249.38,454.21Z"/><path class="cls-10" d="M190.76,423v-.34"/><path class="cls-18" d="M188.3,420.53s.08-.1.06-.12-.56.27-.56.43c.19,10.13,7.34,18.7,9.07,28.67a269,269,0,0,1-9.68-30.72c-2.77-11-4.1-16.53-4.18-23.77-.1-7.41,1-9.66.88-20.94-.16-10.85-1.3-14.89-3.37-18.23a22.67,22.67,0,0,0-9-7.58,3.1,3.1,0,0,0-1.86-.33,4.07,4.07,0,0,0-2.48,2c-2.88,4.5-2.8,10.34-2.63,15.78q.34,10.58.69,21.14c.14,4.35.79,9.43-.66,13.6-2.58-10.36-4.24-20.12-14-26-2.93-1.77-7.36-2.5-9.14.57-1,1.65-.7,3.74-.41,5.65,2.61,17.35,1.41,16.19,4.07,24.45.72,2.23.49,1.26,3.49,9.8,3.19,9.1,3.38,10,3.53,10.9.7,4.33.16,6.17,1.76,9.55,1,2,1.54,2.19,2.56,4.43a22.49,22.49,0,0,1,1.93,7.83c.32,3.39,1.79,9.22,7,19.94.28-.39.42-.73.34-.82a.47.47,0,0,0-.75.41c.93-.26,0,.44.38-.51a50.29,50.29,0,0,0,9.75,31.84c2.38,3.19,5.16,6.07,7.1,9.56,1.49,2.68,2.45,5.66,3.84,8.4,2.66,5.2,6.8,9.32,10.66,13.57,10.16,11.16,12.16,13.49,14.26,17.9.72,1.52,1.38,3.21,3.32,7.23,2.34,4.87,3,5.79,3.53,7.84a20.47,20.47,0,0,1,0,9.54c-2.25,11.43,5.16,47.59,7.53,61.68,2.28,13.46,1.65,72.38,2.08,76.33a81,81,0,0,1,0,16.7c-1.54,20-4.42,32.37.32,40.89.48.85,2.18,3.73,4.49,8.18,0,0,2.18,4.19,3.85,7.84,4,8.67,2.93,23.41,3.2,45.32.12,9.37.42,15.35,1,21.47.85,9.46,1.27,14.19,2.25,16.7,7.88,20.34,66.73,23.29,80,1.7,3.48-5.67,2.78-11,1.93-25-2.81-46.66,2.21-36.67-1-73.78a507.69,507.69,0,0,0-13.3-79.74c-13-49-18.08-70.29-19.87-79.4-.47-2.32-1.68-8.83-4.17-17.38-1-3.31-1.28-4.08-5.13-15.68,0,0-1.74-5.28-5.77-18.4-.4-1.28-3.47-11.5-2.56-15.34a38.21,38.21,0,0,0,1-6c0-.22,0-.37,0-.49a62.8,62.8,0,0,0-.35-12.12,91.56,91.56,0,0,0-2.88-12.95c-4.46-16.61-3.43-19.23-7.7-32-1.46-4.4-3-8.43-3.52-9.71-2.62-6.68-3.74-8.57-5.6-13-2.75-6.65-6.09-14.64-7.18-24.79-.49-4.64-.29-7.48-1.5-13.31-.9-4.31-1.43-4.72-2.14-9.08-.62-3.92-.44-5.08-1.6-6.65-1.31-1.77-2.55-1.63-5.08-4.36-1.65-1.77-1.39-2.13-2.31-2.69-2.62-1.6-7.14-.19-9.28,3a6.64,6.64,0,0,0-1.15,4.76c.38,1.67,1.54,2,2.31,4.14a9.68,9.68,0,0,1,.45,3.83c-.36,8.45,3.94,25.75-.4,27.95-2.42,1.22-6.8-2.65-9-5.81-2.34-3.43-1.41-5-3.48-11.39-2.65-8.14-4.89-7.89-6.56-15.2-1-4.19-.46-4.78-1.77-8.7-1.06-3.19-2.17-5.05-2.34-8.42a20.87,20.87,0,0,1,.4-4.77c.16-1.14,1.29-10.38-2.76-18-1-1.84-3.08-5.78-6-5.71-2.3,0-4,2.62-4.51,3.37-1.22,1.84-1.31,3.36-2.07,7.38-.72,3.87-1,4.43-1.26,5.62,0,0-.19.91-.34,1.88a109.72,109.72,0,0,0-1,20.78C185.85,412.11,188,420.56,188.3,420.53Z"/><path class="cls-10" d="M164.74,400.41a71.55,71.55,0,0,0,.7,10.46,79.5,79.5,0,0,0,4.33,16.52c2.08,5.9,5,14.37,8.65,26.07"/><path class="cls-15" d="M296.8,868.51c-1.15.2-1.73-1.4-1.89-2.62a15.26,15.26,0,0,1,.13-6.56,14.53,14.53,0,0,1,3-4.72c4.2-5.1,8.72-10.4,14.78-12.49"/></g><path class="cls-19" d="M924.78,58,914.35,933l-872,8.45Z"/><g id="Panel_1_Nurse" data-name="Panel 1 Nurse"><g id="Hair-3" data-name="Hair"><path d="M584.53,496.83A26,26,0,0,0,580,486.12a26.43,26.43,0,0,0-9-7.42,32.3,32.3,0,0,1,6.9-15.55c-8.75-2.58-14-13.29-10.71-21.73-2.68.41-4.53-3-4.12-5.67s2.16-4.94,3.19-7.42c2.47-6,.83-13.08,3.81-18.85,1.75-3.5,4.95-6,7.11-9.27,1.85-2.78,2.88-6.08,4.43-9.06,2.27-4.54,5.56-8.45,8.86-12.26,6.08-7.21,12.36-14.53,20.19-19.88a58.76,58.76,0,0,1,12.67-6.49c6.69-2.47,14.11-3.92,21.11-2.47,3.4.72,6.7,2.06,10.2,2.37,5,.51,9.89-1,14.84-1.65,7.93-.93,16,.82,23.79,2.57,1.34.31,2.37.52,3.19.72a140.59,140.59,0,0,1,18.44,5.36c6.18,2.27,4.74,2.37,7.32,3,7.62,1.85,10.09-1.24,16.37.1,5.67,1.24,5,4.12,12.36,7.21s9.58,1,15.46,3.09c7,2.47,10.71,7.73,17.51,17.51,4.94,7.11,9.89,14.32,11.33,24.72.2,1.55.1,6.19,0,15.46-.21,15.45-.83,15.55,0,19.57,1.44,6.59,3.91,9.58,2.06,13.39-1.55,3.09-4.12,3.09-5.05,6.28-.62,2.58.72,3.92,2,9.17a34.09,34.09,0,0,1,1,8.24c-.41,6.9-9,11.33-13.91,14.63-13.39,9-16.89,20.08-22,26.47C729.67,564,588.24,515.48,584.53,496.83Z"/><path d="M585.87,497.14c-1.54-8.86-6.9-15.65-14.73-19.78.41.73.93,1.34,1.34,2.07a33.67,33.67,0,0,1,6.59-14.94,1.82,1.82,0,0,0-1-2.68,15.3,15.3,0,0,1-9.47-19.36,2,2,0,0,0-1.65-2.48c-5.77-.31.62-10.09,1.24-12.15a37.84,37.84,0,0,0,1.23-8.35c.41-4.22.93-8,3.5-11.53,2.06-2.78,4.64-5.15,6.39-8.24,1.65-2.89,2.68-6.18,4.33-9.07a64.4,64.4,0,0,1,6.8-9.27c4.94-5.87,9.88-11.74,15.65-16.79,12.16-10.61,27.61-15.86,43.47-11.85,7.21,1.86,13.08.21,20.29-.51,9-.93,17.93,1.34,26.58,3.3a156.87,156.87,0,0,1,18,5.25c3.19,1.24,6.07,2.88,9.47,3.5,5.46.83,11.33-2.06,16.59.41,2.06.93,3.6,2.79,5.35,4a27,27,0,0,0,8.25,3.71c5.35,1.44,10.81.51,15.76,3.71,5.45,3.4,9.06,9.68,12.56,14.83,3.81,5.46,7.52,11,9.58,17.51,1.75,5.46,1.55,10.61,1.55,16.17-.11,7.83-1.55,16.49-.31,24.31.62,4.12,4.22,9.69,2.37,13.6-2,4.12-6.18,4.74-5,10.1,1.34,6.18,5.15,13.28.72,19.16-3.7,4.84-9.68,7.31-14.42,10.91A50.63,50.63,0,0,0,766.34,514c-3,4.22-5.25,9.06-8.55,13.08-8.24,10-23.07,12-35.12,12.46-17.41.72-35-2.16-51.92-5.87a308.12,308.12,0,0,1-56-17.92,145.14,145.14,0,0,1-19.89-10.2c-2.78-1.85-7.93-4.64-8.75-8.24-.41-1.65-3.61-2.58-3.09-.52,2.06,8.86,15.55,14.32,22.66,17.82,16.38,8,33.79,13.91,51.4,18.65,19,5.15,38.53,9,58.2,9.48,13.91.3,30.8-.52,41.93-9.89,7.41-6.29,10.61-16.28,17.4-23.18,7.73-7.83,23.28-12.16,21.84-25.34a48.06,48.06,0,0,0-2.06-9.27c-.41-1.44-1-2.68-.62-4.22.52-2.06,2.17-2.79,3.51-4.33,3.19-3.71,1.85-7.52.51-11.74-2.88-9.48-1.24-19.78-1.13-29.57.1-4.84.2-9.37-.93-14.11-1.54-6.28-4.63-11.95-8.14-17.3-6.18-9.28-12.77-21.12-24.82-23.08-2.47-.41-5-.31-7.52-.82a24.43,24.43,0,0,1-10.61-5.46c-3.92-3.2-8.24-3.92-13.19-3.3-6,.83-9.58-.2-14.83-2.26a133.78,133.78,0,0,0-19.06-5.77c-7.41-1.75-15.14-3.61-22.86-3.81-4.54-.11-8.86.72-13.4,1.44a31.27,31.27,0,0,1-13.8-1.14c-14.73-3.91-30.18,1.86-41.72,11.13-6.28,5.05-11.43,11.12-16.58,17.2s-8.24,11.74-11.85,18.65c-3.29,6.49-9.16,10.3-10.5,17.82-.62,3.5-.42,7-1.24,10.5-.93,3.82-4,7.11-4.22,11.13-.21,3.6,2.26,7,5.87,7.21-.52-.82-1.13-1.65-1.65-2.47a19.21,19.21,0,0,0,11.95,24.1c-.31-.93-.72-1.75-1-2.68a37.61,37.61,0,0,0-7.21,16.18c-.21.92.62,1.64,1.34,2.06a23.65,23.65,0,0,1,12.26,16.48C583.4,498.17,586.28,499.1,585.87,497.14Z"/><path d="M795.49,482.52c8.14-1.55,13.91-2.68,16.28.2,4.64,5.46-8.14,19.37-2.37,27.2,1.55,2.16,4.22,3.19,6,5,3.7,3.81,3.09,10,2,15.25s-2.47,11,.31,15.66c3.5,5.66,12.16,7,14.63,13.18a12.69,12.69,0,0,1,.2,7.83c-2.26,10.09-9.68,20-6.49,29.77,2.48,7.62,10.92,12.87,11,20.91.1,7.52-7.63,14.11-6,21.42,1.24,5.67,7.42,8.66,11,13.09,5.26,6.38,5.36,15.76,10.1,22.56,2.27,3.19,5.56,6,6.28,9.88.83,4.85-2.78,9.28-6.8,12.16-3.81,2.68-8.34,4.53-13,4-13-1.34-18.33-19.47-31-22.36-3.71-.82-7.73-.31-11.13-1.85-7-3.3-7.31-13.29-12.25-19.16-6.18-7.42-19.06-8-22.87-16.89-2.06-4.74-.62-5.77-2.58-8.35-8.75-11.74-48.2,4.33-50-.1-1.33-3.3,21.12-12.77,20.19-24.62-.2-2.47-1.54-4.63-.61-8.65.82-3.81,3.7-6.8,4.63-10.51.93-3.4.1-7,.41-10.61.52-6,4.12-11.33,4.74-17.3.72-7.32-3.29-15-.62-21.84,1.86-5.05,6.91-8.45,8.45-13.6.82-3,.41-6.28,1.44-9.27a16.9,16.9,0,0,1,5-6.59c11.84-11,17.71-16.48,26.88-20.91A61.89,61.89,0,0,1,795.49,482.52Z"/><path d="M796.32,483.44c3.4-.51,14.32-3.71,15.14.93.72,4-2.68,9.37-3.81,13.08-1,3.4-1.85,7.32-.1,10.61,2.06,3.81,7,5.36,8.55,9.38,2.47,6.18-1.34,13.28-1.55,19.57a13.54,13.54,0,0,0,3.92,10.61c2.57,2.78,5.76,4.22,8.75,6.49,7.73,5.76,2.89,15.14,0,22.55-2,5-4,10.31-3.4,15.66.72,5.77,4.53,9.89,7.73,14.42,4.22,6,4.63,11.13,1.65,17.72-2.37,5-5.57,10.2-2.79,15.76,1.34,2.68,3.51,4.74,5.67,6.8,3.4,3.19,6.49,6.18,8.24,10.61,1.34,3.4,2.16,7,3.61,10.4a36.36,36.36,0,0,0,2.88,5.67c1.85,2.68,4.84,5.15,5.77,8.24,2.26,7.11-4.43,12.88-10.2,15.66-13.49,6.38-20.7-5.77-29.15-13.81a26.46,26.46,0,0,0-8.76-6c-2.78-1.13-5.77-1-8.65-1.44-5.15-.72-7.62-4-9.58-8.55-3.3-7.63-6.8-13.08-14.21-17.1-5.77-3.09-12.78-4.84-14.53-12.16-.72-3-.93-5-3.09-7.31-9.37-10.1-28.74-3.3-40.07-1.13-2.78.51-5.66.72-8.45,1.23-.2,0-1.13-.2-1.23-.1-.52.51.93,1.13,1.44.93.72-.21,2.37-2.48,3.09-3.09,5.87-4.74,14.63-9.48,16.69-17.41a12.27,12.27,0,0,0,0-5.46,16.07,16.07,0,0,1,1.54-10.92c1.65-3.19,3.09-5.87,3.2-9.58.2-4-.21-7.83.92-11.74,1-3.71,2.78-7.11,3.51-10.92.61-3.5.1-6.8-.42-10.3-.61-3.81-1.44-7.83-.51-11.64.93-3.51,3.19-6.08,5.36-9a18.94,18.94,0,0,0,4.12-9.38c.41-3.29.51-6.18,2.47-9.06,3.81-5.67,10.61-10.51,15.76-14.94a67.36,67.36,0,0,1,30.59-15c-.31.1-1.54-2.57-2.37-2.47a66.64,66.64,0,0,0-29,13.8,175.06,175.06,0,0,0-15.14,13.7,14.39,14.39,0,0,0-4.22,7.73c-.62,3.29-.41,6.59-2.06,9.58-3,5.56-8,9.06-8.24,15.86-.31,8.14,2.78,15,0,23.28-1,3.09-2.37,6.08-3,9.37-.62,3.71.21,7.63-.41,11.34s-3.19,6.38-4.33,9.78a13.71,13.71,0,0,0-.31,7.62c1.86,10.1-7.21,16.18-14.32,21.64-2.88,2.26-8.24,5.76-2.67,8.55,4.32,2.16,12.77-1.24,17-2.06,8.35-1.65,18-4,26.58-1.86,5.77,1.44,4.43,5.87,6.69,10.3a22.08,22.08,0,0,0,6.7,7.42c4.84,3.5,10.92,4.94,15.35,9.17s5.15,10.3,8.45,15.24a18.29,18.29,0,0,0,6.69,6.18c3,1.44,6.28,1.13,9.48,1.65a18.71,18.71,0,0,1,9.68,4.74c6.7,5.77,12,15.45,21.22,17.51,10.4,2.37,26.88-8.76,19.78-20.09-1.55-2.57-3.81-4.63-5.36-7.21-2.16-3.5-3.09-7.62-4.43-11.43-1.54-4.43-3.4-8.45-6.59-11.85-1.34-1.44-2.89-2.68-4.33-4.12-4.53-4.43-6.18-8.24-4-14.11,1.95-5,5.66-9.79,4.94-15.55-.72-5.36-4.84-9.48-7.83-13.7-5.25-7.42-4.12-14.73-1.13-22.87,3.71-9.68,8.34-19.16-.83-26.78a38.06,38.06,0,0,0-4.73-3.2c-4.85-3.09-7-7-6.39-12.77.62-6,3.4-12.16,1.44-18.13-1.23-3.61-3.91-5.36-6.59-7.83-5-4.53-2.58-10.3-.62-15.86s4.43-12.16-2.06-15.56c-4.33-2.16-10.61.11-14.94,1.14C794.67,481.59,795.7,483.55,796.32,483.44Z"/></g><g id="Neck-2" data-name="Neck"><g id="Neck-3" data-name="Neck"><path class="cls-13" d="M596.38,624.87c-6.08,5-9.58,12.57-11,20.3s-1.14,15.65-.72,23.58c.31,5.57.51,11.13,1.85,16.59,1.24,5.25,3.4,10.2,4.84,15.35,1.14,4.32,1.75,8.86,2.47,13.28,2.68,17.31,6.49,34.41,10.31,51.51,1.44,6.69,3,13.49,4.42,20.19a133.82,133.82,0,0,0,4,15.55c2.37,7,6,13.81,11.33,18.75,10.51-8.55,14.94-22.15,20.09-34.51a218.5,218.5,0,0,1,42-65.1c6.9-7.42,14.42-14.32,20.39-22.45S717,680.19,717.11,670a59,59,0,0,0-1.86-14c-1-4.33-2.16-8.75-4.84-12.36-2.68-3.4-6.49-5.77-10.3-7.83-16.48-9.06-34.41-15.76-53.05-18s-38.11,0-55,8.24"/><path class="cls-20" d="M596,624.67c-13.5,11.43-13.5,29.15-12.47,45.42a94.32,94.32,0,0,0,5.15,25c3,8.55,4,17.52,5.57,26.37,3.19,18.34,7.31,36.47,11.33,54.6,3.4,15.45,5.77,32.24,17.51,43.78.31.31,1.23.92,1.65.62,8.34-7.11,12.87-17,17-27a269.87,269.87,0,0,1,13.81-29.88,215.2,215.2,0,0,1,19.67-29.46c7.21-9.06,15.35-17.2,23.28-25.75,7.62-8.24,14.73-17.3,17.92-28.22,2.89-10,1.34-21.63-2.47-31.32-3.29-8.34-11-12.25-18.54-16.17a153,153,0,0,0-31.11-12.26c-24.31-6.59-50.58-6.28-73.65,4.54-.41.2,1.75,1.85,2.58,1.54,20.39-9.58,43.36-11.12,65.3-6.49a143.12,143.12,0,0,1,34.1,12.05c5.87,2.89,12.77,5.77,16.89,11,3.4,4.42,4.53,10.3,5.56,15.65,4.54,22.66-9,39.15-23.79,54.39-14.32,14.73-26.89,30.59-37,48.52-5.56,9.89-10,20.19-14.32,30.59-4.12,10-8.65,19.88-17.1,27,.52.21,1.14.41,1.65.62-12.36-11.85-14.42-30.49-18-46.67-3.91-17.61-7.93-35.12-10.91-52.94-1.34-8.24-2.48-16.38-4.95-24.31-2.57-8.35-4.43-16.07-4.74-24.83-.62-15.65-1.75-34.5,10.92-46,0-.1-.72-.62-.82-.41Z"/></g></g><g id="Coat"><path class="cls-21" d="M629.65,928.39H551.06c-20-53.67-44.61-148-11.64-248.25A338.82,338.82,0,0,1,555.18,641c15.55-9.89,31.1-19.68,46.66-29.57a67.58,67.58,0,0,0-13.7,22.66,71.8,71.8,0,0,0-3.71,30.08c.52,7.73,1.65,9.38,5.15,26.17,3.19,15.14,2.78,16.37,5.46,30.18,3.71,18.64,7.52,32.45,9.58,39.86,7.83,27.81,11.74,41.82,17.2,42.54,9.48,1.45,20.4-25.64,28.84-45.32,29.77-69.94,63.66-133.5,66.65-132.57C720.2,626.16,701.76,694.77,629.65,928.39Z"/><path class="cls-22" d="M554.25,928.9H397.16c-21.94,2.27-31.62,1.34-36.36,0a57.56,57.56,0,0,0-14.42-2.37c-.93,0-2-.1-4.74,0-10,.21-14.21.73-18.64.83-5.26.1-13.91.2-17.21-2.27-12.56-9.37,22.67-78,46.67-125,10.81-21.11,29-57,52.22-103q15.45-11.26,33.07-22.55c9.58-6.18,18.95-11.85,28-17.21,1.13-.2,29.15-8.34,35-9.58,10.09-2.16,12.26.42,18.23-2.16,4.94-2.16,7.52-5.77,10-8.76,5.77-7.1,24.11-24.72,40.48-29.56,6-1.75,18-3.71,35.75,4.12a85.13,85.13,0,0,0-33,19.88,86.28,86.28,0,0,0-11.64,14.42c-6.8,10.61-9.38,19.88-12.37,30.91-1.75,6.59-4,14.62-4.94,25.34a114.88,114.88,0,0,0,1.34,29.66c6.39,39.15,16.27,99.51,14.63,150.29A352.84,352.84,0,0,1,554.25,928.9Z"/><path class="cls-23" d="M542.71,622.09c-13.59,24.11-39.14,37.7-62.94,50-.3.1.11.41.21.52A136.11,136.11,0,0,1,499.65,693a124.84,124.84,0,0,1,8.25,12c.92,1.55,2.57,3.51,3,5.26.83,3.09-1.75,4.12-4,5.66a234.72,234.72,0,0,0-21.33,16.38c-2.57,2.27-7.21,5.15-8.24,8.55-1.13,3.61,1.55,8.76,2.58,12.15a271.33,271.33,0,0,0,23.79,54c9.07,16,19.26,31.42,26.27,48.42,8.14,19.67,11.74,42,4,62.42-.21.62,2.67,1.85,2.88,1.34,14.42-37.81-9.06-74.68-27.5-106.31A289.52,289.52,0,0,1,484,757.75c-1.34-4-4.95-11.22-3.81-15.55,1.13-3.81,6.69-7.31,9.68-9.79a230.5,230.5,0,0,1,25-18.64c.1,0,.1-.1.1-.21a136.54,136.54,0,0,0-19.88-28.63c-1.95-2.17-4-4.23-6.08-6.18-1.13-1.14-5.45-4-5.25-5.46s5.15-3.2,6.39-3.92c2.57-1.34,5.15-2.78,7.62-4.22,18.44-10.3,36.05-23.49,45-43.26.1.3-.11.2-.11.2Z"/><path class="cls-23" d="M444.13,823.58c-4.32,17.61-3.09,36-2.26,54.07.82,19.06,1.65,38,2.68,57.07,0,.62,1.23,1.34,1.23.41C445,916.8,443.93,898.36,443,880c-1-18.85-1.65-37.59,1.13-56.44Z"/><path class="cls-23" d="M441.56,881a212.16,212.16,0,0,0-4.64-21.11c-1.65-6.29-3-13-5.77-18.85-.2-.41-.92-.11-.92.41,1.13,6.69,3.71,13.29,5.56,19.78s3.61,13.28,5.77,19.77Z"/><path class="cls-23" d="M439.4,883.53c-1.55,7.93-3,16-4.33,24s-3.4,16-4.12,24c0,.1.41.2.41.1,2.06-7.83,2.88-16.07,4.22-24s2.58-16.07,3.82-24.1Z"/><path class="cls-24" d="M787.87,654.75a641.81,641.81,0,0,1,72.52,59c4.63,4.43,9.37,9,12.57,14.52,6.38,11.13,6.07,24.72,6.8,37.5,1.64,26.37,8.75,52,13.9,77.87s8.34,52.85,2.06,78.49c-.41,1.76-1,3.71-2.37,4.85a9.23,9.23,0,0,1-3.71,1.54c-35.64,8.86-73-.31-109.8-.82-36.57-.42-73.34,7.93-109.6,3.4-12.16-1.55-24.62-4.43-36.67-2.06-4.33.92-9.28,2.26-12.57-.62-2-1.75-2.68-4.43-3-7-2.47-16.89,2.58-33.89,8.14-50,5.36-15.34,11.23-30.49,17.1-45.63,8.24-21.32,16.58-42.75,26.16-63.55,5.26-11.34,10.92-22.56,14.63-34.51,2.68-8.65,4.33-17.62,7.52-26.17,4-10.81,10.3-20.49,16.79-30q13-18.71,27.5-36.36c4.84-5.77,10-11.64,16.79-15a28,28,0,0,1,38,36.26"/><path class="cls-23" d="M787.77,654.75c26.27,18.64,51.81,38.93,74.78,61.59,6.29,6.18,11.23,12.78,13.6,21.43,2,7.31,2.16,15,2.58,22.66a305.5,305.5,0,0,0,6.69,48.31C892,840.37,900.87,872.4,897.78,905c-.62,6.29-.62,19.88-7.31,22.87-3.2,1.44-7.32,1.75-10.71,2.27a121.84,121.84,0,0,1-15,1.54c-16.07.83-32.25-.62-48.31-2.06-16.28-1.44-32.56-2.78-48.83-2.16-16.69.51-33.27,2.47-50,3.6-16.48,1.14-33.07,1.65-49.44-.61-7.11-.93-14.22-2.27-21.43-2.68A60.47,60.47,0,0,0,637,928c-5.15.61-13.49,4.32-17-1.86-2.06-3.6-1.86-9.68-1.86-13.6a67.6,67.6,0,0,1,.93-11.22,148.58,148.58,0,0,1,6.08-24c5.46-16.59,11.84-32.76,18.13-49,5.87-15.24,11.84-30.59,18.23-45.63,6-14.11,13-27.81,18.85-41.92,6.8-16.38,9-34.3,17.31-50,8.13-15.25,19-29.36,29.56-43C737,635.28,748,618,765.93,618.49c19.26.61,31,20.39,24.11,37.9-.31.62,1.13,1.55,1.44.93,4.32-10.92,1.95-23.9-6.6-32.14-8.13-7.72-20.91-10.2-31.21-5.87-6.28,2.68-11.22,7.52-15.65,12.57-5.46,6.28-10.61,12.87-15.66,19.47-10.41,13.59-21.22,27.71-28.53,43.26-3.51,7.52-5.67,15.55-7.73,23.59a178,178,0,0,1-9,25.85c-7.21,16.48-15,32.76-21.84,49.45-6.9,16.89-13.39,33.89-19.88,50.88C629.24,860.66,622.54,877,618.84,894a78.33,78.33,0,0,0-1.76,24.52c.52,4.84,1.45,10.2,6.6,12a15.45,15.45,0,0,0,6.18.2c4.63-.61,9.06-1.75,13.8-1.75,9.07-.1,18,1.86,27.09,3,36.88,4.53,73.65-3.91,110.63-3.3,35,.52,70.36,9,105.17,1.55,2.48-.52,5.57-.82,7.63-2.58,2.37-2,2.78-6,3.29-8.75a127.08,127.08,0,0,0,2.58-25.75c.1-17.52-2.58-34.92-6.18-52-3.61-17.82-8-35.44-10.92-53.36a263.21,263.21,0,0,1-2.78-26.89c-.41-8.13-.83-16.48-3.3-24.31-4.53-14.31-17.41-24.1-28.22-33.78C836,691.52,823,680.7,809.5,670.51c-7.1-5.36-14.31-10.61-21.63-15.66-.1-.31-.2-.21-.1-.1Z"/><path class="cls-23" d="M731.73,794.32c1.34,8.65,8.35,14.73,14.53,20.29a68.74,68.74,0,0,1,13,15.35,142.13,142.13,0,0,0,10.5,15.66c7.73,9.58,16.9,17.61,26.48,25.24C801.47,875,806.72,879,812,883c6,4.53,11.84,10.1,18.43,13.8.73.42-.2-1.64-.41-1.85-8.86-8.34-19.47-15-29-22.46s-18.74-14.83-26.88-23.69-13-19.88-20.71-28.94c-7.31-8.55-18.23-14.11-21.63-25.55.11.1,0-.1,0,0Z"/><path class="cls-23" d="M795.91,868.49c-2.68-6.6-2.78-13.7-2.68-20.71a153.27,153.27,0,0,1,2.37-24.72,166.4,166.4,0,0,1,14.21-42.85c.21-.52-1.54-1.24-1.85-.72a151.66,151.66,0,0,0-14,45.84c-2,13.59-4,30.38,2,43.16Z"/><path class="cls-23" d="M735.34,798.85c-2,37.7-33.27,67.78-59.44,91.68l1.86,2.47A113.25,113.25,0,0,1,687,865.91c.31-.72-1.65-3-2-2.26a114,114,0,0,0-9.27,27.09c-.1.51,1.23,3,1.85,2.47,14.63-13.49,28.85-28.23,40.28-44.6,10.2-14.53,18.23-31.42,17.51-49.55.1,0-.1-.31-.1-.21Z"/><path class="cls-23" d="M678.79,889.09c-1.14.1-.83-.1-1.55.93a.19.19,0,0,0,0,.3c9.27,15.87,19.06,33.79,34.82,44.2.72.51,3-.42,2.16-1.34-6.69-7.21-14.11-13.39-20.09-21.43a129.7,129.7,0,0,1-7.82-11.85c-1.24-1.95-2.48-3.91-3.82-5.76-.3,0-4.63-4.74-3.7-5Z"/><path class="cls-23" d="M770.57,679.06c1.54,2.06,5.87,6.07,4.43,8.65-.52.92-2.79,1.75-3.71,2.37-1.44,1-2.78,2.06-4.23,3.09a58.65,58.65,0,0,0-7,6.49c-1.75,1.85-5,4.63-5.67,7.21-.82,3.91,4.85,10,7,12.87A151.39,151.39,0,0,0,772,732.1c1.23,1.34,2.68,2.37,3.29,4.23.83,2.57.21,2.57-1.54,4.84-2.16,2.78-4.33,5.66-6.49,8.55-4.33,5.66-8.55,11.43-12.77,17.2-8.76,12-18.24,24.1-25.45,37-.2.31,1.65,1.75,1.86,1.55,8.55-10.51,15.86-22.25,23.79-33.28,4-5.56,8-11,12.16-16.48l5.87-7.72c1.54-2.06,5.36-5.36,6-7.83.73-3-3.19-5.46-4.94-7.31a125.53,125.53,0,0,1-13.7-16.59c-2.06-3.19-4.53-6.18-2.78-9.89,1.13-2.37,3.91-4.74,5.66-6.59a78.79,78.79,0,0,1,15-11.64c.11,0-.1-.31-.1-.31-2.27-2.88-4.64-5.77-7-8.65,0,0-.42-.31-.31-.1Z"/><path class="cls-23" d="M681.46,895c-8.55,8.34-13.39,19.57-20.91,28.64-.41.51.52.92.93.51,7.73-9,12.67-19.88,20-29.15Z"/><path class="cls-13" d="M584,500a44.26,44.26,0,0,0-9.27-18.34c-.72-.82-1.75-1.75-2.78-1.44-1.34.31-1.55,2.06-1.55,3.4a176.41,176.41,0,0,0,.52,20.81,67.11,67.11,0,0,1,.61,9.16c-.1,4.64-1.54,9.17-1.85,13.7s.82,9.79,4.53,12.47c3.09-11.85,6.29-23.69,9.38-35.54.72-2.68,1.44-5.56.61-8.24"/><path class="cls-20" d="M584.33,499.92a33.73,33.73,0,0,0-4.74-12.77c-1.24-2.06-3.4-6.28-5.87-7-4.12-1.24-4.33,3.6-4.33,6.49a150.07,150.07,0,0,0,.31,15.14c.31,4.84,1.24,9.68.62,14.52-.93,8-4.22,17.41,2.88,23.69a3.43,3.43,0,0,0,2.06-.31c2-7.51,4-15.14,6-22.66,1.65-6.38,5.25-14.32,3.91-21,0-.21-1.85.1-1.85.31,1.23,6.69-2.37,14.63-4.12,21-2,7.52-4,15.14-6,22.66l2.06-.31c-4.94-4.32-4.94-10.81-3.91-16.79a69.25,69.25,0,0,0,1.34-11.22c-.11-3.71-.72-7.42-.93-11.13s-.31-7.52-.31-11.33c0-1.85-1.13-8.45,1.86-8.14,1.85.21,4.94,6.49,5.76,7.93a77,77,0,0,1,4.85,11.13c-.21,0,.41-.1.41-.21Z"/><path class="cls-20" d="M580.93,502.29c-3.09-.31-4.84,3.71-6,6-1.44,2.78-2.26,5.87-.92,8.86,0,.1.41.41.41.2a13.53,13.53,0,0,1,1.34-9c.92-2.16,2.47-5.67,5.15-6.08Z"/><path class="cls-20" d="M577.12,508.16a9,9,0,0,1,2.26,4.64c0,.1.31.51.31.31a9.2,9.2,0,0,0-2.57-4.95Z"/></g><g id="Face-2" data-name="Face"><path id="face_main" data-name="face main" class="cls-25" d="M754.81,559.15a104.24,104.24,0,0,1-6.18,21.64c-3,7.31-6,12.05-11.34,20.6-3.5,5.66-6.9,10.4-13.39,19.57-9.47,13.29-14.21,20.08-18.54,24.72s-8.34,8.24-16.48,15.45c-9,7.93-13.39,11.85-17.51,14.42-1.44.93-16.28,10-28.84,9.27-28.23-1.54-46-52.74-54.6-77.25a213.59,213.59,0,0,1-10.3-47.39c-1.13-10.5-2.06-20.39,0-33,1-6.28,2.89-13.6,4.12-18.54,2.58-10.2,3.81-13.29,5.15-18.54,4.64-18.44.52-25.34,3.09-33,6.18-18.24,44.91-24,72.11-22.67,53.15,2.58,108.36,34.51,107.13,60.78-.52,10.3-9.27,13.39-12.05,33.58C755.63,540.1,757.59,544.11,754.81,559.15Z"/><path d="M641.19,521.45c.62-4.32-6.7-7.62-10.1-9.17-5.15-2.47-10.92-3.29-16.48-4.22a53.79,53.79,0,0,0-12.87-.82c-2.68.2-11.13,1.54-11.13,4.84,0,.51,4.12.2,4.64.1,5.35-2.06,7.93-4.63,14.21-3.6a71.81,71.81,0,0,1,11.44,2.47c6.79,2.26,11.74,7.31,18.12,10.4.21.11,2.07.31,2.17,0Z"/><path d="M693.21,529.49c17.71-3,34.61-1,49.34,10,2.26,1.75,2.06-.21.41-1.55-14.42-12-35.74-19-54.18-13.08-1.34.52,2.88,4.84,4.43,4.64Z"/><circle class="cls-26" cx="610.59" cy="534.43" r="6.18"/><circle class="cls-26" cx="701.76" cy="553.49" r="6.7"/><g id="Lips"><path class="cls-27" d="M688.67,627c-.3,1.44-20.8,1.64-38.11.61-17.72-1-37.39-3.81-37.08-5.15S689,625.59,688.67,627Z"/><path class="cls-27" d="M688.67,627.86c.21.1-12.25,2.37-18.54,2.37,0,0-11.64,0-22.45-.62-21.43-1.34-33.89-6.18-35.13-5.36s13,9,32.76,11c4.12.41,19.67,2.06,33-2.58A84.51,84.51,0,0,0,688.67,627.86Z"/></g><path class="cls-20" d="M657,544.73c-3.71,8.76-7.83,17.51-12,26.06-2.47,5.05-7.52,10.82-8,16.59-.61,7.31,6.19,13.39,12.78,15a18.12,18.12,0,0,0,18.44-6.7c.51-.72-1-.72-1.34-.41-4.33,4.33-9.58,7.52-16.07,5.87a14.83,14.83,0,0,1-9.27-7.42c-3.2-6.18-.11-10.61,3-15.76,6.08-10.61,9.48-21.63,12.47-33.27Z"/><path class="cls-20" d="M663.85,584.08c2.68.41,5.36-.62,8-.1a5.94,5.94,0,0,1,3.92,2.47c.82,1.24.51,2.88,1.44,3.91.41.52,1.55-.2,1.75-.61,1.75-2.89-1.34-6.08-4-7-3.39-1.13-7.62-.2-10.91,1,0,.11-.31.21-.21.31Z"/><path class="cls-20" d="M634.7,585.52a8.55,8.55,0,0,0-10.41.62c-2.16,2.06.21,5.46,2.68,6.08.52.1-.41-1.13-.41-1.13a3,3,0,0,0-1.54-1.24c1.23.41.61.21,1.13-.72a3.48,3.48,0,0,1,.82-.93,18.47,18.47,0,0,1,2.48-1.23,11.1,11.1,0,0,1,5.76-.83c0,.1-.51-.51-.51-.62Z"/><path d="M776.13,482.93c-5.67-17.72-21.22-27.71-37.19-35.44-17.3-8.24-34.92-16.48-53.56-21.32-19.37-4.94-38.11-4.53-57.58-1-16.79,3-34.2,6.08-47.28,18-3.61,3.29-1.45,8.75,2.67,10.19,8.14,2.89,15.15-2.06,21.84-6.18A86.18,86.18,0,0,1,627,437.29c17.72-4.84,35.95-.92,53.36,2.89,7.73,1.65,11-10.1,3.3-11.85-17.2-3.81-34.92-7.41-52.64-4.53a85.89,85.89,0,0,0-22.46,7.42,106.5,106.5,0,0,0-11.22,6.28c-3.2,2-6.9,5.36-10.82,4,.93,3.4,1.85,6.8,2.68,10.2,11.23-10.2,27.5-12.26,41.82-14.84,17.31-3.19,34-3.4,51.09,1,16.48,4.23,31.93,11.23,47.28,18.44,13.81,6.49,29.88,14,34.92,29.67,2.37,7.72,14.22,4.43,11.85-3.09Z"/></g><g id="Phone-2" data-name="Phone"><path class="cls-25" d="M728.85,753c.41,3.92-.31,3.51-.31,11.64-.1,20.3,4.53,34.1,5.77,40.28,5.87,28.43-22.36,69.33-35.64,66.85-15.25-2.78-14.53-63-22.36-118.46-.2-1.34-.51-6.9-1-17.82-.41-8-.51-12.36,1.86-17.1.82-1.54,2.78-5.35,6-7C695.06,705.53,726.17,727.37,728.85,753Z"/><path class="cls-28" d="M692,719.85c-4.12-.72-8.24-1.34-12.36-2.06-7.11-3.2-11.23-9.69-10.3-15.46a12.26,12.26,0,0,1,4.12-7.21A306.35,306.35,0,0,0,766.14,521a15,15,0,0,1,2.68-.62,34.21,34.21,0,0,1,3.5-.41c2.26-.1,6.9.72,12.36,3.09a260.28,260.28,0,0,1-77.26,185.42,19.91,19.91,0,0,1-7.21,8.24A20.63,20.63,0,0,1,692,719.85Z"/><path class="cls-20" d="M772.21,603.45c3.4.41,7.42.92,9.17,4.32.52,1,2.47.21,1.86-.72-2.17-4-6.49-4.84-10.72-5.35-1-.21-1.64,1.54-.31,1.75Z"/><path class="cls-20" d="M706.19,705.89a4.44,4.44,0,0,1,.72-.72s-.11-.1-.11,0a4.59,4.59,0,0,0-.61.72Z"/><path class="cls-25" d="M743.68,649.59c-4.22-7.1-16.69-6.79-17.72-6.79-17,.61-31,18-28.63,22.55,1.13,2.07,6,2,8.55,1.34C714,665.05,717,657,720,658.14c2.57,1,2.06,8,2.06,8.55-.41,5.26-2.88,7.83-5.46,13.4-3.09,6.38-2.16,8-4.43,14.11-4,10.81-9.78,13.9-12.77,19.36-9.79,17.82,12,54.8,23.38,53.05,6.49-.93,3.61-13.39,16.48-35.74,12.26-21.32,26-29.15,22.56-38.53-2.47-6.8-11.12-6.8-14.32-17.1-.51-1.75-.92-5.25-1.75-12C744.51,653.1,745,651.86,743.68,649.59Z"/><ellipse class="cls-25" cx="779.32" cy="596.24" rx="6.9" ry="19.67"/><path class="cls-25" d="M797.86,634.86c.31,4.12-1.75,7.22-5.15,12.06-12.05,16.89-14.11,17.51-18.85,25.44-4.63,7.73-7.41,12.36-9.58,19.57-1.54,5.05-1.85,8.24-4.84,10.61-4.32,3.5-12.87,4.33-16.17.72-7.83-8.75,10.61-48.51,27.09-64.17,1.13-1.14,6.59-6.18,5.25-9.79s-8.65-1.85-12.87-7.72c-1.55-2.17-1.86-4.12-4.43-6.18a15,15,0,0,0-5.15-2.37c-8.76-3.09-9.58-2.68-11.33-4.12-2.78-2.37-4.74-7.21-3.2-9.79,2.79-4.74,16.59-1,19.68-.21,4.12,1.14,7.11,2.48,12.67,5.16,6.38,3,9.48,4.53,12.36,7.21,2.06,2,1.85,2.36,7.52,11.33C796.63,631.26,797.66,632.19,797.86,634.86Z"/><path class="cls-25" d="M770.77,649c-5.25,24.2-10.2,46.87-15.76,46.35-4.74-.51-11.33-18.34-9.58-34.3.62-5.25,2.27-11.95-1.44-15.45-.82-.72-2.47-1.86-8.24-2.06-12.36-.41-19.37,4.12-20.7,2.06s3.39-7.52,6.28-11c2.26-2.68,3.6-4.33,5.56-5.67,3.61-2.58,7.62-3.19,25.34-1.55,14.22,1.34,16.07,2.17,17.51,3.82C773.55,635.28,772.32,642.08,770.77,649Z"/><path class="cls-13" d="M737.91,689.66c.52,0,2.17-1,1.14-1-.52,0-2.17,1-1.14,1Z"/><path class="cls-13" d="M741.72,690.9a3.3,3.3,0,0,0,3.09.31c1-.41,0-2.16-.92-1.85a2.08,2.08,0,0,1-1.75-.11.67.67,0,0,0-1,.41,1.17,1.17,0,0,0,.61,1.24Z"/><path class="cls-13" d="M747.08,694.82a11.28,11.28,0,0,0,1.65-10.2c-1.34-4.74-8.86-6.39-11.23-1.44-2.47,5.15-4.22,13-.62,17.92a6.54,6.54,0,0,0,3.71,2.68c.93.2.72.1-.51-.52A8,8,0,0,0,742,704.6c2.37,1.24,5.05.41,7.11,1.24-1.44-2.48-2.88-5.05-4.33-7.52-.2.62-.41,1.23-.61,1.75-1.55,4.84,3.19,8.34,7.52,7.52a9,9,0,0,0,4.63-2.58c5.67-5.56-3.09-14.21-8.65-8.65a2.73,2.73,0,0,1,.72-.51l7.52,7.51c.21-.61.41-1.23.62-1.75,1.13-3.4-1.34-6.38-4.33-7.52-.82-.3-5.15-1.44-5.77-.61l1.55.61a21.43,21.43,0,0,0-1.86-1.33,10.45,10.45,0,0,0-2.57-.83c.93.52,1.85,1,2.68,1.55l-.52-.52c.52.93,1,1.86,1.55,2.68a8.58,8.58,0,0,1,.41-6.39c-3.71-.51-7.52-.92-11.23-1.44.1.31.82-.82-.41.72-2.06,2.58-.41,6.9,2.16,8.35,3.61,2,6.8.51,8.86-2.06Z"/><path class="cls-13" d="M744.25,696c1.75,3.4,6,4.22,9.17,2.89a7.49,7.49,0,0,0,3.71-3.2,18.16,18.16,0,0,0,1.34-3.29c-.21.51-.41.92-.62,1.44.1-.21.62-1,0-.1a5.12,5.12,0,0,1-.62.72c-.51.31-.51.41-.1.2-.52.21-.93.41-1.44.62a1.33,1.33,0,0,1,.62-.1l-7.73-5.87c0,.41.1.92.1,1.34l11.44-3.1c0-.1-.11-.2-.11-.3.21.51.42.92.62,1.44-.1-.21-.1-.41-.2-.62.1.52.1,1.13.2,1.65v-.93c-.1.52-.1,1.13-.2,1.65a1.5,1.5,0,0,1,.2-.62,6.36,6.36,0,0,0-.62-4.74,6,6,0,0,0-3.7-2.78,6.36,6.36,0,0,0-4.74.62,6.7,6.7,0,0,0-2.78,3.71,8.29,8.29,0,0,0,.72,7,6.15,6.15,0,0,0,6.9,2.78,6.34,6.34,0,0,0,2.68-1.54,5.71,5.71,0,0,0,1.75-4.33c0-.41-.11-.92-.11-1.34a6.18,6.18,0,0,0-7.72-6,8.59,8.59,0,0,0-5.25,3.6,12.84,12.84,0,0,0-1.55,3.71c.21-.51.41-.92.62-1.44a2.37,2.37,0,0,1-.31.52c2-1.65,2.47-2.17,1.54-1.65.52-.21.93-.42,1.45-.62-.21.1-.42.1-.62.2.51-.1,1.13-.1,1.65-.2h-.21c.52.1,1.13.1,1.65.2a.79.79,0,0,1-.41-.1c.51.21.92.41,1.44.62.62.62,1.24,1.24,1.85,1.75a6.06,6.06,0,0,0-8.34-2.16,6.21,6.21,0,0,0-2.27,8.34Z"/><path class="cls-13" d="M764.49,685.34A27.55,27.55,0,0,1,766,677a6.16,6.16,0,0,0-4.32-7.51,6.3,6.3,0,0,0-7.52,4.32,48.65,48.65,0,0,0-2,11.54,6.13,6.13,0,1,0,12.26,0Z"/><path class="cls-13" d="M720.81,763.11A71.5,71.5,0,0,1,704.54,733c-3.92,1.13-7.93,2.16-11.85,3.3a89.3,89.3,0,0,0,19.78,33.48c4.74,5,13.39-1.55,9.58-7.42-3.81-6.08-9.17-10.51-14.22-15.45-2.47-2.47-5.35-5.36-6.38-8.86-1.24-4.12.31-9.58.72-13.8.72-7.83-11.54-7.83-12.26,0-.51,4.94-1.65,10.3-.62,15.24.83,4.43,3.2,8.24,6,11.64,5,6.18,12,10.61,16.27,17.41l9.58-7.42a74.38,74.38,0,0,1-16.58-28c-2.47-7.41-13.91-4.43-11.85,3.3a83.9,83.9,0,0,0,19.47,35.44c5.36,5.76,14-2.89,8.65-8.76Z"/><path class="cls-28" d="M772.21,528.77a35.6,35.6,0,0,0-1.23,10.3,5.15,5.15,0,0,0,10.3,0,23.92,23.92,0,0,1,.82-7.63c1.75-6.38-8.13-9.06-9.89-2.67Z"/></g></g><path class="cls-29" d="M918,62.71v870H48v-870H918m23-23H25v916H941v-916Z"/><g id="Speech"><path class="cls-30" d="M655.88,14.65,374.1,14.46S318.26,9.52,281.8,51.6c-17.9,20.65-23,42.83-24.79,51.23-8.67,41.38,7.83,74.49,13.49,84.67,17.78,32,44.75,46.63,62,56a184.06,184.06,0,0,0,44,17h187a333.33,333.33,0,0,1-45.09,60.19c-65,68.82-141,89.22-139.91,91.81s73.5-15.41,152.87-68.29A550.29,550.29,0,0,0,630.5,259.5c53.58,3.88,104.09-22.29,129-67,21.92-39.34,27.28-98.91-9-140C715.76,13.09,663.85,14.33,655.88,14.65Z"/><text class="cls-31" transform="translate(302.61 80.12)">Sam has asthma and has been <tspan x="-14.08" y="37.2">coughing for the past few days. </tspan><tspan x="-14.3" y="74.4">The cough is not getting better </tspan><tspan x="2.11" y="111.6">with his pump. What do I do? </tspan></text></g></svg>