<?xml version="1.0" encoding="UTF-8"?>
<svg xmlns="http://www.w3.org/2000/svg" onmouseup="{ if(window.parent.document.onmouseup) window.parent.document.onmouseup(arguments[0]);}" viewBox="0 0 960 960" data-name="Layer 1" id="Layer_1"><defs><style>.cls-1{fill:#ffe3fd;}.cls-2,.cls-8{fill:#926d5a;}.cls-3{fill:#b5917c;}.cls-4{fill:#ff7bac;}.cls-5,.cls-7{fill:#fff;}.cls-5{stroke:#999;}.cls-10,.cls-12,.cls-13,.cls-15,.cls-5,.cls-8,.cls-9{stroke-miterlimit:10;}.cls-6{fill:#999;}.cls-8{stroke:#b5917c;}.cls-15,.cls-9{stroke:#000;}.cls-10{fill:#cb8c84;stroke:#cb8c84;}.cls-11,.cls-13{fill:#4d4d4d;}.cls-12{fill:#666;}.cls-12,.cls-13{stroke:#4d4d4d;}.cls-14,.cls-15{fill:#f2f2f2;}.cls-15{stroke-width:0.5px;}.cls-16{font-size:44px;font-family:ComicSansMS, Comic Sans MS;}</style></defs><title>Scenario 2</title><g id="Panel_3" data-name="Panel 3"><g id="Panel_3_Background" data-name="Panel 3 Background"><rect class="cls-1" x="50" y="58" width="871.72" height="871.44"/><g id="Hair"><path d="M596.8,459.65a29.37,29.37,0,0,0-14.55-20.9,34.52,34.52,0,0,1,7.11-17c-9.3-3.4-15.1-15.65-11.71-25-2.85.22-4.92-3.61-4.49-6.56s2.3-5.36,3.4-8.1c2.62-6.46.76-14.66,3.83-20.9,1.86-3.83,5.25-6.46,7.44-10,2-2.95,2.95-6.56,4.59-9.85,2.3-4.92,5.8-9.08,9.2-13.13,6.34-7.66,12.91-15.43,21.12-20.79a54.89,54.89,0,0,1,13.35-6.35c7-2.3,14.77-3.39,22.1-1.2,3.61,1,7,2.73,10.62,3.39,5.14.88,10.28-.44,15.43-.76,8.31-.44,16.52,2.07,24.73,4.59,1.42.44,2.4.77,3.39,1a145.91,145.91,0,0,1,19,7.22c6.35,2.95,4.92,2.95,7.55,3.83,7.77,2.52,10.4-.66,16.85,1.31,5.8,1.75,5.26,4.82,12.7,8.76s9.74,1.86,15.76,4.48c7.22,3.18,10.94,9.2,17.83,20.36,5,8.09,10.07,16.3,11.6,27.79.22,1.64.11,6.79.11,16.85-.22,16.86-.76,17,.11,21.34,1.42,7.34,3.94,10.73,2.08,14.67-1.53,3.28-4.16,3.06-5,6.56-.66,2.74.76,4.27,2,10.07a46.08,46.08,0,0,1,1.09,9c-.33,7.45-9,11.82-14,15.22-13.57,9-17,21-22.21,27.68C748,540.63,601,480.44,596.8,459.65Z"/><path d="M598.33,459.87a32.79,32.79,0,0,0-15.43-22.55l1,2a35.3,35.3,0,0,1,6.78-16.3c.77-1,0-2.41-1.09-2.85-8.54-3.5-13.13-13.68-10.4-22.43a2.16,2.16,0,0,0-1.75-2.63c-6.35-.65.33-11.27,1.1-13.78a52.43,52.43,0,0,0,1.31-9.2c.33-4.05.66-8,2.84-11.6s5.48-6.23,7.55-9.84c1.76-3.18,2.74-6.68,4.49-9.85a64.29,64.29,0,0,1,7-9.85c5.15-6.24,10.29-12.48,16.42-17.73a55.17,55.17,0,0,1,20.68-11.16,37.73,37.73,0,0,1,14-1.64c4.92.43,9.3,2.62,14,3.83,6.12,1.64,11.92.11,18-.22,9.63-.44,19.15,2.84,28.24,5.8a142.46,142.46,0,0,1,18.16,7c3.94,1.86,7.11,4.16,11.49,4.82,6.13.87,11.71-1.65,17.07,2.62,4.38,3.5,8,7,13.68,8.54s11.05,1.53,15.87,5.8,8.21,10.61,11.6,16.08c3.61,5.91,7.22,11.82,9.41,18.5,1.86,5.91,2.08,11.27,2,17.4-.11,8.86-1.31,18.38-.33,27.25.55,4.59,3.72,9.52,3.06,14.11-.65,4.93-6.45,6-5.69,11.71.77,5.47,3.51,10.4,3.07,16.09-.55,7.11-8.1,10.83-13.35,14.33-10.29,6.9-14.78,16.64-21.56,26.49-7.88,11.38-23.42,13.13-36.11,13.13-18.71,0-37.54-4.16-55.48-9.41A330.25,330.25,0,0,1,628.54,482a151.48,151.48,0,0,1-20.69-12.25c-3.06-2.3-8.31-5.69-9.19-9.74-.44-1.75-3.72-2.74-3.28-.55,2.19,9.74,16.3,16.52,24.07,20.9,17.18,9.63,35.68,17.07,54.28,23.2,19.48,6.35,39.72,11.6,60.19,12.91,14,1,31.51.77,42.57-9.19,3.06-2.74,5.14-6.35,7.22-9.85,3.5-6.13,7.33-12,12.69-16.74,5-4.49,11.82-7.22,16.2-12.48,3.83-4.59,3.39-9.74,2.41-15.32-.55-2.95-2.08-6-2.3-9-.33-3.72,2.51-4.6,4.27-7.22,3.5-5-.33-11.49-1.32-16.64a34.42,34.42,0,0,1-.33-7.55q.33-10.83.33-21.66c.11-12.37-3.06-22.77-9.52-33.49-5.91-10-12.25-23-24.4-26.37-2.41-.66-4.82-.66-7.22-1.21-4.82-1.09-8.65-3.94-12.15-7.22A16.59,16.59,0,0,0,750,318c-5.8.22-10-.21-15.1-2.84a131,131,0,0,0-21.12-8.43c-7.88-2.51-16-5.25-24.18-5.91a57.07,57.07,0,0,0-11.38.44c-6.24.66-11-.22-16.86-2.19-14.55-5-30.64,0-42.56,9.09a99.4,99.4,0,0,0-30,38c-3.28,7.44-10.07,11.71-11.27,20.13-.55,3.83-.44,7.77-1.2,11.6-.88,4.05-3.94,7.44-4.27,11.49s2.08,8.43,6.35,8.87c-.55-.88-1.21-1.75-1.75-2.63-3.51,10.83,2.4,23.2,13,27.47-.33-1-.77-1.86-1.1-2.85a39.64,39.64,0,0,0-7.44,17.62,2.2,2.2,0,0,0,1,2,28.47,28.47,0,0,1,13.57,19.48C595.6,461,598.66,462.06,598.33,459.87Z"/><path d="M743.33,438.42c22.32-1.31,38.08-2.3,44.65,1.09,12.58,6.57-22,22-6.35,31.41,4.27,2.52,11.49,3.94,16.41,6.13,10.18,4.7,8.43,11.82,5.37,17.73s-6.68,12.69,1,18.05c9.52,6.68,33.16,8.65,40.05,15.87,2.74,2.84,2.19,6.13.66,9.08-6,11.49-26.26,22.54-17.4,34,6.78,8.87,29.87,15.33,30.09,24.52.33,8.64-20.46,15.86-16,24.29,3.5,6.57,20,10.18,30,15.43,14.23,7.55,14.66,18.17,27.47,26.15,6.13,3.73,15,7,16.85,11.49,2.3,5.48-7.44,10.51-18.17,13.57a107.66,107.66,0,0,1-35,4.27c-35-2-49.79-22.76-84.37-26.48-10-1.09-20.91-.55-30.21-2.52-19.15-4-20.13-15.43-33.81-22.43-17.07-8.75-52.42-10-62.92-20.35-5.59-5.59-1.76-6.68-7.12-9.74-24.18-14-133.5,3.17-138.43-2-3.72-3.94,58.55-14,55.81-27.8-.54-3-4.27-5.47-2-10.07,2.19-4.37,10.18-7.77,12.81-12,2.4-3.94.11-8.21.87-12.26,1.31-6.89,11.27-13,12.8-19.92,1.87-8.53-9.3-17.61-2.18-25.49,5.25-5.8,19.15-9.52,23.2-15.43,2.4-3.51,1.09-7.34,3.93-10.73,3.29-3.83,9.63-5.91,13.57-7.44C657.53,454.72,673.84,448.6,699,444A338,338,0,0,1,743.33,438.42Z"/><path d="M744.2,439.4c12.92-.54,27.25-2.62,40.06-.11,3.06.66,6,1,4.7,4.71-1,2.84-3.61,5.25-5.58,7.55-3.28,3.72-9.19,9.3-6.78,14.77,2.73,6.13,10.83,8.1,16.52,10,4.16,1.31,9.85,2.63,11,7.44a11.34,11.34,0,0,1-.76,6.57c-1.65,4.59-5.26,8.86-5,13.9.33,7.22,8.76,11.6,14.56,13.68,5.36,2,10.94,3.28,16.41,4.92,5,1.42,16.63,3.61,15.43,10.61-.87,4.93-5.47,9.2-8.64,12.7-3.73,3.94-8,7.77-10.51,12.69-3.61,6.9.11,12.48,5.47,17a79.86,79.86,0,0,0,10.29,6.79c4.16,2.41,13.13,5.91,14.66,10.94,2.3,7.66-10.5,13.68-14.33,18.71-4.05,5.48-.22,10,4.48,13.36,10.95,7.76,25.83,8.09,35.35,18.38,6.78,7.33,11.27,15.21,20.13,20.35,4.27,2.52,16.53,6.46,12.37,12.7-3.39,5-12,7.33-17.4,8.86-14.66,4.27-30.42,5.69-45.52,3.07-23.86-4.27-43.56-20.14-67.41-24.41-14.12-2.51-29.55,0-43-5.36-9.63-3.83-15-12.69-23.42-18.27C700,629.27,676.9,631.13,658.19,623c-3.94-1.64-6.46-3.39-8.64-7.55a17.42,17.42,0,0,0-1.1-2.52,14.87,14.87,0,0,0-5.91-4.81c-5-2.63-11.16-3.51-16.74-4.16-33.81-3.94-68.61,1.31-102.43,3.17-5,.33-10.39.77-15.43.22a6.17,6.17,0,0,0-2-.33c-1.42.44.77,1.64,1.43,1.53.87-.11,3.28-1.86,4.37-2.29,13.57-5.15,28-7.66,41.15-14.12,3.72-1.86,10.39-4.93,10.5-9.85.11-4.27-4.26-6.35-2.08-10.94,2.41-5,8.87-6.79,12.15-11.06,3.83-5,0-11.49,3-16.85,2.84-5.14,8.09-8.64,10.5-13.9,4.71-10.17-10.18-20.79.44-29.54,4.05-3.28,9.08-5.25,13.57-7.77a33,33,0,0,0,5.58-3.61c2.85-2.41,3.28-5.15,4.27-8.54,1.53-5.91,6.45-8.42,11.93-10.61,6.78-2.74,13.67-5.15,20.46-7.66,23.31-8.54,46.51-15.32,71-18.83,10.07-1.42,20.24-2.51,30.42-3.17-.44,0-1.53-2.63-2.52-2.63-24.07,1.54-48.36,4.93-71.56,11.82-12.59,3.72-24.84,8.21-37.1,12.81-6,2.19-12.48,4.05-18.06,7.11-2.4,1.31-4.81,2.95-6.12,5.36-1.76,3.28-1.1,7.11-3.62,10.07-6.12,7.33-23.3,8.54-24.95,19.48-.76,5,2.52,9.63,3.94,14.33,2,6.68-1.2,10.95-5.36,15.76-3.83,4.38-7.11,8.1-6.89,14.23.11,4.05.65,7.44-2.41,10.61-2.19,2.3-4.92,3.83-7.33,5.91-3.61,3-5.69,6.13-3.72,10.73,1.53,3.5,2.62,5.47,0,8.64-4.16,4.93-11.71,7.33-17.62,9.52-7.66,2.85-15.54,5.14-23.31,7.44-2.08.66-12.26,2.41-13.13,5-.66,1.86,2.73,3.61,4.16,4,3.94,1.09,8.86.32,12.91.21,7.88-.32,15.65-1,23.53-1.53,19.69-1.42,39.39-2.84,59.2-2.95a214.52,214.52,0,0,1,25.06,1.2c4.92.66,14.44,1.31,17.18,6.13,9.08,16.2,29.44,17.51,46.07,21.23,12.58,2.84,24.18,5.91,33.49,15.43,6.78,6.89,13.57,12.15,23.3,14.22,14.56,3.07,29.44,1.21,44,5,11.81,3.17,22.54,8.86,33.59,13.9,25.28,11.6,55,14.33,81.09,2.62,3.5-1.53,10.29-4.7,9.52-9.52-.44-2.73-3.28-5-5.25-6.67-4.38-3.5-9.63-5.37-14.34-8.32-7.11-4.49-10.94-11.82-16.52-17.73-7.33-7.66-16.75-11-26.48-14.88-4-1.64-14-4.38-12.48-10.29,1.09-4.15,5.91-7.33,9.08-10,5.47-4.71,10.07-9.63,4.49-16.2S842.14,582,834.92,577.4c-27-17.08,28.78-33.93,7.88-50.45-7.66-6.13-18.93-7.33-28-10.18-4.93-1.53-13.14-3.61-13.35-9.85s5.14-11.05,5.91-17.07c.87-7.66-6.9-12.69-13.14-15-4.05-1.53-14.33-2.74-15.1-7.77-.55-3.39,2.41-6.89,4.38-9.3,2.74-3.29,10.18-9.19,8.64-14.23-1.42-4.7-7.87-6.45-12-7-12.37-1.64-25.28.11-37.54,1.09C742.67,437.43,743.55,439.4,744.2,439.4Z"/></g><g id="Neck"><g id="Neck-2" data-name="Neck"><path class="cls-2" d="M610.7,601.69c-6.35,5.25-9.85,13.46-11.38,22s-1,17.19-.55,25.83c.33,6.13.66,12.26,2.08,18.28,1.31,5.8,3.72,11.27,5.14,17a135.29,135.29,0,0,1,2.74,14.55c3.06,18.93,7.11,37.76,11.27,56.47,1.64,7.33,3.28,14.77,4.81,22.1a155.83,155.83,0,0,0,4.38,17c2.52,7.66,6.35,15,11.93,20.58,10.72-9.09,15.21-23.64,20.46-37.1a229.08,229.08,0,0,1,42.68-69.6c7-7.88,14.56-15.1,20.68-23.74s10.73-18.94,10.84-29.88a65.48,65.48,0,0,0-2.08-15.21c-1.1-4.7-2.3-9.63-5-13.46s-6.67-6.46-10.5-8.86c-17-10.51-35.46-18.5-54.83-21.67s-39.61-1.42-57.34,6.89"/><path class="cls-3" d="M610.26,601.47c-13.9,11.93-13.79,30.75-12.69,47.49a118.1,118.1,0,0,0,5.8,29.66c3.28,9.63,4.37,19.81,6.23,29.76,3.62,20.14,8.1,40.06,12.48,60.08,3.61,16.42,6.24,34.25,18.38,46.73.33.33,1.32,1,1.75.66,8.65-7.66,13.25-18.28,17.29-29a287.64,287.64,0,0,1,14-32.07,234.49,234.49,0,0,1,19.92-31.4c7.33-9.63,15.65-18.28,23.74-27.36s15.32-18.93,18.17-30.75c2.63-10.84,1-23.64-3.28-33.92-3.83-9.2-12.7-13.9-21-18.61a165.42,165.42,0,0,0-29.88-13.24c-24.95-8.1-52.42-8.86-76.6,2.3-.44.22,1.86,2,2.63,1.64,21.88-10,46.39-10.51,69.48-4.16a153.83,153.83,0,0,1,32.83,13.57c5.91,3.28,12.7,6.57,17.08,11.82,4.15,4.92,5.47,11.38,6.67,17.51,2.3,11.6,1.42,22.43-3.83,33.05-4.81,9.74-12.15,17.83-19.48,25.71-15,16.09-28.12,33.38-38.41,52.86a287.49,287.49,0,0,0-14,32.06c-4.15,10.62-8.64,21.23-17.4,28.89.55.22,1.21.44,1.76.66-13.14-13.46-15.32-33.71-19.26-51.33-4.16-19-8.54-38-11.82-57.12-1.64-9.3-2.85-18.49-5.58-27.57s-4.82-17.84-5.26-27.47c-.76-16.74-2.62-37.65,10.95-50.12.22.11-.44-.44-.66-.33Z"/></g></g><g id="Coat"><path class="cls-4" d="M648.23,932.53l-81.63-.11c-21.67-58.44-49-162-15.43-271.5a352.39,352.39,0,0,1,16.19-42.68q24.46-15.43,48.81-30.75a70.8,70.8,0,0,0-14.12,24.4c-4.81,14.12-4,26.27-3.61,33.05.55,8.54,1.75,10.29,5.69,28.89,3.5,16.64,3.07,18.06,6.13,33.27,4,20.35,8.21,35.67,10.4,43.66,8.42,30.42,12.69,45.63,18.27,46.62,9.85,1.64,20.9-27.47,29.33-48.59,30.09-75.07,64.23-142.91,67.3-141.82S720.35,681.82,648.23,932.53Z"/><path class="cls-5" d="M570,932l-167.43-.11c-23.85,2.41-34.47,1.42-39.61,0a63.15,63.15,0,0,0-15.87-2.63c-1,0-2.08-.11-5.14,0-11.06.22-15.65.88-20.47.88-5.8.11-15.32.22-19-2.52-14.11-10.5,23.42-86.78,49-139.08C363,765.1,382.21,725.37,406.72,674.6c11.16-8.1,23-16.2,35.56-24.19,10.29-6.56,20.36-12.58,30.1-18.27,1.2-.22,31.29-8.21,37.53-9.41,10.84-2.08,13,.87,19.37-1.75,5.25-2.19,7.88-6,10.51-9.41,6-7.66,25.28-26.49,42.57-31.08,6.34-1.64,18.93-3.4,37.53,6a83,83,0,0,0-34.36,20.68,84.89,84.89,0,0,0-12.15,15.43c-7,11.49-9.63,21.56-12.69,33.7a150.49,150.49,0,0,0-4.93,27.8,138.66,138.66,0,0,0,1.75,32.72c7.23,43,18.39,109.1,17.19,164.36A363.86,363.86,0,0,1,570,932Z"/><path class="cls-6" d="M554.12,596.66c-14,26-41,40.27-66.53,53.18-.33.11.11.44.22.55A152,152,0,0,1,509,673.59a146.84,146.84,0,0,1,8.2,12.25c1.21,2.08,3,4.27,3.73,6.57,1.42,4.05-.66,4.7-3.84,6.89a249.69,249.69,0,0,0-22.54,17.62c-2.95,2.63-8.21,5.91-8.75,10.07s2.19,10,3.5,14a314.41,314.41,0,0,0,24.73,56.69C524.36,816.17,536,834,544,853.6c8.53,21.12,12.58,45.08,4.7,67.08-.22.66,2.85,2,3.07,1.42,11.16-31.29-1.32-64.12-16.53-91.7-8.21-15-17.4-29.55-25.06-44.87a303.66,303.66,0,0,1-18.82-47.27c-1.31-4.38-3.83-9.52-.55-13.57,2.74-3.39,6.68-6.24,10-9a242,242,0,0,1,24.95-18.61c.11,0,.11-.11.11-.22a152.93,152.93,0,0,0-20.9-31.29c-2.3-2.63-4.6-5.15-7-7.55-1.21-1.21-6-4.6-6.24-6-.44-2.63,12-7.55,14.33-8.87,20-11,39-25.17,48.26-46.61a.11.11,0,0,1-.11.11Z"/><path class="cls-6" d="M452,816.83c-4.27,19.48-2.74,39.72-1.53,59.53,1.2,20.9,2.4,41.8,3.83,62.7,0,.66,1.31,1.43,1.31.44-1.09-20.24-2.52-40.38-3.83-60.62-1.53-20.79-2.52-41.37.22-62Z"/><path class="cls-6" d="M449.73,880a210.85,210.85,0,0,0-5.37-23.2c-2-6.89-3.39-14.45-6.56-20.9-.22-.44-1-.11-1,.44,1.21,7.44,4.27,14.66,6.35,21.88s4.16,14.56,6.57,21.78Z"/><path class="cls-6" d="M447.43,882.82c-1.53,8.75-2.85,17.51-4.27,26.37s-3.39,17.62-3.94,26.37c0,.11.44.22.44.11,2.08-8.53,2.84-17.62,4-26.37s2.51-17.62,3.72-26.48Z"/><path class="cls-7" d="M807.24,641a693.29,693.29,0,0,1,72.33,65.23c4.6,4.81,9.19,9.74,12.37,15.75,6.23,11.93,5.9,26.27,6.67,39.84,1.64,27.79,8.65,54.93,13.68,82.18s8.1,55.37,2.08,82.18c-.44,1.86-1,3.83-2.3,5a8.46,8.46,0,0,1-3.61,1.64c-34.8,9.3-71.57-.44-108-.88-36.66-.44-73.54,8.32-110.52,3.5-12.48-1.64-25.17-4.81-37.54-2.19-4.38,1-9.52,2.41-12.91-.65-2.08-1.86-2.74-4.82-3.17-7.55-2.74-18.17,2.29-36.44,8-53.84,5.37-16.53,11.27-32.83,17.18-49.14,8.32-23,16.64-45.85,26.38-68.17,5.25-12.15,11-24.19,14.77-37,2.74-9.3,4.38-18.93,7.55-28.12,4.05-11.49,10.4-21.89,17-32q13.14-19.86,27.8-38.41c4.81-6.13,10.07-12.25,17-15.65,10.29-4.92,23.64-2.29,32,6.46s10.95,22.87,6.46,33.92"/><path class="cls-6" d="M807.24,641.08a671.78,671.78,0,0,1,73.31,66.65c6.24,6.67,11.6,13.57,14.12,22.54,2,7.11,2.52,14.66,2.85,22a374.2,374.2,0,0,0,5.91,50.66c6.23,33.16,15.21,66.43,13.24,100.57-.44,7.77-1,16.3-3.4,23.75-1.64,5-6.67,5.47-11.16,6.34a109.76,109.76,0,0,1-15.87,2.08c-16.3,1.21-32.71-.44-49-2-16.52-1.53-33.05-3.06-49.57-2.41-17.4.66-34.69,2.74-52.09,3.94s-34.69,1.21-52-1.42c-7.66-1.2-15.43-2.52-23.2-2.3a53.47,53.47,0,0,0-8.43,1c-1.53.33-3.06.76-4.59,1-6.13.88-9.3-3-10.29-8.31-3.17-17.18,2.08-35.46,7.33-51.76,5-15.87,10.73-31.52,16.42-47.17,5.91-16.3,11.82-32.61,18.16-48.8,6.24-15.76,13.57-31.08,19.81-47,6.57-17,8.54-35.46,16.52-52,7.77-16,18.5-30.75,29.11-45.09,9.63-13,21.23-33.26,39.84-32.61,20.79.77,32.06,23.53,25.27,41.81-.22.65,1.21,1.64,1.54,1A33.91,33.91,0,0,0,804.5,609c-7.88-8.42-20.9-12-31.63-7.55-6.67,2.74-11.7,8.1-16.19,13.57-5.8,7-11.27,14.34-16.53,21.67-10.28,14.22-21,29-28,45.19-3.39,7.88-5.36,16.09-7.44,24.41a191.5,191.5,0,0,1-9,27.79c-7.23,17.4-15,34.47-21.67,52-6.46,17-12.59,34-18.71,51.1-6.24,17.4-12.92,35-17.18,53.08a105.42,105.42,0,0,0-3.07,26.15c.11,5,.11,12.81,4.38,16.42s10,1.53,14.77.65c10.73-2,21.34.22,32,1.75,37.31,5.59,74.41-2.84,111.72-2.84,36.34,0,73.32,10.29,109.33,1.31,7.22-1.75,7.87-5.47,9.19-12.47a146,146,0,0,0,2.3-27.58c-.11-18.06-2.74-36-6.13-53.73-3.5-18.38-7.77-36.77-10.51-55.26-1.31-9.08-2.19-18.28-2.73-27.47-.44-8.32-.66-16.85-2.74-25-3.94-15.54-16.19-26.26-27.14-37.1-13-12.8-26.48-25.17-40.38-37-7-5.91-14.11-11.6-21.34-17.18-.54-.11-.76,0-.54.1Z"/><path class="cls-6" d="M751.43,789.47c1.31,8.87,8.09,15.43,14.22,21.34A77,77,0,0,1,779.33,828a150.12,150.12,0,0,0,10.07,16c7.33,10,16.3,18.49,25.71,26.59,5.15,4.49,10.51,8.76,15.76,13.13,6.35,5.15,12.59,11.38,19.59,15.65.77.44-.22-1.75-.44-2-9-9-19.8-16.41-29.54-24.51s-19.59-16.63-27.69-26.59c-7.44-9.09-11.93-20.14-19.37-29.22-7.55-9.3-18.38-15.54-21.88-27.69,0,.11-.11-.11-.11.11Z"/><path class="cls-6" d="M816.1,869.14c-2.74-7-2.74-14.56-2.74-22a170.63,170.63,0,0,1,2.3-25.82,190.74,190.74,0,0,1,14-45.53c.22-.54-1.75-1.31-2-.76a167.66,167.66,0,0,0-13.79,48.69c-1.86,14.34-3.83,31.85,2.19,45.42Z"/><path class="cls-6" d="M755,794.29c-1.86,39.61-32.72,71.57-59.75,97.61.65.88,1.31,1.75,2,2.63a115.56,115.56,0,0,1,9.3-28.89c.33-.77-1.75-3.18-2.08-2.41a127.05,127.05,0,0,0-9.3,28.89c-.11.55,1.42,3.17,2,2.62,14.88-14.44,29.22-30.09,40.71-47.38,10.39-15.65,18.27-33.59,17.4-52.63,0-.22-.22-.55-.22-.44Z"/><path class="cls-6" d="M698.24,890.26c-1.2.11-.87-.11-1.64,1a.21.21,0,0,0,0,.33c9.3,16.74,19.37,36.11,35.57,47.28.76.54,3.17-.44,2.29-1.43-6.56-7.44-14-13.89-19.91-22.1-3-4.05-5.58-8.32-8.21-12.59a53.69,53.69,0,0,0-3.94-6.23c-.22-.44-4.81-6-4.16-6.24Z"/><path class="cls-6" d="M790.37,666.58c1.53,2.19,6,7,4.49,9.52-1.1,1.86-5.48,3.61-7.23,5a69.64,69.64,0,0,0-7.77,7.33c-1.64,1.86-4.7,4.48-5.47,6.89-1.31,4.27,3.72,10.07,5.91,13.24a138.47,138.47,0,0,0,11.6,14.89,32.16,32.16,0,0,1,2.63,2.84c2.4,3.72,1.75,3.5-.22,6.24-2.19,3.06-4.49,6.13-6.68,9.19-4.48,6.13-8.75,12.37-13.13,18.6-8.75,12.7-18.27,25.61-25.61,39.18-.21.33,1.76,1.86,1.87,1.64,8.75-11.49,16.3-24.18,24.51-36,3.94-5.69,7.88-11.38,11.93-17,2-2.85,4-5.58,6-8.43,1.54-2.08,5.26-5.47,5.59-8.1.43-3.28-5-7.22-6.79-9.19a122.3,122.3,0,0,1-12.69-17.18c-2-3.28-4.38-6.13-2.3-9.85,1.42-2.52,3.83-4.81,5.69-6.89a76,76,0,0,1,15.1-12v-.11c-2.3-3.28-4.81-6.46-7.22-9.63,0-.11-.33-.33-.22-.22Z"/><path class="cls-6" d="M701.09,896.61c-8.76,9-13.46,20.9-21.12,30.64-.44.54.65,1,1,.54,7.77-9.63,12.81-21.23,20.14-31.18Z"/><path class="cls-2" d="M596.36,463a53.8,53.8,0,0,0-10.06-20.9c-.77-1-1.87-2.08-3-1.75-1.42.33-1.64,2.19-1.64,3.72,0,7.77,0,15.43.77,23.2a81,81,0,0,1,.76,10.18c-.11,5.14-1.53,10.06-1.75,15.21s1,10.83,4.92,14.11c3.18-13,6.35-25.93,9.53-38.95.76-3,1.42-6.13.54-9.09"/><path class="cls-3" d="M596.69,463a39.39,39.39,0,0,0-4.6-13.46c-1.42-2.74-4-8.43-7.33-9.19-3.83-.88-4,3.17-4,6-.11,5.58,0,11.27.33,16.85s1.43,10.83,1,16.3c-.66,9.31-4.6,19.92,3.17,27.36a3.71,3.71,0,0,0,2.19-.33c2-8.2,3.94-16.41,6-24.62,1.75-7.22,5.47-16,3.94-23.42,0-.21-2,.11-2,.33,1.31,7.55-2.41,16.2-4.16,23.42-2,8.21-3.94,16.42-6,24.62l2.19-.33c-5.58-5.25-5.25-12.8-4.27-19.8,1.31-8.65.44-16.31-.11-25-.33-4.6-.33-9.09-.44-13.68,0-2.52-1.09-8.65,2.74-5.8,2.52,1.86,4.38,6.35,5.8,9.08a98.86,98.86,0,0,1,4.82,11.71c.1.11.76-.11.76-.11Z"/><path class="cls-3" d="M593.08,465.45c-3.06-.44-4.6,3.28-5.8,5.58-1.75,3.28-2.85,7-1.31,10.61,0,.11.43.44.43.22a16,16,0,0,1,1-9.3c.87-2.41,2.74-6.89,5.69-7.11Z"/><path class="cls-3" d="M589.14,471.8a10.73,10.73,0,0,1,2.52,5.25c0,.11.33.54.33.33a11.86,11.86,0,0,0-2.85-5.58Z"/></g><g id="Face"><path id="face_main" data-name="face main" class="cls-8" d="M773.53,536.47a122.26,122.26,0,0,1-6.13,23.2c-2.95,7.77-6,12.91-11.38,21.88-3.61,6-6.89,11-13.57,20.69-9.52,14.11-14.44,21.23-18.82,26.15s-8.53,8.65-16.74,16.2c-9.08,8.31-13.68,12.47-17.84,15.1-1.42.87-16.74,10.39-29.66,9.19-29.32-2.63-48.47-59.31-57.67-86.67a262,262,0,0,1-11.38-52.85c-1.31-11.71-2.4-22.77-.32-36.55,1-6.9,2.84-15,4.15-20.36,2.63-11.16,3.94-14.55,5.26-20.35,4.7-20.25.22-28.13,2.84-36.55,6.24-19.92,47-24,75.4-20.79,54.93,6.12,111.51,44.32,110.31,72.77-.44,11.16-9.31,14.11-12,36C774.3,515.9,776.38,520.27,773.53,536.47Z"/><path d="M661,492.7c-.11-3.4-9.74-4.82-12.59-5.26a58.47,58.47,0,0,0-13.79-.54c-3.28.22-27.14,1.75-25.71,8.75.11.66,4.37.33,4.92.11,2.52-1.2,4.38-3.28,6.9-4.6,3.5-1.64,7.66-2.18,11.49-2.73,4.59-.66,9-1,13.57.11s8.75,3.06,13.24,4.16c.11.11,2,.22,2,0Z"/><path d="M710.5,501c18.38-2.51,35.56.77,49.9,13,2.41,2.07,3.28,1,1-1.21-14.22-13.24-36.22-22.43-55.7-16.63-1.2.44,3.18,5,4.82,4.81Z"/><path class="cls-9" d="M646.26,505.72a6.35,6.35,0,0,1-6.45,6.56,7.15,7.15,0,0,1-6.57-7.11,6.29,6.29,0,0,1,6.46-6.56A7.14,7.14,0,0,1,646.26,505.72Z"/><path class="cls-9" d="M741.36,516.55c0,4.05-3.07,7.22-6.79,7a7.56,7.56,0,0,1-6.89-7.66c0-4,3.06-7.23,6.78-7A7.56,7.56,0,0,1,741.36,516.55Z"/><g id="Lips"><path d="M703.5,608.26c.21,3.5-17.84,10.39-36,9.3-20.35-1.1-39.39-12-38.41-16.64,1.1-5,27.58-3.39,38.41-2.08,7,.77,13,2.41,25.06,5.37C702.18,606.72,703.39,607.38,703.5,608.26Z"/><path class="cls-10" d="M706.56,607.6c-.11.87-12.58-1.64-39-4.38-26.59-2.73-39-2.62-39-3.5s18.94-3.06,40.6-.77C689.6,601.14,706.78,606.61,706.56,607.6Z"/><path class="cls-10" d="M706.56,608.58h0c0,.22-12.48,3.72-24.18,5a99.88,99.88,0,0,1-18.61.33c-21.88-2-35.13-13.57-36-12.26-1,1.53,13.24,19.59,34.25,21.78,13.9,1.42,29.33-4.38,35.79-9.09C697.7,614.27,705.9,608.15,706.56,608.58Z"/></g><path class="cls-3" d="M673.07,516.22c-3.83,9.41-8,18.94-12.25,28.24-2.52,5.36-7.33,11.16-8.1,17.07-2.08,17.29,23.09,24.18,32.39,11.05.55-.77-1.09-.77-1.42-.44-4.49,4.6-10,7.88-16.63,5.69a16.63,16.63,0,0,1-9.63-8.64c-3.18-6.68-.22-11.49,3-17.18,6.35-11.27,9.74-23.2,12.69-35.79Z"/><path class="cls-3" d="M680.62,559.67c2.74.55,5.48-.44,8.21.33a6.75,6.75,0,0,1,4,2.84c.88,1.42.55,3.17,1.53,4.38.44.55,1.64-.22,1.86-.66,1.86-3.17-1.53-6.89-4.48-7.88-3.4-1.09-7.66-.43-10.95.77-.11,0-.43.22-.22.22Z"/><path class="cls-3" d="M650.31,560.11c-2.84-2.3-8.1-2.41-10.83.32-2.19,2.19.11,5.8,2.62,6.57.77.22-1-2.3-1.75-2.52,1.21.44.33.55.77-.76a2.65,2.65,0,0,1,.66-.88,6.22,6.22,0,0,1,2.62-1.42,10.51,10.51,0,0,1,6.35-.66c.22,0-.33-.65-.44-.65Z"/><path d="M795.09,454.4c-5.69-19.15-21.45-31.08-38.08-40.49-17.73-10.07-35.9-20-55.37-26.6-19.92-6.67-39.4-7.22-60.08-4.48-17.62,2.41-35.9,4.7-49.57,17.29-2.85,2.51-2.52,8.64,1.31,10.17,8.64,3.73,15.32.44,22.87-4.15a89.26,89.26,0,0,1,23.64-10.4c18.93-4.7,38.41,1.2,56.57,6.46,8.1,2.4,11.49-10.18,3.5-12.59-17.5-5.14-35.78-10.39-54.16-8.1a81.66,81.66,0,0,0-23.31,6.68,105.91,105.91,0,0,0-11.06,5.69c-2.51,1.53-8.31,6.46-11.38,5.14l1.32,10.18c11.71-10.61,29.22-12,44.1-13.9,18.27-2.3,35.34-1.31,52.85,4.49,17.18,5.69,33,14.55,48.81,23.31,14.66,8.21,30.53,17.51,35.56,34.58,2.3,8.21,14.89,4.81,12.48-3.28Z"/></g><g id="Phone"><path class="cls-8" d="M748.36,744.93c.44,4.27-.33,3.83-.33,12.59,0,21.78,4.71,36.55,6,43.22,6.13,30.54-22.21,73.87-35.67,71.13-15.54-3.06-15.21-67.73-23.64-127.7-.22-1.53-.55-7.44-1.2-19.37-.44-8.65-.66-13.46,1.86-18.49.87-1.65,2.84-5.7,6.13-7.34C713.56,693,745.41,717.36,748.36,744.93Z"/><path class="cls-11" d="M710.5,708.38c-4.27-.87-8.43-1.75-12.69-2.51-7.34-3.61-11.6-10.73-10.73-17.07a13.18,13.18,0,0,1,4.16-7.66,310.91,310.91,0,0,0,62.59-86.24,332.55,332.55,0,0,0,30.86-99.25,15.74,15.74,0,0,1,2.63-.55,32.85,32.85,0,0,1,3.61-.22c2.3,0,7,1.1,12.48,3.94a293.24,293.24,0,0,1-18.28,104A269.45,269.45,0,0,1,726,696.57a21.49,21.49,0,0,1-7.33,8.75A17.71,17.71,0,0,1,710.5,708.38Z"/><path class="cls-3" d="M791.37,585.17c3.61.54,7.44,1.42,9.19,5,.55,1.09,2.52.33,2-.77-2.08-4.26-6.46-5.47-10.83-6.13a1,1,0,1,0-.33,1.87Z"/><path class="cls-3" d="M725.05,694.05a4.78,4.78,0,0,0,.66-.77s-.11-.11-.11,0a3.34,3.34,0,0,0-.55.77c-.11,0-.11.11,0,0Z"/><path class="cls-8" d="M762.81,634.08c-4.38-7.88-17-8-18.06-8-17.4.11-31.62,18.5-29.11,23.53,1.1,2.3,6.13,2.3,8.76,1.75,8.31-1.53,11.27-10.18,14.33-8.86,2.63,1.2,2.19,8.75,2.19,9.3-.44,5.69-2.84,8.32-5.47,14.33-3.06,6.79-2.19,8.54-4.49,15.11-4.05,11.6-9.85,14.66-12.91,20.57-9.85,19,12.47,59.31,24.18,57.67,6.57-.88,3.62-14.34,16.53-38,12.36-22.66,26-30.64,22.65-40.82-2.52-7.33-11.27-7.66-14.55-18.82-.55-2-1-5.69-1.75-13C763.68,637.91,764.12,636.49,762.81,634.08Z"/><path class="cls-8" d="M805.48,577.94c0,11.71-3.06,21.12-6.89,21s-7-9.74-7.11-21.55,3.06-21.12,6.89-21S805.48,566.23,805.48,577.94Z"/><path class="cls-8" d="M817.3,620c.33,4.38-1.75,7.77-5.14,12.7-12,17.84-14.12,18.38-18.82,26.7-4.6,8.1-7.33,13-9.63,20.79-1.53,5.36-1.86,8.76-4.82,11.27-4.26,3.72-13,4.27-16.3.33-8-9.74,10.5-52,27-68.28,1.2-1.21,6.67-6.46,5.25-10.4s-8.64-2.3-13-8.75c-1.64-2.41-1.86-4.49-4.49-6.9-1.2-1.09-2.3-1.64-5.25-2.84-8.87-3.61-9.74-3.29-11.49-4.93-2.85-2.73-4.82-8-3.28-10.72,2.84-5,16.85-.44,19.91.54,4.27,1.43,7.11,3,12.91,6,6.46,3.51,9.63,5.26,12.48,8.21,2.08,2.19,1.86,2.63,7.66,12.48S817.08,617.12,817.3,620Z"/><path class="cls-8" d="M790.16,634.19c-5.25,25.94-10.06,50.12-15.75,49.35-4.82-.65-11.6-20-9.85-37.2.55-5.58,2.3-12.81-1.53-16.75-.88-.87-2.52-2.08-8.43-2.51-12.58-.88-19.59,3.83-21.12,1.53-1.31-2.08,3.5-8.1,6.35-11.71,2.29-2.84,3.61-4.49,5.58-5.91,3.61-2.63,7.77-3.17,25.71-.77,14.34,2,16.2,2.85,17.73,4.71C792.79,619.64,791.59,626.86,790.16,634.19Z"/><path class="cls-2" d="M757.12,677.09c.54,0,2.29-1.1,1.2-1.1-.55,0-2.3,1.1-1.2,1.1Z"/><path class="cls-2" d="M760.73,678.4a3.72,3.72,0,0,0,3.39.55c1.09-.44,0-2.3-1-2a1.55,1.55,0,0,1-1.54-.11c-.43-.22-1-.44-1.31,0a1.54,1.54,0,0,0,.44,1.53Z"/><path class="cls-2" d="M766.64,682.67a12.67,12.67,0,0,0,1.64-10.84c-1.31-5-9.52-6.78-11.93-1.53s-4.27,13.13-1,18.61a8.3,8.3,0,0,0,4.37,3.61c2.08.54-3.39-2.08.66.54a9.18,9.18,0,0,0,4.7,1.54c.66.11,3.73.65,1.65-.33-1-2.41-2-4.93-3-7.33-.22.65-.33,1.31-.55,1.86-1.53,5.14,3.4,8.75,8,8a8.59,8.59,0,0,0,4.82-2.73c5.8-6-3.39-15.21-9.19-9.19a6.57,6.57,0,0,0,.87-.66l8,8c.22-.66.33-1.31.55-1.86.76-2.52-.44-6.24-3-7.33-1.64-.77-5.14-2.3-7-1.43-1.1,0-.55.11,1.42.55a15.51,15.51,0,0,0-1.64-1.2,10.86,10.86,0,0,0-3-1.1c1,.55,2,1.1,2.84,1.64-.22-.21-.33-.43-.55-.54.55,1,1.1,2,1.64,2.84a10.36,10.36,0,0,1,.33-7c-3.94-.55-8-1-11.93-1.53.22.65.77-.66-.32.87-2.08,2.85-.55,7.22,2.29,8.87a6.86,6.86,0,0,0,9.2-2.3Z"/><path class="cls-2" d="M763,683.65c1.75,3.61,6.34,4.49,9.74,3.07a7.74,7.74,0,0,0,3.83-3.4,19.54,19.54,0,0,0,1.31-3.5c-.22.55-.44,1-.66,1.53a1.8,1.8,0,0,1,.44-.76l-1,1.31.44-.44-1.31,1a2.4,2.4,0,0,1,.55-.33c-.55.22-1,.44-1.54.66a1,1,0,0,1,.55-.11l-8.21-6.24c0,.44.11,1,.11,1.42l12.15-3.28c0-.11-.11-.22-.11-.33.22.55.44,1,.66,1.53-.11-.21-.11-.43-.22-.65a3.84,3.84,0,0,0,.53,1.75v-1a3.84,3.84,0,0,0-.53,1.75A1.57,1.57,0,0,1,780,677a6.74,6.74,0,0,0-.66-5,6.4,6.4,0,0,0-3.94-3,6.73,6.73,0,0,0-5,.66,7.17,7.17,0,0,0-3,3.94c-1,2.4-.33,5.25.77,7.55a6.55,6.55,0,0,0,7.33,3,6.7,6.7,0,0,0,2.85-1.64,6,6,0,0,0,1.86-4.6c0-.43-.11-1-.11-1.42a7.07,7.07,0,0,0-2.52-5.14,7,7,0,0,0-5.69-1.21c-2.3.33-4.27,2.08-5.58,3.94a30.42,30.42,0,0,0-1.64,4.05c.22-.55.44-1,.65-1.53-.11.22-.11.33-.32.44l1-1.32-.11.11,1.31-1c-.1.11-.21.22-.32.22.54-.22,1-.44,1.53-.66-.11.11-.22.11-.44.11.55-.11,1.2-.11,1.75-.19h-.44a1.89,1.89,0,0,1,1.75,1.09h-.21c.54-.68,1-.46,1.53-.24-.11,0-.22-.11-.33-.22l1.31,1-.11-.11,1,1.32c0-.11-.11-.11-.11-.22a6.07,6.07,0,0,0-3.94-3,6.78,6.78,0,0,0-5,.66,7,7,0,0,0-2.08,9.08Z"/><path class="cls-2" d="M784.36,673a32.81,32.81,0,0,1,1.54-9,6.55,6.55,0,0,0-4.6-8,6.64,6.64,0,0,0-8,4.59,53.27,53.27,0,0,0-2,12.37,6.66,6.66,0,0,0,6.57,6.56,6.85,6.85,0,0,0,6.45-6.56Z"/><path class="cls-2" d="M740.37,755.66a80.82,80.82,0,0,1-16.74-32.83c-4.16,1.2-8.43,2.3-12.58,3.5a98.42,98.42,0,0,0,20.35,36.33c4.92,5.58,14-1.64,10.18-7.88-4.16-6.89-10.07-11.92-15.32-17.72-2.41-2.63-5.15-5.8-5.91-9.42-1.1-4.48.33-9.95.76-14.44.77-8.32-12.36-8.32-13,0-.87,10.5-1.64,19,4.82,28,5.25,7.23,12.91,12.59,17.51,20.25l10.17-7.88a82.71,82.71,0,0,1-17-30.64c-2.52-8-14.66-4.71-12.58,3.5A95.8,95.8,0,0,0,731.18,765c5.47,6.35,14.67-3,9.19-9.3Z"/><path class="cls-11" d="M790.82,504.51a42.39,42.39,0,0,0-1.2,11.17,5.47,5.47,0,1,0,10.94,0,29.28,29.28,0,0,1,.77-8.21,5.61,5.61,0,0,0-3.83-6.79,5.53,5.53,0,0,0-6.68,3.83Z"/><path class="cls-12" d="M308.45,929.79,64.2,929.46,49.87,403.32q93.06-4.6,184.06-9.08Q271.85,666.22,308.45,929.79Z"/><path class="cls-13" d="M308.45,929.87c-19.81-.65-39.72-1.42-59.64-2.08q-37.59-261-76.38-530.3c20.57-1,41-2,61.5-3.06Q271.85,666.24,308.45,929.87Z"/></g><path class="cls-14" d="M930,61V937H54V61H930m22-22H32V959H952V39Z"/></g></g><g id="Speech"><path class="cls-15" d="M245.23,26.63l339.36-.19s67.26-5.05,111.17,38c43.61,42.76,42.38,104.49-2.59,147.08S582,249.67,582,249.67L336.67,251.2a569.69,569.69,0,0,0,74.13,88.59c62.1,60.61,121.91,91.39,118.75,94s-65.39-26.29-134.36-69.94A1128.11,1128.11,0,0,1,246.7,251.76c-10.07.11-71.72.05-113.51-36.43-46-40.12-48.87-107.33-1.89-150C172.66,27.73,233.33,26.65,245.23,26.63Z"/><text class="cls-16" transform="translate(169.95 85.23)">My schedule is booked, <tspan x="34.53" y="43">but I have found an </tspan><tspan x="-30.72" y="86">appointment for you to be </tspan><tspan x="-26.57" y="129">seen by another provider.</tspan></text></g></svg>