<?xml version="1.0" encoding="UTF-8"?>
<svg xmlns="http://www.w3.org/2000/svg" onmouseup="{ if(window.parent.document.onmouseup) window.parent.document.onmouseup(arguments[0]);}" viewBox="0 0 960 960" data-name="Layer 1" id="Layer_1"><defs><style>.cls-1{fill:#ffe3fd;}.cls-2{fill:#855914;}.cls-14,.cls-15,.cls-2,.cls-3,.cls-4{stroke:#999;}.cls-10,.cls-11,.cls-12,.cls-14,.cls-15,.cls-2,.cls-3,.cls-4{stroke-miterlimit:1;}.cls-2,.cls-4{stroke-width:1.02px;}.cls-3{fill:#1c1c1b;stroke-width:0.96px;}.cls-4{fill:#603e11;}.cls-5{fill:#666;}.cls-6{fill:#4d4d4d;}.cls-7{fill:#333;}.cls-8{fill:#87827c;}.cls-9{fill:#afaca8;}.cls-10{fill:#926d5a;}.cls-10,.cls-12{stroke:#b5917c;}.cls-10,.cls-11,.cls-12,.cls-15{stroke-width:0.92px;}.cls-11,.cls-12,.cls-24{fill:none;}.cls-11{stroke:#cf9e76;}.cls-13{fill:#9c7761;}.cls-14,.cls-15{fill:#e6e6e6;}.cls-14{stroke-width:0.99px;}.cls-16{opacity:0.56;}.cls-17,.cls-26{fill:#f2f2f2;}.cls-18{fill:#c1272d;}.cls-19{font-size:25.52px;fill:#fff;}.cls-19,.cls-27{font-family:MyriadPro-Regular, Myriad Pro;}.cls-20{letter-spacing:0.01em;}.cls-21{letter-spacing:-0.04em;}.cls-22{letter-spacing:-0.07em;}.cls-23{letter-spacing:-0.01em;}.cls-24{stroke:#000;stroke-miterlimit:10;}.cls-25{fill:blue;}.cls-26{opacity:0.77;}.cls-27{font-size:33.68px;}.cls-28{letter-spacing:0em;}.cls-29{letter-spacing:-0.01em;}</style></defs><title>Scenario 2</title><g id="Panel_2_Background" data-name="Panel 2 Background"><rect class="cls-1" x="27" y="50.72" width="893" height="879.55"/><g id="Appointments"><path class="cls-2" d="M541.92,809.13l-229.4,40.66L651.25,905l257.39-29.49V844.05Z"/><path class="cls-3" d="M649.2,905.08q.27,10.84.56,21.67l258.92-27.93V875.68Z"/><path class="cls-4" d="M653.08,926.75,340.66,876q-2.43-12.21-4.85-24.42l317.88,52.68Q653.38,915.52,653.08,926.75Z"/><path id="stand" class="cls-5" d="M761.26,842.68c-133.81-8.12-161.13-11.54-161.06-13.15.1-2.41,61.29-11.69,80.53-12.22a25.82,25.82,0,0,0,13.58-3.75A24.21,24.21,0,0,0,703,803.22,29.06,29.06,0,0,0,706,792a37.74,37.74,0,0,0-4.36-20.19H811.23A96.71,96.71,0,0,1,815.35,788a78.62,78.62,0,0,1,1.21,13.35c-.06,7.51-.18,21.86-9.22,29.59-3,2.54-5.19,2.91-22.31,6.58C774.41,839.79,766,841.63,761.26,842.68Z"/><path id="keyboard_side" data-name="keyboard side" class="cls-6" d="M757.38,853l-65,10.33,60.55-27.46Q755.14,844.45,757.38,853Z"/><path id="keyboard_top" data-name="keyboard top" class="cls-7" d="M692.06,863.79c-10-1.25-26.58-3.36-47.23-6.08-23.26-3.08-39.59-5.35-41.72-5.64-22.11-3-68.64-3.1-176.45,10.12l-25-50L754.47,837q-7.22,3.3-14.56,6.58Q715.66,854.41,692.06,863.79Z"/><path id="computer_side" data-name="computer side" class="cls-8" d="M905.09,792.56l-10.87.48c-5.9.26-10.54-3.49-10.27-8.33l20.76-379c.24-4.42,5-7.14,10.57-6.05l10.24,2c5.44,1.06,9.69,5.48,9.47,9.82L916,783.45C915.76,788.2,910.87,792.3,905.09,792.56Z"/><path id="Front" class="cls-9" d="M890.11,792.26,489.4,767.15a9.18,9.18,0,0,1-8.8-9.43L501,415c.29-4.8,4.7-8.75,9.81-8.78L910.14,404c5.93,0,10.57,4.18,10.3,9.36l-19,370C901.15,788.64,896.06,792.64,890.11,792.26Z"/><path d="M904.85,416.58l-15,285L498.68,686.61l16.66-265.12,389.51-4.91m5.74-15.78h-.16l-400.26,5.05a11.16,11.16,0,0,0-6.91,2.7,9.33,9.33,0,0,0-3.23,6.24l-17.48,278a8.74,8.74,0,0,0,5.37,8.46,10,10,0,0,0,3.7.85L893.69,717.4h.49c5.86,0,10.79-4,11.06-9.19l15.68-298.11c.27-5.15-4.37-9.31-10.33-9.31Z"/><path class="cls-10" d="M417.31,846c-.71,3.25-1.9,4.34-2.91,4.7-3.13,1.11-6.43-4-10.68-2.82-1.56.44-9.89,3-10.19,3.16-7.21,2.74-6.51,1.2-17,4.36-2.92.88-6.15,1.52-12.62,2.82a8.78,8.78,0,0,1-4.85,0c-1.75-.63-2.39-1.73-4.85-2.82a14.57,14.57,0,0,0-2.91-.94c-.91,1-1.87,1.89-2.91,2.82-8.81,7.87-19,11.45-27.17,13.15L330,845c5.59-5.41,9.65-9.81,12.39-12.91a23.24,23.24,0,0,1,4.11-4c3-2.18,6.2-3,12.61-4.7,1.54-.4,4.46.87,6.79-.94,0,0,.64-.52,7.76-3.76h0c4.73-2.21,8.4.62,17.47.94,7.34.27,13.39.15,17.46,0Q412.94,832.82,417.31,846Z"/><path class="cls-10" d="M635.61,879.78A21.82,21.82,0,0,1,624,883.54c-5.18,0-7.26-2.14-11.64-.94-3.56,1-3.51,2.75-7.77,4.69-1,.48-4.27,1.85-11.64,1.88-7,0-10.78-1.18-15.52-1.88-11.64-1.7-12.78,2.18-27.17,1.88-9.09-.19-9.89-1.76-21.35-2.81a131.45,131.45,0,0,0-24.25,0l31-61.06a64.93,64.93,0,0,0,15.52,11.27c5.49,2.85,9.77,5.08,15.52,5.64,2.48.24,4.46.92,6.92.64,1.6-.19,1.79-.45,7.64-2.52a71.34,71.34,0,0,1,8.73-2.82,19.69,19.69,0,0,0,3.88-.94,42.77,42.77,0,0,0,3.88-1.88,38.75,38.75,0,0,0,3.88-1.88c1.05-.66,1.54-1.12,2.91-1.88,0,0,.89-.48,1.94-.94,4.13-1.77,8.39-4,12.62-2.81,1.76.51,4.31,1.75,6.79,1.88,1,.05,3.65,0,3.88,0a7.34,7.34,0,0,0,1.1-.07,15.74,15.74,0,0,1,2.75-.87c2.28-.24,2.7,1.07,6.82,1.87,4.77.94,5.29-.74,9.7,0,4.7.8,3.71,2.63,8.74,3.76,2.94.67,10.43,1.65,11.64,2.82l1,.94,1,.94a29.5,29.5,0,0,1,3.88,4.7c2,3.17.95,3.76,2.91,6.57,1.49,2.13,2.24,2,2.91,3.76.59,1.53.16,2,1,4.7.13.4.41,1.2,1,2.81a24,24,0,0,1,1,2.82c.09.52.57,3.35-1,4.7-.45.39-.88.49-1,.94-.13.68.72,1,1,1.88.41,1.42-1,3-1.94,3.75a3.72,3.72,0,0,1-1.94.94,3.94,3.94,0,0,1-2.91-.94c-1.16-.93-.76-1.58-1.94-2.81-.85-.89-1-.5-2.91-1.88-1.48-1.08-1.83-1.63-2.91-1.88a4.62,4.62,0,0,0-1.94,0,14.9,14.9,0,0,0-4.85,1.88c-2.63,1.34-3.12.61-6.79,1.88a30.33,30.33,0,0,0-5.83,2.81C647.39,876.66,642.91,878.57,635.61,879.78Z"/><path class="cls-11" d="M655.51,832.41a22.8,22.8,0,0,0-6.79,1.38,21.74,21.74,0,0,1-2.23.77,15.29,15.29,0,0,1-2.63.37"/><path class="cls-12" d="M661.81,853.48a39.72,39.72,0,0,1,7.76-.94h1.68a2.4,2.4,0,0,0-.06,2.3,9.68,9.68,0,0,0,5.79,5.65,1.72,1.72,0,0,1,1,.46,1.4,1.4,0,0,1,.26.94"/><path class="cls-12" d="M682.66,868.91a20.06,20.06,0,0,0-6.55-8.15,26.56,26.56,0,0,1-4.2-3.22c-1.12-1.23-1.14-1.54-1.79-2.14-1.51-1.38-3.81-1.62-9.28-1a90.94,90.94,0,0,0-10.68,1.88"/><path class="cls-12" d="M671.05,837.75a27.17,27.17,0,0,0-4.69-.28,12.54,12.54,0,0,0-3.46.3,14.31,14.31,0,0,0-2,.81,56.93,56.93,0,0,1-7,2.37"/><path id="back_neck" data-name="back neck" class="cls-13" d="M304.27,475.39a125.32,125.32,0,0,0-47.54-35.69,129.48,129.48,0,0,0-55.3-10.34q-1-11.73-1.94-23.48l87.32,3.76Z"/><path id="side_face" data-name="side face" class="cls-13" d="M341.57,436h0c-1.09,5.59-2.2,10.4-3.15,14.23-2.06,8.32-3.06,10.77-5.25,13.21a17.11,17.11,0,0,1-7.35,5.09c-2.42.75-3.41.32-7,1.28a35,35,0,0,0-6.69,2.62c-4.51,2.19-6.85,4.27-8.84,4.89-11.4,3.56-50.63-33.23-48.51-78,1.63-34.43,27.56-74.13,56.27-73.27,23.14.69,43.85,27.6,43.67,32.87a8.7,8.7,0,0,0,1,4.7c1.09,2.05,2.94,3,3.88,3.76,5.3,4.21.22,18.73-.16,19.78-1.53,4.28-2.55,5.05-4.61,8.34,0,0-1,1.58-2.74,4.88-2.95,5.66-5,14.84-6.3,20.33C344.88,424.39,343.53,429.62,341.57,436Z"/><g id="eyelash"><path d="M356,363.34a11.28,11.28,0,0,0,12.53,2c1.51-.71,2.84-1.81,4.35-2.52a11.26,11.26,0,0,1-12.53-2c-.37-.35-4,2.81-4.35,2.51Z"/></g><path id="Forehead" class="cls-13" d="M365.4,330.73a16,16,0,0,0,0,4.7c.34,2.34.93,2.79,1,4.7,0,1.57-.36,2.16-1,4.69-.69,2.88-.35,2.78-1,5.64-.78,3.62-1.49,6.74-3.88,9.39-.35.39-.88.89-1.94,1.88-2.57,2.4-3.85,3.61-4.37,3.76-3.17.94-15.63-14.27-18.92-34.76-4-24.94,5-52.5,12.61-52.6C357.91,278,366.24,324.74,365.4,330.73Z"/><g id="eyebrow"><path d="M365.55,339.49a7.59,7.59,0,0,0-4.62,3.28,2.57,2.57,0,0,0,0,.67c0,.55,0,1.09,0,1.64s0,1.08,0,1.63a2.62,2.62,0,0,1,0,.68,7.59,7.59,0,0,1,4.62-3.28,17.52,17.52,0,0,0,0-2.31,22.61,22.61,0,0,1,0-2.31Z"/><path d="M364.92,344.32a3.64,3.64,0,0,1,1.29-.47,21.75,21.75,0,0,0,0-2.31c0-.17-.07-2.3,0-2.31a3.64,3.64,0,0,0-1.29.47,4.1,4.1,0,0,0,0,.68c0,.54,0,1.09,0,1.63s0,1.09,0,1.63a5.45,5.45,0,0,1,0,.68Z"/></g><path id="Back" class="cls-14" d="M366.85,930.5h-326c37.6-44.35,43.38-77.8,42.69-98.63,0-.83-1-10.57-2.91-30.06-5.28-53.47-6.73-63-8.73-73.26-2.93-15-4.09-16.22-6.79-31.94-3.08-17.88-4.33-32.15-4.85-39.45a378.88,378.88,0,0,1,1-66.7C65.07,555.3,67,537.72,78.69,521c13.56-19.45,32.79-29.13,44.63-33.82a96.18,96.18,0,0,1,23.29-16,103.35,103.35,0,0,1,33-9.4c14.38-1.71,19,.81,50.45,4.7,31.2,3.86,29.48,1.81,42.69,4.7,15.5,3.39,23.86,7.38,47.54,17.84,14.15,6.26,35.3,15.42,62.1,26.3,4.72,191.27.31,257.93-7.76,263A93.56,93.56,0,0,0,362,787.72a110.07,110.07,0,0,0-11.64,12.22C342.67,809.59,343.29,862.56,366.85,930.5Z"/><path id="Collar" class="cls-15" d="M307.67,483.38a249,249,0,0,0-30.08-9.4,273.5,273.5,0,0,0-32-5.63,317.42,317.42,0,0,0-45.6-1.88,422.3,422.3,0,0,0-49.48,3.76,102.62,102.62,0,0,0,12.61-14.09,99.8,99.8,0,0,0,13.58-25.37,178.16,178.16,0,0,1,90.24,13.15,51.89,51.89,0,0,0,10.67,16.91A75.93,75.93,0,0,0,293.11,473a91.48,91.48,0,0,1,8.74,5.64C304.39,480.55,306.37,482.23,307.67,483.38Z"/><path class="cls-14" d="M535.68,823.42a87.83,87.83,0,0,1-8.74,41.33,91,91,0,0,1-27.16,32.88c-2.75-1.1-58.32-23.66-84.41-53.54a177.11,177.11,0,0,1-16.5-22.55c-7.28-12.16-10.59-21.6-13.58-29.12-8-20-14.92-29.48-25.23-47.91-10.16-18.14-24.58-46.75-42.69-92-3.35-7.7-15.42-38-2.91-73.27,15.82-44.61,58.07-60.77,64-62.94A37.89,37.89,0,0,1,394,521.89c9.52,6.23,12.93,15.32,16.49,24.42,20,51.14,26,54.1,23.29,66.7-.84,3.9-3.1,11.49-2.91,22.54a79.23,79.23,0,0,0,1.94,16c6.71,30.74,28.21,78.61,35.9,86.42.67.68,3,2.82,2.91,5.64-.05,2-1.21,2.48-1.94,5.63-.34,1.48-.84,3.62,0,5.64s2.4,2.77,3.88,3.75c3.79,2.54,2.47,3.11,11.09,12.16,3,3.1,3.52,3.45,5.4,5.69a63.18,63.18,0,0,1,4.86,6.58C497.39,786.84,508,797.81,535.68,823.42Z"/><path id="main_hair" data-name="main hair" d="M174.26,324.16a72.83,72.83,0,0,1,1.94,11.27,65,65,0,0,1,0,12.21c-.61,6.09-1.57,6.15-1.94,10.33-.16,1.88-.19,4.4,3.88,18.79,3.11,11,4,12.75,4.85,14.09a35.83,35.83,0,0,0,9.7,10.33c4.9,3.69,27.73,18.89,51.43,10.34,18-6.49,25.86-22.82,33-37.58A70.68,70.68,0,0,0,282,360.79c1.48-6.42.38-7,1.94-12.21,2.69-9.07,7.77-13.52,9.7-15,2.16-1.69,3.7-2.86,5.82-2.82,1.6,0,2.65.74,9.7,5.64,3.39,2.35,4.42,3.07,5.82,2.82,1.89-.34,2.87-2.15,4.86-1.88a3.78,3.78,0,0,1,1.94.94c3.47,2.83,3.81,10.36,7.76,16,3.16,4.48,8.65,7.77,10.67,6.57.32-.18.49-.45,1-1.88a32.12,32.12,0,0,0,1.94-9.39c.14-2.38,0-4.63,0-5.64-.12-2.79-.32-3.38,0-4.69a9.71,9.71,0,0,1,2.91-4.7c2-1.82,3.17-1.39,4.85-2.82s2.14-3.33,2.91-6.57c2.42-10.09,2.59-8.52,2.92-11.27,1-8.3-2.11-9.66-1.94-19.73.08-5.31,1.87-6.52,1-10.33-.61-2.55-1.78-4.4-5.83-9.4a131.71,131.71,0,0,0-9.7-11.27,100.33,100.33,0,0,0-32-20.66c-32.46-11.84-65.14,2.69-84.41,11.27a86.17,86.17,0,0,0-10.67,5.63A85.14,85.14,0,0,0,190.75,280C189,282.39,170.33,307.45,174.26,324.16Z"/><path d="M219.52,273.63a20,20,0,0,1-4.79,17.84A6.54,6.54,0,0,1,213,292.9c-2.06,1.07-4.58.13-6.73-.81a1.72,1.72,0,0,1-.82-.57,1.22,1.22,0,0,1,.45-1.49,11.23,11.23,0,0,1,1.55-.78c1.79-.92,2.6-3,2.93-4.93a18.47,18.47,0,0,0-8.28-18.22c.49.32,6.35-3,8.11-2.71,2.75.48,6.18,3.74,7.6,5.92A13.6,13.6,0,0,1,219.52,273.63Z"/><path d="M257.05,398.84c-.8,5.45-2.79,14.31,2.1,22.37,2.68,4.42,5.47,5.35,10.5,11.18,5.91,6.84,8.38,12.85,10.5,17.28,12.49,26.06,28.49,29.19,29.4,46.76.66,12.75-7,25.91-13.65,26.43-4.24.34-5.77-4.77-9.89-4.27-7.8.95-5.7,21.09-18.46,25.62-5.28,1.87-6.33-.37-14.7,2-4.5,1.29-14,4-20.34,12-3.68,4.61-4.41,8.72-6.57,8.47-4.65-.56-4.62-7.43-8.1-10.46-2.84-2.46-7.38-1.73-10.69.09s-6.05,4.57-9.53,6.07a4.35,4.35,0,0,1-3.65.26c-1.47-.76-1.72-2.65-2.16-4.21-2.17-7.7-12.75-10.68-20.39-7.69-3.26,1.28-6.24,3.37-9.71,3.87-5.43.8-11.14-3.06-12.24-8.27-1.3-6.16,3.15-12.92.36-18.6-2.89-5.89-11.15-6.37-17.87-6.64s-15.21-2.91-15.54-9.43c-.21-3.9,2.91-7.67,1.89-11.46-1.57-5.87-11.89-7.76-11-13.76.4-2.85,3.29-4.6,5.61-6.38s4.44-4.93,2.84-7.34a12.21,12.21,0,0,0-2.58-2.26c-4.1-3.45-3.33-10.14,0-14.33s8.36-6.63,13-9.43,9.19-6.49,10.39-11.63c.53-2.24.37-4.6,1.05-6.79,2.78-8.84,17.7-11.36,17.72-20.6,0-4.36-3.7-8.18-3.44-12.54.41-6.8,9.48-9.64,12.84-15.62,4.62-8.22,2.13-12.68,4.45-23.29,3.82-17.49,18-28,36.53-41.76,13.79-10.23,18.39-10,21-9.15,5.93,2,8,9.39,10.5,18.3C255.79,389.6,258.58,388.32,257.05,398.84Z"/><path d="M254.88,400.09c-1,6.46-1.95,13.05.58,19.32,2.23,5.54,6.9,8.63,10.81,12.87,9.3,10.1,13.1,23.65,21.45,34.46,5.79,7.5,14.28,13.95,17.92,22.89,4.21,10.32,1.12,27.38-9,33.48l4-2.32c-5.86,2.71-7.82-4.52-13.14-3.33a17,17,0,0,0-5.46,3c-2.82,2.14-3.81,5.77-4.95,9-1.59,4.44-3.13,9.18-6.5,12.64-.53.54-2.4,1.5-.93.9a12.69,12.69,0,0,1-3.76.8c-1.95.17-3.91,0-5.87.17a46.27,46.27,0,0,0-14,4.3,70.9,70.9,0,0,0-8.93,5.09,29.93,29.93,0,0,0-6.77,6.13c-1.83,2.29-3.07,6.69-5.6,8.21l4-2.32c-4.2.45-5.24-5-6.83-7.79-2.85-5-8-4.8-12.71-2.46a61.51,61.51,0,0,0-5.56,3.24c-1.84,1.18-4.09,3.69-6.36,3.35-3-.44-2.8-3.43-3.73-5.63-1.76-4.13-5.9-6.54-10.15-7.37-5.88-1.15-10.08,1.13-15.31,3.34-4.89,2.07-10.22,1.87-14-2.31s-2.43-9.68-1.58-14.84c2.24-13.55-9.35-14.22-19.59-15.11-4.06-.35-8.72-1.31-11.78-4.2-4.61-4.35-1.11-8.7-.56-13.77.89-8.16-16.43-11.78-9.51-19.75,2.43-2.81,9.59-5.82,6.8-10.57-1.26-2.16-3.77-2.82-4.77-5.37a11,11,0,0,1,.2-7.7c4-11,19.25-11.59,24.35-21.92,2.08-4.23.92-9.13,4-13,2.71-3.45,6.75-5.55,10.15-8.21,2.85-2.23,5.58-5,5.62-8.83.05-5.36-5.09-9.64-2.8-15.15,1.57-3.76,5.47-6,8.38-8.6a20.57,20.57,0,0,0,6.68-12.88c.68-4.95.49-9.9,1.59-14.82a41.7,41.7,0,0,1,5.92-13.91c6-9.19,15-16.13,23.69-22.69,5.85-4.43,14.05-13.2,22.21-12.13,9.11,1.19,11,15.5,12.94,22.39,5.25,18.39,11,36.62,16.58,54.91,1.7,5.56,3.14,10.72,2.3,16.54.15-1,4.18-1.45,4.33-2.5,1-6.8-1.18-12.95-3.19-19.4-2.67-8.55-5.38-17.1-8-25.68q-3-10-5.94-20.14c-2.06-7.16-3.49-15-6.83-21.75-4.07-8.16-10.3-7.83-17.39-4.06-9.74,5.17-18.56,11.94-27.16,18.79-10.06,8-19.86,17.34-23.34,30.15-1.66,6.11-1.1,12.38-2.37,18.5s-4.63,9.71-9.18,13.51c-5,4.19-7.53,7.95-4.9,14.47,2.29,5.7,3,10-1.88,14.43-3.73,3.39-8.63,5.54-11.78,9.56-2.11,2.69-2.2,5.4-2.71,8.65a15.47,15.47,0,0,1-4.73,8.91c-4.91,4.77-11.74,6.89-16.75,11.53-4.55,4.2-7.26,11.77-2.13,16.65,2.26,2.15,4.12,3.53,2.24,6.8-1.73,3-5.42,4.07-7.24,7-3.26,5.21,3.09,8.4,6.43,11.12,1.82,1.48,3.48,3.15,3.85,5.55.58,3.73-2.23,7-2,10.75.36,5.86,7,8.24,11.87,9.05,5.78,1,12.14,0,17.47,2.92,6.4,3.55,4.91,10.12,3.9,16.15-1.12,6.7,1.26,13.35,8.67,14.72,6.64,1.23,12-4.58,18.57-4.88,5.5-.26,11.72,2,14.28,7.16,1.09,2.21.91,5.75,4,6.15,1.77.23,3.78-1.2,5.26-2,4-2.24,8.25-6.38,13-6.25,7.25.21,5.89,7.64,10.36,11,2.42,1.84,5.11,0,7.22-1.61a13.29,13.29,0,0,0,3-4.09,30.25,30.25,0,0,1,7.78-9.1c4.14-3.09,10.44-4.93,15.57-5.65,4.33-.61,8.22.1,12.29-2,7.36-3.75,10.93-8.91,13.68-16.67,1.2-3.38,2.19-7.71,5.28-9.91l-4.25,2.47c4.88-2.57,7.54,4.6,12.43,3.55,2.3-.49,4.89-2.29,6.79-3.59,9-6.15,12.27-20.93,9.38-30.94-2.63-9.1-10.77-15.5-16.6-22.55a90.06,90.06,0,0,1-11-16.8c-2.79-5.53-5.22-11.1-9-16.07-4.11-5.44-10.61-9.41-13.66-15.58-3.29-6.64-2.33-13.82-1.27-20.85C259.06,398.59,255,399,254.88,400.09Z"/><g class="cls-16"><path class="cls-17" d="M888.62,702.28,499.07,688.05l16.8-267.35,388.5-2Z"/></g><polygon class="cls-18" points="886.68 470.41 521.28 470.41 524.16 428.73 889.4 428.73 886.68 470.41"/><text class="cls-19" transform="matrix(1.04, 0, -0.09, 1, 608.47, 457.53)"><tspan class="cls-20">S</tspan><tspan x="12.73" y="0">chedule -</tspan><tspan class="cls-21" x="111.61" y="0"> </tspan><tspan class="cls-22" x="115.98" y="0">T</tspan><tspan x="126.85" y="0">od</tspan><tspan class="cls-23" x="155.25" y="0">a</tspan><tspan x="167.34" y="0">y</tspan></text><polygon class="cls-24" points="872.51 691.75 507.73 680.87 521.67 480.29 882.72 485.25 872.51 691.75"/><g id="blue_squares" data-name="blue squares"><polygon class="cls-25" points="567.91 493.47 528.09 493.65 528.65 485.04 568.37 484.74 567.91 493.47"/><polygon class="cls-25" points="567.28 505.18 527.33 505.21 527.9 496.54 567.75 496.39 567.28 505.18"/><polygon class="cls-25" points="566.65 516.99 526.56 516.85 527.13 508.11 567.13 508.13 566.65 516.99"/><polygon class="cls-25" points="566.02 528.87 525.79 528.58 526.37 519.78 566.5 519.95 566.02 528.87"/><polygon class="cls-25" points="565.38 540.85 525.01 540.39 525.6 531.52 565.86 531.86 565.38 540.85"/><polygon class="cls-25" points="564.74 552.91 524.23 552.29 524.82 543.36 565.22 543.86 564.74 552.91"/><polygon class="cls-25" points="564.1 565.07 523.44 564.28 524.03 555.28 564.58 555.94 564.1 565.07"/><polygon class="cls-25" points="563.44 577.32 522.65 576.36 523.24 567.29 563.93 568.12 563.44 577.32"/><polygon class="cls-25" points="562.78 589.65 521.85 588.52 522.45 579.39 563.28 580.39 562.78 589.65"/><polygon class="cls-25" points="562.12 602.09 521.04 600.78 521.65 591.58 562.62 592.75 562.12 602.09"/><polygon class="cls-25" points="561.46 614.61 520.23 613.13 520.84 603.86 561.96 605.21 561.46 614.61"/><polygon class="cls-25" points="560.78 627.24 519.41 625.57 520.03 616.23 561.29 617.76 560.78 627.24"/><polygon class="cls-25" points="560.11 639.96 518.59 638.11 519.21 628.7 560.62 630.41 560.11 639.96"/><polygon class="cls-25" points="559.42 652.77 517.76 650.74 518.38 641.26 559.94 643.15 559.42 652.77"/><polygon class="cls-25" points="558.74 665.69 516.92 663.47 517.55 653.91 559.25 655.99 558.74 665.69"/></g><path class="cls-24" d="M575,490.12l7.12-2.25c-.53,1.91,2,3.57,3.94,3.15s3.43-2.09,4.62-3.7c2.55,2.52,6.63,2.66,10.28,2.64l12.42-.08,12.12-.08,26.71-.17,5.09,0,14.23-.09c-.84,2,1.51,4.21,3.77,4.19s4.22-1.43,6-2.78c-.69,2.17,1.15,4.48,3.35,5.23s4.64.37,7,0l21.66-3.66c-.65,2.61,3.34,3.68,6.1,3.46,9.36-.75,18.69-1.82,28-2.89l12.05-1.38a14.82,14.82,0,0,1,5.23,0c1.72.43,3.22,1.45,4.92,1.92,4.58,1.29,9.39-1.57,14.13-1.1,4.2.42,8,3.42,12.18,2.94,3.53-.4,6.61-3.24,10.14-2.8a23.68,23.68,0,0,1,4.11,1.32,21,21,0,0,0,7.17.49l22.14-1.05,33.74-1.6"/><path class="cls-24" d="M572.69,500.56c3,1.31,6.44,1.21,9.73,1.08l61.74-2.31a20.37,20.37,0,0,1,6.57.47c1.22.37,2.36,1,3.57,1.36a21.56,21.56,0,0,0,5.37.77q9.66.54,19.32.62c5.41.05,10.82,0,16.22-.07l7.12-.07c5.48-.06,10.95-.12,16.43-.27q16.1-.45,32.14-2c2.34,1.28,5.24.61,7.89.19A36.93,36.93,0,0,1,776.61,502c1.71.6,3.37,1.33,5.11,1.87a48.88,48.88,0,0,0,7,1.41c8.67,1.3,17.45,2.6,26.19,1.85,5.17-.44,10.23-1.59,15.34-2.42a124.45,124.45,0,0,1,26.65-1.42,8.42,8.42,0,0,1,3.24.62c.92.44,1.65,1.18,2.55,1.65,1.9,1,4.21.55,6.31.11l14.37-3.05"/><path class="cls-24" d="M576.83,511.54l-1,1.69,3.25-.73a1.73,1.73,0,0,1,1.25,0c.46.25.57.82.8,1.28.75,1.5,2.85,1.89,4.53,1.49s3.16-1.34,4.82-1.79a1.51,1.51,0,0,1,1.44.16c.28.27.29.7.4,1.07.52,1.76,2.94,2.08,4.81,1.84a25.18,25.18,0,0,0,5.93-1.5,6,6,0,0,1,1.91-.55,8,8,0,0,1,2.29.46c3.94,1,8.06-.58,11.8-2.17"/><path class="cls-24" d="M636.1,515.36a3.37,3.37,0,0,1-5-1.83,3.29,3.29,0,0,1,3.77-3.65,3.19,3.19,0,0,1,1.9,4.82c1.48,1.68,4.17,1.47,6.42,1.12L658,513.49c1.55,1.69,4.32,1.63,6.54.91s4.28-1.94,6.6-2.18a17.06,17.06,0,0,1,4.09.26,114.74,114.74,0,0,0,23.65.8c4.32-.3,8.65-.85,13-.53"/><path class="cls-24" d="M722.56,517.18c3.09-2.23,7.25.83,11.09,1.12,2,.15,4-.48,5.92.13a30.23,30.23,0,0,1,3.15,1.62,11.85,11.85,0,0,0,5,.79c10.24,0,20.16-3.27,30.33-4.41a146.72,146.72,0,0,1,16-.61l22.17-.05"/><path class="cls-24" d="M818.92,517c1.19.95,3.05-.39,4.49.16a6.34,6.34,0,0,1,1.42,1c2.38,1.75,5.78.34,8.75.67,1.07.12,2.1.48,3.16.7a25.46,25.46,0,0,0,5.59.31l19.67-.4"/><path class="cls-24" d="M572,526.59a4.11,4.11,0,0,0,4.94.9,8.62,8.62,0,0,1,2-1.1,4.74,4.74,0,0,1,2.11.15,16.49,16.49,0,0,0,10.15-1.26,3.57,3.57,0,0,1,1.43-.45,5.57,5.57,0,0,1,1.32.34c1.79.52,3.65-.32,5.47-.74a12.39,12.39,0,0,1,6,.1"/><path class="cls-24" d="M637.36,525.72l52.39.36c5,0,10,.07,14.91.53,3.86.37,7.82,1,11.56,0a8.4,8.4,0,0,1,2.74-.47,9.74,9.74,0,0,1,2.76,1,18.08,18.08,0,0,0,5.07,1c5.47.59,11,1.17,16.44.2,2.39-.42,4.87-1.15,7.19-.45a30.14,30.14,0,0,0,3.37,1.21c3.64.62,7.11-3.37,10.6-2.18,1,.35,1.87,1.13,2.92,1.42,2,.57,4-.79,6.06-1.3,2.76-.69,5.64.21,8.46.62s6.18.11,7.79-2.17a9.54,9.54,0,0,0,12,.24c1.49,2.63,5.25,2.84,8.34,2.71l15.78-.64a14.06,14.06,0,0,0,13.53-1.69c.36,2,3.14,2.5,5.28,2.48l20.19-.21"/><path class="cls-24" d="M575.6,537c.46,1.66,2.89,1.77,4.54,1.15s3.42-1.64,5.06-1a18.74,18.74,0,0,1,2.44,1.66c2.63,1.49,5.87-.52,8.92-.58,2.55-.05,5,1.29,7.5,1.3s5.13-1.39,7.78-1.52c2.38-.11,4.82.83,7.11.21,2-.52,3.48-2.11,5.43-2.71a11.76,11.76,0,0,1,3.84-.29l15.74.56"/><path class="cls-24" d="M661.93,538.45c3.29-2.42,7.57,1.28,11.6,2.18a16.83,16.83,0,0,0,6.62-.29l15.25-2.69a14.26,14.26,0,0,1,5.55-.24c1.85.42,3.45,1.56,5.26,2.14,5.34,1.73,11.39-1.64,16.72.11,1.25.41,2.39,1.08,3.64,1.45,5.51,1.63,11.27-2.86,16.95-1.9,1.7.28,3.28,1,5,1.45,3.66.86,7.5-.09,11.08-1.25a8.52,8.52,0,0,1,4.32-.63,17.27,17.27,0,0,1,3.16,1.44c3.26,1.44,7.06.4,10.48-.63a11.83,11.83,0,0,1,4.65-.75,31.85,31.85,0,0,1,4,1.12,18.57,18.57,0,0,0,7.27-.19L811,537a27.71,27.71,0,0,1,7.09-.53c1.44.14,2.85.5,4.3.51,3,0,6-1.51,8.81-.58,1.11.37,2.07,1.09,3.2,1.38,1.54.41,3.16,0,4.75-.16,7-.59,14.67,4.43,20.47.65"/><path class="cls-24" d="M573,549.11a1.32,1.32,0,0,1,1.47-1c-.16,2.2,2.72,3.56,5,3.12s4.08-1.94,6.17-2.82a2.57,2.57,0,0,1,1.48-.27c1.13.24,1.46,1.6,2.11,2.52,1.29,1.82,4.09,2,6.24,1.22s4.06-2.09,6.26-2.68a2.77,2.77,0,0,1,2.14.1c.64.39.9,1.16,1.4,1.71,1,1.07,2.73,1.11,4.14.67s2.67-1.25,4.09-1.66c4.7-1.33,10,2.09,14.51.29,1.59-.62,3-1.88,4.75-1.79a9.43,9.43,0,0,1,2.83.9c4.2,1.6,8.92.16,13.19-1.29"/><path class="cls-24" d="M676.83,552c.67-1.12,2.36-1.18,3.59-.7s2.29,1.37,3.57,1.76c2.79.84,5.62-.87,8.35-1.88a4.56,4.56,0,0,1,2.54-.35,9.47,9.47,0,0,1,2.11,1c3.74,1.86,8.21-.58,12.4-.38,1.84.09,3.61.69,5.43.91,4.21.5,8.42-1.07,12.65-.93,3.77.13,7.36,1.6,11.11,1.9,5.74.46,11.4-1.83,17.14-1.53,3.55.18,7,1.35,10.51,1.67a35,35,0,0,0,13.28-1.87,18.47,18.47,0,0,1,6.33-1.21c2.61.17,5,1.57,7.52,2.14,5.55,1.26,11.3-1.44,17-1,3,.25,5.81,1.38,8.77,1.86,3.81.62,7.7.15,11.56,0,10.12-.37,20.18,1.54,30.31,1.63,1.8,0,4-.28,4.68-1.91"/><path class="cls-24" d="M568.9,560.83l9.65,2.22a20.76,20.76,0,0,0,6.54.78c3.36-.32,6.84-2.24,9.91-.88,1.22.54,2.16,1.54,3.36,2.14,5.25,2.61,11.38-3.75,17.08-2.26a35.59,35.59,0,0,1,4,1.71c5.85,2.3,12.31-1.13,18.61-1.45,5.19-.25,10.29,1.64,15.48,1.5,6.11-.17,12.18-3.14,18.12-1.76,2.66.62,5,2.06,7.65,2.82,5,1.44,10.41.22,15.33-1.48,2.38-.81,4.9-1.76,7.36-1.19a29.1,29.1,0,0,1,4.12,1.75c6,2.44,12.8-.76,19.31-.55,2.93.1,5.78.89,8.68,1.3a68.26,68.26,0,0,0,13.71.07l32.3-2"/><path class="cls-24" d="M572.59,576.83a11.63,11.63,0,0,0,5.34-2.2c2,2.11,6.14,1.39,7.24-1.23,3.69,3.28,9.72-.34,14.57.87,1.37.34,2.6,1.06,3.94,1.48a18.23,18.23,0,0,0,6.43.38l23.26-1.39,24.32-1.46c3.91-.23,7.91-.46,11.7.55,1.65.44,3.24,1.11,4.93,1.41a17.69,17.69,0,0,0,9.6-1.41,4,4,0,0,1,2.54-.44c1.52.45,1.76,2.39,2.64,3.67,1.53,2.2,4.94,2.16,7.5,1.23s5-2.5,7.72-2.59c4.34-.16,8.53,3.45,12.63,2.08,2.19-.74,4.13-2.85,6.37-2.28a10.9,10.9,0,0,1,2.76,1.63c3.35,2,7.67.33,11.2-1.36a11,11,0,0,0,13.13-.74,8.88,8.88,0,0,0,12.16-1.53c-1.45,2.62,3,4.85,5.9,3.84s5.46-3.41,8.52-3.08c0,2.69,4.21,2.38,6.94,1.89,7.3-1.32,16.25,2.8,21.54-2.25.34,2.77,3.93,3.92,6.81,3.7s5.9-1.12,8.53,0c1.32.56,2.37,1.58,3.65,2.23,1.95,1,4.25,1,6.46,1.06l13.91.13"/><path class="cls-24" d="M570.75,585.55a8.67,8.67,0,0,1,8,.23c2,1.17,4,3.29,6.27,2.77,1.89-.42,3.39-2.56,5.24-2a9.63,9.63,0,0,1,1.81,1c2.1,1.12,4.61-.25,6.83-1.14a2.65,2.65,0,0,1,1.92-.22c.57.23.91.8,1.36,1.21,3.14,2.74,9-3.3,11.9-.33.58.6.84,1.44,1.42,2,1.74,1.8,4.75.45,7.13-.42a15.24,15.24,0,0,1,12.36.94"/><path class="cls-24" d="M648.61,588.26l3.24-1.59a1.33,1.33,0,0,1,.79-.21c.64.09.79.88,1.06,1.45.71,1.53,2.89,1.79,4.54,1.28s3.1-1.54,4.8-1.85a2.9,2.9,0,0,1,1.7.11c.87.39,1.29,1.36,2,2a4.66,4.66,0,0,0,3.82.89,39.19,39.19,0,0,0,3.92-1.06,2.5,2.5,0,0,1,1-.1,3.48,3.48,0,0,1,1.52,1.07,5.39,5.39,0,0,0,7.08-.21"/><path class="cls-24" d="M695.81,588.19l10.28-1.53a3.32,3.32,0,0,1,2.71.38,10.9,10.9,0,0,1,.83,1.07c1.21,1.37,3.5.79,5.18,0s3.72-1.71,5.27-.7c.52.34.9.85,1.39,1.22,2.06,1.57,5,.12,7.59-.2a3,3,0,0,1,1.64.16c.66.33,1,1,1.58,1.53s1.61.64,1.93,0"/><path class="cls-24" d="M746.07,589.58a14.23,14.23,0,0,1,11-.42,17.63,17.63,0,0,0,4.24,1.47c2.39.26,4.69-1.08,7.1-1.14,3.41-.09,6.63,2.38,10,1.74,1.32-.25,2.61-1,3.93-.73a9.17,9.17,0,0,1,2.8,1.54c2.28,1.37,5.15,1.27,7.83,1.21,4.23-.09,8.47,0,12.69.36s8.34.87,12.51,1.41l22,2.84"/><path class="cls-24" d="M568.82,598.88c.21,1.92,3.08,2.21,4.88,1.39s3.56-2.24,5.51-1.88a11.11,11.11,0,0,1,3,1.44c2.79,1.44,6.17,1,9.29.5l16.34-2.55a15.27,15.27,0,0,1,4.81-.24c1.54.25,3,1,4.51,1.21,3.22.5,6.34-1.12,9.17-2.68.68,2.56,4.06,3.45,6.76,3s5.32-1.59,8-1.35,5.31,2.05,7.92,3.23c5,2.28,10.84,2.26,16.42,2.19L682,603a22.36,22.36,0,0,1,6.12.49c1.68.46,3.23,1.31,4.93,1.7,2.66.6,5.43,0,8.12-.41a77.78,77.78,0,0,1,19.1-.71,22.69,22.69,0,0,1,4.85.83,29.74,29.74,0,0,0,3.85,1.24c3.44.6,6.76-1.33,9.69-3.18.55,2.53,3.63,3.88,6.28,3.57s5-1.8,7.22-3.17c1.14-.68,2.52-1.37,3.76-.88.92.37,1.45,1.28,2.13,2,2.42,2.52,6.58,2.35,10,1.45s6.91-2.33,10.4-1.69c1.7.31,3.28,1.11,5,1.53a23.42,23.42,0,0,0,8.35,0l22-2.55a14.72,14.72,0,0,1,6.17.16c1.42.45,2.68,1.34,4.14,1.69,2.76.66,5.56-.68,8.36-1.14,8-1.32,17,4.57,24,.57"/><path class="cls-24" d="M570.82,610.51c1.92.78,4.18-2.15,5.88-1a4.19,4.19,0,0,1,1.11,1.89,5.9,5.9,0,0,0,5,3,14.39,14.39,0,0,0,6-1.19,7.42,7.42,0,0,1,3.67-.75,10.17,10.17,0,0,1,3,1.35c3.16,1.64,7,1.58,10.53,1.08s7.09-1.41,10.68-1.28"/><path class="cls-24" d="M637.71,606.38c1-.65,2.36.18,3,1.17s1,2.19,2,2.84,2.72.57,3.63,1.5.73,2.11,1.41,3c.86,1.11,2.59,1.19,4,.76s2.6-1.22,4-1.56a1.23,1.23,0,0,1,1.08.11c.3.25.31.68.42,1,.42,1.48,2.47,1.91,4,1.44s2.75-1.53,4.23-2.06c3.87-1.39,8.17,1,12.24.4,2.25-.34,4.52-1.57,6.66-.84"/><path class="cls-24" d="M706.37,619a4.09,4.09,0,0,1,3-2.3c2.7-.49,5.48,1.68,8.08.82,1.84-.61,3.18-2.64,5.12-2.47a10,10,0,0,1,2.75,1.16c2.72,1.11,5.81-.5,8.74-.18,1.9.22,3.6,1.23,5.45,1.67,3.5.83,7.21-.44,10.76.12,2.49.39,4.77,1.66,7.26,2.05,5.09.82,10.76-2,15.26.42"/><path class="cls-24" d="M793.23,622.52l7.2-1.63a2.09,2.09,0,0,1,1.65.09c.47.33.54,1,.74,1.5.75,1.93,3.36,2.48,5.46,2.12s4.11-1.32,6.24-1.25c1.83.06,3.53.87,5.29,1.34a28.56,28.56,0,0,0,7.56.59L851.8,625"/><path class="cls-24" d="M567.29,624.41c7.83-.77,15.9,4.38,23.26,1.69,2.25-.82,4.54-2.35,6.82-1.62a18.68,18.68,0,0,1,2.93,1.69c4,2.09,8.61-.76,12.87-2.2a4.63,4.63,0,0,1,3.25-.18c1,.41,1.54,1.34,2.41,1.9,2,1.28,4.62.25,6.92-.4,4.61-1.3,9.53-.89,14.31-.47l3.93.34"/><path class="cls-24" d="M679,627.09l3.72-2.39c-.71,2.37,1.76,5,4.27,4.63,2.08-.35,3.95-2.34,5.93-1.66a14.06,14.06,0,0,1,1.9,1.14c3.66,1.92,8-3.08,11.93-1.78a26.8,26.8,0,0,1,3.2,1.82c4.62,2.25,10.52-2.43,15.17-.24,1.22.58,2.19,1.58,3.45,2.09,3.58,1.47,7.51-1.56,11.4-1.31,2.17.14,4.11,1.3,6.17,2s4.65.78,6.09-.81"/><path class="cls-24" d="M777.72,628.59l5.4-1.5a2.35,2.35,0,0,1,1.5-.07c1,.41.85,1.81,1.34,2.73.64,1.22,2.36,1.5,3.74,1.19s2.63-1,4-1.25c4.29-.69,8.24,3.44,12.53,2.74,1.67-.26,3.38-1.24,4.92-.59,1.2.51,1.77,1.82,2.74,2.68,2.94,2.6,7.54.09,11.53-.07,4.45-.19,8.8,2.79,13.12,1.73"/><path class="cls-24" d="M565.22,638.18c.82-2.12,3.92-2.21,6.1-1.39s4.39,2.15,6.65,1.59c1.73-.43,3.23-2,5-1.67,1.43.23,2.35,1.57,3.63,2.22,4.68,2.38,10-5.27,14.81-3.22,1.19.51,2.08,1.55,3.26,2.09,3.19,1.46,6.63-1.15,9.87-2.5a25.22,25.22,0,0,1,9.63-1.43c7.29,0,14.57.63,21.83,1.29l12,1.08,16.94,1.53a4,4,0,0,1,2.45.78c.71.68.77,1.78,1.34,2.58,1.26,1.81,4.09,1.28,6.26.7,7.71-2.05,15.81-2.06,23.8-2.06H722.5l13.43,0H750a52.41,52.41,0,0,1,10.85.76,28.74,28.74,0,0,0,5.33,1c1.92,0,3.8-.51,5.71-.52,5.88,0,12.5,4.83,17,1.1-.47,2.82,3.43,4.49,6.31,3.91s5.53-2.34,8.47-2.25a36.54,36.54,0,0,1,4.14.71,24.14,24.14,0,0,0,6.93-.41,115.08,115.08,0,0,1,46,2.66"/><path class="cls-24" d="M577.43,646c.72-1,2.35-1,3.52-.45s2.24,1.35,3.52,1.51c1.44.17,2.87-.54,4.31-.44,1.63.12,3,1.24,4.46,1.87,3.57,1.52,7.7.19,11.25-1.38a7.93,7.93,0,0,1,3.89-1c2.12.23,3.63,2.17,5.67,2.75s4-.24,6.05-.57c7.7-1.26,15.84,4.14,23.08,1.31"/><path class="cls-24" d="M676.39,646.63c4.81-.87,9.65,2.56,14.44,1.61,3.27-.66,6.23-3.31,9.49-2.61a36.68,36.68,0,0,1,3.42,1.34c3.64,1.17,7.44-.93,11.22-1.56,5.94-1,12,1.72,18,1,1.75-.22,3.52-.74,5.25-.39s3.36,1.68,5.11,2.41c5.7,2.38,12.31-1.85,18.38-.59,2.29.48,4.35,1.71,6.64,2.16,3.6.7,7.27-.59,10.93-.65,5.1-.1,10,2.18,15.13,1.91,3-.16,6.39-1.17,9,.42,1.44.89,2.29,2.43,3.46,3.64,2.46,2.57,6.22,3.59,9.84,3.91s7.27.09,10.85.7c5.77,1,11.9,4.11,17.12,1.52"/><path class="cls-24" d="M572.3,662c82.76,9.75,166.67,1.06,249.88,6.15,2,.12,4.14.35,5.42,1.79"/><polygon class="cls-26" points="873.56 690.62 508.78 679.74 522.72 479.15 883.77 484.12 873.56 690.62"/><text class="cls-27" transform="matrix(1.03, 0, -0.09, 1, 577.8, 521.42)">No appoi<tspan class="cls-28" x="128.73" y="0">n</tspan><tspan x="147.29" y="0">tme</tspan><tspan class="cls-28" x="203.41" y="0">n</tspan><tspan x="221.96" y="0">ts </tspan><tspan class="cls-29" x="61.07" y="40.42">a</tspan><tspan class="cls-28" x="77.03" y="40.42">v</tspan><tspan x="93.1" y="40.42">ailable</tspan></text><path class="cls-25" d="M236.57,323.11c-2.08,1.05-6.85-12.81-17.85-14.23-12.09-1.56-21.37,13.25-24.15,11.18-2.24-1.68,1.22-13.35,10.5-19.31,1.62-1.05,9.82-6,18.38-3.05C236.74,302.31,238.92,321.92,236.57,323.11Z"/></g><path class="cls-17" d="M913,57V938H32V57H913m22-22H10V960H935V35Z"/></g></svg>