<?xml version="1.0" encoding="UTF-8"?>
<svg xmlns="http://www.w3.org/2000/svg" onmouseup="{ if(window.parent.document.onmouseup) window.parent.document.onmouseup(arguments[0]);}" xml:space="preserve" style="enable-background:new 0 0 136.9 136.9;" viewBox="0 0 136.9 136.9" y="0px" x="0px" id="Layer_1" version="1.1" xmlns:xlink="http://www.w3.org/1999/xlink">
<style type="text/css">
	.st0{fill:#C1272D;}
	.st1{fill:#FFFFFF;}
</style>
<g>
	<path class="st0" d="M133,99.3c-6.6-6.6-13.2-13.2-19.8-19.8c-3.3-3.3-6.6-6.6-9.9-9.9c-1.9-1.9-0.1-2.3,1.7-4.1   c8.1-8.1,16.2-16.2,24.3-24.3c2.7-2.7,5.9-5.2,6.4-9.3c0.6-5.6-4.1-9.2-7.7-12.7c-5.8-5.8-17.3-22.7-27-16.6   c-7.7,4.8-14.1,13.8-20.4,20.1c-3.5,3.5-7,7-10.4,10.4c-2.2,2.2-1.8,1.6-4-0.6C58.1,24.5,50.1,16.4,42,8.4C39.7,6,37.2,2.8,34,1.7   c-6.1-2.1-10,2.5-13.8,6.3C14.5,13.5-1.5,24.5,1.7,34C2.8,37.2,6,39.7,8.4,42l13.2,13.2c3.6,3.6,7.3,7.3,10.9,10.9   c2.2,2.2,2.7,1.8,0.6,4c-8,8-15.9,15.9-23.9,23.9c-2.2,2.2-5,4.3-6.6,7c-3.7,6,0.5,10.8,4.5,14.9c5.5,5.5,15.9,20.7,24.8,19.8   c8.1-0.9,17-14.1,22.2-19.3c4-4,8-8,12-12c2.2-2.2,1.8-2.7,4-0.6c8.2,8.2,16.5,16.5,24.7,24.7c2.9,2.9,5.8,6.7,10.1,7.1   c5.6,0.6,9.2-4.1,12.7-7.6C123.6,122.1,142.6,108.9,133,99.3"/>
	<path class="st0" d="M32.1,5.4C34.2,7.5,9.9,29.9,7,31.8c-4.7,3.2,4.9-9.9,5.8-11C14.3,19.2,29.4,2.7,32.1,5.4"/>
	<path class="st0" d="M39,73.6c2.2,2.2-28.2,30.3-31.2,32.6c-1.4,1.1-3.7,2.1-2.2-0.6c2.5-4.8,6.7-8.9,10.4-12.8   C17.6,91,36.3,71,39,73.6"/>
	<path class="st0" d="M99.9,73.6c-2.2,2.2,28.2,30.3,31.2,32.6c1.4,1.1,3.7,2.1,2.2-0.6c-2.5-4.8-6.7-8.9-10.4-12.8   C121.3,91,102.5,71,99.9,73.6"/>
	<path class="st0" d="M32.1,5.4c1.8-1.8,36.2,33.3,34.7,34.7C65.3,41.7,27.6,9.9,32.1,5.4"/>
	<path class="st0" d="M105.1,5.4c-2.1,2.1,22.2,24.5,25.1,26.4c4.7,3.2-4.9-9.9-5.8-11C122.9,19.2,107.7,2.7,105.1,5.4"/>
	<path class="st0" d="M105.1,5.4c-1.8-1.8-35.9,33-34.5,34.5C72.2,41.4,109.6,9.9,105.1,5.4"/>
	<path class="st0" d="M132.6,31.3c-1.8-1.8-20.8,18.7-22.4,20.4c-3,3-7,6.3-9,10.1c-1.6,3,5.5-1.8,5.9-2.1   C110.1,57.3,136.7,35.4,132.6,31.3"/>
	<path class="st0" d="M68.1,95.8c-1.6-1.6-19.9,17.8-21.5,19.4c-4.7,4.7-9.7,9.2-13.9,14.4c-2.3,2.9-1.6,4,1.6,1.9   C37.5,129.5,72,99.7,68.1,95.8"/>
	<path class="st0" d="M6.9,31.3C8.7,29.5,27.7,50,29.3,51.7c3,3,7,6.3,9,10.1c1.6,3-5.5-1.8-5.9-2.1C29.4,57.3,2.8,35.4,6.9,31.3"/>
	<path class="st0" d="M71.5,95.9c1.6-1.6,19.1,17.1,20.7,18.6c4.7,4.7,9.7,9.2,13.9,14.4c2.3,2.9,1.6,4-1.6,1.9   C101.3,128.8,67.6,99.9,71.5,95.9"/>
	<path class="st1" d="M30.9,0c-7.4,0-14,9.6-18.7,14.3C6.5,20-4.2,27.6,1.8,36.7C5.6,42.6,12.2,47.4,17,52.3   c5.4,5.4,10.8,10.8,16.2,16.2C24.5,77.2,15.8,85.9,7,94.6c-4.3,4.3-9,8.8-6.2,15.5c2.2,5.2,8.6,9.7,12.4,13.6   c3.7,3.7,7.3,8.5,11.7,11.4c6.5,4.4,12.1,0,16.6-4.5c9-9,18-18,26.9-26.9c8.7,8.7,17.5,17.5,26.2,26.2c4.3,4.3,8.8,9,15.5,6.2   c5.2-2.2,9.7-8.6,13.6-12.4c3.7-3.7,8.5-7.3,11.4-11.7c4.3-6.5,0.1-12-4.5-16.6c-9-9-18-18-26.9-26.9c8.7-8.7,17.5-17.5,26.2-26.2   c4.2-4.2,8.9-8.7,6.2-15.4c-2.1-5.2-8.6-9.8-12.4-13.6c-3.7-3.7-7.4-8.5-11.8-11.5c-6.5-4.3-12,0-16.5,4.5c-9,9-18,18-26.9,26.9   c-6.1-6.1-12.3-12.3-18.4-18.4C45.3,10.1,38.4,0,30.9,0 M25,132.2c-6.7-6.7-29.7-22.5-19.4-32.8C15.8,89,26.1,78.8,36.4,68.5   c-6.6-6.6-13.1-13.1-19.7-19.7C11.6,43.6-3.4,33.1,4.8,24.9C11.4,18.3,18,11.6,24.7,5c8.3-8.3,17.7,5.3,23.1,10.6   c6.9,6.9,13.8,13.8,20.7,20.7c0.1,0.1,17.3-17.2,18.6-18.5c5.2-5.2,16.6-21.4,24.9-13.1c7.1,5.5,13.2,13.2,19.6,19.5   c8.7,8.7-4.6,17.7-10.3,23.4c-6.9,6.9-13.8,13.8-20.7,20.7c10.3,10.3,22.7,20.1,31.7,31.7c8.2,8.2-7.1,19-12.2,24.1   c-5.5,5.5-12.6,15.2-20.6,7.2c-6.7-6.7-13.3-13.3-20-20c-2.1-2.1-9.5-12.3-12.1-9.7c-6.9,6.9-13.7,13.7-20.6,20.6   C41.7,127.2,32.7,140,25,132.2"/>
</g>
</svg>