<?xml version="1.0" encoding="UTF-8"?>
<svg xmlns="http://www.w3.org/2000/svg" onmouseup="{ if(window.parent.document.onmouseup) window.parent.document.onmouseup(arguments[0]);}" xml:space="preserve" style="enable-background:new 0 0 1999.7 1977.6;" viewBox="0 0 1999.7 1977.6" y="0px" x="0px" sodipodi:docname="New_York_City_location_Manhattan.svg" inkscape:version="0.47 r22583" id="NYC" version="1.1" xmlns:xlink="http://www.w3.org/1999/xlink" xmlns:svg="http://www.w3.org/2000/svg" xmlns:sodipodi="http://sodipodi.sourceforge.net/DTD/sodipodi-0.dtd" xmlns:rdf="http://www.w3.org/1999/02/22-rdf-syntax-ns#" xmlns:inkscape="http://www.inkscape.org/namespaces/inkscape" xmlns:dc="http://purl.org/dc/elements/1.1/" xmlns:cc="http://creativecommons.org/ns#">
<style type="text/css">
	.st0{fill:#9EC7F3;}
	.st1{fill:#F7D3AA;stroke:#A08070;stroke-width:3;stroke-miterlimit:10;}
	.st2{fill:#F7D3AA;stroke:#D0C0A0;stroke-width:3;stroke-miterlimit:10;}
	.st3{fill:#A65628;stroke:#D0C0A0;stroke-width:3;stroke-miterlimit:10;}
	.st4{fill:#FF7F00;stroke:#D0C0A0;stroke-width:3;stroke-miterlimit:10;}
	.st5{fill:#E41A1C;stroke:#D0C0A0;stroke-width:3;}
	.st6{fill:#E41A1C;stroke:#D0C0A0;stroke-width:3;stroke-miterlimit:10;}
	.st7{fill:#984EA3;stroke:#D0C0A0;stroke-width:3;stroke-miterlimit:10;}
	.st8{fill:#FFFF33;stroke:#D0C0A0;stroke-width:3;stroke-miterlimit:10;}
	.st9{fill:#4DAF4A;stroke:#D0C0A0;stroke-width:3;stroke-miterlimit:10;}
	.st10{fill:none;stroke:#D0C0A0;stroke-width:4;stroke-miterlimit:10;}
	.st11{fill:#909090;}
	.st12{opacity:0.7;}
	.st13{font-family:'ArialMT';}
	.st14{font-size:96px;}
</style>
<defs>
	
	
		<inkscape:perspective xmlns:inkscape="http://www.inkscape.org/namespaces/inkscape" xmlns:sodipodi="http://sodipodi.sourceforge.net/DTD/sodipodi-0.dtd" id="perspective144" inkscape:persp3d-origin="250 : 164.8 : 1" inkscape:vp_x="0 : 247.2 : 1" inkscape:vp_y="0 : 1000 : 0" inkscape:vp_z="500 : 247.2 : 1" sodipodi:type="inkscape:persp3d">
		</inkscape:perspective>
</defs>
<g id="Layer_12">
	<rect id="Water" x="-0.3" y="0" class="st0" width="2000" height="1977.6"/>
</g>
<g id="NJ">
	<path id="path88" class="st1" d="M-0.3,0h1136.1c-2.4,10.9-6.6,21.1-10.9,31.3c-4.5,10.6-7.8,21.9-10.9,33.1   c-3,11.1-2.8,22.8-5.7,33.9c-6.6,25.2-21.4,48.9-30.1,73.4c-3.9,10.9-5.7,22.2-10,32.7c-4.8,11.8-9.8,23.1-14.7,35.2   c-3.5,8.6-15.3,22.8-13.6,32.3c0.7,4,4.4,7,2,11.6c-3.2,6-10.6,0.5-13.1,7.2c-3.4,8.9-0.7,19.4-3.2,28.6   c-2.6,9.9-10.3,19.5-15.5,28.1c-3,4.9-7,8.5-11.7,11.8c-2.7,1.9-8.4,3.8-9.2,7.3c-1.8,7.3,8.4,3.6,8.3,8.2   c-0.1,1.8-9.9,6.2-11.7,8.3c-3.9,4.5-4.1,7.2-0.5,11.5c4.1,5.2,4,4.8,1.1,10.9c-4.8,10.2-7.5,21.6-13.5,31.9   c-2.7,4.6-4.5,9.8-6.7,14.4c-2.6,5.6-6.6,9.4-9.9,14.3c-2.7,4.2-1.8,8.6-4.5,12.5c-2.6,3.8-6.6,6.6-9.7,10.1   c-2.5,2.8-7.1,7.2-4,11.1c3,3.9,10.6,0.3,7.2,7c-2.5,5-7.5,1.9-11.4,4.4c-1.5,1-4.1,2.8-2.8,5.5c0.9,1.9,3.3,0.5,4.8,1.8   c4.7,4-0.2,5.4-4.8,6.4c-5.5,1.2-6.4,1.6-9.5,6.6c-4.6,7.6-29.3,36.9-13.2,41.9c0,2.7-1.7,4-2.8,6.4c-0.7,1.6-0.7,4-1.5,6.2   c-2.7,7.1-6.1,0-11,2.2c-3.3,1.4-4.3,7.7-6.5,10.5c-2.5,3.1-8.6,5.4-8.3,9.9c0.2,2.6,3.6,2.6,3.2,5.5c-0.1,0.8-3.7,3.5-4.5,4.3   c-3,3.2-5.9,7.5-8.1,11.3c-2.2,3.9-4.2,8-6.7,11.9c-2.6,4.1-7,6.9-6.5,12.1c0.3,3.1,3.1,1.6,1.2,5.5c-1.3,2.7-2.1,2.1-4.5,2.7   c-3.5,0.9-13.1-1.8-7.2,4c1.7,1.7,11.9,5.4,3.7,6.6c-4.9,0.7-8.2-6.5-13.2-3.9c2.5,2.8,5.4,5.2,7.8,8.2c-2.5,3.6-0.1,6.7-3.2,10.5   c-2.1,2.6-6.2,3.7-8.9,5.6c-8.7,6.1-5.5,17.4-9.5,26.1c-1.4,2.9-4.8,4.3-6.9,6.3c-6.7,6.4-5.2,10.6,3.7,12c-0.6,5-8.7,1.5-10.3,6.4   c2.2,0.2,4.4,0.7,6.4,1.3c-0.3,5.4-9,1.1-9.2,6.4c1.7,0.7,3.5,1.1,5.3,1.3c0.5,6.7-13,4.4-16.9,5.4c-5.1,1.3-6.8,4.1-1.7,7.2   c3.8,2.2,9.6,0.1,13.8,2.6c4.1,2.5,5.6,8.3,2.2,11.7c-1.4,1.4-3.7,0.5-5.4,2.2c-1.3,1.4-1.5,4.4-2.3,6.1   c-4.9,10.5,0.7,16.7,2.8,27.5c1,5.3,1.1,9.8-1.8,13.6c-3.3,4.2-9.7,6.2-12.1,10.7c5.1,1.5,12.5,5,8.9,11.2   c-3.3,5.6-6.2,9.7-11.5,13.3c-2.3,1.5-5.8,2.6-3.3,5.5c0.7,0.9,3.9-0.7,5,0.5c2,2-0.6,2-0.2,3.2c0.4,1.3-0.1,2.4,0.7,3.9   c0.3,0.5,2.6,1.4,3.2,1.9c3.3,3.1,4.8,4.5,2.3,7.9c-2.6,3.5-8.6,3.2-12.6,3.4c-4.9,0.3-10.3,2.5-3.9,4.9c4.4,1.7,8.4,0.6,12.5,4   c3.1,2.7,3.3,7.9-2.6,8.1c-4.8,0.1-6.9-5.9-12.7-2.3c-5.9,3.7-1.6,6.8,3.3,7.3c2.9,0.3,11.4-1.1,10.5,3.9c-0.8,4-8.5,1.2-11.1,3.8   c2,2,13.6,2.7,4.5,6.5c-4.5,1.8-10.5-1.7-13.1,4c4.5,2.5,10.1,0,14.3,2c5.9,2.8,2.9,6.4-1.7,7.9c-6.6,2.1-6.4,1.8-8.7,8.1   c-1.6,4.2-4.5,9.5-9.5,10.5c-3.8,0.8-10-0.9-13.3-2.1c-6.1-2.2-3.7-4.7-7-8.9c-4.9-6.3-5.7,1.2-7.7,4c-3.3,4.8-9.3-0.3-12.1,2.7   c-3.5,3.8,18.2,7.8,21.3,8.1c5,0.6,29.9,0.1,28.6,8.2c-7.8,0.4-16.6,0.1-24.1-1.5c-2.3-0.5-15.1-3.7-14.9,1   c0.1,3.5,8.8,1.2,7.6,8.2c-0.6,3.9-6.6,9.6-8.8,13.2c-2.7,4.4-5.3,8.9-8.8,12.7c-3.9,4.1-9.2,4.1-13.1,7.2c-6.5,5.1,1.5,4.1,4,7.5   c2.1,2.9-2.4,11-4.9,13.5c-4,4-4.2,0.2-7.8-0.5c-4.3-0.9-6.9,0.6-10.6,3.5c-3.5,2.8-3.1,0.8-0.9,5c1.6,2.9,5.2,2.9,2.6,7.3   c-1.6,2.7-5.3,3.5-8.2,3.3c-6.7-0.4-8.5-10-11.9-15.4c-1.6-2.6-12.4-16-12.3-4.5c-6,0.8-9.4-11.3-13.5,0.1   c-3.1,8.6,7.2,7.4,13.5,8.9c1.9,6.7-6.3,3.1-9.8,3.8c-5.3,1-5,2.8-4.9,8.3c0,8.8,2,20.7-1.8,28.5c-10.4,1.6-13.6-16.4-26.1-15.3   c-15.7,1.4,1.9,15.7,7.6,19.1c6.8,4.1,20.5,10.1,11,19.4c-5.4,5.2-5.5,0.6-9.4-2.6c-4.5-3.9-8.1-2.1-4.8,3.1c1.2,2,4.1,2.5,5.2,4.6   c1.6,3-0.1,2.2-0.5,5.4c-0.9,6,0.9,6.4,6.1,7.9c0.8,2.8-1.6,8.1-4.3,8.1c-1.8,0-6.7-5.3-8.8-6.5c-5.7-3.2-10.5-5.8-17.5-5.5   c-1.8,9.6,12.4,14.6,19.7,18.2c7.4,3.6,14.4,7.6,21.7,11.5c5,2.7,11.4,7.3,17.3,7.7c-0.5,0.8-1.8,2.6-2.1,3.6   c-1.3,4.9-3,11.3-8.3,10.4c-3.5-0.5-8-5-11-7c-9.4-6-19.8-11.3-30.1-15.8c-5.3-2.3-10.8-5.1-16-7.7c-7.5-3.8-2.3-5-6.1-10.4   c-3.6-5.2-22.7-3.2-26.7,0.4c2.3,3.7,9.7,6.8,13.6,8.8c5.8,2.8,11.6,5.8,17.4,8.7c12.1,6,22.7,14,34.1,21c6.1,3.8,14.8,5,20.4,9.2   c2.8,2.1,2.2,0.4,2.3,4.1c0,2.1-0.9,3.5-1.6,5.4c-3.8,8.6-13.8,10.2-21.2,4.8c-3.3-2.5-5.4-5.6-9.4-7.8c-4.2-2.2-8.7-3.8-12.8-6.2   c-6.7-3.9-13.4-7.3-20.6-10.1c-12.6-5.1-26.7-6.4-38.3-13.2c-7.9-4.7-23-15.2-32-7.7c-9.1,7.5,2.1,17.8,10.7,14   c1.9-0.8,0.4-3.7,4.1-2.8c1.6,0.4,2.8,4.2,4.1,5.3c3.4,2.8,7.6,2,11.4,3.9c-2.3,5.8-2.3,11.8,5.6,14.4c1.6,0.5,8.3,0.6,9.9-0.1   c2.9-1.5,2.7-5.1,5.5-6.5c11.5-5.7,13.6,15.4,13.8,21.5c0.4,10.7,12.1,10.5,12.1,22.5c0,12.6-10.6,16.8-20.9,21.4   c-5.9,2.7-11.7,3.9-17.6,6.1c-5.4,1.9-9.2,4.8-15.4,4.4c-5.8-0.3-7.4-2.2-12.1-5c-5.2-3.1-9.8-3.5-15.4-4.9   c-5.9-1.5-19.1-16.3-22.6-4.4c-0.5,1.8,1.1,4.9,0.6,7.2c-0.4,1.9-1.8,3.3-2.6,4.9c-2.6,4.8-4.4,6.4-8.9,9.4   c-11.8,7.7-24,8.8-38.1,8.8c-6.5,0-13.1,0-19.6,0c-4.6,0-11.8-1.4-16,0.6c-3.8,1.8-4.9,7.6-9.3,8.8c-4.6,1.2-10.3-2.9-12.5-6.6   c-3.6-5.9-0.8-8.6,1.6-13.6c2.1-4.4,1.5-9.3,3.3-13.9c2.5-6.2,6.9-11.5,10.1-17.4c1.2-2.3,3.3-4.6,4.3-6.7c0.9-1.8,0.7-4.5,2.1-6.1   c2.7-3.1,5.6-0.2,8.6-1.9c3.9-2.1,6.1-11.1,9.4-14.7c2.1-2.2,4.8-3,4.4-6.6c-0.4-3.2-3.4-1.9-2.8-5.5c0.6-4,7.7-9.6,9.5-13.6   c4.2-1.2,3,2.6,5.5,3.6c10.9,4.4,4.7-18.7,5.4-23.5c1.4-10.1,14.8-15.3,21.3-23c7.4-8.8,12.1-21,15.5-31.4c1-2.9,15.5-21.3,4-20.4   c-1.6-4.4-0.7-8.7,2.3-12c3.2-3.6,10.1-2.4,12.4-5.5c3.8-5.2-5-6.3-5.4-9.9c-0.3-3.3,4.6-6.8,6.5-9.4c5.1-6.8,6.1-15,13.9-19.2   c4.7-2.6,14.6-6.1,15.4-12.4c1-7.8-10.9-4.2-12.9-12.3c-1.5-6.2,3.8-12.3,1.9-18.7c-1.4-4.6-7-7.8-2.7-12.5   c1.5-1.7,4.5-0.6,5.5-3.4c1.2-3.5-2.6-4.2-2.7-5.5c-0.6-7.3,11.1-16.3,16-20.8c6.9-6.4,15-7.4,17.5-17.8c3-12.5-1.4-25.4,2.7-37.4   c3.9-11.2,9.2-22.1,18-30.3c7.2-6.7,11.8-10.9,21-14.1c2-0.7,4-1.4,5.9-2c6.9-2.3,13.4-4.8,18.3-10.5c6.8-7.9,13.7-17.6,10.3-28.6   c-1-3.3-4-7.9-7-10c-4.4-3.1-10.1-0.9-15.3,0c-8.4,1.3-24.5,4-31.8-1.2c-7.7-5.4-3.6-17.9-2.1-25.5c1.8-9.1,9.5-15.9,10.6-25   c0.5-3.9,0.1-6.3,1.2-10c1.3-4.3,3.3-8,3.9-12.6c1.1-7.8,0.4-17.5-2.3-24.6c-3.2-8.4-5.4-12.1-3.7-21c3.9-20.3,22.4-33.4,33.6-50.4   c5.2-8,6-12.9,15.8-16.1c3.7-1.2,10.4-1.8,8.1-7.2c-1.4-3.3-9.1-6-11.9-7.8c-1.9-6.5,10.1-6.8,13.7-8c5.6-1.9,9.4-4.6,13.6-9.5   c8.9-10.2,12.1-20.4,25.8-24.7c10.4-3.3,21.1-6.8,32-8.4c12.3-1.8,24.8,0.3,36.7-3.6c15.8-5.1,25.6-18.2,28.6-34.3   c1.3-6.7,4-15.4,2.2-21.9c-2.2-8-8.4-14.5-12.7-21.4c-5.8-9.2-1.4-17.8,3.9-26.5c4.3-7.1,14.2-13.2,15.5-21.9   c1.3-8.7-4.8-14.1-6.7-21.7c-0.2-1-0.4-2-0.5-3c-0.3-5,2-7.2,2.8-11.5c0.8-4.4-0.7-9,0.6-13.2c4.2,1.7,7.6,12.9,9.9,17   c4.6,7.9,10.2,13.4,20.2,14.7c9.4,1.3,20.8,1.8,26.9-5.8c3.4-4.2,5.7-9.8,7.4-15.6c1.6-5.4,2.7-11,3.6-15.9c1-5.3,0.3-10.9,1-16.3   c0.8-5.6,2.6-10.7,4-16.1c2.2-8.8,6.1-16.5,5.9-25.2c-0.3-9.3,7.5-13,14.5-18.6c4.4-3.5,4.6-5.9,5.9-11.1c1.2-4.7,4-7.9,7.2-11.6   c5.5-6.1,12.4-12.3,10.9-21.2c-7.6,5.3-10.4,14.5-19.1,18.9c-10.4,5.2-26.6,6.8-22.8,21.7c1.6,6.4,2.2,7.6-0.7,13.7   c-2.7,5.7-4.1,11.3-5.2,17.6c-2.7,15-6.8,29.1-7.6,44.4c-0.3,5.1-0.7,12.1-2.4,18.3c-1.7,6.3-4.7,11.7-10.2,14   c-8.8,3.6-24.1,3.7-30.2-4.4c-3.3-4.3-5-9.3-7.6-14c-2.4-4.6-6.2-6-9.5-9.6c-4.2-4.6-5.2-16.1-3.6-23.7c0.3-1.4,0.7-2.6,1.2-3.7   c2.1-4.7,4.1-7.4,2.3-13.1c-2.5-7.8-11.3-11.3-13.9-18.7c-2.1-5.8,1.1-12.2-0.7-18.2c-2.8-9.3-7.4-17.3-9.5-26.9   c-1.8-8.2,3.9-16.8,5-24.7c1.9-14.3-15-7.4-16.6-17.1c-0.7-4.2,6.5-8.1,8.9-10.9c3.1-3.5,5.7-7.5,8.1-11.5   c2.1-3.7,3.9-7.3,4.4-11.6c0.7-5.9-1.7-6.7-5.9-9.5c-4.1-2.7-6.8-4-7.3-9.2c-0.3-3.3,0-9.3,1.8-12c1.9-2.9,7.2-4.3,9.9-6.1   c5.6-3.6,3-5.9,4.8-11.5c0.8-2.3,2.3-2.9,2.8-5.6c0.4-2.3-0.3-4.8,0-7.2c0.6-4.7,3.1-8.3,5.4-12.7c4.7-8.9,9.8-16.5,16.2-24.6   c2.2-2.8,6-6,7-9.4c1.5-5-0.6-11.8-2.8-16c-4.6-8.8-12.9-14.7-17.1-23.6c-8.7,8.8,5.4,16.2,10.4,21.4c7.4,7.7-0.5,17.7-5.2,24.3   c-6.9,9.6-12.1,19.5-16.2,30.6c-3.2,8.7-4.5,19.3-10.9,26.3c-3.7,4.1-8.5,7.2-12,11.6c-3.4,4.4-3,8.4-2.4,13.7   c0.4,4.3,0.7,11.9,3.5,14.7c2.9,2.8,8.7,2.3,12.5,3.5c-3.6,9-8.5,15-17.5,20.1c-5.6,3.2-8.7,5.3-8.2,12.8   c0.5,8.1,5.1,9.9,11.5,12.7c4.5,1.9,10,4.8,6.5,10.4c-3.3,5.2-4.3,5-4.5,11.8c-0.2,5.7-0.6,11.4,0.2,17c0.9,6.7,5.4,11,8.7,17   c5.3,9.7,0.6,20.3,4.7,29.9c2.2,5.1,7.2,5.3,10.2,9.4c2.7,3.7,1.4,8.4,0.7,12.7c-0.1,0.8-0.3,1.6-0.5,2.4   c-2.2,9.9-7.2,18.7-7.8,29.3c-0.6,10.1,3.1,19.6,5.9,29.1c2.5,8.6,4.2,17.3,1.1,26.3c-4,11.7-16.3,10.4-21.7,20.4   c-8.8,16.2,11.7,35.3,16.9,48.9c3.1,8-2.5,19.6-5.6,26.9c-3.5,8.2-11,15.4-20.2,16.5c-21.8,2.4-44.8-2.7-65.3,4.9   c-13,4.8-22.2,14.8-29.8,26.1c-7.2,10.6-12.2,11-24.1,13.5c-12.5,2.6-15.8,19-19.4,29.5c-3.1,8.9-8.1,19.4-12.9,27.4   c-4.1,6.8-13.1,10.3-17.7,17.8c-7.1,11.4-9.2,24.1-7.2,37.4c1.7,11.6,9.8,19.4,7.8,31.8c-1.7,11.2-4.3,23.3-8.8,34.1   c-2.4,5.7-5.8,11-8.5,16.4c-4.2,8.6-2.5,11.1,1.3,19.7c4.9,11.3,17.5,19.2,30.2,18.2c9-0.7,25.5-5.5,28,6.6   c2.2,10.6-6.9,16-14.9,20.2c-2.1,1.1-4.3,2-6.4,2.8c-3.6,1.3-7.3,2.1-11.2,2.7c-12.9,1.9-21.9,4.5-31.1,14.4   c-7.6,8.1-12.2,18.4-14.1,29.2c-1.2,6.4-2.3,12.8-2.6,19.3c-0.3,6.1,0.9,12.6-1.2,18.4c-1.8,5-14.9,23.1-21.3,21.1   c-4.6-1.5-5.8-7.7-11.6-6.2c-4.5,1.2-5.9,7.2-8.5,10.4c-8.9,11.3-13.8-2.8-17.3-9.7c-5-9.8-3-16.6-2-26.9c1-9.6-0.6-19.2,1.6-28.2   c0.1-0.7,0.3-1.4,0.5-2c2.6-8.7,7.9-19.8,4.8-29.1c-2.5-7.4-10.6-17.2-18-19.7c-10.5-3.5-27.5-0.9-38.3,1c-6.2,1.1-12,3.7-17.8,5.5   c-4.8,1.5-12.4,3-16.5,6.2c-5.9,4.6-6.4,12.1-10,17.4c-1.2,1.8-2.7,3.3-4.9,4.4c-7.8,3.9-18,3.8-26.9,3.8   c-11.4,0-17.3-2.1-22.4-12.6c-4.1-8.3-10.5-17.3-12.3-26.4c-2.1-10.4-0.9-24.3,0.1-34.8c0.6-5.5,1.1-10.1,2.6-15.1   c6.5-20.7,17.1-37.8,27.7-56.6c6.8-11.9,11-24.5,16.7-37.4c5.8-13.1,11.4-26.3,17.3-39.2c5.9-12.7,12.4-25.5,16.1-39   c2.9-10.5,9-18.9,12.4-29c1.4-4.3,0.3-9-1.6-12.8c-2.5-5-3.2-6.5-3.2-12.7c0-4.1-2.1-9.4-1.1-13.2c1.1-4.1,5.7-5.2,7.6-8.9   c3.4-6.7,1.9-25.1-5.4-29.1c-3,4.3-2.7,11.1-3.3,16.6c-0.6,5.8-3.4,11.2-4.3,16.6c-2,12.5,3.6,21.5,5.4,32.9   c1.5,9.3-5.6,17-9.5,24.6c-5.3,10.2-8.5,20.7-12.4,31.5c-5.7,16-11.1,31.6-20.9,46.2c-7.2,10.8-15.5,19.4-19.1,32   c-4,13.8-12.8,26.6-18.4,40c-3.6,8.5-6.9,17.6-9.8,26.4c-2.1,6.4-5.6,12.6-6.3,19.3c-0.6,5.7-0.6,12.1-0.7,17.9   c-0.2,12.9,1.4,26.6,7.5,38.1c3.2,6,6.4,12.2,9.4,18.2c2.4,4.6,3.5,8.6,8.1,11c9.6,4.8,23.1,2.6,33.5,2.2c4-0.2,10,1.1,13.3-0.5   c5.1-2.5,7.7-8.1,10.5-13.4c2.1-4.1,4.4-8,8.1-10.1c14.6-8.2,34.1-7.2,50.1-10.2c8.1-1.6,19.2-3,25.8,3.3   c6.5,6.2,5.2,21.9,3.2,29.9c-0.5,2-1,4.1-1.4,6.2c-2.3,10.9-3.7,22.1-6.7,32.8c-3.3,11.7-6.3,23.4-6.7,35.8   c-0.2,7.6,1.5,15.4,2.2,22.9c0.7,7.3,3.6,13.7,5.6,20.5c2.3,7.8-0.1,15.7-2.9,22.9c-2.9,7.4-4,15.9-8.4,22.9   c-4.6,7.4-11.4,13.4-16.7,20.5c-4.3,5.7-9,15.2-15.4,18.6c-0.1-0.2-0.2-0.3-0.3-0.5c-2.7-0.8-4.3-9.8-5.3-12.1   c-1.9-3.9-4.3-8.8-7-12.1c-5.9-7.1-16.6-8.4-24.3-13.7c-8.3-5.8-19.1-14.8-29.8-14.7c-6.9,0-6.3,4.7-2.6,8.2   c3.1,3,8.4,5.1,12.2,7.4c5.7,3.6,11.6,7.2,17.9,9.3c4.8,1.6,11,2.3,14.6,5.5c3.3,3.1,4.9,9.2,8.1,12.9c4.1,4.8,7.9,5.5,5.4,11.9   c-4.2,10.8-13.7,19.5-19.1,29.7c-3.4,6.4-3.9,4.7-8.9,0.7c-4.7-3.7-9.6-7.1-14.3-11c-7.8-6.4-16.3-12.3-23.8-19   c-2.6-2.3-6.5-6.8-10.6-5.3c-5.6,2-4.4,7.6-1.8,11c3.7,4.8,8.6,7.7,12.9,12c5.1,5,9.9,10.5,15.4,15.4c5.5,4.9,11,8,17.4,11.7   c6.1,3.4,11.5,8.6,17.6,11.7c2.4,11-9.9,20.4-15.6,27.8c-3.2,4.1-5.1,11.9-10.3,14.1c-6.2,2.7-11.7-3.6-17.5-4.6   c-23-4-12.9,34.4-30.2,36.3c-6.5,0.7-16-10.1-20.8-13.9c-7.2-5.7-15.1-15.7-24.4-16.9c-16.1-1.9,3.4,12.1,6.7,14.8   c7.2,5.8,13.5,13.5,22.5,16.5c1.9,0.6,5.4-0.3,6.5,2.2c0.9,2.1-2.2,4-1.5,6.1c1.5,4.6,12.9,2.6,8.9,9.9c-2.4,4.4-9.2,1.8-12.8,3.2   c-3.9,1.6-5.9,6.4-8.2,9.5c-2.6,3.5-4.8,9.7-7.9,12.5c-4.8,4.4-11.8,1.5-17.3,2.7c-4.4,1-8.3,5.5-12.1,7.8   c-4.6,2.9-8.4,5.6-13.9,6.6c-4.9,0.9-8.5,0.1-12.6,3c-4.8,3.4-5,5.9-9.2,0.1c-2.9-4-4.6-6.2-10.3-2.6c-3.2,2-6.2,5.9-9.5,8.1   c-3.3,2.2-7.4,4.5-12.1,3.3c-5.6-1.5-4.5-5.8-6.2-10.4c-3.4-9.5-12.4-12.1-20.6-16.1c-12.1-5.9-3.1-11.8-4.5-22.4   c-0.8-5.8-4.6-5.4-6.7-10.4c-1.5-3.6,0.8-9.1,2.3-12.1c2.4-4.6,3.4-5.7-1-10c-3.7-3.7-7.1-3.9-12.2-3.7   c-10.3,0.4-15.6-5.9-18.1-15.9c-1.1-4.4-1.4-8.9-2.6-13.2c-1.7-6.6,0.5-5.5,3.3-10.9c2.1-4-6.1-23.1-11.6-21.9   c1.9,6.2,9.6,10.6,9.3,17.5c-0.2,3.9-2.7,3.4-3.9,6.5c-0.8,2.3,0,3.3,0.5,5.6c1,4.9,2.2,9.9,3.3,14.8c1.4,5.7,1.4,12.5,5.7,17.1   c4.1,4.4,9.2,3,14.7,3.3c4.2,0.2,9.9,0.9,10.4,6c0.5,4.7-5.4,8.2-4.4,13.8c0.9,5,6,5.6,7.7,10.3c1.8,4.9-1.8,9.6-2.2,13.9   c-1,10.4,12.1,13.9,19.4,18.6c5.3,3.4,6.1,3.6,7,10c0.7,4.7,1.6,8.7,6.5,11c3.4,1.6,10.3,1.9,14.4,1.1c6-1.2,5.8-5.4,10.4-8.8   c3.6-2.6,7.5-2.7,10.8,1.1c2.2,2.5,2.6,1.7,0.1,4.5c-7.2,8.2-17.7,7.6-19.8,20.6c-1.1,7.2-5.2,18.7-13.2,21.6   c-8,2.9-14.1-7.8-22-4.4c-8.1,3.5-7.2,13.2-10.3,19.8c-4.5,9.5-11.5,15.2-19.9,4.9c-2.1-2.6-3.3-9.5-7.1-9.9   c-3.9-0.4-6.5,6.1-8.2,8.8c-1.9,2.9-4.3,9.5-8.2,8.3c-2.7-0.8-5.7-9.7-7-12.1c-4.1-7.9-6.2-16.2-13.8-21.6   c-7.9-5.6-15.9-10.2-23.9-15.8c-3.4-2.4-11.8-5.2-6.9,1.5c2.9,4.1,11.4,4.6,15.4,7.3c4.1,2.7,5.4,6.1,7.8,10.4   c2.5,4.6,5.8,7.8,9.2,11.5c3.7,4.1,7.9,7.9,9.9,13.2c1.8,4.8-0.5,11.8,2.3,15.9c11.4,1.3,17.6-19.4,29.7-9.8   c4.5,3.5,5.9,7,13.1,5.5c5.3-1.1,8.4-5.2,11-9.8c2.8-5,2.8-10.9,5.9-15.5c1.9-2.8,9.7-7.2,13.3-4.4c3.5,2.7-0.8,12.2-2.2,15.6   c-2.7,6.4-8.1,10.8-10.8,16.9c-4.8,10.6,8.4,13.1,4.2,23.6c-6.9,1.8-8.1-6.9-15.2-5.9c-6.3,0.8-11.4,5.2-14.9,10.4   c-1.7,2.5-2.2,6.8-6.6,5.4c-1.6-0.5-2.7-7.8-5.9-4.9c-5.3,4.9,4.1,12.4,9,12.1c7-0.4,9-8.6,14.5-11.5c4.9-2.6,8-1,12.7,0   c4.2,0.9,12.5,0.1,11.6,7.2c-0.3,2-3.2,3.7-4,5.4c-0.8,1.8-1.3,5.1-1.5,7.2c-1,10.4,0,21.4,0,31.8c0,10.5-6,17.7,5,24.1   c5.5,3.2,5.6,4.7,8.7,10c2.4,4.1,6.3,5.4,3.9,11.5c-3.1,7.9-9,15.3-11.1,23.7c-3.2-3.9-4.6-8.8-9.2-12.6c-2.2-1.9-4.3-3.7-6.6-5.3   c-1.8-1.2-5.3-1.9-6.6-3c-4.2-3.7-0.1-8.8-3.3-13.1c-1.7-2.3-6.1-2.1-7.1-4.4c-0.2-0.4-0.1-0.8-0.1-1.3c0.4-1.7,1.8-4.1,1.6-5.8   c-1.8-16-15.4,2.6-18.7,5.9c-5.9,5.9-18,7.8-25.9,10.4c-10.1,3.3-18.8,3.2-26.1-5c-3.8-4.3-9.5-18.6-17.2-16.4   c-4,1.1-4.9,7.9-8.4,9.9c-3.5,2-11.7,0.8-15.7,0.5c-6.3-0.3-27.5-8.7-32.4-2.8c-0.5,0.7-0.8,1.2-0.8,1.8h-5.8L-0.3,0L-0.3,0z"/>
	<path id="path108" class="st1" d="M172.2,1497.8c6.7,8.8-3,16.3-7.3,23.8c-5,8.6-4.7,20.1-7,29.8c-2,8.4-3,17.1-3.2,25.7   c-0.1,7.3,4.6,14.7,2.7,22c-0.5,1.8-1.5,4.6-3.9,4.9c-3.6,0.5-2.8-3.2-5.5-4.4c-8.4-3.9-5,6.4-4.4,10.4c0.8,5,1.4,10.2,1.6,15.4   c0.9,17.3-18.6,41.2-36.3,27.5c-8.4-6.6-11.5-14-24.2-12.1c-9.4,1.4-18.5,13.6-25.3,20c-8.4,7.7-16,13.4-27.5,15.6   c-3.8,0.7-8.6,1.1-12.1,2.5c-4.7,1.8-6.3,6.3-7.7,10.7c-0.5,1.4-1.8,9-4.1,7.3c-1.8-1.3-2-6.9-2.1-8.9c-0.3-4.6,0.5-8.7,1.2-13.3   c0.4-2.8-0.1-6.3,0.9-9c0.8-2.1,3.4-5.2,5.5-3.4c1.8,1.5,2.9,2.5,5.4,2c2.2-0.4,3.1-1.3,4.6-2.7c3.2-3.1,7.8-4,10.4-7.8   c1.5-2.1,3.4-6.2,1.7-8.7c-1.8-2.8-5.7-3.6-7.6-6.6c-1.6-2.5-1.2-5.4,2.4-5.4c3.4,0.1,5.6,2.1,8.2,4.1c3.2,2.3,6.4,4.5,9.5,7.1   c1,0.9,5.2,4.4,6,2.2c0.5-1.4-1.6-3.4-2.5-4.3c-3.1-3.4-7.7-6.4-11.8-8.7c-4-2.2-10-8-14-2.9c-1.7,2.2-2.3,4.9-1.7,7.6   c0.5,2.6,1.3,3.6,3.5,4.7c1.9,0.9,4.2,1.1,4.4,3.2c0.2,1.8-0.4,4.1-1.4,5.6c-1.3,1.7-3.4,3.1-4.9,4.5c-2.1,1.9-5.4,6-8.7,4.6   c-1.4-0.5-2-2.7-3.5-3.2c-5.4-1.9-7.2,5.9-7.7,9.4c-0.4,2.8-0.9,5.5-0.9,8.3c0,3.4-1.4,6.5-1.6,9.9c0,0.5-0.1,0.9-0.1,1.4h-3.4   v-228.5h5.7c0,3,7.7,4.1,10.1,4.8c4.9,1.4,9.8,3.3,14.8,4.6c5.4,1.4,11.3,1.5,16.9,0.1c6.1-1.5,10.9-6.3,17.7-5.1   c5.5,1,7.5,4.1,10,8.2c3.3,5.4,5,7.1,12,7.8c13,1.3,26.1-1.2,38.6-5c7.3-2.2,10.7-4.7,11.9-12.1c0.5-3.5,2-11,7.7-6.7   c1.4,1.1,1.7,2.8,1.6,4.8c-0.2,2.2-0.9,4.5-1.1,6.1c-0.5,5.1,1.4,10.4-0.2,15.3c-1.1,3.3-0.8,6.4,1.3,9.3c0.5,0.7,1.4,3.5,2.3,3.5   c1.5-0.1,0.3-2.9,0-3.6c-1.7-3.1-1.4-7.1-1.2-10.6c0.1-1.7,0-3.8,0.7-5.3c0.8-1.8,3-1.9,4.4-0.8c1.3,1,2.3,3.2,2.7,4.8   c0.5,1.9-0.7,4,0,5.9c0.9,2.4,2.8,3.8,5,5.4C164.4,1491.8,169.3,1494,172.2,1497.8z"/>
	<path id="path110" class="st1" d="M17.8,1808.5c2.5,4.1,6.7,4.8,5.5,10.9c-1.1,5.4-5,10.1-8.4,14.1c-4.6,5.6-9.6,12.3-15.1,17.6   v-91.7h3.1c0,1.6,0.5,2.6,1.8,3.9c3.5,3.4,7.2,0.4,8.8,6.6C16.5,1781.8,11.1,1797.4,17.8,1808.5z"/>
	<path id="path112" class="st1" d="M11.2,1711.7c0.6,1.8-0.5,4.3-0.6,6.1c-0.4,7.4-0.7,14.7-1.1,22c-0.3,6.5,0.5,8.5-3.3,13.2   c-2.1,2.6-2.9,1-3.3,4.9c-0.1,0.6-0.1,1.1-0.1,1.6h-3.1v-73.1h3.4c0,2.6,0.5,5.3,1.2,7.7c1.1,3.8,1.4,7.8,2.3,11.6   C7.3,1708.4,10.4,1709.3,11.2,1711.7z"/>
</g>
<g id="NY">
	<path id="path6" class="st2" d="M1999.7,1535v31.3h-1.3c-4.7,0-9.2-0.9-13.7-1.9c-6-1.4-12.9-1.7-19.1-1.8   c-5.5-0.1-10.6-1.6-16.1-2.1c-6-0.4-12.2-0.2-18.1-0.5c-9.7-0.5-20.4-1.1-29.1-5.6c-2.9-1.5-4.3-2.5-7.7-1.6   c-3.7,1.1-7.4,2.2-11.2,3.3c-7.2,2.1-12.3,0.9-18.8-3c-8.2-4.9-19.1-3.1-28.4-3.1c-5.3,0-10.1,0.1-15.2,1.6   c-5.5,1.7-10.6,4.5-16,6.7c-3.1,1.2-6,2-8.3,4.4c-2.1,2.2-2.1,4-5,2.1c-1.4-0.9-4.9-3.2-5.5-4.6c-1.4-3,2.1-4.7,3.8-6.3   c2.3-2.2,3.3-5.1,5-7.6c1.9-2.7,4.8-4.8,7.4-6.9c1.8-1.4,3.2-2.6,4.6-4.4c0.6-0.7,1.1-2.1,2-2.5c2.8-1,5.5,2.8,8.6,2.3   c3.3-0.5,6.6-3.8,8.6-6.2c2.9-3.4,3.2-8.1,8.3-9c3.7-0.6,7.4,0.6,10.7,1.6c1.6,0.5,3.2,0.8,4.9,1.1c1.6,0.2,3.1,0.5,4.7,0.9   c8,1.6,16.1,2.5,24,4.3c13.9,3.1,28.4,5,42.5,6.9c16.4,2.2,33.4,1.1,50,1.1c9.2,0,18.2-0.2,27.2-0.8L1999.7,1535L1999.7,1535   L1999.7,1535z"/>
	<path id="path8" class="st2" d="M1999.7,1473.1v49.3c-8.8,0.1-16.9,3.8-25.9,2.5c-2.8-0.4-4.5-1.7-7.1-2.9   c-3.7-1.7-7.8-3.3-11.6-4.8c-8.9-3.6-19.7-3.8-29.1-2.9c-5.7,0.5-10.9-0.1-16.5-1c-3.5-0.6-7-0.2-10.5-0.4c-3.6-0.2-7.3-1-10.8-1.8   c-5.9-1.5-11.5-3-15.5-7.8c-1.9-2.3-3.5-4.6-3.7-7.5c-0.2-2.4,0.2-4.7,0.4-7c0.5-4.6,0.7-10.4,3.5-14.1c2.4-3.3,4.6-6.1,7.9-8.4   c2.8-1.9,5.6-3.8,8.4-5.7c3.5-2.4,13.2-9.8,10.8-15.4c-1-2.4-4,0.7-5.9,1.4c-2.3,0.9-4.8,0.4-7.1,1.4c-3.1,1.4-5.5,4.9-7.5,7.6   c-2.6,3.5-5.3,6.4-8.7,9.1c-3,2.4-7.1,5.4-8.7,8.9c-1.9,3.9-2.5,8.4-2.5,12.6c0,4.1,0.4,8.1,1.5,12c1.1,4,2.8,6.8,2.2,11.1   c-0.7,6-6.8,10.6-12.8,8.6c-5.5-1.9-7.1-8.4-11.3-11.9c-2.3-1.9-5.4-3-8-4.7c-0.3-0.2-0.5-0.4-0.8-0.6l15.3,0.8l-0.2-44   c-0.2-0.1-1.6-0.1-2.2-0.3c-0.8-0.4-1.6-1.1-2.2-1.7c-1.3-1.1-2.5-2.3-3.6-3.7c-2.7-3.2-5.5-7-7.8-10.5c-2.9-4.4-4.9-9.9-7-14.7   c-1.9-4.3-4.5-8.9-8.3-11.7c-2-1.4-5.2,0.5-7,1.6c-2.2,1.4-5,2.4-7,4c-1.1,0.8-1.9,1.7-3,2.5c-2.9,1.9-6.1,3.6-9,5.3   c-3.6,2-4-0.9-6-3.4c-1.1-1.4-2.9-3.8-4.7-4.2l0-0.1c1.4-0.5,2.7-1,4-1.6c3.8-1.6,10-5.3,9.4-10.2c-0.3-2.6-1.6-10.9-5.8-8   c-4.3,3-4.8,9.6-10.8,10.1c-5,0.4-11.5-0.2-15.7-2.8c-3.5-2.2-9.5-3.1-11.4-7c-0.7-1.4-0.8-2.5-0.6-3.7c0.2-1,0.7-2,1.4-3   c0.8-1.2,1.5-3.1,2.4-4.2c1.2-1.4,2.9-1.7,3.6-3.7c0.6-1.7-0.9-11.2,3.5-7c1.4,1.3,1.3,3.4,2.9,4.8c1.8,1.5,3.3,1.4,4.8-0.4   c3.2-3.8,6.6-7.6,9.4-11.8c2.8-4.2,5-8.8,10.6-9.3c4.4-0.4,10.3,0.9,13.6-2.7c1.6-1.8,2.2-4.4,3.5-6.3c1.6-2.1,5.1-4.5,7.6-5.4   c4.6-1.7,8.5,0.9,10.9,4.8c2,3.2-0.5,7.2,1.3,10.5c3.8,0.5,3-7.8,2.5-9.8c-0.5-1.9-1.7-2.9-3.1-4.2c-0.9-0.8-3-2.3-2.7-3.7   c0.6-3.3,8.1-1.8,10.3-2.4c2.6-0.7,9.9-8.3,6.4-10.8c-1.9-1.3-3.3,1.3-3.8,2.6c-0.4,1.1,0.2,1.8-1,2.6c-0.9,0.5-2.3,0.3-3.3,0.3   c-1.9,0-5.8,0.7-7.2-1.1c-0.8-1-0.6-2.6-1.1-3.8c-0.7-1.6-1.3-2.3-1.1-4.1c0.2-2.1,0.5-3.2,1.7-4.9c2.1-2.9,4.3-7.4,6.9-9.7   c1.7-1.4,3.4-1.2,4.8,0.7c1.8,2.5-0.2,2.7-1.4,4.9c-0.8,1.5-1.3,4.6-0.2,5.9c1.3,1.6,4.3,1.9,6.2,1.9c1.8,0,3.6-0.1,5.1-0.6   c2.3-0.8,2.4-2.2,2.5-4.7c0-0.8,0.3-2.2,0-2.9c-0.4-1.1-0.6-0.7-1.3-1.4c-1.8-1.9-1.4-1.6,0.7-3c1.6-1.1,2.3-3.1,1.2-5.2   c-0.9-1.6-2.3-1.8-4.1-2c-2.8-0.4-2.3-1-3.7-2.9c-0.9-1.3-3.1-2.1-4.5-2.9c-0.1-2.5,1.2-3.5,1.6-5.8c0.5-2.5,0.7-5,1.3-7.4   c0.3-1,0.4-1.8,0.6-2.4c0.3-0.9,0.9-1.2,2.7-0.5c1.8,0.7,3.7,1.5,5.6,2c8.7,2.6,6.8,13.1,13.6,17.6c2,1.4,7.3,3,6.4,6   c-0.9,2.8-6.1,4.8-8.5,5.8c-2,0.8-9.2,4.5-4.5,5.8c1.6,0.4,3.1,0,4.5,0.8c1.7,1,2.7,2.8,3.6,4.5c0.9,1.8,6.6,12.9,6.8,6.4   c0.1-4.6-3.9-8-5.6-12.1c-0.9-2.1-1.1-3.2,0.6-4.6c1.2-0.9,2.4-1.6,3.8-2.6c3.3-2.5,5.6-3,9.8-3.2c1.7,0,4.4-0.5,6,0   c1.8,0.6,2.2,2.4,2.9,4.1c0.9,2.2,2,3.7,3.5,5.6c1.2,1.6,2.6,5.9,5.2,5.5c-1.2-6-6.1-11-7.6-16.6c3.9-2.3,7.5-4.8,11.4-7.2   c2.3-1.5,13.9-6.5,13.1-9.5c-4.6-0.2-9.4,1.8-13.8,3.1c-6,1.8-10.7,4.4-16,7.6c-6.4,3.7-11.3,3.3-17.5-0.5   c-4.7-2.9-7.1-8.3-9.8-12.9c-3.3-5.6-8.5-11.2-10.2-17.5c-1.8-6.8,5.4-6.7,10.2-8.2c7.1-2.3,14-5.4,20.9-8.4   c4.1-1.8,8.3-3.3,12.6-4.4c2-0.5,4.4-0.7,6.3,0c3.4,1.3,6.7,2.4,10.1-0.1c2.1-1.6,3.9-3.2,6.2-4.6c2.5-1.5,3.2-2.6,3.1-5.6   c-2.1,0.1-14.1,13.4-16.7,7.8c-0.8-1.6,1.1-4.3,0.2-6.3c-1.8-3.9-6.3-0.9-8.7,0.1c-3.3,1.4-7,1.8-10.6,2.3   c-4.3,0.6-8.8-0.1-13.1,0.1c-7.6,0.3-15.8,1.6-22.5,5.6l-1.6-1.3c2.2-5,6.6-8.1,11.6-10.1c5.6-2.3,12-1.5,17.7-3.7   c3.7-1.4,7-2.9,10.9-3.5c3.3-0.5,5.4-0.8,8-2.7c1.4-1.1,4.1-1.6,4.9-3.5c0.9-2.2-0.7-3.1-1.6-4.9c-1.2-2.6-1.5-5.8-1.5-8.6   c0-1.6-0.3-3.6,0-5.2c0.2-1.2,0.9-2.1,1.1-3.3c0.3-2.9-1.6-3.1-3.1-5.1c-1.6-2.1-1.6-4.4-3.5-6.2c-1.8-1.8-3.3-4.8-4.4-7.2   c-1-2.4-2-5.2-0.4-7.4c1.4-1.8,3-2.5,3.1-5.1c0.3-6.7-0.8-2.1-2.3-5.1l0-41.7l8-15l-2.1-153.3l-13.2-53.4l78.1-29l28.3-52.4   l-9.3-61.1l-157.5-132.2c3.9-2.7-3.7-5.7-5.1-6.7c-2.9-2.1-2.2-4.5-4.9-7.4c-2.3-2.5-6-3.6-7.8-6.5c-1.8-2.7-2.2-7.3-2.9-10.4   c-1.2-5.7,0.3-11.6-0.4-17.4c-0.7-5.6-2.9-10.8-3.7-16.4c-0.6-3.9-0.4-7.9-0.4-11.9c0-5.6,1.7-11.7-4.5-13.9   c-4.8-1.7-10.1-0.7-13.7-5.5c-2.2-2.9-3.7-6.4-5.1-9.5c-1-2.1-1.4-4.6-2.6-6.4c-1.2-1.8-3.1-2.9-4.4-4.7c-4-5.3-3.7-11.6-6.5-17.3   c-2.7-5.7-6.8-10.5-1.8-16.4c5.3-6.3,10.5-12.8,18.5-15.3c7.4-2.3,14.2-2.4,18.6-9.5c4.5-7.1,7.6-13.8,6.5-22.4   c-1.6-11.3-3.3-19.5-12-27.5c-6-5.5-12.5-12.4-3.4-18c3.6-2.2,6.2-3.4,7.9-7.5c1.4-3.2,1.5-9.7,4-12c4.7-4.2,9.7,7.3,11.5,10.1   c4,6.4,9.1,7.3,15,11.2c6.2,4.3,12.5,8.7,18.1,13.7c4.6,4.1,10.4,11.6,16.2,13.9c5.2,2.1,9.2-2.5,14.7,1.8c3.3,2.6,3.4,6.9,5.7,9.4   c2.6,2.7,7.8,2.6,11.3,3.3c8.7,1.7,13.4,3.3,18.7,10.7c5.9,8.2,12.2,16.9,16.2,26.4c2.1,5.1,3.7,9.7,6.5,14.4   c2.5,4.2,4.2,9.6,4.6,14.4c0.4,4.2-1.4,6.5-2.6,10.2c-1.1,3.6-1.1,8.5-0.7,12.5c1.1,11.1,4.6,22.1,8.8,32.4c1.4,3.6,4.1,8.3,7.8,10   c2.9,1.4,8.4,1.6,6.5-3.3c-1.1-3.1-5.5-2.2-4.6-6.6c0.8-3.7,4.1-2.6,3.6-7.8c-3.7-2.8-8.8-3.3-9.8-8.3c-1.2-5.6,0.4-12.1,1.7-17.3   c1.5-5.9,8.4-49,15.7-45.4c3.6,1.8,2.2,6.1,7.8,5.4c4.2-0.5,5-3.5,6.2-7c1.9-6.1,2.9-14.6,1-20.9c-2.7-8.5-7.5-15.9-8-25.3   c-0.7-12.9,6.6-22.7,12.5-32.9c4.2-7.2,3.6-10.8-1.2-18.2c-2.7-4.1-6.4-11.8-12-10.6c-1.5,6.7,4.9,11.4,0.9,18.9   c-2.4,4.5-10.7,10.1-15.9,9c-13.1-2.6,0.1-30.1-18.1-24.7c-7.7,2.3-10.3,6.2-19.2,5.8c-2.7-0.1-7.3,0.2-9.7-1   c-3.2-1.6-4.4-6.4-7.6-7.9c-14.1-6.8-7.8,21.8-8.2,30.2c-10,1.6-10.4-15.1-9.8-21.3c1.8-16.9,0.6-26.2-14-36   c-8.2-5.5-33-16.9-16.5-25.1c10.8-5.4,30.9-5.2,35.5-18.8c3.8-11.3-2-34.1-7.4-43.7c-11.1-19.6,5.6-13.9,18.9-9.9   c6.3,1.9,14.5,1.6,19.1-3.3c3.4-3.7,3.4-13.8,7.3-16.4c11.1-7.3,36.3,9.2,45.4,14c7.4,4,31.6,22.5,38.7,18h1.6v1128.6h-0.5   c-1.6,1.2-4,1.8-5.8,3.1c-1.6,1.2-2.2,2.8-3.5,4.3c-1.2,1.2-2.8,1.9-3.7,3.4c-1.1,1.9-0.3,3.9-0.7,5.9c-0.4,2.4-1.2,4.8-1.6,7.3   c-0.4,2.6-2.2,4.1-3.9,5.8c-1.6,1.6-2.9,2.9-5.4,2c-1.9-0.7-4.7-2.9-6.2-4.4c-3.9-3.9-0.1-10,0.4-14.6c0.5-4.6-4.4-9.8-7.3-12.9   c-3.9-4.3-9.5-1.3-14-3.6c-1.5-0.8-2.1-2.6-3.8-2.9c-2.7-0.5-1.6,1.6-2.2,3.1c-0.8,1.8-4,1.8-1.8,3.5c1.6,1.3,4.7,0.8,6.7,1.1   c4.6,0.6,8.4,2.8,12.3,5c4.6,2.6,3.9,8.7,2.4,13.3c-0.6,1.8-1.4,3.7-1.8,5.4c-0.5,2.2,0.2,2.7,1.4,4.6c0.9,1.2,1.8,2.7,3,3.6   c1.4,1.2,3.5,1.5,4.9,2.5c5.3,3.7-4.3,13.4-7.1,16.5c-3.7,3.9-7.8,6.2-6.7,12.4c0.8,4.6,5,9.4,7.6,13.2c1.9,2.8,5.3,4.5,3.3,8.3   c-2.1,3.9-7.2,5.2-11,6c-4.5,1-7.9,1.9-11.9,4.3c-2.4,1.4-6.9,2.7-6.5,6.1c2.1,0.6,3.1-0.6,4.9-1.4c2.3-1.2,4.9-1.3,7.4-2.2   c4.6-1.8,8.3-3.2,13.2-3.6c5.1-0.4,7.2-1.1,9.3-5.9c1.1-2.5,3.4-9.7,7-9.5c2,0.1,3,2.8,5.1,3.3c2.1,0.5,4.1,0.2,6.2,1.2   c2,1,3.8,2.4,5.4,4c1.3,1.3,3.5,1.7,4.5,2.9L1999.7,1473.1L1999.7,1473.1z"/>
	<path id="path18" class="st2" d="M1227.8,0h520.9c-1.8,4.7-4.1,8.9-7.6,12.6c-2.5,2.5-5.9,4.6-7.8,7.7c-2.1,3.4-2.8,7.8-4.9,11.1   c-1.4,2.3-6.3,6-6.7,8.6c-0.7,5.1,4.6,3.7,7.4,2.9c2.6-0.7,7.8-3.1,8.3,1.6c0.3,3.4-4.5,6.3-5.5,9.4c-2.7,8.4,3.4,11.9,10.3,12.9   c4,0.6,7.4,0.7,6.2,5.8c-0.8,3.5-3.8,4.7-5.6,7.5c-4.4,6.8,1.1,12.7-8.7,14.4c-12.6,2.2,2.2,8.6-5,12.7c-3.1,1.7-6.6-0.4-9.8,2.1   c-4.8,3.8-1.3,4.8,0.2,8.5c3,7.4-10.2,13-15.2,15.3c-8.4,3.9-12.4-4.4-8.5-11.5c1.8-3.4,5-5.5,7-8.7c1.9-3.2,3.1-7.3,4-11   c1.1-4.4,0.9-9.1,3.2-13.3c1.5-2.7,5.5-5.1,5.8-8.1c-9.3-0.5-13.4,5-14,13.9c-0.4,6.3-5.8,10.3-7.6,16c-2.1,6.8-4.5,10.4-9.6,15.8   c-1.8,1.8-3.3,4.8-5.9,4.9c-4,0.2-2.8-3-2.9-6c-2.1,2.3-10.2,9.2-10.3,12.2c-0.1,4.5,7.2,1.5,6.2,7c-0.7,4-4.9,2.8-7.4,5.3   c-3,2.9-1.6,7.7-3.3,11.1c-1.5-0.7-2.9-2.9-5-4.1c-2.4-1.3-4.2-0.8-3.8-4.9c-1.5,0.6-2,2.2-3.2,2.9c-1.9,1-2.5-0.3-4,1.3l-0.1-0.1   c-6.6-2.9-84.2-30.1-95.8-35.4c-2.4-1.1-8.3-2.5-11-1.3c-4.2,1.9,1.1,3.8,1.6,7.4c-4.2,0.5-53.6-18.6-55.5-19.8   c-4.4-2.8-1.2-7.5-4.3-11.4c-1.8-2.1-3.5-1.4-3.6-4.6c-0.1-3.1,1.8-3,3-5.4c2.9-6.1-1.6-6.5-4.6-9.9c-3.9-4.3,3.6-15.9-7-15.6   c-3.6,0.1-6.4,3.1-8.6-0.9c-0.9-1.7,0.1-2.9-1.3-4.6c-1-1.2-2.8-2.1-4.2-2.7c-4-1.6-5-2.2-7.8-5.5c-3.5-4-4.9-3.5-5.7,1.5   c-0.8,5.9-2,4.2-4.9,0.5c-2-2.4-5.2-2.9-7.4-5.3c7.8-0.9,10.1-12.8,1.2-9.7c-9.5,3.3-1,9.8-6.5,15.2c-2.6,2.6-6,1.1-7,5.5   c-0.6,2.8,1.1,5.5-0.4,8.2c-1.6,3-4.9,3.2-6.3,6.1c-1.4,3-1.2,7-2.4,10.3c-7.7,1.5-169.1-69.4-179.6-72.4   C1227.2,4.3,1227.7,2.1,1227.8,0z"/>
</g>
<g id="Airports">
	<path id="path14" class="st3" d="M1813.1,1287.8c0.9,4.4,3.5,10.4,1.9,14.8c-0.9,2.5-2.7,4.8-4,7.1c-0.9,1.6-1.8,4.2-3.4,5.2   c-1.1,0.8-2.6,0.7-3.9,0.9c-3.8,0.8-7.5,2.2-11.1,3.8c-7.1,3.1-13.6,7.2-20.5,10.6c-6,3.1-12.3,6.6-17.5,10.9   c-2.4,2-4.6,4.2-7.1,6.1c-2,1.6-4.8,3-5.1,5.7c-0.2,2.1,1.2,3.9,1.6,5.8c0.5,1.9,0.3,4.2-0.4,6c-1.9,5.1-5.7,9.5-9.3,13.6   c-2.1,2.4-3.6,5-5.5,7.4c-0.5,0.6-1,1.3-1.4,1.9c-1.5,1.8-2.9,3.7-4,5.8c-1.6,2.9-4.9,5.4-8.2,6c-3,0.5-5.7-0.4-4.2-3.7   c1.3-2.9,4.1-4.7,6.1-7.1c3.2-3.9,3.6-6.8,3.6-11.7c0-2.2,0.2-4.2,0.8-6.1c0.9-2.6,3.3-4.8,3.9-7.4c0.8-3.9-4.1-7.6-6.7-9.6   c-3.7-2.7-7.4-4.9-11.1-7.7c-9.9-7.6-21.1-13-31.9-19c-21.1-11.6-41.2-25.2-62-37.5c-6.6-3.9-13.7-6.9-20.2-11.3   c-6.4-4.4-12.3-9.4-18.7-13.8c-6.7-4.6-13.1-9.8-18.7-15.7c-7.4-7.6-11.6-20.1-11.5-30.8c0-6.5,2.1-10.4,5-15.9   c1.3-2.5,2.4-5.2,4.6-7.2c1.6-1.6,3.9-2.4,3.3-5.1l0.2-8.1c1.4,0,2.7,0.1,4.1,0.4c2.6,0.6,4.9,1.6,7.6,1.9   c4.6,0.6,9.2-0.4,13.6-0.6c4.6-0.2,3.2,2,4.8,5.3c1.6,3.2,5.1,4.8,8.4,5.4c5,1,5.2-5.4,5.5-8.8c0.6-6.1,1.3-9.9,7.5-12.1   c2.6-0.9,5.4-1.6,8-2.3c3.3-1,6.8-1,10.2-0.9c5.2,0.2,10.5,1.9,15.7,2.5c5.5,0.7,10.8,1.9,16.3,2.5c9.2,0.9,19.4,3.7,27.5,8.1   c4,2.2,7.9,4.5,11.7,7c3,1.9,5.7,4.6,8.9,6.2c3.5,1.7,7.6,2.2,11.2,3.8c4,1.8,7.6,3.8,10.6,6.9c2.1,2.3,4.1,5.7,6.7,7.2   c3.7,2,8.2,1.9,12.2,2.8c3.4,0.8,5.6,2.9,8.5,4.8c3.4,2.2,6.9,4.3,10.2,6.8c3.1,2.4,6.7,4.2,9.1,7.5c2.1,2.9,2.9,6,5.5,8.5   c1.6,1.6,2.7,3.4,3.7,5.4c0.8,1.5,1.3,3.6,2.3,5.1c-0.5,0-1,0-1.6,0c0.3,1.1,1.3,1.8,2,2.8c2.4,2.9,4.6,5.4,7.6,7.6   c3,2.2,6.4,4,8.8,6.7C1808.1,1277,1811.8,1281.8,1813.1,1287.8z"/>
	<path id="path20" class="st3" d="M1745.1,1382.3c0.4,1.3,0.4,2.8,0.2,4.2c-0.2,1.5-1,3-1.2,4.6c-0.2,1.4,0.3,2.7,0.3,4   c0,0.9-0.1,1.6-0.3,2.4c-0.2,0.7-0.6,1.4-1.3,1.9c-1.3,1.2-2.3,2.6-3.7,3.7c-1.5,1.2-2.7,1.7-4.6,1.3c-1.4-0.3-2.8-1-4.3-1.1   c-2-0.3-3.9-0.1-5.6-1.5c-0.8-0.7-1.6-2.2-1.3-3.3c0.3-1,1.6-2.1,2.2-2.9c0.8-1,1.8-2,2.3-3.2c0.5-1.1,1-2.1,1.6-3   c0.4-0.5,0.9-1.1,1.4-1.5c1.6-1.4,3.3-2,4.5-3.8c1-1.4,1.8-3.2,3-4.4c1.1-1,2.7-1.8,4.3-1.3   C1744.6,1379.1,1744.7,1380.8,1745.1,1382.3z"/>
	<path id="path40" class="st3" d="M1557.6,1182.2l-0.2,8.1c-3.7,0.3-5.9,0.8-7.7,4.4c-2.3,4.5-4.7,9.1-6.3,13.9   c-3,9.8-2.1,20.6,1.6,29.9c2,5,5.9,10.3,1.2,14.1c-2.9,2.3-2.9-0.1-3.9-2.3c-0.6-1.2,0.2-2.1-1.9-1.9c-1.7,0.1-1.6,1.2-2.3,2.5   c-1.4,2.8-2.7,3.9-5.6,1.6c-1.6-1.3-3-3.5-4.2-5.2c-0.9-1.2-1.9-2.3-2.9-3.4l0.5-0.5c2.2-3.1,4.7-5.7,4.5-9.7   c-0.2-7.4-3.7-14.8-5.5-22c-1.1-4-2.1-8.1-3.5-12c-1.5-4.1-3.7-8-5-12.2c-1.4-4.4-2.9-8.7-2.6-13.4c3.1-0.2,6,2,8.4,3.7   c3.2,2.3,6,3.2,9.9,3.7c7.2,1.1,15,0.4,22.3,0.4C1555.4,1182.1,1556.5,1182.1,1557.6,1182.2z"/>
	<path id="path58" class="st3" d="M1430.6,695.4c0.8,1.2,3.1,3.3,2.9,4.5c-0.4,2.4-2.4,1.6-3.6,0.8c-2.4-1.5-3.9-6-6.7-8.1   c-2.7-2-6-3-9.3-1.7c-2.5,1-8.2,4.4-9.9,6.5c-0.9,1.1-1.4,2.3-1.6,3.6c-1.1-0.9-1.9-2.1-2.8-3.2c-3.9-4.5-4.8-10.5-8.2-15.2   c-1.8-2.7-2.7-2.8-3.8,0c-0.9,2.2-0.9,4.3-3.6,4.5c-2.2,0.2-4.1-1.8-6-2.7c-2.6-1.3-5.1-2.8-7.6-4.3c-2.5-1.5-3.9-3.1-7-2.7   c-2.6,0.3-5,2.1-7.3,3.4c-6.9,3.8-13.8,7.9-20.3,12.1c-3.2,2-5.9,4.4-8.8,6.8c-2.1,1.7-5.4,4.2-8.2,2.6c-2.2-1.3-2.5-5-3.3-7.2   c-1-2.8-2-5.8-2.7-8.8c-1.3-5.4-1.2-10.7-1.2-16.2c4.2-0.3,8.8-1.7,11.3-2.8c10.3-4.4-1.9-15.4,0-23.4c1.2-4.8,5.4-4.1,9.9-4.6   c6.6-0.7,12.4-1.5,18.5-4.1c9.9-4.2,17.4,0.4,26.1,4.9c6,3.1,12.4,6.4,18,10.2c4.8,3.3,8.7,7.6,13.3,11.2c5.9,4.6,23.1,8,18.4,17.6   c-2,4-5.4,3.1-2.4,7.5C1426.5,689.7,1428.6,692.4,1430.6,695.4z"/>
	<path id="path76" class="st3" d="M1306.4,669.7l-0.1,0.2l-9.4,1.5c-2-2.2-14-14.2-14-14.2l10.8-10.7l8.1,10.5   c-0.3,2.8-1.1,6.9-0.2,9C1302.6,668.1,1304.3,669.3,1306.4,669.7z"/>
</g>
<g id="Queens">
	<path id="path10" class="st4" d="M1968.6,764.1l9.3,61.1l-28.3,52.4l-78.1,29l13.2,53.4l2,153.3l-8,15l0,41.7   c1.5,2.9,2.7-1.6,2.3,5.1c-0.1,2.6-1.7,3.3-3.1,5.1c-1.7,2.2-0.6,5.1,0.4,7.4c1,2.3,2.6,5.4,4.4,7.2c1.9,1.8,1.9,4.1,3.5,6.2   c1.5,2,3.5,2.2,3.1,5.1c-0.1,1.2-0.8,2.1-1.1,3.3c-0.3,1.6,0,3.6,0,5.2c0,2.8,0.3,6,1.5,8.6c0.8,1.8,2.4,2.8,1.6,4.9   c-0.8,1.8-3.5,2.4-4.9,3.5c-2.6,1.9-4.8,2.1-8,2.7c-4,0.7-7.2,2.1-10.9,3.5c-5.7,2.2-12.1,1.4-17.7,3.7c-4.9,2-9.3,5.1-11.6,10.1   l1.6,1.2c-0.5,0.2-0.9,0.5-1.3,0.8c-6.3,4.2-5.4,13.2-5.4,20c0,4.1,0,8.5-1.4,12.3c-0.9,2.3-2.2,4.3-4.4,5.9   c-2.1,1.6-6.2,4.6-8.9,4.3c-2.5-0.3-2.3-4.6-2.7-6.8c-1-5.5-1.3-10-5.6-14.2c-2.1-2-4.5-3.5-6.6-5.6c-2.3-2.3-4.6-4.8-6.7-7.2   c-3-3.4-5.2-6.6-9.5-7c-1-1.4-1.5-3.6-2.3-5.1c-1-1.9-2.1-3.8-3.7-5.4c-2.5-2.5-3.4-5.7-5.5-8.5c-2.4-3.3-6-5-9.1-7.5   c-3.2-2.5-6.8-4.5-10.2-6.8c-2.8-1.9-5.1-4-8.5-4.8c-4-0.9-8.5-0.8-12.2-2.8c-2.6-1.5-4.6-4.9-6.7-7.2c-3-3.1-6.7-5.2-10.6-6.9   c-3.7-1.6-7.8-2.1-11.2-3.8c-3.2-1.6-5.9-4.3-8.9-6.2c-3.8-2.4-7.7-4.8-11.7-7c-8.1-4.4-18.3-7.1-27.5-8.1   c-5.4-0.6-10.8-1.8-16.2-2.5c-5.2-0.6-10.5-2.3-15.7-2.5c-3.4-0.2-6.9-0.1-10.2,0.9c-2.6,0.8-5.5,1.4-8,2.3   c-6.2,2.3-6.9,6-7.5,12.1c-0.3,3.4-0.5,9.8-5.5,8.8c-3.3-0.6-6.8-2.2-8.4-5.4c-1.6-3.3-0.2-5.5-4.8-5.3c-4.4,0.2-9.1,1.2-13.6,0.6   c-2.6-0.3-5-1.4-7.6-1.9c-1.4-0.3-2.7-0.4-4.1-0.4c-1.1-0.1-2.2,0-3.4,0c-7.3,0-15,0.7-22.3-0.4c-3.9-0.5-6.7-1.4-9.9-3.7   c-2.4-1.8-5.3-4-8.4-3.7c-0.2,4.7,1.2,8.9,2.6,13.4c1.3,4.2,3.5,8.1,5,12.2c1.4,3.9,2.4,8,3.5,12c1.8,7.1,5.3,14.6,5.5,22   c0.2,4.1-2.3,6.7-4.5,9.7l-0.5,0.5c-2-2.1-4.1-4-5-7c-1.5-4.7-3.5-9.1-5.2-13.6c-1.9-4.9,0.3-11.4-1.9-15.9   c-1.8-3.8-3.2,0.8-3.3,3.2c-0.2,3.3,0.7,6.1,1.4,9.1c1.8,7,4.8,13.2,4.4,20.7c-0.4,7.2-5.2,3.5-9.3,7.4c-4.5,4.3,6.4,5.3,9,2.7   c1.4-1.4,3.1-5.7,4.4-1.1c0.7,2.3-0.5,4.2-2.5,4.7c-1,0.3-2.3,0.1-3.3,0.3c-0.9,0.2-1.9,0.9-2.8,1.1c-2.2,0.4-4.9,0.1-6.8-1   c-4.1-2.4-4.5-8.2-5.3-12.7c-0.9-4.9-1.1-9.6-2.4-14.3c-1.3-4.3-2.1-8.6-4.4-12.7c-1.2-2.2-2.4-3.5-2.5-6.1   c-0.2-3.5-0.3-7.3,0.1-10.7c0.2-2.4,1.4-5.2,1.1-7.6c-0.5-3.2-3.1-3-4.1,0c-0.9,2.6-0.2,6.4,0.3,9c0.9,4.9,1.6,10,2.3,15   c1.4,9.9,3.1,19.2,5.6,28.9c1.2,4.7,1.3,9.4,2.3,14c0.5,2.2,0.3,4.8-0.3,7c-0.6,2.2-1.1,2.1-2.8,3.8c-1.4,1.5-2,3-2.7,4.8   c-0.7,1.7-0.7,3.4-2.8,3.6c-1.7,0.1-2.5-1.4-3.5-2.5c-2-2.3-3.6-5.1-7-5.1c-3.7-0.1-7.6,1.8-11,3.1c-4.9,1.8-9.2,5.7-13.9,1.3   c-3.7-3.5-8-7.9-10.4-12.4c-3.2-5.8,0.9-8.8,5.7-11.5c2.9-1.7,4.4-2.8,3.5-6.4c-0.7-2.8-2.1-4.3-4.9-2.8c-2,1.1-3,3.9-4.7,5.2   c-2.1,1.7-3.6,0.8-5.8-0.5c-4.2-2.4-5.1-6-7.9-9.6c-4.6-6.1-12.8-16-21.1-17.3c-1-2.6,0.8-5.6-2.4-7.3c-1-0.5-4.3-1.1-4.7-2.2   c-0.5-1.4,2.1-2.8,3.1-3.2c1.8-0.8,4.1-0.7,5.9-1.6c1.6-0.9,2.6-2.7,4.1-3.8c1.4-1.1,2.8-1.9,4.6-1.6c1.7,0.2,2.3,0.9,4.1,0.2   c4.1-1.7,2.7-6.5-0.2-8.6c-1.7-1.3-4.5-1.9-3.8-4.5c0.3-1,2.5-3.4,3.4-3.7c1.9-0.5,2.3,1.9,4.1,2.4c1.5,0.5,5.1-0.3,6.1-1.6   c2.1-3-3-9.8-3.4-13.1c-0.2-2.2-0.1-4.4-0.8-6.5c-0.7-1.9-1.8-3.6-2.6-5.3c-0.9-1.8-1.8-4-1.9-6.1c0-2.2,1-4,0.9-6.4   c-0.1-1.8-0.6-4.7-2.8-3.4c-1.4,0.8-2.1,3.4-3.2,4.6c-3.1,3.7-4.2-1.8-4.4-4.2c-0.3-3.8-0.9-8.3-2.4-11.8c-1.3-2.8-1.9-5.4-2-8.6   c-0.2-3.9,0-10.8-4.4-12.6c-2.1-0.9-2.6-0.2-2.7-3.1c0-1.9,0.4-4.1-0.5-5.8c-1.2-2.3-2.8-1.6-4.9-1.8c-1.5-0.1-1.4,0.1-2.2-0.9   c-0.6-0.8-0.8-2.7-0.9-3.7c-0.6-4.7-0.9-9.2-2.2-13.7c-1.5-5.2-1.8-10.5-2.9-15.7c-0.9-4.4-2.9-8.7-3.5-13.2   c-0.5-3.4-0.3-6.9-0.3-10.4c0-3,0.3-6.3-3.5-6.4c-2.5-0.1-5.5,1.9-7.9,2.6c-4.6,1.5-9.9,2.5-14.1,5.2c-3.4,2.2-7,4.7-9.8,7.6   c-3.7,3.9-6.2,8.4-10.5,11.6c-2.1,1.5-4.3,2.8-6.2,4.5c-2.5,2.3-4.6,4.3-7.5,6.1c-2.9,1.9-6,3.8-8.2,6.5c-1.9,2.2-2.3,4.4-5.3,5.6   c-2.1,0.8-4.2,1.4-6.1,2.6c-1.4,0.9-2.9,4.1-4.2,4.6c-1.4,0.5-1.6-0.8-2.2-1.9c-1.3-2.5-2.5-5.5-3.3-8.2c-1.4,0.2-1.6,2.1-2.4,3.1   c-0.9,1.1-2.1,1.6-2.7,2.9c-0.9,2.1-0.7,8-4.3,7.6c-1.1-1.8-1.9-3.7-3.1-5.5c-1.5-2.3-3.8-3.8-5.4-5.9c-1.3-1.9-2.5-4.3-3-6.5   c-0.2-0.9,0.2-1.9-0.4-2.7c-0.6-0.9-2.2-1-3.1-1.6c-1.8-1.2-1.8-2-0.3-3.8c1.5-1.8,1.5-1.8,0.9-4.1c-0.6-2.4-1.2-2.6-3.1-4.1   c-1.4-1.1-3.1-3.2-1.4-4.9c1.7-1.6,3.8-0.7,1.2-3.2c-1.3-1.3-2.6-2.7-4.2-3.6c-1.9-1.1-3.8-2-5.7-3.1c-2.4-1.4-5.1-1.8-7.5-3.1   c-1.1-4.9,10-5.9,6.3-9.6c-3.5-3.6-8.6-5.6-12.2-9.1c-2-1.9-3.3-4.1-6-5.1c-1.9-0.8-8.8-1.3-9.6-3.5c-0.3-1.1,2.3-2.4,3.3-3.2   c1.3-1.1,4.3-1.6,4.4-3.3c0-0.8-1.7-3.1-2.5-3.7c-1.4-1-3.6-0.6-5.2-0.9c-1.6-0.3-5.5-1.8-3.3-3.8c1.4-1.3,7.9-0.6,7-4   c-4-0.2-5,0.6-7.6-2.9c-1.6-2.2-2.8-4.1-4.8-6c-1.3-1.2-3-3.4-4.5-4.1c-2-1-4.1-0.2-6-1.9c-1.3-1.1-2.5-2.2-3.9-3.2   c-3.1-2.3-5.8-4.8-9.2-6.8c-2.3-1.3-3.4-2.7-0.6-3.9c1.4-0.6,5.1-0.7,4.8-2.8c-0.3-1.6-3.2-2.1-3.7-3.7c-0.6-1.8,0.5-4.1-0.4-5.8   c-0.8-1.6-2.9-2.6-4.2-3.8c-1.6-1.5-2.1-3.4-3.5-5c-1.2-1.4-3.4-1.6-4.5-3.1c-0.9-1.2-0.9-3.9,0-5.1c1.5-2.1,5.1-1.3,6.7-3.5   c1.2-1.6,0.8-4.2-0.9-5.3c-1.9-1.3-3.4-0.9-3-4c0.3-2.1,0.6-3.4,0-5.6c-0.3-1.2-0.6-2.4-1-3.6c-2.5-9.4-5.2-19.6-11.3-27.4   c-2.9-3.7-6.6-6.7-11.1-7.9c-2.7-0.8-5.4-0.7-8.1-1.2c-3.6-0.6-6.9-2.1-10.3-3.5c-2.7-1.1-4.8-2-6.7-4.4   c-3.9-4.9-6.7-10.8-9.9-16.2c-1.9-3.1-3.5-7.2-6.4-9.7c-2.6-2.2-5.8-4.1-8.7-5.8c-7.1-4-14.2-9.2-21.8-12.1   c-9-3.4-17.8-0.1-25.4,5.1c-3.5,2.4-6.7,3.4-10.5,4.9c-2.5,1-6.2,3.9-9.1,4.1c0-5.6,0.4-11.1,0.8-16c0.9-10.3,6.7-21.3,12.4-29.9   c3-4.5,7.5-7.4,10.9-11.5c4-4.9,7.1-11.2,10.1-16.8c2.9-5.3,6.4-10.5,9.5-15.6c2.3-3.8,2.8-8.6,5.4-12.2c3.1-4.2,6.9-7.6,9.7-12.3   c5.9-9.8,10.2-21,18.5-29c4-3.9,30.1-10.8,20.4-18.1c-5.1-3.9-11.3-6.1-11-12.3c0-1.3,0.4-2.7,1.1-4.4c1.1-2.8,4.3-4.6,6.1-7.1   c2.8-3.9,1.1-6.5,2.1-10.7c2.4-10.5,12,2.5,14.7,5.4c5.9,6.6,12.5-1.3,17.4-4.6c0.7-0.5,1.4-1,2.2-1.5   c11.2-7.1,24.4-12.9,30.8-24.5c1.9-3.4,2.3-7.5,4.3-10.7c1.8-3,5-4.9,8.1-6.5c3-1.6,5.6-3.7,7.9-6.2c1.9-2.2,3.1-6,5.1-7.9   c4-3.7,10.5,0.9,14.3,4.1c4.8,4.1,5.6,9.2,9.5,13.6c1.7,1.9,4.5,3.8,5.9,0.4c1.2-3.1-1.8-3.4-3-5.7c-3.4-6.4,3.8-6.7,7.8-4.3   c4.4,2.5,8.5,5.4,13.1,7.8c4.6,2.4,8.6,5.2,5.3,10.8c-4.1,7.2-15.1,5.5-21.4,9.4c-4.4,2.7-12.9,16-7.4,20.7   c3.4,2.9,5.9-1.6,6.5-4.9c0.8-4.5,0-5.8,4.2-8.1c6.5-3.6,14.3-8.4,20.1-2.2c3.1,3.2,5.4,5.7,9.1,8.2c2.9,1.9,9,4.5,7,9.2   c-1.4,3.5-3.5,2.3-3.7,7c0,0.4-0.1,0.8-0.1,1.3l-8.1-10.5l-10.8,10.7c0,0,12,12,14,14.2l9.4-1.5l0.1-0.2c1.5,0.4,3.2,0.5,4.9,0.4   c0,5.5-0.1,10.8,1.2,16.2c0.7,3,1.7,5.9,2.8,8.8c0.8,2.2,1.1,5.9,3.3,7.2c2.8,1.6,6.1-0.9,8.2-2.6c2.9-2.4,5.7-4.7,8.8-6.8   c6.6-4.2,13.5-8.3,20.3-12.1c2.3-1.3,4.7-3,7.3-3.4c3.1-0.4,4.5,1.2,7,2.7c2.5,1.5,4.9,3,7.6,4.3c1.9,0.9,3.8,2.9,6,2.7   c2.7-0.2,2.7-2.3,3.6-4.5c1.1-2.8,1.9-2.7,3.8,0c3.4,4.8,4.4,10.7,8.2,15.2c0.9,1,1.8,2.3,2.8,3.2c-1.3,8.1,10.9,18,15.7,22   c8.2,6.7,20.4,16.9,30.9,9.6c7.3-5.1,16-7.5,23.3-12.6c2.5-1.8,9.5-8.2,8.3-11.8c-0.9-2.9-4.2-1.8-6.5-2.3c-4.6-1.2-8.8-4.6-13-6.8   c-4.8-2.4-7.2-4.8-9.2-9.5c-1.4-3.2-4.2-9.7-4.2-13.2c0-3.3,1.6-3.1,3.4-5.3c1.3-1.6,1.7-3.6,2.7-5.4c2.1-4,6.3-8.7,3.9-13.6   c-1.3-2.7-5.1-3.2-6.6-6c-3.5-6.5,7.6-15.7-4.4-17.5c-5.5-0.8-9.5,3-14.4,2.1c-4.1-0.7-7.4-4.4-10.3-7.1c-2.6-2.5-6-6-4.2-10.2   c1.5-3.6,6.5-3.3,9.5-4.6c3.5-1.5,7-4.3,10.3-6.2c3-1.7,5.2-3.3,4.9-7.3c-0.5-7.2-11-9.9-7.8-18.9c1.3-3.5,4.4-5.4,8.3-3.5   c4.4,2.2,4.5,5.2,10.3,4.6c2.8-0.3,6.7-1.2,9.1-2.5c3.1-1.7,4.4-5.2,7-7.5c2.5,1.7,1.5,5.4,5.3,4.9c2.7-0.4,3.7-3.7,4.5-5.8   c2-5,5.1-11.5,10.9-5.3c2.4,2.5,1.7,6,3.1,8.8c1.4,2.6,4.2,3.9,5.5,6.5c1.4,2.7,2,5.6-0.3,7.8c-2.2,2-5-0.2-4.8,4.2   c0.2,2.7,4,6.1,5.4,8.4c2.4,3.9,4.2,6.9,9.1,4.1c3.8-2.3,4-6.7,5.7-10.1c1.8-3.5,5.8-5.5,8.8-8.2c2.7-2.5,6.4-5.1,5.4-9.4   c-1-4.2-5.3-3.1-6.7-6.6c-1.9-4.6,2.9-4.4,5.4-5.8c2.3-1.3,4.4-6,7.4-5.7c1,5.4,7.1,0.3,9.2-1.6c5.2-4.8,8.6-11.9,16.1-8.8   c4.2,1.7,8.5,5.2,11.8,8.3c2.6,2.4,4,8.3,7.5,8.2c4.1-0.1,2.8-6.3,7.4-4.4c3.2,1.3,2.6,5.5,5.2,7.4c4.8,3.4,4.6-1.5,7.9-2.6   c4.3-1.4,4.4,4.6,4.2,7.4c4.4,0.9,4.6-1.9,7-4.7c3.1-3.7,6.6-2.9,11-1.9c5,1.1,9,4.8,13.9,6.3c4.5,1.4,8.9-0.5,11.8,4.4   c2.5,4.2-0.6,3.8-1.8,7.5c-2.4,7.6,6.9,9,12,9.9c12.3,2.2,37.7,7.5,38.7-11.6c0.3-6.1-2.8-4.4-5.8-7.4c-2.5-2.5-0.4-6.5,2.8-8.4   c5.6-3.3,17.8-1.6,21.9,3.9c2.8,3.8,4.7,8.4,7.6,12.2c3.7,4.8,6.4,9.5,8.1,15.4c1.1,3.5,2.2,7.6-0.9,10.3c-1.6,1.4-8.3,1.6-7.9,4.6   c0.2,1.2,4.9,3.1,5.9,4.1c2.6,2.5,4.3,6.1,5.7,9.3c4.9,10.9,7.3,22.2,11.5,33.1c3.8,9.4,10.7,16.8,17.1,24.5   c5.1,6.1,10,12.6,16.3,17.5c3.8,2.9,6.9,4.7,8.2-1.1c0.5-2,0.5-5.4,0.1-7.4c-0.6-2.5-1.2-1.9-2.5-3.7c-2.3-3.1-2.6-6.2,1.3-9.1   c3.7-2.8,6.2-0.6,5.4-6.3c-0.6-4.3-3.2-6.5-5.1-10.3c-1.8-3.8-1.2-6.1,0.4-9.8c2.7-6.2,2.8-14.7,7.3-20.3   c7.9-9.6,11.8,5.7,17.8,1.8c0,0,0.1,0,0.1-0.1L1968.6,764.1z"/>
	<path id="path12" class="st4" d="M1845.9,1457.5l0.2,44l-15.3-0.8c-2.1-1.7-4.4-4.2-6.9-4.1c-3.4,0.2-7.4,3.4-10.3,5   c-3.5,1.8-6.7,4.8-9.9,7.1c-7.1,5.1-14.6,10.3-23.2,12.4c-3.4,0.8-7.2,0.4-10.8,0.4c-3.9,0-7.9,0.2-11.8,0   c-7.3-0.4-14.1-2-20.6-5.5c-6.9-3.7-16.6,1.3-23.4,2.8c-5.8,1.2-11.4,2.2-17.1,3.9c-4.5,1.4-9.8,1.7-13.8,3.8   c-4.2,2.2-8.6,3.3-13.2,4.6c-4.7,1.3-9.2,3.2-14,4c-6.8,1.2-13.3,3.4-20.2,4.5c-8.7,1.4-16.2,6.2-24.7,8.2   c-9.4,2.3-18.6,5.1-27.8,7.9c-6.9,2.1-14,3.5-20.9,5.9c-7.8,2.7-15.6,5.7-23.5,8.2c-4.6,1.4-9.3,2.6-14,3.9   c-5.1,1.4-9.1,3.3-13.9,5.7c-6.6,3.4-13.3,6.7-19.9,10.1c-13,6.6-25.9,13.2-38.6,20.4c-8.2,4.7-16.1,9.4-24.7,13.2   c-4.9,2.2-11.2,3.5-15,7.5c-1.2,1.2-1.6,2.5-3.3,2.2c-1.9-0.3-1.5-2-2.7-2.7c-1.4-0.9-3.7,0.4-5,0.9c-6.3,2.4-11.8,7-17.6,10.3   c-13.1,7.3-27.3,13.7-41.9,17.2c-9.8,2.4-19.4,5.5-29.1,8.2c-7.8,2.2-14.9,5-22.1,8.8c-2.4,1.3-5,2.1-7.4,3.3   c-1.6,0.7-3.1,2.4-4.8,2.8c-5.1,1.5-5.2-6.7-9.3-5.8c-2.8,0.6-5.6,2.7-8.5,3.5c-11.7,3.5-23.9,5.2-35.6,8.2   c-7.1,1.8-14.4,1.9-21.4,4.1c-6.9,2.1-13.5,4.6-20,7.6c-6.3,2.9-13,5.7-19.5,8c-4.2,1.4-9.1,2.1-12.8,4.7c-2,1.4-3.9,4.1-6.7,2.6   c-1.5-0.8-3-3.9-3.7-5.4c-2.3-4.6-4.9-10.1-4.9-15.2c0-9.3-1.9-25.1,9.2-28.8c5.9-2,12.7-3.8,18.9-4.7c6.5-1,11.3-3.9,16.9-6.9   c1.4-0.8,3.4-2.3,4.9-2.1c1.7,0.2,2.3,1.8,4.3,1.9c2,0.1,3.7-2,5.4-1.6c1,0.2,1.1,1.2,2.1,1.7c0.8,0.4,2.1,0.1,3,0   c5.5-0.9,10.2-4.6,15-7.1c3.6-1.8,7-4.1,10.4-6.2c2.7-1.7,5.2-4.2,8.5-3c4.4,1.6,7.8,5.1,12,7.2c3.7,1.8,9.8,2.1,13.4,0.2   c1.6-0.9,1.9-1.8,4-2c2.5-0.2,3.7,1.3,5.9,1.7c3.8,0.7,9-3.3,11.3-5.8c3.2-3.4,5.5-7.4,8.8-10.7c2.7-2.8,5.7-8.6,10-7.4   c4.4,1.2,6.6,6.5,11.5,5.8c3.7-0.5,6.8-3.3,9.9-5.2c1.9-1.2,3.3-2.6,4.8-0.2c1,1.7,0.6,5.4,3.5,3.7c1.9-1.1,2.5-3.3,4.9-4.1   c2.4-0.8,3.4-0.2,5.1,1c4.1,2.9,10.6-0.1,14.8-2.1c3.8-1.8,7.6-3.8,11.2-5.9c5.2-3.1,10.2-6.1,15.2-9.5   c13.8-9.3,27.3-19.1,40.9-28.5c4.9-3.4,10-6.7,14.5-10.6c3.5-3,7.6-6.2,11.9-7.6c6.4-2.1,11.2,2.6,17.1,3.5   c5.9,0.9,11.4-0.1,17.2-0.8c5.9-0.7,11.1-1.7,16.7-4c5.6-2.3,11.3-4.3,16.8-7c5.6-2.8,11-5.8,17.1-7.5c4.3-1.3,8.3-2.3,12-4.8   c1.7-1.2,4.1-2.2,6-1.2c1.5,0.8,0.4,1.9,2.2,1.1c0.5-0.2,1.3-1.4,1.7-1.8c3.9-3.6,8.7-6.7,13-9.8c2.7-1.9,5.4-3.8,8.2-5.5   c2.2-1.3,5.1-2.3,7.2-3.8c3.4-2.5,4.6-7.1,8.7-8.8c4.6-2,7.8,2.1,11.3,4.6c1.5,1,2.7,2.3,4.3,3.2c2.1,1.2,4.4,1.1,2.6-1.6   c-0.9-1.4-2.8-2.6-4.2-3.5c-1.9-1.3-5.4-2.2-6.9-4c-2.5-3,0.2-9.1,3.5-10.3c4.3-1.6,6.7,0.7,8.3,4.5c1.1,2.6,4.5,10.5,7.9,9.7   c0.4-2.2-1.8-5.5-2.9-7.4c-1.6-2.8-3.5-5.3-4.9-8.1c-2.6-4.9-2-9.7-0.6-14.9c1.3-4.6,7.5-3.7,11.1-2.8c2.3,0.7,4.3,1.7,6.6,2.1   c3,0.6,6.1,0.6,9.1,0.6c2.7,0,5.3-0.6,7.7-1.9c3.2-1.6,6.5-3,9.5-5.1c4.7-3.3,9.9-6.2,12.2-11.7c0.8-1.9,0.4-4.3,2.7-5   c2.3-0.7,4.7,1.9,5.3,3.9c1.5,4.8-0.9,6.6-3.9,9.5c-2.8,2.8-6.7,7.1-8,10.9c-0.6,1.9,0,4-0.2,5.9c-0.2,1.8-1.1,3.1-1.8,4.7   c-1,2.1-0.9,4.1-0.8,6.4c0,1.3,0,6.7,1.8,4.9c0.9-0.9,0.8-4.7,1.1-6c0.4-2.1,0.4-4.7,1.1-6.8c0.7-2.4,2.9-3.8,4.4-5.8   c1.8-2.3,2.9-5.4,4.3-8.1c1.5-2.8,3.2-4.7,5.3-6.9c2.3-2.4,5-4.8,6.1-7.9c1.4-3.9-1.5-4.1-3.1-7c-1.4-2.7,2.4-4,4.2-5.2   c3-2,5.4-3.9,6.4-7.4c0.8-2.7,1-4.9,2.4-7.2c1.4-2.2,2.9-4.2,4.6-6.2c1.6-2,2.9-3,5.6-2.4c2.5,0.5,5.1,1.6,7.6,2.2   c4.8,1.2,8.4,3.5,10.6,7.9c2.4,4.6-1.3,10.6-3.5,14.7c-3,5.6-3.8,12.3-8,17.1c-4.1,4.7-10.6,5.1-15.4,8.7c-2.3,1.7-3.9,4.3-1.9,7.1   c1.6,2.3,5.2,2.5,7.8,2c6.4-1.2,5.1-6.8,7.9-11.1c0.9-1.3,2.9-2.5,4.5-2.7c2.7-0.3,2.6,1.5,3.3,3.5c1.5,4,4.5,8.1,6.8,11.5   c1.1,1.8,1.6,0.9,3.5-0.2c1.6-0.9,3.1-2,4.7-2.7c4.1-1.5,4.8,4.6,9.3,3.8c0.4-5.2-5.1-4.6-6.6-8.6c-1.4-3.5,0.6-8.3,0.3-12.1   c-0.2-2.2-0.9-4.6-1.6-6.7c-0.8-2.2-2.2-3.9-1.6-6.4c0.7-3.5,0.6-7.4,1.4-10.8c0.7-2.9,3.7-5.2,2.7-8.6c-1.2-4.1-7.4-6.4-10.6-8.8   c-1.5-1.2-4.2-3.1-4.8-5c-0.5-1.5,0-4,0-5.6c0-4.8,2.5-4.7,6.8-4.7c3.5,0,7.3,0.6,10.8,0c2.8-0.5,6.4-3.5,9-1   c2.7,2.6,2.3,6.6,6,8.9c3.4,2.1,10.1,2.1,12.8,5.3c3,3.5-3.9,8.2-3.7,11.6c0.2,0,0.5-0.1,0.6-0.1c2.8,0,5.9-7.2,7.6-9   c2.1-2.2,5.1-3.5,8-4.6l0,0.1c1.8,0.4,3.6,2.8,4.7,4.2c2,2.5,2.4,5.4,6,3.4c3-1.7,6.2-3.4,9-5.3c1.1-0.8,1.9-1.7,3-2.5   c2-1.6,4.8-2.6,7-3.9c1.8-1.1,4.9-3,7-1.6c3.8,2.8,6.4,7.4,8.3,11.7c2.1,4.8,4.1,10.2,7,14.7c2.2,3.5,5,7.2,7.8,10.4   c1.1,1.3,2.3,2.6,3.6,3.7c0.7,0.6,1.4,1.3,2.2,1.7C1844.2,1457.4,1845.6,1457.4,1845.9,1457.5z"/>
	<path id="path22" class="st4" d="M1694.4,1400c1.9,1.8,4.8,4.3,4.5,7.1c-0.2,2.2-2,3.2-3.7,4.5c-5.5,4.2-10.9,8.3-16.3,12.7   c-5.9,4.8-13.9,8.3-18,14.8c-1.1,1.8-3.7,6-6.5,4.6c-0.9-0.5-1.4-1.4-1.6-2.5c-0.2-1.1-0.2-2.3-0.2-3.3c0-4.3-0.8-6.3-3.9-9.4   c-2.1-2-5.2-5.6-8.2-6.3c-4.4-1.1-17.5,2.6-17.7-4.5c-0.1-2.3,0.9-4.6,2.2-6.9c1.6-2.8,3.8-5.4,5.1-7.8c2.1-4,4-7.9,5.8-12   c1.6-3.9,3.8-6.6,6.5-9.7c2.1-2.3,3.3-5.3,4.6-8c0.7-1.6,1.5-3.2,1.6-4.9c0.1-0.9-0.7-2.8,1.1-2.5c1.4,0.2,1.8,3.7,2.6,4.7   c1.6,2,5.1,2.6,7.4,1.8c0.7-3.4-8.1-3.3-6.8-8.6c1.5-6,7.3-1.8,10.1,0.5c1.9,1.5,3.3,1.6,5.6,2.2c1.8,0.5,2.9,2.3,4.1,3.6   c1.3,1.4,2.9,2.7,4.1,4.2c1.9,2.2,3,4.9,4.4,7.4c1.6,2.8,3,5.7,4.7,8.4C1688.2,1394,1691,1396.8,1694.4,1400z"/>
	<path id="path28" class="st4" d="M1649.3,1445.5c0.3,3.4-1.4,6.6-3.1,9.4c-2.1,3.3-5.6,2.7-9,3.8c-2.6,0.9-5.3,2.8-8.1,2.9   c-2.9,0.1-5.6-2.1-8.2-3.1c-5.2-2-9.8-7.3-10.3-13.1c-0.1-1.5,0.1-2.8,0.5-4.1c1.6-4.4,6.2-7.7,10-10.4c2.1-1.6,4.6-3.2,7.4-3.1   c5,0,10.5,2.8,14,6.5c2.3,2.4,4.8,5,6,8.1C1648.9,1443.3,1649.2,1444.3,1649.3,1445.5z"/>
	<path id="path30" class="st4" d="M1643.1,1349.9c0.1,1.3-0.9,1.2-1.6,1.9c-1.4,1.4-1.8,3.2-3.1,4.4c-1.8,1.5-4,1.1-6.1,1.5   c-1.8,0.3-6.1,2-3.6,4.1c1.9,1.6,6.2,0.8,8.5,1.3c0.2,1.9-3.3,4.1-4.5,5.4c-2.2,2.2-2.2,4.6-2.5,7.6c-0.2,1.7,0.2,3.4,0,5   c-0.2,1.9-0.3,2.3-1.7,1.1c-2.2-1.9-3.1-6.8-6.9-6c-0.4,1.9,1.5,2.9,2.6,4.2c2.2,2.3,1.8,4.6,1.2,7.6c-1.1,6.5-2.7,12.8-4.6,19   c-0.3,0.9-0.7,2.2-1.2,3.4c-0.9,2-2.2,3.9-4.2,4.2c-3.4,0.5-3.1-3.7-3.1-5.9c0-3-0.3-5.5-1.2-8.4c-1.1-3.8-5-6-6.1-9.9   c-0.6-2.2-0.5-4.3-1.5-6.5c-1-2.3-2.5-4-3.8-6.1c-2.7-4.5-4.2-8.6-1.3-13.4c2.6-4.2,8.1-5.4,11.3-9.2c3.6-4.3,5.8-9.4,10.9-12.2   c4.2-2.3,9-1.1,13,0.9c2.1,1,4.2,1.9,6.1,3.2C1641,1347.5,1643.1,1348.4,1643.1,1349.9z"/>
	<path id="path32" class="st4" d="M1599.4,1435.1c3.6,0,5.8,1.7,4.6,5.6c-0.7,2.1-1.6,3.9-3.5,5.2c-0.8,0.6-1.7,0.9-2.4,1.6   c-0.6,0.6-0.7,1.6-1.3,2.1c-1.6,1.2-4.8,0.4-5.4-1.5c-0.5-1.4,0.4-3.6,1-4.8c1-2,4.2-7.4,7-8.3L1599.4,1435.1z"/>
	<path id="path34" class="st4" d="M1596.1,1398.1c0.1,2.3-1.5,3.7-3.7,2.6c-3.6-1.8-5.7-7.2-6.8-10.8c-0.9-2.9-1.6-5.7-2.6-8.6   c-0.9-2.5-2.3-4-3.8-6.1c-1.1-1.5-1.3-3.3-2.2-4.8c-0.8-1.3-3.4-2.4-2.8-4.3c1.3-0.8,2.2-0.7,2.4-2.3c0.2-1.2-0.5-3-1-4   c-0.9-2-3.7-3.8-4.4-5.9c-1.6-5,8,0.3,7.1-3.9c-0.5-2.1-2.8-2.2-4.4-3c-1.5-0.8-2.1-2-3-3.4c-0.9-1.3-2.6-2.3-3.6-3.7   c-0.1-0.2-0.3-0.4-0.4-0.6c-0.9-1.8-0.4-5.5-0.3-7.6c0.2-2.6,0.3-7,2.8-8.6c3.2-2.1,7.4,1.5,9,4.2c1.9,3.2,4.9,6,6.6,9.3   c2.3,4.7,1.3,10.6,3.7,15.3c2.1,4.2,3.1,7.5,0.5,11.6c-0.1,0.3-0.3,0.5-0.5,0.8c-3.3,4.5-2.2,8.8-1.5,13.9   c0.9,5.8,2.2,11.2,6.3,15.7C1594.7,1395.2,1596,1396.2,1596.1,1398.1z"/>
	<path id="path36" class="st4" d="M1593.8,1466.3c1.3,1.2-0.1,4.9-0.3,6.6c-0.5,3.9,0.4,13.2-4.7,13.8c-4.9,0.6-7.6-5.3-9.8-8.7   c-2.4-3.6-7.9-10.3-7.2-15.8c0.1-1.1,0.5-2.1,1.2-3c1.8-2.4,4.8-3.8,7-5.8c1.1-1.2,2.1-3.1,3.9-3.3c0.2,0,0.5,0,0.7,0   c6,0,3.3,9.9,4.3,13.3C1589.7,1466.7,1591.8,1464.4,1593.8,1466.3z"/>
	<path id="path38" class="st4" d="M1572,1408.2c2,1.4,9.5-1.4,8.9,4.1c-0.5,4.6-8.1,0-8.3,4c-0.1,1.8,1.5,3.4,1.3,5.3   c-0.3,2.9-1.6,1.2-3.2,2.3c-1.1,0.8-1.6,5.6-0.9,6.8c1.6,2.7,6.7,1.4,8.6,4c3.4,4.6-1.2,8.6-4.6,10.8c-2.3,1.6-4.6,3.5-5.8,6.1   c-1.1,2.2-0.9,5.4-1.3,7.8c-0.1,0.8-0.3,1.5-0.4,2.2c-0.6,2.2-1.4,4.3-1.7,6.4c-0.4,2.1,0,4.6,0.2,6.7c0.3,3.8,1.2,10.1-1.1,13.3   c-1.6,2.1-4.6,2.8-6.6,4.4c-2.8,2.3-5,5.3-8,7.5c-1.9,1.4-4.9,3-7.1,3.9c-2,0.8-3.8,0.5-5.1-1.1c-1.1-1.3-1.7-5.2-3.5-5.4   c-2.3-0.2-2.7,4-4.2,5.2c-3.4,2.9-9.6-0.9-12.9-1.9c-3.8-1.2-11.7-2.1-10.2-8.3c1.2-4.7,6.1-5.5,10.1-6.6c2-0.6,3.5-1.7,5.1-3   c2.1-1.7,4-1.9,6.6-2.3c3.2-0.5,6.6-1,9.9-1.4c0.1,1.4-0.3,3.3,0.6,4.5c1.6,1.9,2.2,0.4,3.3-0.8c1.4-1.6,2.5-2.4,4.4-3.1   c1.8-0.6,3.5-1,3.7-3.1c0.4-3.6-4.8-1.9-5.8-5.1c-0.8-2.8,3.1-6,4.5-8.1c2.6-3.7,3.3-7.7,0.4-11.4c-3.4-4.5-0.1-8,4.6-9.8   c1.7-0.6,4.7-2.4,2.5-4.3c-1.7-1.4-4.9,0.4-6.8-0.4c-2-0.9-2.3-4.5-3-6.4c-1-2.8-2.3-5.4-3.5-8c-1.3-2.8-3.7-5.2-4.3-8.3   c-0.4-1.8,0.4-5-1-6.1c-2,2.5-2.8,10.4-6.8,8.1c-3.4-1.9-5.2-6.8-7.6-9.8c-3.8-4.7-7.9,0.7-10.3,4.3c-1.9,2.8-2,6.3-3.6,9.1   c-1.1,1.8-4,6.3-6.2,6.2c-3.7-0.3-3.9-5.7-4-8.4c0-1.7,0.4-3.7,0.1-5.4c-0.3-2.4-2.5-4.3-4.1-6.1c-1.9-2.3-3.9-2.2-6.5-3.5   c-3-1.5-1.1-3.9-0.3-6c0.6-1.6,0.6-3.7,2.9-2.9c1.1,0.4,1,1.5,2.8,1.6c0.9,0.1,1.8,0,2.6-0.2c2.1-0.6,4-1.8,3.9-4.1   c-0.1-4.4-6.9-4.6-4.8-9.8c2-4.9,4-9.3,5.4-14.4c0.7-2.3,1-5,1.8-7.3c1-2.4,2.9-3.4,4.5-5.2c1.4-1.4,2.2-3.7,0.9-5.3   c-1.2-1.4-5.3-0.8-5-2.9c0.3-1.7,3.2-1.7,4.4-2.4c3.2-1.9,3.4-7.1,5-10.1c1.6-3,3.6-5,3.5-8.7c-0.1-2.8-1.2-4.4-2.2-6.9   c-1.2-2.8-1.6-5.8-2.9-8.6c-1.2-2.6-2.4-5.1-4.1-7.4c-1.5-2.1-2.3-3-1-5.4c1.1-1.9,3.3-4.1,5.4-4.5c2.5-0.5,4.5,2,6.3,3.4   c3,2.4,4.4,5.2,6.1,8.6c1.3,2.5,2.6,5.7,6,5.3c1.9-0.2,4.8-0.9,6.2-2c1.7-1.4,6.2-6.1,5.4-8.5c-0.2-0.6-1.4-1-1.6-1.6   c-0.2-0.6,0-2.2,0-2.9c0.1-2.5,1-5.5,3.3-6.8c2.9,3.4,2.8,7.3,3.1,11.5c0.2,2.4,0.8,5.3,2.1,7.2c1.2,1.8,3.1,3.1,4.4,4.8   c1.2,1.4,1.9,2.8,3.3,4.1c1.1,1.1,3,3,1.8,4.8c-0.9,1.2-4.3,1.8-5.6,2.6c-0.9,0.5-2.6,1.1-2.7,2.2c0,0.8,1.8,3.3,2.2,4.1   c1.6,2.7,3.1,3.8,5.9,4.9c3.2,1.3,4.6,4.1,6.7,6.9c1.4,1.7,3.3,4.6,1.6,6.8c-1,1.3-4.6,1-3.9,3.3c0.3,1.1,2.1,0.8,2.9,1.4   c0.8,0.6,1,1.3,1.5,2c1.2,1.7,2.7,3,3.5,4.9c0.6,1.4,1.3,4.3,0.6,5.8c-0.8,1.8-2.9,1.4-4.5,1c-1.5-0.3-10.6-5.6-9.8-0.5   c0.1,0.7,1.3,1.9,1.7,2.6c0.8,1.3,1.5,2.7,1.7,4.4c0.2,1.9-0.5,5.4,1.2,6.8c1.4,1.2,2.7-0.3,3.7-1.5c1.6-1.8,2.4-1.9,5-1.8   c2.3,0.1,4.4,1.1,6.1,2.7c2,2.1,1.2,3.8,0.3,6.1c-1.1,3.2-2.5,5.9-6,6.8c-1.7,0.5-6.6,0-6.9,1.9c-0.3,1.2,0.7,1.4,1.2,2.3   c0.7,1.2,0.9,2.5,1.4,3.7c0.9,2,2,3.6,3.5,5.1C1569.9,1405.5,1570.8,1407.3,1572,1408.2z"/>
	<path id="path42" class="st4" d="M1540.7,1445.9c0.8,2.1-0.3,3.3-2.1,4.5c-2.1,1.4-4.7,1.7-6.9,2.8c-1.3,0.7-3,1.9-4.4,0.8   c-1.4-1.2-1.1-3.7-2.7-4.8c-1.4-0.9-1.5,0.3-2.5,1.1c-1.2,0.9-2.8,1.4-4,2.3c-1.5,1.1-2.6,1.5-4.4,1.8c-1.8,0.3-3.9,0.1-5.7,0.1   c-2.2,0-2.3,0.8-4,1.8c-4.4,2.5-2.4-5.7-2.4-7.7c0-0.9,0.1-1.6-0.6-2.2c-0.4-0.4-1.3-0.3-1.6-0.9c-0.7-1.5,1.3-2.4,2.3-2.9   c2.1-0.9,3-2,3.7-4.2c0.6-2,1.9-4.2,3.3-5.8c1.2-1.5,2.6-2.1,3.5-4c0.9-1.8,1.5-3.5,3.2-1.6c1.5,1.7,2.3,3.8,2.9,6   c0.3,0.9,0.4,2,0.9,2.7c0.6,0.9,1.3,1.4,1.6,2.4c0.4,1,0.5,2.1,0.9,3.1c1,2,2.5,3.4,4.7,1.9c3.6-2.5,1.2-8.4,1.2-11.9   c0-1.4,0-4,1.4-4.8c1.8-1,3,2.6,3.7,3.8c1,1.6,2.3,2.9,3.3,4.6c1.1,1.9,1.9,3.9,2.7,5.9C1539.4,1442.4,1540,1444.2,1540.7,1445.9z"/>
	<path id="path44" class="st4" d="M1519.7,1513.1c0.4,6.6-4.9,9.7-9.1,14c-3.7,3.8-7.8,4.1-12.8,4c-4.9-0.1-5.2-5.2-6.5-9   c-1-2.8-1.4-4.2-0.6-7.2c0.7-2.4,1.6-6-0.3-8.2c-1.4-1.6-4.4-1.9-5.7,0.1c-0.9,1.4,0.2,3.6,0.2,5.1c-0.1,2-0.9,2.3-2.6,3.3   c-1.1,0.6-2.7,1-3.7,1.7c-1.3,0.9-1.7,3.2-3.1,3.5c-4.9,0.9-13-6.4-10.4-11.2c2.8-5.1,6.4-9.3,11.6-11.7c3.4-1.6,6.4-3.7,9.3-6.1   c2.1-1.7,3.5-2.1,6-1.1c5.9,2.4,7.4,10.2,12.7,13.6C1508.9,1506.4,1519.3,1506.6,1519.7,1513.1z"/>
</g>
<g id="The_Bronx">
	<path id="path24" class="st5" d="M1686.8,347c2.9,3.7,6.8,8.9,5.8,14c-0.5,2.5-2.2,3.4-3.8,5.2c-2,2.4-2.8,5.4-4.1,8.2   c-4.4,9.2-8.7,0.1-10.8-4.6c-1.2-2.7-2.1-5.8-4.2-7.9c-2.5-2.7-5.2-4.3-7-7.6c-2.2-4.2-2.5-8.8-4.4-13c-1.5-3.1-3.3-6.3-5.1-9.2   c-2.9-4.8-6.8-7.3-2.1-12c1.9-1.9,2.9-3.7,4.2-6.3c1.1-2.3,3.7-4.5,3.9-7.1c0.4-4.9-5.3-11-8-14.8c-3.4-4.7-6.7-10.4-3.8-16.2   c2.6-5.2,9.5-9.3,12-2c1,3,0.2,6.1,0.6,9.3c0.4,3.3,1.9,8.1,3.3,11.1c1.8,3.8,4.6,6.4,8.4,7.8c2.7,1.1,5.7,2,7,4.9   c1.5,3.5,0.8,8.1,1.3,11.8c0.3,2.5,1.1,4.5,3.2,5.8c1.9,1.2,5.3,1.6,6.7,3.6c4.6,6.6-7.4,3.6-9.3,7.4   C1678.1,340.4,1684.3,343.8,1686.8,347z"/>
	
		<path xmlns:sodipodi="http://sodipodi.sourceforge.net/DTD/sodipodi-0.dtd" id="path26" sodipodi:nodetypes="cscssscsssssssssscscsssssssssscsscssscscsssssscsssscsssssssccssssssssssssssssscccsscssccsscssscssccssssccsscssssscscscsssscccsccssssscssccccssssscccsssscsccssssscccssssscscscsccssssccsscssscssssscscccssssssssssscscssssssssscsssc" class="st6" d="   M1677.5,203.4c3.6,0.1,3.3,6.6,2.5,9c-2.3,6.9-11.9,9-18.2,11.1c-8.6,2.9-8.4,11.4-9,19.4c-0.3,4.2-0.6,8.4-0.8,12.7   c-0.3,4.9-2.7,5.8-5.3,9.5c-3.8,5.6-2.7,11.6-8.7,16c-5.8,4.4-15.2,6.9-9,15.6c2.1,3,5,4.2,4.1,8.7c-0.8,3.6-3.9,5.4-5.5,8.6   c-1.6,2.9-0.9,8.4-2.8,10.8c-2.9,3.8-3.6-1.7-5.1-4.1c-3.5-5.8-9.2-9.6-12.4-16.1c-1.5-3.1-1.9-6.7-3.3-10   c-1.4-3.6-3.2-6.2-3.2-10.3c0.1-3.3,0.5-8,1.6-11.1c1.2-3.3,4.6-7.1,2.9-11.1c-1.8-4.2-6.4-2.4-8.2,1.2c-1.8,3.3,1.5,7,0.4,10   c-1.8,4.7-5-1.6-6.3-3.6c-1.9-2.9-4.2-5.3-6-8.4c-1.8-3-3-7.3-5.4-9.8c-1.4-1.4-2.3-2.5-4.5-2.1c-2.2,0.4-1.6,2.4-3,2.8   c-5.5,1.6-3-3.4-3.6-6.1c-0.8-3.5-5.8-2.8-6.2-6.2c-0.4-2.9,4-4.3,4.5-7c0.4-1.9-1.1-3.4-0.8-5.4c0.2-1.4,1.6-2.5,1.9-3.8   c1.2-3.8,0.1-8.2-4-4.8c-1.2,1-6.3,8.4-6.2,1.3c-3.8-0.6-2.8,4.9-7.2,3.6c-2.3-0.7-5-5.4-6.2-7.4c-1.7-2.8-2.8-6.4-1.9-9.6   c1.5-4.9,3.6-3.7,7.6-4.8c4.8-1.4,3.2-3.7,0.7-6.6c-2.9-3.2-4.7-4.3-4-9c2-13.3,15.7-25.3,4.8-39.2c-4.7,2.3-3,15.6-3.7,20.1   c-1.1,7.8-5.7,13.2-9.5,20.2c-4.8,9-2.3,18.5,1.2,27.7c2.7,7.2,8.7,9.9,9.2,18c0.2,3.5-0.4,8.1,0.4,11.5c0.8,3.6,4.9,4.6,5.8,7.9   c1.4,5.5-13.4,13.2-7,16.1c5.5,2.4,4.6-4.2,5.9-6.6c1.7-3.3,7.6-3.5,10.9-2.4c3.9,1.3,5.5,4.9,5,9.1c-0.6,5.4-3.3,4-7.7,6.2   c-3.3,1.6-6.3,4.8-6.7,8.6c-0.5,5.5,3,3.9,5.8,6.5c2.8,2.5,1.6,5-0.1,7.9c-2.1,3.6-3.7,5.1,0.1,9c2.1,2.1,6.3,2.4,5.8,5.1   c-0.8,4.9-7.5,1.4-8.7,3.6c-1.1,2,2.8,1.8,3.6,2.6c1.7,1.7,1.2,1.3,1.6,3.6c0.4,2-1,2.6,0.4,4.9c0.9,1.5,2.3,2.2,3.6,3.3   c3.2,2.5,13.6,11.7,6.4,16.1c-5.6,3.4-9-12.1-16.4-6.1c1.7,1.3,3.7,1.8,5.2,3.3c1.8,1.8,4.8,4.5,6.3,6.5c1,1.3,1.8,3.1,2.4,4.5   c1,2.5,2.3,6,0.1,8.4c-2.5,2.9-5.2,1.1-6.3,5.6c-1.5,6.8,0.3,16,1.2,22.6c0.7,5.1,1.9,10.2,5.1,14.3c2.1,2.7,9.8,6.5,8.5,10.5   c-0.9,2.7-5.7,2.7-7.1,5.3c-1.1,2.2-0.5,10,1.4,11.6c2.6,2.1,6.4-0.8,8.6-3c2.2-2.2,3.7-7.2,7.4-7.7c3.9-0.5,5.8,3.3,7.3,6.2   c4.2,7.8,2.7,17.5,7.1,25.5c3.9,7,14.9,8.9,21.9,12.1c10.2,4.7,5.2,9.1-1.6,13.2c-5.5,3.3-11.1,10.7-16.2,2.8   c-3.8-6-2.3-15.9-11.5-15.2c0.1,3.4,3.2,6.3,4.9,9c2,3.2,1.1,6.4,2.6,9.4c3.4,7.2,12.3,10.9,19.3,12.4c7,1.5,12.2,6.4,18.6,9.6   c5.5,2.7,14.8,2.3,17.4,9.7c3.4,9.8-8.8,9.2-14.6,6.3c-6.7-3.3-12.3-8.7-18.9-12.3c-4.8-2.6-8.2-2.5-13.2-3.4   c-3.9-0.7-6.8-3.4-9.9-5.7c-7.5-5.4-14.2-11.2-21.6-17c-8.3-6.5-21.3-3.6-30.3,1.1c-4.6,2.4-8.3,6.8-13.1,8.5   c-5.2,1.9-10.7-0.8-16.1-0.9c-3.3-0.1-8.8,0-10.9,2.9c-2.3,3.2-0.2,9.3,0.1,12.7c0.6,5.3,0.1,10.3-5.3,11.2   c-13.2,2.4-15.9-7.6-20.8-16.5c-3.3-6.1-3.2-11.2-3.2-18.2c0-7-1.4-13.8-0.8-20.9c0.5-6.6,4.6-11.9,4.5-19   c-0.1-8.5-3.3-17.8-6.3-25.8c-0.7-1.9-4.9-11.3-7.4-10.1c-2.2,1.2,1,15,1.2,16.5c0.8,4.3,2.1,8.6,3,12.7c0.9,4,3.2,7.3,4,11.1   c2.1,9.5-8.4,12.7-12.9,19.4c-3.1,4.7-3.9,8.4-4.8,13.7c-0.4,2.4-2.2,10.6-4.9,11.5c-5.4,1.9-9.7-10.8-14.5-12.5   c-3.1-1.1-7.2-0.6-9.9-2.9c-2.5-2.1-3.1-9.4-6.6-9.4c-4.6,0-0.4,7.1,1.2,9c3,3.5,7.3,4.4,11.1,6.7c2.8,1.6,6.7,4.2,7.4,7.4   c1,4.4-4.2,5.7-3.4,9.5c0.6,3.1,6.2,5.8,8.3,7.8c2.7,2.5,6.5,6.6,6.6,10.3c0.2,8.6-16.2,9.3-22.2,11.4c-4.5,1.6-8.8,3.3-12.2-0.3   c-2.8-3-4.4-7.9-6.6-11.5c-2.9-4.7-2.6-8.9-2.1-14.5c0.2-2.4,1.9-9.4-0.2-11.2c-2.3-1.9-8.9,1.5-11.2,2.2   c-4.1,1.2-8.8,2.7-13.2,1.7c-10-2.2-11-11.5-16.5-17.9c-6.3-7.4-15.8-3.3-22.5-9c-3.5-3-5.4-7.4-8.5-10.8c-2.8-2.9-6.9-4-6.2,1.3   c1.2,8.8,12.3,12.3,18.8,15.7c3.9,2,8.4,3.8,11.9,5.8c3.3,1.9,4.2,4.8,5.9,8.1c1.6,3.3,3.4,6.3,5,9.7c0.9,1.9,2,4.7,3.1,6.4   c1,1.5,2.7,2.2,3.3,4.1c4.5,13.4-8.9,30.6-21.9,31.8c-6.5,0.6-5.4-1.5-7.7-5.8c-2.2-4.2-8.6-7-13-8.2c-6-1.6-8.3,1-12.3,4.9   c-3.9,4-6.1,6.2-10.2,2.1c-3.2-3.2-5.1-7.9-7.9-11.4c-9.1-11.1-20.5-15.4-34.9-12.1c-10.5,2.4-15.4,8-22,15.6   c-4.4,5.1-8.1,9.6-11,15.9c-1.8,3.7-3.4,7.6-6.2,10.6c-3.4,3.7-5.1,4.2-9.9,3.7c-2.6-0.3-7.8-2-10.3-0.8c-0.6,0.3-1,0.6-1.3,0.9   l-23.8-23.6l-16.4,1.4c-0.1-0.1-0.1-0.1-0.1-0.2c-4.6-6.4-9.2-13.2-13.8-20c-4.8-7-10.8-13.6-10.8-22.6c0-0.1,0-0.2,0-0.3   c0.1-8.9,1.9-18,4.1-26.3c1.8-7,1.2-15.5,2-22.7c0.9-8.2-1.4-17.5-3.8-25.4c-2.5-8.3-5.2-15-3.7-23.7c1.2-7.1,3.4-13.7,5.5-20.6   c1.9-6.2,2.4-12.8,3.8-19.2c0.5-2.1,1-4.2,1.8-6.2c1.9-5.1,5.1-9.1,8-13.7c4-6.3,6.3-14,9.4-20.8c5.3-11.5,12.3-20.3,20.5-29.6   c11.7-13.2,21.6-28,29.5-43.7c5.9-11.7,16.1-30.1,2.7-41c-3.9-2.9-9-5.7-13.6-6.7c-4.5-1-7.5-0.4-11.6-1.3   c-3.5-0.8-7.5-3.3-9.7-6.2c-2.2-2.9-4.2-5.7-6.8-8.1c-3.5-3.2-7.8-4.8-8.1-10c-0.3-3.9,2-7.8,3.3-11.4c2.8-8.4,5.4-17.1,7.7-25.7   c4.3-15.6,10.7-29.8,16.5-44.7c3.2-8.2,4.6-17.9,7.1-26.5c2.1-7.5,5.2-14.8,6.7-22.6c1.6-8.4,1.2-16.8,2.4-25.2   c0.3-2,0.8-4.1,1.3-6.2c10.4,3,171.8,73.9,179.6,72.4c1.2-3.3,1-7.3,2.4-10.3c1.4-2.9,4.7-3.1,6.3-6.1c1.5-2.7-0.2-5.4,0.4-8.2   c1-4.4,4.4-2.9,7-5.5c5.5-5.4-3-12,6.5-15.2c9-3.1,6.6,8.8-1.1,9.7c2.2,2.3,5.4,2.9,7.4,5.3c2.9,3.6,4.1,5.4,4.9-0.5   c0.7-5.1,2.2-5.5,5.7-1.5c2.9,3.3,3.9,3.9,7.8,5.5c1.4,0.6,3.2,1.5,4.2,2.7c1.4,1.7,0.3,3,1.2,4.6c2.2,4,5.1,1,8.6,0.9   c10.6-0.3,3.1,11.3,7,15.6c3,3.4,7.6,3.8,4.7,9.9c-1.2,2.4-3.1,2.2-3,5.4c0.1,3.2,1.8,2.5,3.6,4.6c3.2,3.8-0.1,8.6,4.3,11.4   c1.9,1.2,51.3,20.3,55.5,19.8c-0.5-3.6-5.8-5.4-1.6-7.4c2.7-1.2,8.6,0.1,11,1.3c11.6,5.3,89.2,32.5,95.8,35.4l0.1,0.1   c-0.1,0-0.2,0.1-0.2,0.2c-1,1.2-0.8,2.9-1.4,4.3c-0.8,1.8-2.3,3-3.4,4.4c-2.8,3.7-1.6,5.7-2.4,9.9c-0.8,4.2-4.4,5.6-5,9.9   c-0.5,4,1.2,7.3-2.1,10.2c-3.2,2.8-6.2,1.9-8.1,5.9c-2.3,4.8-3.5,18-10.7,13.2c-1-0.7-0.8-3.9-3-2.1c-0.9,0.7,0.1,3.6,0.2,4.6   c0.4,2.7,1.9,8-2.6,7.8c-5.9-0.2-8.2-12.6-15.2-12.3c-0.5,6.1,8,11.6,10.8,16.3c2.9,5,8.5,15.4,14.6,8.3c5.2-6.2,8.1-15.2,12-22.3   c2.1-3.7,4.1-7.2,7.6-9.7c3.2-2.4,5.6-1.5,6.5-5.9c0.8-3.9,0.1-6.2,2-9.9c1.1-2,3-2.2,1.7-4.9c-0.7-1.4-2.7-0.5-3.3-2.6   c-1.4-4.7,9.2-15.9,14-14.4c3.8,1.2,2,4.8,6.6,5.8c4.2,0.9,7.7-0.3,11.1,3.3c6.1,6.5,0.4,13.1-4.9,17c-0.9,0.7-4.2,2.5-4.6,3.6   c-1,3,0.8,1.7,1.7,3.6c0.8,1.7,0.8,8,2.5,8.7C1673.5,211,1674,203.3,1677.5,203.4L1677.5,203.4z"/>
	<path id="path74" class="st5" d="M1373,595.2c1.7,2.4,4.5,6.2,2,9c-2.4,2.8-6.6,1.5-7.8,5.6c-0.6,1.9-0.9,2.4-2.9,3.1   c-1.7,0.6-3.6,0.9-5.4,1c-5,0.4-9.9-0.3-15-0.3c-2.3,0-4.8,0.2-7.1-0.4c-3.2-0.9-6.1-2.4-9.3-3.3c-3.5-1-7-1.7-10.6-2.4   c-2.7-0.5-4.8-0.7-7.1-2.5c-3.6-2.8-3.3-8-6.5-11.2c-1.6-1.5-3.7-2.5-5.3-4.2c-1.8-1.8-2.1-2.8-1.4-5.2c0.7-2.4,1.7-4.7,2.4-7.2   c0.7-2.8,1.3-5.6,1.7-8.6c0.4-2.6,1-5.2,1.4-7.7c0.4-2.4,1.5-3.4,3.5-4.8c1.4-1,2.6-1.8,3.4-3.3c0.6-1.2,1.5-4.6,3.4-3.5   c1,0.5,1.9,3.3,2.5,4.3c0.8,1.3,1.8,2.9,2.9,4c1.7,1.5,4,2.5,5.9,3.8c1.9,1.4,3.6,2.7,5.7,3.6c8.9,3.7,20.9,5.4,24,16.4   c0.4,1.6,0.5,3.3,0.8,5c0.1,0.9-0.1,3.4,1.1,2.4c0.7-0.6,0.3-2.2,0.6-2.9c0.4-0.9,1.4-1.5,2.1-2c2.3-1.6,2.7-0.7,4.4,1.1   c1.8,1.9,3.6,4,5.9,5.3c1,0.5,1.9,0.7,2.6,1.5C1371.7,592.8,1372.2,594.2,1373,595.2z"/>
	<path id="path78" class="st5" d="M1284.6,562.1c1.2,0.3,2.5,2.1,1.6,3.3c-0.7,1-2.7,0.6-3.7,1.2c-1.3,0.7-1.3,2.6-3.1,2.2   c-1.2-0.3-2.3-1.2-3.5-1.8c-1.1-0.5-1.2-1.8-2.1-2.5c-0.9-0.7-2.1-0.5-3-0.9c-0.9-0.4-3-2.1-1.4-2.9c1.3-0.6,2.6,0.1,3.4-1.4   c0.7-1.3,1.1-2,2.7-2.1c1.1,0,1.6,0.2,2.4,0.9c1.1,1,1.7,2.2,2.9,3.1C1282,562,1283.2,561.6,1284.6,562.1z"/>
	<path id="path80" class="st5" d="M1285.4,540c1.1,0.4,1.5,1.5,0.7,2.3c-0.9,1-2.3,1.4-3.5,2c-1.4,0.6-2.4,1.7-3.5,2.9   c-1.2,1.3-2.4,2.4-3.4,3.9c-0.4,0.6-0.9,1.7-1.6,2.1c-0.6,0.3-1.4,0.1-1.9-0.1c-1.3-0.3-2.2-1.3-3.3-1.8c-1.3-0.6-3.3-0.7-4.4-1.7   c-0.8-0.9-0.1-1.9,0.9-2.2c1.2-0.4,2.4,0.3,2.9-1.3c0.4-1,0-1.9-0.7-2.8c-0.7-0.9-1.4-1.8-2.5-2.5c-0.8-0.5-1.6-1.3-0.8-2.3   c0.6-0.8,2-0.5,2.8-0.8c0.8-0.2,1.2-0.7,1.8-1.2c1-0.9,2.2-1.6,3.2-2.5c0.9-0.9,0.5-1.5,0.9-2.4c0.6-1.5,3.2-2,4-0.4   c0.5,1.1,0.8,2.2,1.3,3.3c0.7,1.7,1.8,2.7,3.2,3.9C1282.7,539.5,1284,539.5,1285.4,540z"/>
	<path id="path16" class="st5" d="M1742.8,282.2c1.6,1,8.6,3.9,6.1,6.6c-1.2,1.3-6.1,0-7.7,0.1c-5.4,0.3-9,2.7-8.7,8.4   c0.1,2.8-0.2,6.1,0.3,8.9c0.5,2.6,1.5,4.3,0.7,7.1c-1.3,4.8-7.7,4.6-4,10.8c1.3,2.2,2.8,4.2,4.7,6c1.5,1.4,4.7,3.1,4.3,5.5   c-1.5,0.1-3.2,0.3-4.6,0.1c-4.3-0.6-7.8-6-10.4-9.1c-1.7-2.1-3-4.4-1.9-7.1c0.9-2.4,2.6-2.5,2.4-5.5c-0.3-5.5-7.9-5.7-5-12.1   c1-2.2,3.7-4.1,2.8-6.9c-0.8-2.3-3.4-3.7-4.2-6.2c-0.8-2.3-0.1-4.9-0.4-7.3c-0.4-2.7-1-5.3-0.8-8.2c0.2-3.9,2.6-3.8,4.8-6.5   c1.4-1.8,0.9-4.6,3.2-5.6c2.8-1.1,4.9,1.3,6.1,3.4C1734.1,271.1,1736,278,1742.8,282.2z"/>
</g>
<g id="Straten_Island">
	<path id="path102" class="st7" d="M729.7,1450.3c3.1,2.4,10.8,3.7,10.7,8.6c-0.1,3.3-3.1,6.1-4.6,8.9c-1.3,2.4-2,4.9-2.9,7.6   c-1.9,5.8-4,11.8-6.4,17.6c-1.8,4.2-4.6,8-7.1,12.1c-2.4,3.9-4.2,8.4-7,12.1c-3.4,4.6-10.7,7.2-15.4,10.5c-4.1,2.9-7.5,6-9.7,10.6   c-2.1,4.3-4.1,8.2-7.3,11.9c-4.2,4.9-7.7,11.1-12.9,15c-18.3,13.8-33.3,31.5-49.1,47.9c-3.1,3.2-6.3,7.3-8.9,10.9   c-2.4,3.3-4.8,6.9-8.2,9.3c-3.6,2.4-4.6,5.1-6.6,8.9c-2.1,4-4,7.8-6.9,11.5c-2.2,2.7-4.5,5.5-6.4,8.3c-1.3,2-2.7,5.3-4.9,6.2   c-2.6,1.2-4.5-1.6-7.3-1c-3.8,0.9-4.8,4-5.7,7.1c-1.1,3.8-1.9,7.4-4.1,10.8c-2.1,3.4-4.7,6.5-6.6,9.9c-0.7,1.3-1.4,5.2-2.7,5.9   c-3,1.7-2.9-3.4-3.7-5.2c-2.6-6.2-6,4.9-8,6.9c-4.9,4.7-9.3,8.9-12.6,15.1c-3.6,6.6-8.9,13.2-14.8,18c-3.2,2.7-6.6,5-10,7.4   c-3,2.1-5.7,4.9-9.3,6c-3.8,1.2-5.9,1.4-9.1,3.9c-3.6,2.9-7.5,6.2-10.5,9.7c-10.1,12.2-16.5,27.2-28.3,37.9   c-3.5,3.2-7.5,7.8-11.4,2.5c-3.1-4.2-8.6-10.4-10.1-15.4c-0.8-2.7,0.2-5.1,1.4-7.5c1.8-3.6,2.6-4.4,6.6-4.4   c5.7,0,11.9,1.6,16.6-1.8c2.7-1.9,5.2-3.8,7.1-6.6c1.8-2.7,3.6-5.8,5.7-8.5c3.6-4.6,9.2-8.8,10-14.9c0.7-5.3-6.4-12.5-10.8-15.1   c-4.2-2.4-10.1-5.3-14.7-2.4c-3.1,1.9-3.5,6.4-7.3,7.5c-4.6,1.4-10.9-1.1-10.9,5.8c0,2.8,0.1,4.6-2.5,5.5c-2.6,1-4.4,0.3-5.2,3.6   c-0.4,1.8-0.9,6.2-0.2,8c0.8,2.3,2.9,3,3.2,5.5c0.7,4.8-2.2,6.8-5.2,9.6c-1.5,1.4-2.3,3.1-3.6,4.6c-0.4,0.4-1.4,0.7-1.8,1.1   c-0.6,0.5-1.3,2.1-1.8,2.7c-1.8,2.4-3.8,4.6-5.5,7.1c-3.3,4.7-6.6,6-11.8,8.3c-7.2,3.1-14.5,5.7-21.3,9.7   c-4.7,2.8-9.2,6.2-13.9,9.1c-5.4,3.4-10.4,7-15.3,11.1c-3.9,3.3-7.8,6.9-12.4,9.1c-2.7,1.3-5.8,2.1-7.9,4.2c-2.2,2.2-2.7,4.8-5,0.7   c-1.6-2.9-2.2-5.1-5.9-4.8c-0.9,8.5-6.9,10.2-13,15.1c-2.1,1.7-4.1,4.2-6.9,4.7c-4.6,0.7-4.8-4.5-7.3-6.9c-2.2-2.1-6,0.1-8.5,2   c-3.1,2.3-5.9,4.8-9.1,7c-3.5,2.5-7,4.7-8.9,8.6c-2.1,4.2-3.6,8.4-6.3,12.3c-3.4,4.8-13.7,21.9-21.1,19c-2.4-0.9-2.9-3.9-5.3-5   c-2.9-1.4-6.6-0.7-9-3.3c-2-2.2,0-4.5-1.1-6.8c-1.8-3.8-3.6,0.7-4.9,2.3c-1.9,2.2-3.6,1.7-6.4,1.8c-8.8,0.4-15.4,2.5-22.1,8.3   c-6,5.2-10.7,11.6-13.3,19.2c-2.4,6.9-7,10.1-12.9,14c-5.9,3.9-10.3,7.1-17.7,5c-3.4-1-7-1.8-8.8,1.9c-1,2-1.1,5.3-3.6,6.6   c-5.8,2.8-9.2-6.1-12.9-7.4c-6.3-2.3-12.7,1.7-17.6,5.3c-2.4,1.8-4.9,3.5-7.4,5.1c-2.8,1.8-5.9,3.5-7.9,6c-2.4,3-4.6,6.3-7.4,8.9   c-2.9,2.6-11.6,6.7-15.5,3.9c-1.6-1.1-1.1-8.5-4.3-6.7c-2.8,1.5-0.9,7.7-5.5,8.5c-4.4,0.8-7.3-6.7-9.5-9.3   c-3.1-3.7-7.4-6.1-10.3-10c-3-4.1-4.7-9.4-6.9-13.9c-1.9-4-4.3-8.5-5.6-12.7c-1.1-3.6-1.5-10-0.5-13.6c1-3.6,4.9-3.9,6.7-6.9   c2.1-3.5,1.6-8.9,1.8-12.9c0.2-4,1.9-6.2,4.8-8.8c2.8-2.6,5.8-4.9,8.6-7.5c2.4-2.2,5.7-7.6,9.4-4.6c2.1,1.6,3.3,8.5,5.7,3.2   c1.2-2.6,0.7-5.5,1.7-8.1c2.6-6.4,8.4,1.4,11.9-3.6c2.3-3.2,0.9-3.4-1.7-5.3c-2.6-2-3.9-5.1-4.8-8.1c-0.2-0.9-1.4-2.6-0.7-3.6   c0.6-1,2.2-0.6,3-1.4c4.9-5.3-5-9.8-5.8-14.2c-0.4-2.6,2.6-5.9,4.1-7.7c2-2.5,3.3-4.3,4.4-7.4c1-2.6,3.8-5.4,3.9-8.3   c0.1-3.2-2.9-7-3.9-10.1c-0.8-2.5,0.2-7.1-1.2-9.2c-1.3-2-5.9-3.2-7.7-4.6c-2.2-1.8-4.1-4.1-4.9-6.9c-1.2-3.9,0.1-4,3-6.3   c3.8-2.9,0.9-4-1.4-7.1c-2.1-2.9-3.3-6.7-4.6-10c-1.1-2.6-2.7-5.2-1.9-8.2c0.8-3.2,4.6-5.4,7-7.4c2.2-1.8,3.7-4.3,5.8-6.1   c3.1-2.6,3.5,0.1,6.9,0.6c4.1,0.7,6.7-3.6,8.6-6.5c2.5-3.8,4.5-6.3,8.1-9.2c2.3-1.9,1.9-3.3,1.9-6.2c0.1-6.8,7.3-1.4,10.8-5.5   c4.7-5.5,8.6-13.3,15-17.1c5.1-3,12.6-0.3,17.1,2.5c6.5,4,12.9,4.8,20.7,5.5c3,0.3,5.8,0.9,8.2-1.3c1.4-1.3,2.3-3.2,3.8-4.5   c1.5-1.4,3.4-2.2,4.9-3.6c3.2-3.1,5.8-7,7.7-10.9c1.3-2.6,3.1-5.2,4.1-7.9c1.2-3.3-0.2-4.4-1.4-7.5c-2.6-6.8,1.4-14.3,4.7-19.9   c3.5-5.9,2-12.9,6.3-18.5c4.2-5.4,13.8-0.8,19.8-3.2c5.8-2.4,11.7-7.4,13.5-13.5c1.2-4,0.1-14.6,5.5-15.7c4.9-1,12,6.5,16,8.8   c2.8,1.6,6.5,1.6,9.3-0.1c2.9-1.7,3.5-4.4,0.3-6.3c-2.9-1.7-6.8-1.1-9.8-2.5c-2.7-1.3-4.9-3.3-7.1-5.1c-4.8-4-12.1-4.4-18.3-4.6   c-3.3-0.1-6.4,0.2-9.6-0.6c-2.3-0.6-6.5-1-8.2-2.7c-4.5-4.4,1-11.8,2-16.2c0.6-2.8,1-6,0.5-8.9c-1-5.1-3.5-9.3-2.8-14.7   c0.7-5.1,3.9-9,8-12c7.1-5,10.9-11.1,13.5-19.2c2.3-7.3,3.8-14.9,5.7-22.3c0.7-2.6,2-4.8,2.8-7.3c1.7-5.5-0.6-11.6-3-16.4   c-1-1.9-2.8-4.3-3.4-6.4c-0.9-3.4,0.9-6.4,2.9-8.9c2.4-3.1,4.7-6.7,5.6-10.7c0.9-3.6,3.5-7.5,3.3-11.2c-0.2-3.9-4.5-5.8-7.4-8   c-2.9-2.2-4.7-5.4-8-6.9c-2.5-1.1-6-1.4-7.7-3.9c-1.1-1.6-1.8-5.2-2.5-7.1c-0.3-0.8-0.9-2.5-0.8-3.3c0.3-1.9,1.2-1.2,2.2-2.5   c2.4-3-0.1-5.6-0.8-9c-1.2-5.7-0.5-11.9,0.6-17.5c0.6-3,0.8-5.8,1-8.8c0.4-4.5,1.2-9.7,2.5-14c2.6-9.1,11.4-15,16.9-21.8   c3.3-4.2,1.9-7.3,3.2-12c0.9-3.5,3.3-4.8,6.3-6.6c3.9-2.3,9.2-9.5,13.8-6.5c1.7,1.1,3.5,5.4,6.3,3.5c4.3-2.9-1.6-6.3-1.7-8.3   c-0.1-2.9,5.9-4.6,8.1-4.7c4-0.2,3.2,4.4,6.1,3.8c0.1-2-0.5-4.9,0.4-6.8c1.3-2.7,4.3-2.1,6.8-2.2c4.3-0.2,3.5-2.3,6.6-4.4   c3.1-2.1,4.9,1.9,5.3,4.7c0.3,2.1-2.6,6.7-1.1,8.3c2.5,2.5,6.4-3.2,7.5-4.7c0.9-1.2,1.9-2.3,2.7-3.6c0.6-0.9,1.2-3,1.9-3.6   c3.3-2.7,7.7,3.6,9.8,5.5c2.2,2,5.4,4,5.5,7.1c0.1,1.9-2.1,7.1,1.9,5.5c1.9-0.7,3-4.6,5.7-2.2c2,1.8,0.2,5.2,4.1,4.9   c0.1-1.7,0-3.5,0.1-5.1c1.8-1.1,4.7,0.4,6.3-0.6c1.2-0.7,0.8-5.4,3.5-3.3c2,1.6,0.7,4.6,3.1,5.9c2.4,1.4,5.3-0.2,7.7,1.8   c2,1.8,2.1,4.2,1.6,6.7c-0.4,2-1.6,5.8,2.4,4.3c3.6-1.3,0.8-5.6,4.7-6.3c2.4-0.4,5.9,0.2,8.2,0.6c3.1,0.4,4.7,1.2,6.6,4.1   c1.2,1.9,2.4,5.3,4.7,6.4c2.2,1.1,4.4,0.4,5.2-1.5c0.6-1.3-0.3-3.2,1-4.4c3.3-2.8,6,1,6.8,3.6c0.7,2.2,0.9,6.1,4.3,5.4   c4.1-0.8,0.6-7,2.6-8.7c1.7-1.4,7.1,0.5,8.7,1.1c2.3,0.8,4.5,3.4,6.5,2.2c2.1-1.2,1.4-4.2,2.2-6.1c1-2.4,3.6-4.1,6.2-4.4   c5.2-0.8,1.7,3.9,4.5,4.1c0.3,0,0.7,0.1,1.1,0c-0.2-2.7,0.6-4,3.1-4.6c3.8-1.1,6.2-0.4,8.5-4.4c1.1-1.9,0.6-2.2,2.8-3.3   c3.7-1.8,9.2-1.4,13.2-1.4c3.9,0.1,8.8,1.4,12,3.9c2.7,2.1,2.6,5.1,5.8,6.6c2.6,1.2,7.4,2.4,10.2,1c1-0.5,1.6-1.7,2.5-2.1   c1.6-0.8,3.7-0.2,5.3-0.6c4.7-1,7.5-4.1,10.3-7.6c4.1-5.1,9.4-7.8,15.4-9.2c3.1-0.8,6-1.1,9-2.1c3.3-1,5.8-2.8,8.8-4.2   c6.8-3.2,14.3-3,21.8-3c5.1,0,9.2,0.7,13.7,3.1c3.8,2,9,2,13.4,1.1c4.4-1,9-3.1,12.9-5.1c3.7-1.9,6.9-4.4,10.6-6.1   c3.2-1.5,6.6-2.6,9.7-4.5c2-1.2,6-5,8.5-4.6c2.1,0.3,4.1,4.2,5.8,5.3c6.1,4,7.4-3.2,12.4-4.7c2.7-0.9,3.9-1.1,5.8,0.8   c1.8,1.8,2.8,3.9,5.1,4.8c2.2,0.8,5.3-0.1,6.6,2.4c1,1.9-0.9,6,0.5,7.5c1.2,1.3,5.6,0.3,7.2,0.8c2.9,0.8,5.6,3,7.1,5.4   c4.2,6.8,2.6,15.4,3.7,23.1c0.9,6.2,0.3,12.9,0.3,19.2c0,6.4,0.5,12.6,0.5,19c0,4.9,0.1,9.7-0.6,14.4c-0.4,3.2-0.8,7.5,0.3,10.6   c2.6,7.2,8.7,12.9,13.3,18.7c1.5,1.9,3.3,4.7,2.7,7.2c-0.7,2.9-3.2,2.3-4.6,4.4c-2.5,3.7,2.8,3,5,3.6c2.2,0.5,6.7,2.4,6.5,5.3   c-0.2,3.1-5.1,2.1-5,5.3c0.1,3.2,5.5,4.6,7.3,6.9c3.4,4.4,3.7,11.5,6.3,16.4c2.8,5.3,6.6,8.5,10.5,12.9   C721,1441,725.2,1446.8,729.7,1450.3z"/>
	<path id="path104" class="st7" d="M222.6,1417.5c0.6,1.9-0.4,2.3-1.7,3.4c-3.1,2.8-4.8,7.5-7.1,11c-2,3.2-1.9,7.6-0.7,11.1   c1.2,3.4,3.4,6.6,4.9,9.9c1.4,3.1,4.4,6.7,3.4,10.3c-0.4,1.6-1.7,2.8-2.1,4.4c-0.4,1.4,0,3.9-0.8,5.1c-2,3.1-5-3.2-5.9-4.5   c-2.2-3.5-5.1-6.6-7.2-10.2c-1.4-2.4-2.7-4.9-4.3-7.3c-1.2-1.8-2.6-3.7-3.2-5.8c-1.2-4.1,2.1-7.5,2.2-11.6c0-2.8-0.2-5.8,0-8.6   c0.1-2.6-0.1-5.7,0.9-8.2c0.9-2.1,2.2-4,3.5-5.9c0.8-1.1,1.9-3.2,3.6-2.6c1.2,0.4,1.5,1.9,2.8,2.4c1.4,0.5,3.1,0.1,4.6,0.5   c1.4,0.4,2.7,0.8,3.7,1.8C220.4,1414,222.1,1416,222.6,1417.5z"/>
	<path id="path106" class="st7" d="M213.6,1577.5C213.6,1577.6,213.6,1577.6,213.6,1577.5c-0.5,1.4-1.6,2.7-1.9,4   c-0.7,2.8-1,6-1.3,8.9c-0.2,2,0.1,4-0.2,6c-0.2,1.1-0.2,3.4-1.1,4.2c-1.6,1.5-6.3,0-8.2-0.1c-2-0.1-3.8-0.2-5.5,0.8   c-1.3,0.8-2.6,1.7-3.6,2.7c-0.8,0.8-1.7,2.3-3,2.4c-1.7,0.1-2.5-1.9-2.9-3.3c-1.2-4.2,0-8.9,1.2-12.9c1.3-4.5,1.8-9,4-13.2   c0.7-1.4,1.3-2.2,2.9-2.4c2-0.3,2.8,0.8,4.6,1.4c1.8,0.7,3.4-0.5,5.2-1.1c1.9-0.6,3.5-0.7,5.5-0.7c1.3,0,3-0.3,4.1,0.4   C214.8,1575.5,214.3,1576.5,213.6,1577.5z"/>
</g>
<g id="Brooklyn">
	<path id="path60" class="st8" d="M1428.6,1169.3c0.4,3.3,5.5,10.1,3.4,13.1c-0.9,1.2-4.6,2.1-6.1,1.6c-1.7-0.6-2.1-3-4.1-2.4   c-0.9,0.2-3.1,2.7-3.4,3.7c-0.8,2.6,2.1,3.2,3.8,4.6c2.8,2.1,4.3,6.9,0.2,8.6c-1.8,0.7-2.4,0-4.1-0.2c-1.8-0.3-3.2,0.6-4.6,1.6   c-1.4,1.1-2.5,2.9-4.1,3.8c-1.8,0.9-4.1,0.9-5.9,1.6c-1,0.4-3.6,1.8-3.1,3.2c0.4,1.1,3.7,1.6,4.7,2.2c3.2,1.7,1.4,4.7,2.4,7.3   c-0.8-0.2-1.6-0.2-2.4-0.2c-0.9,4.5,7.8,6.9,10.3,8.9c4.5,3.5,7.9,11.5,8.4,17.1c0.2,2.7-1.2,4.2-1.4,6.8c-0.3,2.6,0.3,5.3,0.3,7.9   c0,2.9,0.4,7.2-1.4,9.6c-1.6,2.2-5,3-7.4,3.5c-2.9,0.6-4.3,1-6.6,2.8c-2.5,1.9-2.9,2-4.6-1.1c-2.4-4.2-0.5-9-2.4-13.2   c-1.3-2.7-5.7-11-8.8-10.9c1.8,3.9,5.3,8.1,5.5,12.3c0.2,5.2-2.9,7.3-6.9,9.9c-1.7,1.1-3.3,2.8-5.4,2.5c-2.7-0.3-3.8-3.2-5.3-5.2   c-2.2-3.2-7.6-9-12-8.2c-0.7,4,2.5,9.1,4,12.6c2.4,5.6,5.2,8.8,9.3,13.1c3.1,3.2,8.7,6.8,9.6,11.5c1.1,6.6-10.4,9.1-14.1,12.8   c-1.5,1.5-3.2,7.8-4.9,8.2c-1.4,0.3-7-5.7-8.2-6.9c-4.8-4.6-9.5-8.6-14.8-12.3c1.1,3.2,3.2,6.9,5.4,9.3c2.3,2.5,6.7,4.3,7.8,7.5   c1.4,3.9,0.4,8.4-4.1,6.9c-4.7-1.6-5-5.5-9.3-1.1c-4.3,4.4-7.2,9.3-8.3,15.2c-0.2,1.1-0.1,4.8-1.3,5.5c-1.7,1-3.6-1.8-3.9-1.6   c-2.2,1.2-3.6,4.4-5.5,6.1c-2.6,2.3-5.8,11.4-8.9,11.5c-3.8,0.1-5.8-5-8.4,0.1c-1.5,2.9,0.2,7.9,0.2,11.1c0,4-0.5,8.1-5.3,9.4   c-5,1.3-4.7-2.8-7-5.8c-2.5-3.3-7.3-4.9-11.2-2.8c-4.2,2.3-2.1,5.4-0.1,9.1c4.2,7.8,8.6,15.6,13.7,22.8c4.7,6.6,7.8,13.8,12.3,20.4   c3.7,5.3,9.7,12-1.2,12c-4.1,0-7.8-0.4-11.5,1.2c-4.2,1.7-7.2,5.2-10.9,7.8c-3.2,2.3-8.4,3.3-10.9,6.7c-2.2,3-1.5,7.6,2.8,7.8   c3.3,0.3,6.8-3.8,10.7-4.1c6.9-0.6,14,0,20.9,0c4.2,0,10.8-0.7,13.6,2.5c3.9,4.4,2.8,11.9,4.4,17.2c2.1,7,5.8,13.4,8.4,20.3   c4,10.2,6.3,21.2,10.6,31.6c2.2,5.4,4.3,10.7,5.9,16.2c1.4,4.6,3.8,8.9,3.3,13.9c-0.7,7.2-11.2,8.9-17.4,11.3   c-10.1,3.8-20.4,4.9-30.5,9c-7.2,3-17,12.2-23.5,5.9c-2.7-2.6-4.3-5.8-6.9-8.4c-3.3-3.4-7.6-4.7-11.9-6.5   c-3.2-1.4-12.5-4.3-10.4-9.5c1.5-3.9,7.2-1.8,9.5-0.2c3.5,2.5,4,6.3,8.6,7.2c3.4,0.7,7.2,0.1,9-3c5.3-9.4-5-13.1-8.2-19.6   c-1.7-3.5,0.3-10.5-4-11.6c-3.6-0.9-5.9,3.2-8.6,4.9c-10.3,6.5-8.6-8.5-16.4-6.5c-0.1,3.4,5.4,4.3,4.4,8.1   c-3.7,0.9-4.9,1.9-7.6,4.7c-2.5,2.5-5.7,4.8-8.9,2c-1.4-1.2-2.6-7.8-6.1-4.6c-2,1.8,0.2,7.1,1.2,8.7c3.3,5.3,9.9,6.8,4.9,13.9   c-5.4,7.7-8.2-2.2-14.3-1.1c-0.1,2.1,0,4.4-0.1,6.5c-4,0.6-7-2-10.3-3.7c-5-2.6-10.1-5.4-15.2-7.7c-8.6-3.9-20-12-28.1-4.7   c-7.8,6.9-16.8,7.5-27.1,7.5c-2.6,0-17.9,1.1-9.6,3.3c5,1.3,12.3,0,17.5,0c4.8,0,8-0.2,10.2,4.4c1.6,3.2,2.7,8.5,2.9,12   c0.3,6.4-10,18.2-11.2,7.5c-8.7-0.5-18.4,1.8-27,3.3c-7.6,1.3-15.3,3-23,4.1c-6.6,0.9-13.3,0.5-20,0.4c-5.9-0.1-11.5,2-17.3,3.1   c-13.1,2.5-26.3,4-39.5,6.3c-9.4,1.6-18.9,2.2-28.1,5c-8.9,2.7-16.7,6.7-26,8c-14.9,2.2-29.6,3.6-44.8,3c-5.5-0.2-10.9-1-15.8-3.8   c-3.8-2.3-5.9-6.3-9.8-8.6c-5.3-3.3-10.6-3-16.6-4c-3.9-0.7-7.4-0.9-8.2-5.4c-0.3-1.8,0.9-3.8,0.4-5.8c-0.5-2-2-3.2-2.9-4.9   c-1.8-3.7-1.1-6.2,1.6-9.3c2.7-3.1,7.2-6.2,11.1-7.6c3.7-1.4,7.6-0.1,10.3-3c1.4-1.5,0.2-2.8,2.5-4c1.6-0.8,4.1-0.7,5.5,0.3   c0.8,0.6,0,2.6,1.1,3.4c0.9,0.6,3.2,0.8,4.2,0.9c2.2,0.2,4.5-0.1,6.7,0.1c5,0.5,10.7,0.9,15.6,2.5c3.8,1.3,6.9,3.7,10.7,4.8   c1.9,0.6,5.3,1.6,7.4,0.8c1.6-0.6,1.8-2.1,2.8-2.6c4.8-2.3,5.8,4.1,10.4,2.9c0.5-6.5-4.1-7.1-8.3-10.1c-3.4-2.4-4-12-6.5-12.5   c-1.9-0.4-5.7,2.3-8.2,2.5c-5.8,0.3-11.6-0.4-16.1-3.7c-3.4-2.5-8.7-7.6-7.8-12.4c0.9-5,7.6-5.3,11.5-6.2c0.8-3.9-3.4-6-2.4-9.8   c1.1-4.2,6.6-4.9,5.7-10.7c-2.9-0.3-9.6,5.1-11.4,0.4c-1.6-4.1,5-4.1,5.7-7c1.5-6.6-13.2-10.4-13.3-0.5c-6.5-1.6-12.2-12.4-16-17.3   c-14.1-17.9-36.1-19.3-56.8-23.7c-5.6-1.2-11.6-1.4-17-3.9c-3.9-1.8-7.2-4.7-11-6.5c-3.7-1.8-7-4.7-10.5-6.5   c-4.8-2.5-5.6,0.1-5.7,4.4c-3-1.2-2.4-4.6-2.4-7.4c0-3.9-0.4-6.5-2.2-10c-3.4-6.6-6.2-13.2-9.1-20.2c-5.1-12.2-11.4-25.2-11.8-38.7   c-0.2-7,0-14.1,0-21.1c0-6.5-0.2-12.8,1.9-19c2.5-7.2,6.3-13.9,9.5-20.8c3.3-7.1,4.4-14.5,8.7-21.1c4-6.2,5-13.8,9.7-19.7   c2.5-3.1,4-3.7,7.7-3.6c1.4,0,11.9,3.8,11.9,3.9c1.3-8.4-10.4-6.5-11.1-14.4c-0.2-2.7,1-6.2,2.9-8.1c3.7-3.8,6.3-3.5,9.4-0.1   c2.4,2.6,4.3,6.2,8.7,4.9c4.3-1.3,1.8-3.1,1.3-6.6c-0.4-2.7-0.9-8.1,2.4-9.4c2.7-1.1,6.4,3.5,8.7,1.6c3.7-3.1-3.3-7.7-5.3-8.6   c-4.6-2-5.3-2.5-2.1-7.5c4.3-6.7,10.9-12.2,16.8-17.6c1.7-1.6,5.7-8,8-7.4c2.9,0.8,1.2,8.8,6.2,5.5c3.1-2.1,0.2-7.2,5-3.8   c4.8,3.4,4.6,6.7,11.8,4.9c0.4-7.9-3.5-7.1-9.4-10.8c-6.1-3.8-1.4-7.8,2.9-11.1c5.2-4,12-7.1,17.4-3.2c4.1,3,6.6,8.2,12.6,5.7   c5.1-2.1,0-2.7-1.5-6.2c-1.6-3.7,1-6.7,4.4-4.4c2.9,1.9,3,6.8,7.1,6.9c3.3,0.1,7.2-3.7,5.4-7c-1.7-3.2-9.3-2.7-7.9-8.2   c0.8-3.1,2.3-2.1,4.6-1.8c2.9,0.5,7.8,2.6,10.4,0.3c1.1-1,1.8-3.9,1.3-5.3c-0.5-1.4-5-3.5-5-2.8c-0.6-3.9,2.2-7.8,1.9-12.2   c-4.8,2.1-4.4,9-9.5,11c-5.3,2.1-8.9,1.3-12.4,7c-0.7,1.2-1.7,6.5-4,5c-1.5-1,0-5.4,0.4-6.5c1.8-4.9,6.8-8.9,3.7-14.4   c-2.1-0.1-2.9,1.6-4.2,3.2c-2.5,3.1-3.7,6.7-6.1,9.9c-2.6,3.6-7,5.9-10.3,8.6c-4.5,3.7-11.2,11.2-17.7,9.4c-3.3-0.9-6.1-4.2-7.8-7   c-2.3-3.6-1.2-5.4-0.8-9.4c0.3-3.8-0.7-7.7-2.4-10.8c-1.5-2.8-5.5-5.8-4.6-9.3c6.3-1.1,10.4,6,11.1,11.1c0.7,5.6-1.6,11.9,5.3,14.4   c9.4,3.4,12.1-5.1,11-12.8c-1.5-10.4-7.7-13.1-15.6-19c-3.6-2.7-7.6-4.6-11-7.4c-6.3-5.2-5.7-12.6-3.3-19.7   c2.8-8.1,12.2-12.8,19.2-17.4c9.1-6.1,18.1-11.5,26.7-18.4c8.5-6.8,13.9-16.3,19.6-25.3c6.4-10.3,10.8-19.8,12-31.8   c0.5-5.4,1.3-9.2,4.1-13.9c2.3-3.9,6-6.3,8.5-10c2-2.8,2.1-7.2,5.4-8.9c4.1-2.1,7.5,0.1,10.6,1.6c7.6,3.6,20.6,2.1,29,1.6   c9.2-0.6,19.3-6.2,25.4-13.1c1.6-1.8,4.1-8.8,6.2-9.2c2.9-0.6,5.6,6.7,6.6,8.7c2.1,4.2,2.2,8.1,2.8,12.7c0.4,2.7,4.9,13.2,9.6,9   c2.7-2.4-1.4-11.2-2.6-13.7c-2.1-4.3-5-8-6.6-12.5c-1.4-3.9-1.9-9.5-1.2-13.8c1.4-7.7,7.1-15.4,10.2-22.5c3.9-8.7,6.5-18,11.6-26.2   c4.8-7.8,9.2-14.5,9.2-23.7c0-8.1-3.3-14.2-4.8-21.9c-1.1-5.9-1.5-13-1.4-20c2.9-0.3,6.5-3.1,9.1-4.1c3.8-1.5,7.1-2.5,10.5-4.9   c7.6-5.2,16.3-8.5,25.4-5.1c7.6,2.9,14.7,8,21.8,12.1c3,1.7,6.2,3.6,8.7,5.8c2.8,2.4,4.5,6.5,6.4,9.7c3.2,5.4,6,11.3,9.9,16.2   c1.8,2.4,4,3.3,6.7,4.4c3.4,1.4,6.7,3,10.3,3.5c2.7,0.4,5.5,0.4,8.1,1.2c4.5,1.3,8.2,4.3,11.1,7.9c6.1,7.8,8.8,18,11.3,27.4   c0.3,1.2,0.6,2.4,1,3.6c0.6,2.2,0.3,3.5,0,5.6c-0.4,3.1,1,2.7,3,4c1.6,1.1,2,3.7,0.9,5.3c-1.6,2.2-5.2,1.4-6.7,3.5   c-0.9,1.3-0.9,3.9,0,5.1c1.1,1.5,3.3,1.7,4.5,3.1c1.4,1.6,1.9,3.5,3.5,5c1.2,1.2,3.4,2.2,4.2,3.8c0.9,1.7-0.2,4,0.4,5.8   c0.5,1.6,3.5,2.1,3.7,3.7c0.4,2.2-3.3,2.3-4.8,2.8c-2.7,1.1-1.7,2.6,0.6,3.9c3.4,1.9,6.1,4.5,9.2,6.8c1.4,1,2.6,2.1,3.9,3.2   c1.9,1.6,4,0.9,6,1.9c1.5,0.7,3.2,2.9,4.5,4.1c2,1.8,3.1,3.8,4.8,6c2.6,3.5,3.7,2.7,7.6,2.9c0.9,3.5-5.6,2.8-7,4   c-2.2,2.1,1.6,3.5,3.3,3.8c1.6,0.3,3.8-0.1,5.2,0.9c0.8,0.5,2.5,2.8,2.5,3.7c-0.1,1.7-3.1,2.2-4.4,3.3c-1,0.8-3.6,2.1-3.3,3.2   c0.7,2.2,7.6,2.7,9.6,3.5c2.7,1.1,4,3.2,6,5.1c3.6,3.5,8.7,5.5,12.2,9.1c3.7,3.8-7.4,4.8-6.3,9.6c2.3,1.3,5.1,1.8,7.5,3.1   c1.9,1.1,3.8,2.1,5.7,3.1c1.6,0.9,2.9,2.4,4.2,3.6c2.5,2.5,0.4,1.6-1.2,3.2c-1.7,1.7-0.1,3.8,1.4,4.9c1.9,1.5,2.5,1.8,3.1,4.1   c0.6,2.3,0.6,2.3-0.9,4.1c-1.5,1.8-1.5,2.6,0.3,3.8c0.9,0.6,2.5,0.7,3.1,1.6c0.6,0.8,0.2,1.8,0.4,2.7c0.5,2.1,1.8,4.6,3,6.5   c1.6,2.2,3.9,3.7,5.4,5.9c1.3,1.8,2,3.8,3.1,5.5c3.6,0.4,3.4-5.5,4.3-7.6c0.6-1.3,1.8-1.8,2.7-2.9c0.8-1,1.1-2.9,2.4-3.1   c0.8,2.7,2,5.7,3.3,8.2c0.6,1.1,0.8,2.4,2.2,1.9c1.3-0.5,2.7-3.7,4.2-4.6c1.9-1.2,4-1.7,6.1-2.6c3-1.2,3.4-3.3,5.3-5.6   c2.2-2.7,5.3-4.6,8.2-6.5c2.9-1.8,5-3.9,7.4-6.1c1.9-1.7,4.2-3,6.2-4.5c4.4-3.2,6.8-7.7,10.6-11.6c2.8-2.9,6.4-5.4,9.8-7.6   c4.1-2.7,9.5-3.7,14.1-5.2c2.3-0.8,5.4-2.7,7.9-2.6c3.8,0.1,3.5,3.4,3.5,6.4c0,3.5-0.2,6.9,0.3,10.4c0.7,4.4,2.6,8.7,3.5,13.2   c1.1,5.2,1.4,10.5,2.9,15.7c1.3,4.6,1.6,9,2.2,13.7c0.1,1,0.3,2.9,0.9,3.7c0.8,1.1,0.7,0.8,2.2,0.9c2.2,0.2,3.8-0.5,4.9,1.8   c0.8,1.6,0.5,3.9,0.5,5.8c0,2.9,0.6,2.2,2.7,3.1c4.4,1.8,4.1,8.7,4.4,12.6c0.1,3.1,0.8,5.7,2,8.6c1.6,3.5,2.1,8,2.4,11.8   c0.2,2.4,1.3,7.9,4.4,4.2c1.1-1.2,1.8-3.8,3.2-4.6c2.3-1.2,2.7,1.6,2.8,3.4c0.1,2.4-0.9,4.1-0.9,6.4c0.1,2.1,1,4.3,1.9,6.1   c0.8,1.7,2,3.4,2.6,5.3C1428.5,1164.9,1428.4,1167.1,1428.6,1169.3z"/>
	<path id="path62" class="st8" d="M1409.6,1532.4c1.6,3.1,1,5.2-0.4,8.3c-2.7,6.4-7.4,11.4-10.8,17.3c-2,3.5-3.8,7.1-5.8,10.5   c-1.7,3-3.6,8.2-7.8,7.6c-0.9-5-1-11.1-3.8-15.4c-1.3-2-4.1-3.7-3.9-6.2c0.2-2,1.6-2.3,2.9-3.5c2.8-2.6,4.7-6.3,6.8-9.4   c2.4-3.4,8.6-7.7,5.9-12.6c-0.6-1.2-4.4,4.6-4.7,4.9c-2.3,2.4-5.4,0.4-8.1,2.3c-1.2,0.9-1.7,2.9-3.6,2.9c-1.8,0-1.3-3-1.3-4.6   c0-4.8-5.8-8.2-5.1-12.8c0.4-2.7,3.6-4.3,5.8-5.8c2.9-2.1,4.6-4.8,7.2-7.1c3-2.6,7.4,1.8,10.4,3.4c5.1,2.6,9.6,5.4,12.4,10.6   C1407.4,1525.8,1408,1529.3,1409.6,1532.4z"/>
	<path id="path64" class="st8" d="M1401.4,1426.1c1.6,1.4,2.2,2.5,1.9,4.8c-0.5,3.1-2.1,2.9-4.2,4.3c-2,1.4-1.1,4.8-2.4,5.8   c-3.7,2.8-2.9-9.1-2.7-10.5c0.3-2,1.8-3.1,2.2-5.1c0.2-1,0.2-3.3,1.6-3.6C1399.5,1421.4,1400.2,1425.2,1401.4,1426.1z"/>
	<path id="path66" class="st8" d="M1398.1,1349.7c0.9,2.5,0.8,5.6,0.6,8.3c-0.2,3.5-1.7,5.9-2.4,9.1c-1.3,5.7,2.3,15.6-1.8,20.2   c-1.7,1.9-4.1,2.6-6.3,3.6c-3.2,1.5-6.5,2.9-9.8,4.2c-4.2,1.7-8.4,3.1-12.6,4.6c-3.2,1.2-5.6,3.2-8.5,4.9c-2.3,1.3-4.9,2.1-7.5,0.8   c-2.8-1.4-2.3-3.9-1.6-6.5c2-6.9,3.9-14,6.7-20.6c1.3-3.1,2.1-6.6,3.6-9.5c1.7-3.3,5.2-6.2,8-8.5c4.5-3.7,9.4-6.9,14.1-10.3   c2-1.4,3.8-3.3,5.8-4.6C1391.8,1341.7,1395.9,1343.5,1398.1,1349.7z"/>
	<path id="path68" class="st8" d="M1392.7,1450.6c1.3,0.3,5.3,4.1,4.6,5.7c-0.6,1.3-1.9,1.5-2.4,2.9c-0.7,1.9,0.3,2.9-2.1,3.1   c-2.1,0.2-9.3-1.8-6.2-4.8c0.6-0.6,1.6-0.2,2-0.8c0.6-0.8,0-1.8,0.2-2.7C1389.3,1452.6,1390.8,1450.2,1392.7,1450.6z"/>
	<path id="path70" class="st8" d="M1388.8,1429.6c1.5,2,1.7,4.2,0.7,6.6c-0.6,1.4-1.6,2.5-2,4c-0.3,1.3,0.1,3-1.1,4.1   c-2.2,1.9-3.6-0.3-3.9-2.4c-0.3-2-1-5.9-2.6-7.6c-0.8-1.8-1.8-3.3-3.1-4.8c-2.7-3-3.7-4.6-2.7-8.3c1.1-4,0-8.6,1.1-12.6   c1.2-4.2,4.2,1.6,5.3,3.1c1.2,1.5,3.5,3.4,3.9,5.3c0.7,3.2-2.1,1.9-3.1,3.5C1379.4,1423.4,1387.5,1427.8,1388.8,1429.6z"/>
	<path id="path72" class="st8" d="M1388.8,1486c0.1,2.4-0.2,6.9-2.9,7.1c-5.6,0.3-8.6-10.3-8.4-14.3c0.2-2.9,0-5.7-0.3-8.5   c-0.2-1.9-0.6-5.8,0.8-7.3c2-2.3,3.4,0.1,3.6,2.1c0.7,5.6-0.7,10.9,3.3,15.7C1386.7,1482.8,1388.7,1483.2,1388.8,1486z"/>
	<path id="path46" class="st8" d="M1500.7,1320c2.3,1.6,4.8,5.5,3.7,8.4c-1.3,3.4-4.5,5.6-6.9,8.2c-2.8,3.2-4.3,6.7-6.1,10.4   c-1.3,2.6-3.5,17.4-8.7,11.9c-1.6-1.7-2.1-5.2-3.1-7.3c-1.4-2.7-2.6-5.3-4.1-7.8c-1.4-2.2-5.2-4.8-5.7-7.3c-0.5-2.2,1.8-3.2,3.5-4   c3.6-1.8,6.9-4.1,10.4-6.2c2.5-1.6,5.3-2.6,7.8-4.3C1494.1,1320.2,1497.6,1318,1500.7,1320z"/>
	<path id="path48" class="st8" d="M1490.2,1415.2c2.5-0.2,5.1,0.4,4.9,3.1c-0.1,2.3-1.6,4.4-2.3,6.6c-1.2,3.8-2.7,8.6-3.1,12.6   c-0.4,4.5,2.4,10.1-0.9,14c-3.8,4.6-11.1,5.1-14.8,9.9c-1.7,2.3-3.6,4.6-6.8,4.7c-2.7,0-3.9-1.9-5.5-3.9c-1.5-2-2.9-4.2-4.7-5.9   c-2.2-2.1-4.7-3.8-6.2-6.6c-1.2-2.2-0.8-3.2,0.7-4.8c1.2-1.2,2.5-2.6,3.9-3.8c1.6-1.2,3.1-2.3,5-3.2c2.1-1,3-1.6,1.2-3.5   c-0.6-0.6-1.5-0.7-1.9-1.5c-0.4-0.8,0-2.6,0-3.4c0-1.9-0.1-3.8,0.2-5.6c1-4.9,2.7-9.8,3.5-14.7c0.5-3.2-0.9-7.1,0.7-10.1   c1.4-2.7,4.1-4.7,7.3-4.6c2.5,0.1,6.9,0.5,8.5,2.8c2.4,3.5-2.9,3.4-4.5,4.5c-2.7,1.8-3.3,6.1-1.6,8.4c2,2.7,4,5.6,6.7,7.5   C1484.6,1420.4,1486.5,1415.4,1490.2,1415.2z"/>
	<path id="path50" class="st8" d="M1474.8,1366.5c1.6,1.6,2.5,2.5,1.3,4.8c-3.5,6.5-13.4,3.4-19.1,5.2c-7,2.3-14.2,3.8-21.2,6.1   c-4.7,1.6-9,4.1-13.4,6.4c-3.7,1.8-5.3,4-8,6.7c-3.2,3.2-7.8,2.5-11.6,0.6c-2.3-1.2-3-2.2-2.7-4.9c0.2-1.6,0.6-3.4,2.6-3.1   c0.5,1.3,2.8,4.1,4.4,3.3c0.8-0.4,0.8-1.8,1.4-2.5c0.6-0.7,1.2-0.7,1.9-1c0.9-0.3,1.6,0.2,2.2-0.8c0.4-0.7,0.1-2.7,0.1-3.4   c0-2.8,0.2-5.7,0-8.4c-0.2-2.5-0.8-4.7-3.5-5.1c-1.8-0.3-3.6,0.9-4.8-0.6c-0.9-1.1-1.6-5-1.6-6.6c0-2.1,0.9-4.7,2.6-5.9   c4-2.6,6.7,1.4,9.7,3.1c2.2,1.2,2.8,0.5,3.5-1.8c0.8-2.5,1.7-4.6,3.9-6.2c1.5-1.1,3.5-1.9,4.8-3.5c1.3-1.5,1.2-3.7,2.8-5   c4.4-3.2,3.3,5.4,7.2,4.5c0.1-1.9-0.3-5.6,2.7-5.1c1.6,0.3,1.1,1.8,2.2,2.7c3.4,3,9.2-1,11.4-3.5c1-1.1,2.2-4.1,3.7-4.6   c3-0.9,6,6.9,4.6,9c-0.9,1.4-3.4,1.5-4.5,2.9c-1,1.3-1.4,3.2-2,4.8c-0.7,1.5-1.5,3.8,1.2,2.7c1.6-0.6,2.2-2.6,4.1-3.1   c3.9-1.1,8.6,5.2,10.8,7.9C1472.5,1363.6,1473.4,1365.1,1474.8,1366.5z"/>
	<path id="path52" class="st8" d="M1473.4,1302.1c1.6,2,2,3.7,1.8,6.3c-0.7,7.1-5.6,9.4-9.7,14.4c-3.4,4.2-4.7,10.7-10.6,11.9   c-4.6,1-9.5,0-14.1,0.4c-4.2,0.3-16.2,4.3-18-0.4c-1.9-5,0.7-12.7,3.8-16.6c3.3-4.4,6.9-8.3,11.2-11.8c4.3-3.4,9.3-6.1,13.9-9   c3.9-2.5,11.7-4.3,15.7-1.6C1469.6,1297.4,1471.7,1300.1,1473.4,1302.1z"/>
	<path id="path54" class="st8" d="M1455,1411.2c0.9,1.7,1.9,4.1,1.6,6.2c-0.6,3-1.7,5.8-2,8.9c-0.2,2.3-0.4,5.3-1.4,7.2   c-2.5,4.7-8.1,6.9-10.3,11.9c-1.2,2.8-2.2,7-4,9.3c-1.4,1.9-3.4,0.5-5.1-0.8c-3.4-2.8-2.2-8.2-4.4-11.9c-2.3-4-6.7-7.4-8.4-11.6   c-1.4-3.3,3.4-6.6,3.7-10.1c0.2-2.3-0.1-3.3,2-4.5c1.8-1,3.6-0.7,4-3c0.5-3.4-4.8-5.1-5.7-8.5c-0.5-1.8-0.7-5.4,2.1-5.1   c2.4,0.3,2.6,3.8,3.8,5.4c1.4,1.8,3.8,0.9,5.3,2.3c2,1.9,0.4,3.3-1.1,4.1c-1.8,1-2.4,1.4-1.9,3.8c0.7,2.8,2.4,3.4,5,4.5   c2,0.8,4.8,1.7,7,0.8c2.6-1.1,0.2-2.2-1.3-3.7c-2.1-2-3-3.7-0.4-6C1446.8,1407.3,1452.7,1406.9,1455,1411.2z"/>
	<path id="path56" class="st8" d="M1448.2,1477.8c1.8,3,0.1,8.1-2.2,10.1c-2.7,2.3-6.1,3.5-9,5.6c-2.5,1.8-5,5-8.2,4.9   c-5.5-0.2-7.3-6.4-11.1-9.8c-2.9-2.7-6.2-5.6-9.8-7.4c-2.6-1.3-8.7-2.5-8.2-6.5c0.3-2.5,3.3-4,5.1-5.2c1.6-1.1,2.9-2.3,4.4-3.5   c4.7-3.8,7.8-3.2,12.9-0.6c4,2.1,8.3,3.5,12.5,5.3c2.3,1,4.4,2,6.6,3.2C1443.1,1474.9,1447,1476,1448.2,1477.8z"/>
</g>
<g id="Manhattan">
	<path id="path82" class="st9" d="M1230.2,212.1c1.8,7.6-1.1,19.4-5.8,25.5c-2,2.6-4.9,4.6-7.9,5.9c-2.2,0.9-5.3,1.1-6.9,2.9   c2.5,1.2,4.2,2,3.8,5c-0.3,2.6-2,3-3.6,4.9c-2.2,2.4-4.2,5-6.6,7.2c-1.6,1.5-3,4.5-4.8,5.6c-2.1,1.3-2.9-1.6-5,0.1   c-2,1.5-2.3,6.9-3,9.2c-3.6,12.4-10.9,22.7-17.3,33.8c-2.1,3.7-3.4,7.8-5.3,11.6c-2.1,4.1-4.1,8-5.6,12.3c-1.3,3.6-3.6,6.2-5.2,9.6   c-1.2,2.6-1.5,6.2-2,9.1c0,0.1,0,0.2,0,0.2c-1.1,6.5-3.5,12.7-6.1,18.9c-2.7,6.3-4,11-4.4,17.9c-0.2,5.7-0.6,11.6,0,17.3   c1.1,10.1,3.6,19.9,4.4,30c0.7,9.2-0.7,18.3-1.6,27.4c-0.5,5.1-0.3,10.3-0.3,15.4c0,4.1,0,8.1,0,12.2c0,3.4,0,6.8,0,10.2   c0,3.8-0.2,5.8,2.5,8.6c2.4,2.6,5,4.7,7.2,7.6c4.5,5.9,9.3,12.1,10.8,19.4c1.1,5.2,0.5,11,0.5,16.4c0,4.5,0.8,9.4-1.9,13.2   c-2.5,3.6-6.3,5.7-9.7,8.4c-4.4,3.6-9.4,6.7-13.3,10.9c-3.1,3.3-4,7.5-5.7,11.5c-1.3,3.3-2.8,6.3-5,9c-4.9,6.2-15.1,10.7-16.4,19.2   c-0.5,3.1,0.7,6,1.9,8.7c1.4,3.1,2.1,6.3,3.2,9.5c0.9,2.5,3.4,6.1,3.4,8.7c0,3.1-4.4,5.9-6.2,8.1c-2.9,3.5-5.6,7-8.8,10.2   c-7.6,7.5-12.7,16.5-18,25.6c-3.1,5.2-6.1,10.3-9.8,15.2c-8.1,11-17.3,21.3-25.4,32.4c-6.5,9-12.2,18.6-18.3,27.8   c-5.5,8.2-12.5,15.3-16.2,24.5c-1.6,4-3.8,7.8-3.8,12.1c-0.1,4.6,1.6,9.2-1.1,13c-1.4,2-1.8,3.1-1.6,5.7c0.3,4.5,3.5,6.7,4.4,10.5   c1.8,7.7-6.7,3.3-9,6.9c-2.9,4.6,6.4,6.1,8.1,7.4c-2,2-6.8,0.4-9.1,2.8c-2.4,2.5,0.7,4.3,2.8,6.1c5.9,5.2,9.4,10.9,8.6,18.8   c-0.4,4.3-1.3,8.4-1.9,12.7c-0.4,2.3-0.7,5-1.4,6.9c0,0-0.9,0.6-1.1,1.1c-0.2,0.6,0.1,1.4,0,1.9c-1.5,10.3-2.1,21.1-6,30.8   c-2,5-4.4,9.9-6.3,14.8c-1.5,4-3.4,6.9-6.7,9.5c-2.9,2.3-5.6,3.6-9.1,4.7c-3.8,1.2-7.3,2.9-11.3,2.9c-4.4,0-8.6,0.8-13,2   c-2.9,0.8-6,4.7-9.3,3.4c-3.2-1.2-1.8-4.2-2-6.8c-0.2-2.6,0-2.2-2.5-2.5c-1.5-0.1-2.9,0.1-4.4,0.3c-4.6,0.4-9.4,1.1-13.7,2.8   c-4.4,1.7-8.2,4.5-12.5,6.4c-2.9,1.3-5.3,2.4-4.6,6.2c0.5,2.7,2.6,4.2,1.7,7.2c-2.5,7.9-10.4,13.7-16.4,18.9   c-8.8,7.5-5.3-6.9-11.7-5.2c-7,1.9,5.9,11-1.9,12.1c-4.4,0.6-2.9-1.3-4.4-3.9c-1.9-3.1-5.6-0.6-7.2,1.4c-2.1,2.6-3,3.6-6.8,3.2   c-2.8-0.3-5.3-1.9-7.4-3.8c-1.5-1.4-2.4-2.9-3.2-4.8c-0.9-2-2.9-4.6-3.4-6.6c-1-4.2,2.6-3.2,3.9-5.8c1.6-3.5-2-4-4.2-3.5   c-2.4,0.5-6.8,2-8.2-0.9c-1-2.1,0.9-7,1.4-9c1.1-4.6,2.3-8.9,3.1-13.5c0.7-4.1,2.3-7.8,3-11.9c0.9-5.3,1.4-10.6,1.6-15.9   c0.6-12.9,5.2-25.4,6.6-38.1c0.3-2.6,0.1-8.4,1.4-10.6c1.5-2.5,7.3-2.8,10.1-3.3c2.7-0.5,5-0.9,1.9-3.3c-2.7-2-14.7-3.8-10.2-8.9   c1.2-1.3,4-2.4,4.5-4.6c0.8-3.6-2.2-1.5-3.9-3.1c-4.1-3.8,9.6-4,11.2-4.5c1.6-5.9-8.8-2.4-9.9-6.5c-0.8-3.2,2.3-7.6,3-10.5   c0.9-3.3,0.8-4.1,4.7-4.9c1.8-0.4,6.7-0.6,5.2-3.7c-1.2-2.6-5.6-2-7.7-2.4c-2.9-0.5-3.3-2.4-0.6-3.9c2.1-1.1,4.8-0.5,3.9-4.1   c-0.5-1.8-2.3-3.8-3.7-5.1c-2.1-2.1-2.4-2.5-1.4-5.6c1-2.9,1.6-5.3,1.5-8.5c-0.4-7.3,0.1-13.6,5.7-19c3.3-3.2,7.5-4.5,3.8-9.8   c-2.4-3.4-7.4-4.5-4-10c2.3-3.7,4.8-7.5,4.6-12.3c2.8,0.1,1.9,2.8,3.3,4.1c1.8,1.6,4.1-0.2,5.2-1.9c1-1.5,1.8-4.4,0.9-6.2   c-0.8-1.5-2.8-2-3.2-3.9c-0.2-1.1,0.7-3.7,1-4.8c1-3.7,3.3-6.9,5.4-10c0.9-1.3,1.3-2.3,2.5-3.2c0.9-0.6,2.8-0.6,3.3-1.1   c3.3-2.7-1.6-2.3-3.3-3.3c-1.8-6.5,12.7-0.9,11.2-6c-1.4-1.3-3.7-1-4.1-3.3c-0.3-1.9,1.5-3.9,3.3-4.1c1.5-0.2,4.6,1.9,4.9-0.6   c0.2-1.7-2.5-2.6-3.8-2.8c-1.2-5,6.2-0.5,7.9-0.8c0.6-2.4-2.1-1.7-3-3.2c-0.7-1.2,0-3.4,0.1-4.6c1,0.8,8.1,4.7,8,1   c-0.1-2.5-4.5-2-5.4-4c-1.3-3.4,3.1-0.6,4.8-1.4c3.4-1.7-2-1.9-2.5-3.3c-1-2.7,3.6-2.6,4.7-3.7c2.5-2.3-0.6-3-1.2-5.4   c-0.6-2.5,1.1-3.6,2.6-5.4c2.5-3,2.7-12.2,7.9-11.3c0.2,1.1,0.7,3.5,1.6,4.1c1.7,1.2,3.4,0.2,3.6-1.6c0.4-3.3-4-5.2-1.6-8.8   c1-1.4,2.5-2.1,3.5-3.9c0.7-1.4,1-2.7,2-3.9c2-2.3,7.6-2.9,5.6-6.9c-0.9-1.8-4.7-1.9-5-3.3c-0.7-2.6,4.2-1.9,5.5-1.9   c2.5,0,4,0.3,5.7-1.4c1.7-1.7,2.8-4.7,4-6.9c3.4-6.2,7.5-12.2,10.6-18.7c1.7-3.5,2.8-7.3,4.6-10.7c2.2-4,5.3-6.3,7.8-9.8   c2.3-3.3,3.6-7.3,5.7-10.7c3.7-6.3,6.7-12.9,10.3-19.3c2.8-4.9,5.3-9.3,7.1-14.6c0.8-2.5,1.2-4.9,2.2-7.4c3.7-9,9.9-17.4,15-25.7   c3.8-6.1,6.9-12.6,10.2-18.9c2.1-4.1,3.4-8.7,5.4-12.9c1.8-3.8,4.4-7.1,6.5-10.7c1.1-1.9,4.8-6.3,4.6-8.6c-0.1-2.6-3.8-2.4-3-4.7   c0.8-2.2,5.4-2.4,6.8-4.3c1.7-2.3,1.2-5.9,4.2-7.4c1-0.5,2.2,0.1,3.2-0.3c1.2-0.5,1.8-1.9,2.4-3c5.4-9.1,12.1-17.5,18-26.4   c5.7-8.6,9.7-18.7,13.4-28.2c3.5-9.2,5.3-18.7,8.2-28c2.2-7,7.8-14.4,8.2-21.8c0.4-6.8-4.3-10.7-6.5-16.9   c-1.4-3.9-0.6-7.5,1.7-10.8c2.1-2.9,4.1-3.5,6.8-5.3c4.9-3.1,8-9.2,11-14c6.3-10.3,11.7-21,17.8-31.3c4.6-7.9,8.7-15.7,12.4-24   c3.2-7.3,4.9-13.9,4.9-21.9c0-3.1-0.4-6.7,0.3-9.6c0.8-3.4,3.6-7,5.8-9.6c2.6-3.3,5.7-6.2,8.4-9.3c1.9-2.1,3.3-3.9,6.4-3.6   c6.1,0.4,9.9,5.6,10.1,11.2c0.1,3.4,0.2,6.9,2.8,9.4c1.8,1.7,6.6,3.6,8.7,1.4c2-2-0.1-5.4,2.8-6.6c3.3-1.3,8,1.8,10.9,3   C1218.3,204,1228.7,205.7,1230.2,212.1z"/>
	<path id="path84" class="st9" d="M1216.7,559c-4.1,3.9,5.1,11.9,4.6,16c-0.7,6-10.6,10.9-14.3,14.9c-5.6,6.1-11.6,13.3-13.3,21.3   c-0.8,4.1-0.1,9-2.5,12.4c-2.1,3-5.4,5.9-7.8,8.7c-2.4,2.8-6.3,5.6-10.2,5.6c-1.1,0-2.3-0.2-3.4-0.8c-1.2-0.6-2.2-2.7-3.4-3.5   c-1.9-1.5-4.2-2.2-6.4-3.2c-5.2-2.3-19.8-7.6-17.5-15.5c1-3.1,2.9-5.3,3.7-8.6c1.1-4.1,2.4-4.9,6.1-7c7.4-4.2,11.9-8.8,16.3-15.8   c2.5-4,4.8-7.7,5.3-12.6c0.4-4.7-0.2-9.4,0-14c0.4-7.6,7.5-12.8,2.5-20.1l16.5-1.4L1216.7,559z"/>
	<path id="path86" class="st9" d="M1142.6,636.7c1.1,3.4-3.5,5.1-5.3,7.5c-1.1,1.4-1.9,4.9-4.4,4.7c-2.1-0.1-2.4-3.3-2.9-4.9   c-1.1-3.5-1-9.8,2.8-11.8C1135.9,630.6,1141.5,633.4,1142.6,636.7z"/>
	<path id="path90" class="st9" d="M1131.3,666.3c0.1,0.7,0.2,1.4,0.2,2.1c0,2.4-0.7,5.2-1.2,7.3c-1.7,6.8-6.8,11.2-10.5,16.9   c-10.6,16.4-18.9,34.2-30,50.2c-6.1,8.8-14.5,15.9-20.7,24.7c-3.4,4.8-9.3,15.3-16,14.7c-0.2-3.1-0.1-6,1-8.7   c1.4-3.5,3.6-6.5,4.8-10.1c2.6-7.6,8-14.4,12.8-21c4.9-6.7,10.2-13,15.1-19.8c5.6-7.6,10.8-15.6,16.4-23.3   c4.3-5.8,7.5-12,10.6-18.4c0.8-1.7,1.8-3.2,2.8-4.6c1.1-1.4,2.3-2.6,3.8-3.7C1122.2,671.4,1130,660.1,1131.3,666.3z"/>
	<path id="path92" class="st9" d="M1041.7,784.9C1041.7,784.9,1041.7,784.9,1041.7,784.9c0.2-1,0.5-2.3,1.1-2.5   c1.5-0.6,2.2,4.4,2,5.4c-0.8,3.4-4.9,3.4-6.6,6c-0.9,1.4-0.1,3.8-1.1,4.9c-0.7,0.8-3,0.7-3.6-0.3c-0.5-1-0.1-3.4-0.1-4.6   c0-1.8,0.3-2.2,1.8-3.4c1.2-1,2.4-1.9,3.6-2.9C1039.7,786.9,1041.2,785.9,1041.7,784.9z"/>
	<path id="path94" class="st9" d="M874.7,1054.8c0.1,2,0.6,5,0.1,7.4c-0.2,0.9-0.5,1.7-1,2.4c-1.7,2.2-5.4,3.8-7.9,4.8   c-4.3,1.8-8.3,3.4-12.2,6c-4.3,2.9-7.7,6.5-12,9.4c-2.4,1.6-4.2,3-6.2,5.1c-1.5,1.4-3.7,1.6-5.6,0.7c-3.6-1.6-5.9-5.1-8.7-7.6   c-1.6-1.5-2.4-2.7-2.2-5c0.2-1.7,0.6-4,1.4-5.5c0.9-1.6,2.5-2.5,4-3.6c2-1.6,4-3.3,6-4.8c2.6-1.8,4-4.2,5.6-6.9   c1.6-2.6,2.5-5.8,4.6-8.1c1.9-2.1,4.3-3.8,6.5-5.6c1.9-1.6,4.2-3.6,6.7-4.4c3.3-1.1,7.7,1.3,10.2,3.3   C868,1045.9,874.4,1048.9,874.7,1054.8z"/>
	<path id="path96" class="st9" d="M787.9,1016.3c1.5,1.1,1,4-0.5,4.8c-1.4,0.8-3.4,1.1-4.9,1.4c-1.9,0.4-2.9,0-4.2-1.5   c-1.6-1.7-2.3-3.5-4.1-5c-1.9-1.6-3.1-2.6-3.2-5.1c0-1.6,0.1-2.9,1.9-3.5c2-0.6,4.5-0.3,6.2,1c1.2,0.9,0.9,1.6,1.3,2.7   c0.5,1.3,1.8,1.8,2.8,2.6c0.8,0.6,1.5,1.3,2.3,1.8C786.2,1015.8,787.3,1015.9,787.9,1016.3z"/>
	<path id="path98" class="st9" d="M774.8,1025.5L774.8,1025.5c-0.3,0.9-1.2,1.6-1.5,2.5c-0.3,0.9-0.5,1.8-0.8,2.7   c-0.6,1.4-1.4,3.3-3.1,2.9c-1.6-0.4-2.1-2.2-3.2-3.3c-1.2-1.2-4.2-2.2-4.6-4c-0.4-1.4,1.7-2.8,2.3-3.9c0.6-1,0.5-2.1,1-3   c0.4-0.8,1.4-1.7,2-2.3c1.2-1,2.6-1.3,3.3,0.2c0.4,0.8,0.3,1.4,0.8,2.1c0.7,0.8,1.6,1.2,2.4,1.8   C774.2,1021.7,776.7,1024.8,774.8,1025.5z"/>
	<path id="path100" class="st9" d="M769.5,1062.9c0.5,2.4-1.8,3.1-3.2,4.2c-0.5,0.4-5.2,6.7-5.5,6.7c-1.8-1-2.4-3.3-3.6-4.8   c-1.4-1.8-2.7-3.7-4.7-4.9c-1.6-1-4.1-2.3-4-4.3c0.1-1.9,1.8-1.8,3-2.9c1.3-1.3,2.1-4.1,3.9-4.8c1.7-0.7,3,1.3,4,2.3   c1.5,1.6,3.2,3,5.1,4.1C765.8,1059.5,769,1060.9,769.5,1062.9z"/>
	<path xmlns:sodipodi="http://sodipodi.sourceforge.net/DTD/sodipodi-0.dtd" id="path2950" sodipodi:nodetypes="ccccc" class="st9" d="M1213.2,191.7l6.5-7.7c7.3-9,24.5,3.4,22.2,14.8l-3.6,15.3   C1237,197.6,1218.5,192.2,1213.2,191.7z"/>
</g>
<g id="Overlay">
	<g id="Border">
		<polyline id="polyline116" class="st10" points="1176.4,536.9 1192.8,535.4 1216.7,559 1217,559.4   "/>
		<path id="path118" class="st10" d="M1302.6,657.9l-0.7-0.8l-8.1-10.5l-10.8,10.7c0,0,12,12,14,14.2l9.4-1.5"/>
		<path id="path120" class="st10" d="M1311.4,669.8c0,0.1,0,0.2,0,0.3c0,5.5-0.1,10.8,1.2,16.2c0.7,3,1.7,5.9,2.7,8.8    c0.8,2.2,1.1,5.9,3.3,7.2c2.8,1.6,6.1-0.9,8.2-2.6c2.9-2.4,5.7-4.7,8.8-6.8c6.6-4.2,13.4-8.3,20.3-12.1c2.3-1.3,4.7-3,7.3-3.4    c3.1-0.4,4.5,1.2,7,2.7c2.5,1.5,4.9,3,7.6,4.3c1.9,0.9,3.8,2.9,6,2.7c2.7-0.2,2.7-2.3,3.6-4.5c1.1-2.8,1.9-2.7,3.8,0    c3.4,4.8,4.4,10.7,8.2,15.2c0.9,1,1.8,2.3,2.8,3.2c0.2,0.2,0.5,0.4,0.7,0.5"/>
		<path id="path122" class="st10" d="M1047.4,842.3c0.3,0,0.6,0,0.8,0c2.9-0.3,6.5-3.1,9.1-4.1c3.8-1.5,7.1-2.5,10.5-4.9    c7.6-5.2,16.3-8.5,25.4-5.1c7.6,2.9,14.7,8,21.8,12.1c3,1.7,6.2,3.6,8.7,5.8c2.8,2.4,4.5,6.5,6.4,9.7c3.2,5.4,6,11.3,9.9,16.2    c1.8,2.4,4,3.3,6.7,4.4c3.4,1.4,6.7,3,10.2,3.5c2.7,0.4,5.5,0.4,8.1,1.2c4.5,1.3,8.2,4.3,11.1,7.9c6.1,7.8,8.8,18,11.3,27.4    c0.3,1.2,0.6,2.4,0.9,3.6c0.6,2.2,0.3,3.5,0,5.6c-0.4,3.1,1,2.7,3,4c1.6,1.1,2,3.7,0.9,5.3c-1.6,2.2-5.2,1.4-6.7,3.5    c-0.9,1.3-0.9,3.9,0,5.1c1.1,1.5,3.3,1.7,4.5,3.1c1.4,1.6,1.9,3.5,3.5,5c1.2,1.2,3.4,2.2,4.2,3.8c0.9,1.7-0.2,4,0.4,5.8    c0.5,1.6,3.5,2.1,3.7,3.7c0.4,2.2-3.3,2.3-4.8,2.8c-2.7,1.1-1.7,2.6,0.6,3.9c3.4,1.9,6.1,4.5,9.2,6.8c1.4,1,2.6,2.1,3.9,3.2    c1.9,1.6,4,0.9,6,1.9c1.5,0.7,3.2,2.9,4.5,4.1c2,1.8,3.1,3.8,4.8,6c2.6,3.5,3.7,2.7,7.6,2.9c0.9,3.5-5.6,2.8-7,4    c-2.2,2.1,1.6,3.5,3.3,3.8c1.6,0.3,3.8-0.1,5.2,0.9c0.8,0.5,2.5,2.8,2.5,3.7c-0.1,1.7-3.1,2.2-4.4,3.3c-1,0.8-3.6,2.1-3.3,3.2    c0.7,2.2,7.6,2.7,9.6,3.5c2.7,1.1,4,3.2,6,5.1c3.6,3.5,8.7,5.5,12.2,9.1c3.7,3.8-7.4,4.8-6.3,9.6c2.3,1.3,5.1,1.8,7.4,3.1    c1.9,1.1,3.8,2,5.7,3.1c1.6,0.9,2.9,2.4,4.2,3.6c2.5,2.5,0.4,1.5-1.3,3.2c-1.7,1.7-0.1,3.8,1.4,4.9c1.9,1.5,2.5,1.8,3.1,4.1    c0.6,2.3,0.6,2.3-0.9,4.1c-1.5,1.8-1.5,2.6,0.3,3.8c0.9,0.6,2.5,0.7,3.1,1.6c0.6,0.8,0.2,1.8,0.4,2.7c0.5,2.1,1.7,4.6,3,6.5    c1.6,2.2,3.9,3.7,5.4,5.9c1.2,1.8,2,3.8,3.1,5.5c3.6,0.4,3.4-5.5,4.3-7.6c0.6-1.3,1.8-1.8,2.7-2.9c0.8-0.9,1.1-2.9,2.4-3.1    c0.8,2.7,2,5.7,3.3,8.2c0.6,1.1,0.8,2.4,2.2,1.9c1.3-0.5,2.7-3.7,4.2-4.6c1.9-1.2,4-1.8,6.1-2.6c3-1.2,3.4-3.3,5.3-5.6    c2.3-2.7,5.3-4.6,8.3-6.5c2.9-1.8,5-3.9,7.4-6.1c1.9-1.7,4.2-3,6.2-4.5c4.4-3.2,6.8-7.7,10.6-11.6c2.8-2.9,6.4-5.4,9.8-7.6    c4.2-2.7,9.5-3.7,14.1-5.2c2.3-0.8,5.4-2.7,7.9-2.6c3.8,0.1,3.5,3.4,3.5,6.4c0,3.5-0.2,6.9,0.3,10.4c0.7,4.4,2.6,8.7,3.5,13.2    c1.2,5.2,1.4,10.5,2.9,15.7c1.3,4.6,1.6,9,2.2,13.7c0.1,1,0.3,2.9,0.9,3.7c0.8,1.1,0.7,0.8,2.2,0.9c2.2,0.2,3.8-0.5,4.9,1.8    c0.8,1.6,0.4,3.9,0.4,5.8c0,2.9,0.6,2.2,2.7,3.1c4.4,1.8,4.1,8.7,4.4,12.6c0.1,3.1,0.8,5.7,2,8.6c1.5,3.5,2.1,8,2.4,11.8    c0.2,2.4,1.3,7.9,4.4,4.2c1.1-1.2,1.8-3.8,3.2-4.6c2.3-1.2,2.7,1.6,2.8,3.4c0.1,2.4-0.9,4.2-0.9,6.4c0.1,2.1,1,4.3,1.9,6.1    c0.8,1.7,2,3.4,2.6,5.3c0.8,2.1,0.6,4.4,0.8,6.5c0.4,3.3,5.5,10.1,3.4,13.1c-0.9,1.3-4.6,2.1-6.1,1.6c-1.7-0.6-2.1-3-4.1-2.4    c-0.9,0.2-3.1,2.7-3.4,3.7c-0.8,2.6,2.1,3.2,3.8,4.6c2.8,2.1,4.3,6.9,0.2,8.6c-1.8,0.7-2.4,0-4.1-0.2c-1.8-0.3-3.2,0.6-4.6,1.6    c-1.4,1.1-2.5,2.9-4.1,3.8c-1.8,1-4.1,0.9-5.9,1.6c-1,0.4-3.6,1.8-3.1,3.2c0.4,1.1,3.7,1.6,4.7,2.2c3.2,1.7,1.4,4.7,2.4,7.3    c0,0.1,0,0.2,0.1,0.2"/>
		<path id="path124" class="st10" d="M1525.9,1243.5c2.2-3.1,4.7-5.7,4.5-9.7c-0.2-7.4-3.7-14.8-5.5-22c-1.1-4-2.1-8.1-3.5-12    c-1.5-4.1-3.7-8-5-12.2c-1.4-4.4-2.9-8.7-2.6-13.4c3.1-0.2,6,2,8.4,3.7c3.2,2.3,6,3.2,9.9,3.7c7.2,1.1,15,0.4,22.2,0.4    c1.1,0,2.3,0,3.4,0c1.4,0,2.7,0.1,4.1,0.4c2.6,0.6,4.9,1.6,7.6,1.9c4.6,0.6,9.2-0.4,13.6-0.6c4.6-0.2,3.2,2,4.8,5.3    c1.6,3.2,5.1,4.8,8.4,5.4c5,1,5.2-5.4,5.5-8.8c0.6-6.1,1.3-9.9,7.5-12.1c2.6-0.9,5.4-1.6,8-2.3c3.3-1,6.8-1,10.2-0.9    c5.2,0.2,10.5,1.9,15.7,2.5c5.5,0.7,10.8,1.9,16.2,2.5c9.2,0.9,19.4,3.7,27.5,8.1c4,2.2,7.9,4.5,11.7,7c3,1.9,5.7,4.6,8.9,6.2    c3.5,1.7,7.6,2.2,11.2,3.8c3.9,1.8,7.6,3.8,10.6,6.9c2.1,2.3,4.1,5.7,6.7,7.2c3.7,2,8.2,1.9,12.2,2.8c3.4,0.8,5.6,2.9,8.5,4.8    c3.4,2.2,6.9,4.3,10.1,6.8c3.1,2.4,6.7,4.2,9.1,7.4c2.1,2.9,2.9,6,5.5,8.5c1.6,1.6,2.7,3.4,3.7,5.4c0.8,1.5,1.3,3.6,2.3,5.1    c0.1,0.2,0.2,0.3,0.4,0.5"/>
		<path id="path126" class="st10" d="M1830.6,1500.7h0.1l15.3,0.8l-0.2-44c-0.2-0.1-1.6-0.1-2.2-0.3c-0.8-0.4-1.6-1.1-2.2-1.7    c-1.3-1.1-2.5-2.3-3.6-3.7c-2.7-3.2-5.5-7-7.8-10.5c-2.9-4.4-4.9-9.9-7-14.7c-1.9-4.3-4.5-8.9-8.3-11.7c-2-1.4-5.2,0.5-7,1.6    c-2.2,1.4-5,2.4-7,4c-1.1,0.8-1.9,1.8-3,2.5c-2.9,1.9-6.1,3.6-9,5.3c-3.6,2-4-0.9-6-3.4c-1.1-1.4-2.9-3.8-4.7-4.2"/>
		<path id="path128" class="st10" d="M1226.3,6.3c0.1,0,0.2,0,0.5,0.1c10.4,3,171.8,73.9,179.6,72.4c1.2-3.3,1-7.3,2.4-10.3    c1.4-2.9,4.7-3.1,6.3-6.1c1.5-2.7-0.2-5.4,0.4-8.2c1-4.4,4.4-2.9,7-5.5c5.5-5.4-3-12,6.5-15.2c9-3.1,6.6,8.8-1.1,9.7    c2.2,2.3,5.4,2.9,7.4,5.3c2.9,3.6,4.1,5.4,4.9-0.5c0.7-5.1,2.2-5.5,5.7-1.5c2.9,3.3,3.9,3.9,7.9,5.5c1.4,0.6,3.2,1.5,4.2,2.7    c1.4,1.7,0.3,3,1.2,4.6c2.2,4,5.1,1,8.6,0.9c10.6-0.3,3.1,11.3,7,15.6c3,3.4,7.6,3.8,4.6,9.9c-1.2,2.4-3.1,2.2-3,5.4    c0.1,3.2,1.8,2.5,3.6,4.6c3.2,3.8-0.1,8.6,4.3,11.4c1.9,1.2,51.3,20.3,55.5,19.8c-0.5-3.6-5.8-5.4-1.6-7.4c2.7-1.2,8.6,0.1,11,1.3    c11.6,5.3,89.2,32.5,95.8,35.4"/>
		<path id="path130" class="st10" d="M1810.2,631.1l0.9,0.8l157.5,132.2l9.3,61.1l-28.3,52.4l-78.1,29l13.2,53.4l2,153.3l-8,15    l0,41.7c1.5,2.9,2.7-1.6,2.3,5.1c-0.1,2.6-1.7,3.3-3.1,5.1c-1.7,2.2-0.6,5.1,0.4,7.4c1,2.3,2.6,5.4,4.4,7.2    c1.9,1.8,1.9,4.1,3.5,6.2c1.5,2,3.5,2.2,3.1,5.1c-0.1,1.2-0.8,2.1-1.1,3.3c-0.3,1.6,0,3.6,0,5.2c0,2.8,0.3,6,1.5,8.6    c0.8,1.8,2.4,2.8,1.6,4.9c-0.8,1.8-3.5,2.4-4.9,3.5c-2.6,1.9-4.8,2.1-8,2.7c-4,0.7-7.2,2.1-10.9,3.5c-5.7,2.2-12.1,1.4-17.7,3.7    c-4.9,2-9.3,5.1-11.6,10.1"/>
	</g>
	<path id="path132" class="st11" d="M257.9,1038.8l16,3c2.4-1.9,12.6-9.7,14.4-7.7c2.3,2.4-6.3,11.1-8.3,13.7l3,17.9l-4.4,4.2   l-5.5-14.8l-5.6,5.1l2.1,6.7l-4.3,3.6l-4.1-9.8l-10.2-5.3l4.4-4.4l6.7,3.3l5-5.2l-13.6-6L257.9,1038.8z"/>
	<path id="path134" class="st11" d="M1341.1,644.9l16,3c2.4-1.9,12.6-9.7,14.4-7.7c2.3,2.4-6.4,11.1-8.3,13.7l3,17.9l-4.4,4.2   l-5.6-14.8l-5.6,5.1l2.1,6.7l-4.3,3.6l-4.1-9.8l-10.2-5.3l4.4-4.4l6.7,3.3l5-5.2l-13.6-6L1341.1,644.9z"/>
	<path id="path136" class="st11" d="M1657.5,1242.7l16,2.9c2.4-1.9,12.6-9.7,14.4-7.7c2.3,2.4-6.4,11.1-8.3,13.7l3,17.9l-4.4,4.2   l-5.5-14.8l-5.6,5.1l2.1,6.7l-4.3,3.6l-4.1-9.8l-10.2-5.3l4.4-4.4l6.7,3.3l5-5.2l-13.6-6L1657.5,1242.7z"/>
	<g id="Labels" class="st12">
		<text transform="matrix(1 0 0 1 1030.5 635.7001)" class="st13 st14">C</text>
		<text transform="matrix(1 0 0 1 1074.5 1251.7002)" class="st13 st14">D</text>
		<text transform="matrix(1 0 0 1 1513.082 941.4404)" class="st13 st14">B</text>
		<text transform="matrix(1 0 0 1 1357.2012 324.0341)" class="st13 st14">E</text>
		<text transform="matrix(1 0 0 1 438.5 1561.501)" class="st13 st14">A</text>
	</g>
</g>
<sodipodi:namedview xmlns:inkscape="http://www.inkscape.org/namespaces/inkscape" xmlns:sodipodi="http://sodipodi.sourceforge.net/DTD/sodipodi-0.dtd" bordercolor="#666666" borderopacity="1" gridtolerance="10" guidetolerance="10" id="namedview138" inkscape:current-layer="katman_1" inkscape:cx="250" inkscape:cy="247.2" inkscape:pageopacity="0" inkscape:pageshadow="2" inkscape:window-height="1000" inkscape:window-maximized="1" inkscape:window-width="1680" inkscape:window-x="-8" inkscape:window-y="-8" inkscape:zoom="1.5230583" objecttolerance="10" pagecolor="#ffffff" showgrid="false">
	</sodipodi:namedview>
</svg>